<?xml version="1.0" encoding="UTF-8"?>
<svg xmlns="http://www.w3.org/2000/svg" viewBox="0 0 2857.03 2091.53">
  <defs>
    <style>
      .cls-1 {
        fill: #5479f7;
      }

      .cls-1, .cls-2, .cls-3, .cls-4 {
        stroke-width: 0px;
      }

      .cls-3 {
        fill: #e2eaff;
      }

      .cls-4 {
        fill: #fff;
      }
    </style>
  </defs>
  <g id="Background">
    <rect class="cls-4" y="0" width="2857.03" height="2091.53"/>
  </g>
  <g id="Illustration">
    <g id="App_life_cycle" data-name="App life cycle">
      <g>
        <path class="cls-2" d="m1805.11,300.3h-708.12c-1.22,0-2.2-.98-2.2-2.2s.98-2.2,2.2-2.2h708.12c1.22,0,2.2.98,2.2,2.2s-.98,2.2-2.2,2.2Z"/>
        <path class="cls-2" d="m223.61,882.66c-1.22,0-2.2-.98-2.2-2.2v-39.25c0-145.66,56.72-282.6,159.72-385.6,103-103,239.94-159.72,385.6-159.72,1.22,0,2.2.98,2.2,2.2s-.98,2.2-2.2,2.2c-298.26,0-540.91,242.65-540.91,540.91v39.25c0,1.22-.98,2.2-2.2,2.2Z"/>
        <path class="cls-2" d="m2633.41,882.66c-1.22,0-2.2-.98-2.2-2.2v-84.32c0-273.41-222.43-495.84-495.84-495.84-1.22,0-2.2-.98-2.2-2.2s.98-2.2,2.2-2.2c133.62,0,259.25,52.04,353.73,146.52s146.52,220.11,146.52,353.73v84.32c0,1.22-.98,2.2-2.2,2.2Z"/>
        <path class="cls-2" d="m2133.55,1795.63c-1.22,0-2.2-.98-2.2-2.2s.98-2.2,2.2-2.2c274.41,0,497.66-223.25,497.66-497.66v-82.86c0-1.22.98-2.2,2.2-2.2s2.2.98,2.2,2.2v82.86c0,134.11-52.22,260.18-147.05,355.01-94.83,94.83-220.9,147.05-355.01,147.05Z"/>
        <path class="cls-2" d="m1803.29,1795.28h-692.81c-1.22,0-2.2-.98-2.2-2.2s.98-2.2,2.2-2.2h692.81c1.22,0,2.2.98,2.2,2.2s-.98,2.2-2.2,2.2Z"/>
        <path class="cls-2" d="m780.22,1795.63c-149.26,0-289.59-58.13-395.13-163.67s-163.67-245.87-163.67-395.13v-26.11c0-1.22.98-2.2,2.2-2.2s2.2.98,2.2,2.2v26.11c0,305.7,248.7,554.4,554.4,554.4,1.22,0,2.2.98,2.2,2.2s-.98,2.2-2.2,2.2Z"/>
        <path class="cls-2" d="m2300.98,1704.8c-.83,0-1.62-.47-2-1.27-.51-1.1-.04-2.41,1.06-2.93,136.53-63.83,235.76-184.04,272.26-329.81.29-1.18,1.48-1.91,2.67-1.6,1.18.29,1.9,1.49,1.6,2.67-18.05,72.09-52.79,140.57-100.48,198.04-47.21,56.91-107.45,103.48-174.18,134.68-.3.14-.62.21-.93.21Z"/>
        <path class="cls-2" d="m218.16,597.94c-.27,0-.55-.05-.82-.16-1.13-.45-1.68-1.73-1.23-2.86,59.41-148.66,180.38-263.28,331.91-314.48,1.15-.39,2.4.23,2.79,1.38.39,1.15-.23,2.4-1.38,2.79-150.3,50.79-270.3,164.49-329.23,311.95-.34.86-1.17,1.38-2.04,1.38Z"/>
        <path class="cls-2" d="m2573.7,717.91c-.98,0-1.87-.66-2.13-1.65-30.14-117.15-102.24-219.17-203-287.24-1.01-.68-1.27-2.05-.59-3.06.68-1.01,2.05-1.27,3.06-.59,101.66,68.68,174.39,171.6,204.8,289.79.3,1.18-.41,2.38-1.58,2.68-.18.05-.37.07-.55.07Z"/>
        <path class="cls-2" d="m519.53,1795.93c-.29,0-.58-.06-.86-.17-118.51-50.13-216.89-140.51-277.04-254.49-.57-1.08-.15-2.41.92-2.98,1.08-.57,2.41-.15,2.98.92,59.67,113.09,157.28,202.76,274.86,252.49,1.12.47,1.64,1.77,1.17,2.89-.35.84-1.17,1.34-2.03,1.34Z"/>
      </g>
      <g>
        <g>
          <path class="cls-4" d="m1915.75,1486.9c-116.72,0-226.46-45.45-308.99-127.99l-178.97-178.11-183.72,183.11c-.41.4-.82.8-1.23,1.2-81.77,78.53-189.25,121.78-302.66,121.78-240.95,0-436.98-196.03-436.98-436.98s196.03-436.98,436.98-436.98c124.31,0,242.83,53.05,325.71,145.67l161.78,161,186.47-185.86c.6-.6,1.22-1.2,1.84-1.78,81.39-76.75,187.85-119.02,299.76-119.02,240.95,0,436.98,196.03,436.98,436.98s-196.03,436.98-436.98,436.98Zm-356.88-436.75l178.6,177.73c47.74,47.74,111,73.94,178.29,73.94,138.9,0,251.91-113.01,251.91-251.91s-113.01-251.91-251.91-251.91c-64.12,0-125.13,24.06-171.92,67.79l-184.96,184.35Zm-618.68-252.14c-138.9,0-251.91,113.01-251.91,251.91s113.01,251.91,251.91,251.91c65.11,0,126.83-24.72,173.89-69.64l182.53-181.93-163.26-162.47c-1.43-1.42-2.8-2.88-4.13-4.39-47.85-54.27-116.75-85.39-189.02-85.39Z"/>
          <path class="cls-2" d="m1915.75,1489.1c-117.31,0-227.6-45.68-310.55-128.63l-177.42-176.56-182.16,181.57c-.42.42-.84.83-1.26,1.23-82.18,78.93-190.21,122.39-304.18,122.39-242.17,0-439.18-197.02-439.18-439.18s197.01-439.18,439.18-439.18c124.78,0,244.09,53.36,327.36,146.4l160.14,159.36,184.92-184.31c.62-.62,1.25-1.23,1.88-1.83,81.8-77.14,188.79-119.62,301.27-119.62,242.17,0,439.18,197.02,439.18,439.18s-197.01,439.18-439.18,439.18Zm-487.97-310.5c.56,0,1.12.21,1.55.64l178.97,178.11c82.12,82.12,191.3,127.35,307.44,127.35,239.74,0,434.78-195.04,434.78-434.78s-195.04-434.78-434.78-434.78c-111.35,0-217.27,42.06-298.25,118.43-.61.57-1.21,1.15-1.8,1.74l-186.47,185.86c-.86.85-2.25.86-3.11,0l-161.78-161c-82.52-92.2-200.64-145.03-324.16-145.03-239.74,0-434.78,195.04-434.78,434.78s195.04,434.78,434.78,434.78c112.83,0,219.77-43.03,301.13-121.17.4-.39.8-.78,1.2-1.17l183.71-183.11c.43-.43.99-.64,1.55-.64Zm487.97,125.42c-67.88,0-131.75-26.49-179.84-74.58l-178.59-177.73c-.42-.41-.65-.97-.65-1.56s.23-1.15.65-1.56l184.96-184.35c47.24-44.14,108.84-68.43,173.48-68.43,140.12,0,254.11,113.99,254.11,254.11s-113.99,254.11-254.11,254.11Zm-353.76-253.87l177.03,176.17c47.27,47.27,110.04,73.3,176.73,73.3,137.69,0,249.7-112.02,249.7-249.7s-112.02-249.7-249.7-249.7c-63.52,0-124.05,23.86-170.42,67.19l-183.34,182.74Zm-621.8,253.87c-140.12,0-254.11-113.99-254.11-254.11s113.99-254.11,254.11-254.11c72.91,0,142.41,31.39,190.68,86.13,1.3,1.48,2.66,2.92,4.03,4.28l163.26,162.47c.42.41.65.97.65,1.56s-.23,1.15-.65,1.56l-182.53,181.93c-47.5,45.34-109.79,70.28-175.44,70.28Zm0-503.81c-137.69,0-249.7,112.02-249.7,249.7s112.02,249.7,249.7,249.7c64.51,0,125.73-24.52,172.37-69.03l180.93-180.33-161.69-160.91c-1.44-1.43-2.86-2.94-4.23-4.49-47.44-53.79-115.73-84.64-187.37-84.64Z"/>
        </g>
        <g>
          <path class="cls-1" d="m1253.81,1316.1c-23.73,0-47.46-9.07-65.54-27.21-36.08-36.2-35.98-94.79.22-130.87l326.34-325.27c36.19-36.08,94.78-35.99,130.87.21,36.08,36.2,35.98,94.79-.22,130.87l-326.34,325.27c-18.06,18-41.69,27-65.33,27Z"/>
          <path class="cls-4" d="m1253.81,1319.4c-25.66,0-49.76-10.01-67.88-28.18-37.3-37.43-37.21-98.23.22-135.54l326.34-325.27c37.43-37.3,98.23-37.21,135.54.22,37.3,37.43,37.21,98.23-.22,135.54l-326.34,325.27c-18.09,18.03-42.12,27.96-67.66,27.96Zm326.34-510.3c-22.8,0-45.6,8.66-62.99,25.99l-326.34,325.27c-34.85,34.73-34.94,91.34-.21,126.2,16.87,16.92,39.31,26.24,63.2,26.24s46.15-9.25,63-26.03l326.34-325.27c34.85-34.73,34.94-91.34.21-126.2-17.41-17.46-40.31-26.2-63.21-26.2Z"/>
        </g>
        <g>
          <path class="cls-1" d="m2062.86,1454.05c-34.67,0-67.91-19.58-83.72-53-21.84-46.2-2.1-101.37,44.1-123.21,87.72-41.48,144.41-130.94,144.41-227.91s-56.68-186.43-144.4-227.9c-46.2-21.85-65.95-77.01-44.1-123.21,21.84-46.2,77.01-65.95,123.21-44.1,73.78,34.89,136.23,89.62,180.61,158.29,45.64,70.62,69.76,152.55,69.76,236.93s-24.12,166.31-69.76,236.93c-44.38,68.67-106.84,123.41-180.62,158.29-12.77,6.04-26.24,8.9-39.49,8.9Z"/>
          <path class="cls-4" d="m2062.86,1457.35c-36.9,0-70.94-21.55-86.71-54.9-22.59-47.78-2.09-105.02,45.68-127.61,86.58-40.93,142.52-129.22,142.52-224.92s-55.94-183.98-142.51-224.92c-23.14-10.94-40.64-30.25-49.27-54.35-8.63-24.1-7.35-50.12,3.59-73.27,10.94-23.14,30.24-40.64,54.34-49.27,24.1-8.62,50.12-7.35,73.27,3.59,74.33,35.15,137.26,90.3,181.97,159.48,45.98,71.15,70.29,153.7,70.29,238.72s-24.31,167.57-70.29,238.72c-44.71,69.18-107.64,124.33-181.98,159.48-12.94,6.12-26.7,9.22-40.9,9.22Zm0-808.27c-10.14,0-20.3,1.75-30.13,5.27-22.44,8.03-40.41,24.32-50.6,45.87-10.19,21.55-11.38,45.77-3.35,68.22,8.03,22.44,24.32,40.41,45.87,50.6,88.87,42.02,146.29,132.65,146.29,230.89s-57.43,188.87-146.3,230.89c-44.48,21.03-63.56,74.33-42.53,118.81,14.68,31.05,46.37,51.11,80.74,51.11,13.22,0,26.03-2.89,38.08-8.59,73.23-34.62,135.21-88.94,179.25-157.1,45.29-70.08,69.23-151.39,69.23-235.14s-23.94-165.06-69.23-235.13c-44.04-68.15-106.03-122.48-179.25-157.1-12.11-5.73-25.07-8.61-38.08-8.61Z"/>
        </g>
        <g>
          <path class="cls-1" d="m645.32,1320.47c-31.32,0-61.88-15.9-79.27-44.66-41.12-67.99-62.85-146.1-62.85-225.89,0-240.95,196.03-436.98,436.98-436.98,125.37,0,244.86,53.96,327.84,148.05,33.8,38.33,30.13,96.81-8.2,130.61-38.32,33.8-96.8,30.13-130.61-8.2-47.85-54.27-116.75-85.39-189.02-85.39-138.9,0-251.91,113-251.91,251.91,0,46.02,12.5,91.01,36.14,130.11,26.45,43.73,12.44,100.62-31.29,127.07-14.97,9.06-31.49,13.37-47.8,13.37Z"/>
          <path class="cls-4" d="m645.32,1323.77c-33.89,0-64.58-17.29-82.09-46.25-41.43-68.5-63.33-147.2-63.33-227.6,0-242.77,197.51-440.28,440.28-440.28,126.32,0,246.71,54.37,330.31,149.17,16.93,19.2,25.37,43.85,23.77,69.4-1.6,25.55-13.06,48.95-32.26,65.88-19.2,16.93-43.82,25.37-69.39,23.77-25.55-1.6-48.95-13.06-65.88-32.26-47.23-53.56-115.22-84.27-186.55-84.27-137.08,0-248.6,111.52-248.6,248.6,0,45.42,12.33,89.82,35.66,128.4,13.25,21.9,17.18,47.66,11.05,72.52-6.12,24.86-21.56,45.84-43.46,59.09-14.98,9.06-32.1,13.85-49.51,13.85Zm294.86-707.53c-239.13,0-433.68,194.55-433.68,433.68,0,79.19,21.57,156.71,62.38,224.18,16.31,26.97,44.89,43.07,76.44,43.07,16.21,0,32.15-4.46,46.09-12.89,20.39-12.34,34.77-31.88,40.47-55.02,5.7-23.14,2.04-47.12-10.29-67.52-23.95-39.61-36.62-85.19-36.62-131.82,0-140.72,114.49-255.21,255.21-255.21,73.22,0,143.02,31.53,191.5,86.51,15.77,17.88,37.55,28.55,61.34,30.04,23.83,1.49,46.74-6.37,64.61-22.13,17.88-15.77,28.55-37.55,30.04-61.34,1.49-23.79-6.37-46.74-22.13-64.61-82.35-93.38-200.93-146.93-325.36-146.93Z"/>
        </g>
      </g>
      <g>
        <g>
          <g>
            <circle class="cls-4" cx="223.61" cy="1045.59" r="165.13"/>
            <path class="cls-1" d="m223.61,1212.92c-92.27,0-167.33-75.07-167.33-167.33s75.07-167.33,167.33-167.33,167.33,75.07,167.33,167.33-75.07,167.33-167.33,167.33Zm0-330.26c-89.84,0-162.93,73.09-162.93,162.93s73.09,162.93,162.93,162.93,162.93-73.09,162.93-162.93-73.09-162.93-162.93-162.93Z"/>
          </g>
          <g>
            <path class="cls-1" d="m279.65,1101.49c-.56,0-1.13-.22-1.56-.65-.86-.86-.86-2.25,0-3.11l52.15-52.15-52.15-52.15c-.86-.86-.86-2.25,0-3.11.86-.86,2.25-.86,3.11,0l53.7,53.7c.86.86.86,2.25,0,3.11l-53.7,53.7c-.43.43-.99.65-1.56.65Z"/>
            <path class="cls-1" d="m167.57,1101.49c-.56,0-1.13-.22-1.56-.65l-53.7-53.7c-.86-.86-.86-2.25,0-3.11l53.7-53.7c.86-.86,2.25-.86,3.11,0,.86.86.86,2.25,0,3.11l-52.15,52.15,52.15,52.15c.86.86.86,2.25,0,3.11-.43.43-.99.65-1.56.65Z"/>
            <path class="cls-1" d="m195.01,1102.8c-.34,0-.68-.08-1-.24-1.08-.55-1.52-1.88-.97-2.96l55.99-110.03c.55-1.09,1.88-1.52,2.96-.97,1.08.55,1.52,1.88.97,2.96l-55.99,110.03c-.39.77-1.16,1.2-1.97,1.2Z"/>
          </g>
        </g>
        <g>
          <g>
            <circle class="cls-4" cx="931.86" cy="298.1" r="165.13" transform="translate(62.15 746.23) rotate(-45)"/>
            <path class="cls-1" d="m931.86,465.43c-92.27,0-167.33-75.07-167.33-167.33s75.07-167.33,167.33-167.33,167.33,75.07,167.33,167.33-75.07,167.33-167.33,167.33Zm0-330.26c-89.84,0-162.93,73.09-162.93,162.93s73.09,162.93,162.93,162.93,162.93-73.09,162.93-162.93-73.09-162.93-162.93-162.93Z"/>
          </g>
          <g>
            <path class="cls-1" d="m884.12,373.2c-3.53,0-6.85-1.36-9.37-3.85-2.76-2.72-4.11-6.35-3.7-9.94.39-3.44,2.35-6.44,5.53-8.48l76.18-77.16c-7.21-13.37-5.01-29.31,5.68-40.14,8.87-8.98,21.5-12.6,33.78-9.67.77.18,1.39.77,1.61,1.54.22.76.01,1.59-.55,2.15l-18.58,18.82.14,21.49,21.5-.13,18.58-18.82c.56-.57,1.37-.78,2.15-.58.77.21,1.36.82,1.55,1.59,3.08,12.25-.37,24.93-9.24,33.91-10.29,10.43-25.92,13.49-39.32,7.86l-76.46,77.44c-2.5,2.53-5.84,3.94-9.4,3.97h-.09Zm99.71-145.83c-8.28,0-16.25,3.27-22.25,9.35-9.82,9.94-11.46,24.18-4.19,36.28.52.86.38,1.97-.32,2.68l-77.53,78.53c-.12.13-.26.24-.41.33-2.17,1.34-3.45,3.2-3.7,5.37-.26,2.24.63,4.54,2.41,6.31,1.7,1.68,4.04,2.57,6.33,2.58,2.39-.02,4.62-.96,6.3-2.66l77.53-78.53c.66-.67,1.66-.85,2.51-.45,12.03,5.68,26.4,3.13,35.75-6.33,6.81-6.9,9.98-16.29,8.85-25.73l-16.26,16.47c-.41.42-.97.65-1.55.66l-24.61.15h-.01c-1.21,0-2.19-.98-2.2-2.19l-.16-24.61c0-.58.22-1.15.63-1.56l16.27-16.47c-1.13-.12-2.25-.18-3.37-.18Zm24,55.01h.02-.02Z"/>
            <g>
              <path class="cls-1" d="m997.18,372.56c-2.77,0-5.37-1.07-7.34-3.01l-50.73-49.51c-.87-.85-.89-2.24-.04-3.11.85-.87,2.25-.89,3.11-.04l50.74,49.52c2.38,2.35,6.22,2.33,8.56-.05,1.14-1.15,1.76-2.67,1.75-4.29-.01-1.62-.65-3.13-1.8-4.27l-50.73-49.51c-.87-.85-.89-2.24-.04-3.11.85-.87,2.24-.88,3.11-.04l50.74,49.52c2,1.97,3.1,4.59,3.12,7.38.02,2.79-1.05,5.42-3.01,7.41-1.96,1.99-4.58,3.09-7.37,3.11h-.07Z"/>
              <path class="cls-1" d="m925.92,306.3c-.55,0-1.11-.21-1.54-.63l-31.07-30.32c-.42-.41-.66-.97-.66-1.56,0-.58.22-1.15.63-1.57l11.59-11.74c.85-.86,2.24-.87,3.1-.03l31.07,30.32c.87.85.89,2.24.04,3.11-.85.87-2.24.89-3.11.04l-29.5-28.79-8.5,8.61,29.48,28.77c.87.85.89,2.24.04,3.11-.43.44-1,.66-1.58.66Z"/>
              <path class="cls-1" d="m907.92,246.91c-.58,0-1.14-.23-1.55-.63l-10.28-10.15c-.87-.86-.88-2.25-.02-3.11l2.91-2.95c10.43-10.57,24.88-9.26,37.7,3.4.42.41.65.97.66,1.55,0,.58-.23,1.14-.63,1.56l-2.6,2.64c-.86.86-2.25.87-3.11.02-2.28-2.25-5.32-2.86-9.04-1.82-3.22.9-6.71,3.02-9.33,5.68l-3.13,3.17c-.41.42-.97.65-1.55.66h-.01Zm-7.17-12.37l7.15,7.06,1.58-1.6c3.14-3.18,7.36-5.74,11.29-6.83,3.33-.93,6.4-.87,9.07.16-6.27-4.82-17.53-10.48-27.72-.17l-1.36,1.38Z"/>
              <path class="cls-1" d="m874.1,291.38c-.56,0-1.12-.21-1.55-.63l-12.58-12.42c-.87-.86-.88-2.25-.02-3.11l8.5-8.61c.41-.42.97-.65,1.55-.66h.02c.58,0,1.14.23,1.55.63l12.58,12.42c.42.41.65.97.66,1.55,0,.58-.23,1.14-.63,1.56l-8.51,8.61c-.43.43-1,.65-1.57.65Zm-9.46-14.64l9.45,9.33,5.41-5.48-9.45-9.33-5.41,5.48Z"/>
              <path class="cls-1" d="m885.41,285.54c-.58,0-1.14-.23-1.55-.63l-18.2-17.97c-.87-.86-.88-2.25-.02-3.11l30.43-30.82c.41-.42.97-.65,1.55-.66h.01c.58,0,1.14.23,1.55.63l18.2,17.97c.87.86.88,2.25.02,3.11l-30.43,30.82c-.41.42-.97.65-1.55.66h-.02Zm-15.09-20.19l15.07,14.87,27.33-27.69-15.07-14.87-27.33,27.69Z"/>
              <path class="cls-1" d="m864.4,306.82c-.58,0-1.14-.23-1.55-.63l-18.2-17.97c-.87-.85-.88-2.25-.02-3.11l12.49-12.68c.41-.41.97-.65,1.55-.66h.02c.58,0,1.14.23,1.55.63l18.2,17.97c.87.85.88,2.25.02,3.11l-12.49,12.68c-.41.41-.97.65-1.55.66h-.02Zm-15.09-20.19l15.07,14.87,9.4-9.54-15.07-14.87-9.4,9.54Z"/>
            </g>
          </g>
        </g>
        <g>
          <g>
            <circle class="cls-4" cx="1427.96" cy="298.1" r="165.13" transform="translate(207.45 1097.03) rotate(-45)"/>
            <path class="cls-1" d="m1427.96,465.43c-92.27,0-167.33-75.07-167.33-167.33s75.07-167.33,167.33-167.33,167.33,75.07,167.33,167.33-75.07,167.33-167.33,167.33Zm0-330.26c-89.84,0-162.93,73.09-162.93,162.93s73.09,162.93,162.93,162.93,162.93-73.09,162.93-162.93-73.09-162.93-162.93-162.93Z"/>
          </g>
          <g>
            <path class="cls-1" d="m1428.34,252c-.13,0-.25-.01-.38-.03l-82.61-14.44c-1.05-.18-1.82-1.1-1.82-2.17,0-1.07.76-1.98,1.81-2.17l81.67-14.64c.26-.05.51-.05.77,0l82.88,14.51c1.05.19,1.91,1.2,1.91,2.27s-.87,2.1-1.93,2.27l-81.92,14.35c-.13.02-.25.03-.38.03Zm-69.98-16.67l69.98,12.23,69.77-12.22-70.7-12.38-69.04,12.37Z"/>
            <g>
              <path class="cls-1" d="m1428.32,374.39c-.13,0-.26-.01-.38-.03l-82.93-14.71c-1.05-.18-1.82-1.1-1.82-2.17v-122.18c0-.65.29-1.27.78-1.68.5-.42,1.16-.59,1.79-.49l82.93,14.37c1.06.18,1.83,1.1,1.83,2.17v122.51c0,.65-.29,1.27-.79,1.69-.4.33-.9.51-1.41.51Zm-80.73-18.76l78.53,13.93v-118.03l-78.53-13.61v117.72Z"/>
              <polygon class="cls-1" points="1395.89 257.57 1395.89 243.95 1377.83 240.82 1377.83 254.37 1395.89 257.57"/>
            </g>
            <path class="cls-1" d="m1428.32,374.39c-.51,0-1.01-.18-1.41-.51-.5-.42-.79-1.04-.79-1.69v-122.51c0-1.07.77-1.98,1.82-2.17l82.21-14.39c.64-.11,1.3.07,1.8.48.5.42.78,1.04.78,1.69v122.27c0,1.07-.77,1.98-1.81,2.17l-82.21,14.64c-.13.02-.26.03-.38.03Zm2.2-122.87v118.04l77.81-13.86v-117.8l-77.81,13.62Z"/>
          </g>
        </g>
        <g>
          <g>
            <circle class="cls-4" cx="1970.24" cy="298.1" r="165.13" transform="translate(366.28 1480.48) rotate(-45)"/>
            <path class="cls-1" d="m1970.24,465.43c-92.27,0-167.33-75.07-167.33-167.33s75.07-167.33,167.33-167.33,167.33,75.07,167.33,167.33-75.07,167.33-167.33,167.33Zm0-330.26c-89.84,0-162.93,73.09-162.93,162.93s73.09,162.93,162.93,162.93,162.93-73.09,162.93-162.93-73.09-162.93-162.93-162.93Z"/>
          </g>
          <g>
            <g>
              <path class="cls-1" d="m1975.84,352.52c-.06,0-.12,0-.18,0-35.55-2.81-63.39-32.3-63.39-67.12,0-37.14,30.96-67.36,69.01-67.36s68.98,30.22,68.98,67.36c0,8.48-1.61,16.77-4.78,24.64-.46,1.13-1.75,1.67-2.87,1.22-1.13-.46-1.67-1.74-1.22-2.87,2.96-7.34,4.47-15.07,4.47-22.99,0-34.72-28.97-62.96-64.57-62.96s-64.61,28.24-64.61,62.96c0,32.55,26.06,60.1,59.34,62.73,1.21.1,2.12,1.16,2.02,2.37-.09,1.15-1.06,2.03-2.19,2.03Z"/>
              <g>
                <path class="cls-1" d="m2056.82,338.82c0,22.23-18.53,40.26-41.35,40.26-18.76,0-34.58-12.16-39.63-28.77,1.78.16,3.6.23,5.45.23,28.2,0,52.38-17.14,62.15-41.35,8.22,7.36,13.38,17.9,13.38,29.62Z"/>
                <path class="cls-1" d="m2015.47,381.29c-19.14,0-36.31-12.47-41.74-30.33-.21-.7-.06-1.46.4-2.03.46-.57,1.17-.87,1.91-.8,1.6.15,3.31.22,5.25.22,26.71,0,50.31-15.69,60.11-39.97.27-.67.85-1.16,1.54-1.32.71-.16,1.43.03,1.97.5,8.97,8.03,14.11,19.42,14.11,31.26,0,23.41-19.54,42.46-43.55,42.46Zm-36.45-28.57c5.8,14.38,20.34,24.17,36.45,24.17,21.59,0,39.15-17.07,39.15-38.06,0-9.57-3.76-18.82-10.42-25.82-11.15,24.25-35.5,39.75-62.91,39.75-.79,0-1.54-.01-2.27-.03Z"/>
              </g>
              <path class="cls-1" d="m1893.79,377.41c-.56,0-1.13-.21-1.56-.64-.86-.86-.86-2.25,0-3.11l42.08-42.08c.86-.86,2.25-.86,3.11,0s.86,2.25,0,3.11l-42.08,42.08c-.43.43-.99.64-1.56.64Z"/>
            </g>
            <g>
              <path class="cls-3" d="m2019.08,311.51c1.5-2.54,3.58-4.53,6.75-5.5,3.15-.16,4.21,2.09,2.78,3.28-3.57.57-5.73,2.44-6.9,5.23l-2.64-3.01Z"/>
              <path class="cls-3" d="m2033.54,326.47c1.5-2.54,3.58-4.53,6.75-5.5,3.15-.16,4.21,2.09,2.78,3.28-3.57.57-5.73,2.44-6.9,5.23l-2.64-3.01Z"/>
              <path class="cls-3" d="m1992.68,329.19c-2.94.26-5.63,1.28-7.87,3.73-1.5,2.78.08,4.7,1.76,3.92,2.05-2.98,4.67-4.12,7.69-3.97l-1.58-3.68Z"/>
              <path class="cls-3" d="m1999.96,348.68c-2.94.26-5.63,1.28-7.87,3.73-1.5,2.78.08,4.7,1.76,3.92,2.05-2.98,4.67-4.12,7.69-3.97l-1.58-3.68Z"/>
              <path class="cls-1" d="m2030.77,322.21c10.38,16.45,11.28,34.53,2.01,40.39-9.28,5.86-25.21-2.73-35.6-19.18-10.38-16.45-7.09-29.65,2.18-35.5,9.28-5.86,21.02-2.15,31.41,14.3Z"/>
              <path class="cls-3" d="m2030.77,322.21c10.38,16.45,11.28,34.53,2.01,40.39-9.28,5.86-25.21-2.73-35.6-19.18-10.38-16.45-7.09-29.65,2.18-35.5,9.28-5.86,21.02-2.15,31.41,14.3Z"/>
              <path class="cls-4" d="m1991.48,327.56c2.95-6.28,7.33-11.23,13.6-14.42,8.31,18.44,23.81,39.41,20.84,53.89-.2.96-1.29,1.44-2.11.9-15.39-10.31-27.44-22.89-32.34-40.37Z"/>
              <path class="cls-4" d="m2017.14,310.43c-6.94.26-13.2,2.36-18.59,6.89,13.73,14.86,26.97,37.32,41.46,40.24.96.19,1.83-.62,1.65-1.59-3.47-18.19-10.35-34.21-24.52-45.55Z"/>
              <path class="cls-3" d="m1990.86,326.42c4.06-5.63,9.28-9.69,16.03-11.66,4.77,19.66,16.14,43.12,10.55,56.81-.37.91-1.53,1.18-2.23.49-13.23-12.97-22.75-27.56-24.34-45.64Z"/>
              <path class="cls-3" d="m2018.36,308.98c-6.76,1.55-12.53,4.79-16.97,10.24,16.26,12.02,33.48,31.61,48.26,31.78.98.01,1.68-.95,1.32-1.87-6.82-17.22-16.56-31.67-32.61-40.15Z"/>
              <path class="cls-1" d="m2020.02,309.73c-7.24-5.46-14.51-5.79-20.69-1.88-6.31,3.99-9.86,11.36-8.27,20.83,4.74-9.6,20.58-17.35,28.95-18.94Z"/>
            </g>
          </g>
        </g>
        <g>
          <g>
            <circle class="cls-4" cx="2633.41" cy="1045.59" r="165.13"/>
            <path class="cls-1" d="m2633.41,1212.92c-92.27,0-167.33-75.07-167.33-167.33s75.07-167.33,167.33-167.33,167.33,75.07,167.33,167.33-75.07,167.33-167.33,167.33Zm0-330.26c-89.84,0-162.93,73.09-162.93,162.93s73.09,162.93,162.93,162.93,162.93-73.09,162.93-162.93-73.09-162.93-162.93-162.93Z"/>
          </g>
          <g>
            <g>
              <g>
                <g>
                  <path class="cls-4" d="m2624.37,1015.36l-7.43-7.33c-6.01-5.93-15.42-6.68-22.29-1.77l-34.43,24.61,30.77,30.38,10.65-10.78,22.73-35.1Z"/>
                  <path class="cls-1" d="m2590.99,1063.44c-.58,0-1.14-.23-1.55-.63l-30.77-30.38c-.46-.46-.7-1.09-.65-1.74s.39-1.24.92-1.62l34.43-24.61c7.76-5.55,18.33-4.71,25.12,1.99l7.43,7.33c.74.73.87,1.89.3,2.77l-22.73,35.1c-.08.12-.17.24-.28.35l-10.65,10.78c-.41.42-.97.65-1.55.66h-.02Zm-27.36-32.31l27.34,26.99,8.94-9.06,21.63-33.4-6.15-6.07c-5.26-5.2-13.45-5.85-19.46-1.55l-32.3,23.09Z"/>
                </g>
                <path class="cls-1" d="m2590.99,1061.24c-1.24,1.26-9.14-4.52-17.63-12.91-8.5-8.39-14.38-16.21-13.14-17.47,1.24-1.26,9.14,4.52,17.63,12.91,8.5,8.39,14.38,16.21,13.14,17.47Z"/>
                <g>
                  <path class="cls-4" d="m2576.53,1045.11c-2.42-2.39-4.8-4.57-6.98-6.44-2.88,2.61-5.85,5.6-8.8,9.02-10.27,11.94-15.84,24.07-18.93,32.76,3.65-1.19,7.8-2.83,12.19-5.08,6.07-3.11,10.97-6.56,14.75-9.64-1.83,1.56-4.22,3.98-6.27,7.42-1.25,2.1-2.08,4.08-2.64,5.75,4.48-2.58,9.72-6.09,15.1-10.83,4.65-4.09,8.41-8.23,11.43-12.03-2.37-3.09-5.82-6.94-9.85-10.92Z"/>
                  <path class="cls-1" d="m2541.82,1082.65c-.58,0-1.15-.23-1.58-.66-.59-.6-.78-1.48-.5-2.27,4.41-12.41,10.91-23.67,19.34-33.46,2.77-3.22,5.8-6.32,8.99-9.21.82-.74,2.06-.76,2.91-.04,2.31,1.98,4.7,4.18,7.1,6.54h0c3.95,3.91,7.52,7.87,10.05,11.15.61.8.61,1.92-.02,2.71-3.52,4.44-7.46,8.59-11.7,12.32-4.76,4.19-9.96,7.92-15.46,11.08-.79.46-1.78.38-2.49-.2-.71-.58-.98-1.54-.69-2.4.34-1.02.74-2.03,1.19-3.02-1.29.75-2.61,1.47-3.93,2.15-4.01,2.06-8.22,3.81-12.51,5.21-.22.07-.45.11-.68.11Zm27.77-41.02c-2.53,2.38-4.94,4.9-7.17,7.5-7.05,8.2-12.7,17.48-16.84,27.63,2.53-.99,5.02-2.11,7.43-3.35,5.09-2.61,9.92-5.77,14.36-9.39.94-.77,2.31-.63,3.08.3.77.93.66,2.3-.26,3.09-1.88,1.6-3.52,3.43-4.89,5.43,2.85-1.98,5.59-4.13,8.19-6.42,3.61-3.18,6.99-6.67,10.06-10.4-2.3-2.84-5.3-6.1-8.58-9.34-1.81-1.79-3.62-3.48-5.39-5.05Z"/>
                </g>
              </g>
              <g>
                <g>
                  <path class="cls-4" d="m2664.08,1054.57l7.43,7.33c6.01,5.93,6.88,15.33,2.05,22.27l-24.17,34.74-30.77-30.38,10.65-10.78,34.81-23.18Z"/>
                  <path class="cls-1" d="m2649.4,1121.11c-.58,0-1.13-.23-1.55-.63l-30.77-30.38c-.87-.86-.88-2.25-.02-3.11l10.65-10.78c.11-.11.22-.2.35-.29l34.81-23.18c.87-.58,2.03-.47,2.77.26l7.43,7.33c6.79,6.7,7.77,17.26,2.32,25.09l-24.17,34.74c-.37.53-.96.88-1.61.94-.07,0-.14,0-.2,0Zm-27.65-32.6l27.34,26.99,22.67-32.59c4.22-6.07,3.47-14.25-1.79-19.44l-6.15-6.08-33.13,22.06-8.94,9.06Z"/>
                </g>
                <path class="cls-1" d="m2618.63,1088.53c-1.24,1.26,4.64,9.08,13.14,17.47,8.5,8.39,16.39,14.17,17.63,12.91,1.24-1.26-4.64-9.08-13.14-17.47-8.5-8.39-16.39-14.17-17.63-12.91Z"/>
                <g>
                  <path class="cls-4" d="m2634.94,1102.78c2.42,2.39,4.63,4.74,6.52,6.9-2.57,2.92-5.52,5.93-8.9,8.91-11.81,10.42-23.86,16.15-32.51,19.35,1.15-3.67,2.73-7.83,4.92-12.26,3.04-6.11,6.42-11.06,9.45-14.87-1.54,1.85-3.92,4.27-7.34,6.36-2.08,1.28-4.05,2.13-5.72,2.71,2.52-4.51,5.97-9.8,10.63-15.24,4.03-4.7,8.12-8.51,11.89-11.58,3.12,2.33,7.01,5.73,11.05,9.71Z"/>
                  <path class="cls-1" d="m2600.05,1140.14c-.55,0-1.1-.21-1.52-.61-.61-.58-.84-1.45-.58-2.25,1.35-4.31,3.05-8.54,5.05-12.58.66-1.34,1.36-2.66,2.1-3.96-.98.46-1.98.87-3,1.22-.86.3-1.83.04-2.41-.66-.59-.7-.68-1.69-.24-2.49,3.09-5.53,6.76-10.78,10.89-15.59,3.67-4.28,7.77-8.27,12.17-11.85.78-.64,1.91-.66,2.71-.06,3.32,2.49,7.32,6,11.28,9.91h0c2.41,2.39,4.65,4.75,6.63,7.02.73.83.72,2.08,0,2.9-2.84,3.22-5.9,6.28-9.09,9.11-9.69,8.55-20.86,15.19-33.21,19.76-.25.09-.51.14-.76.14Zm14.38-31.53c.49,0,.98.16,1.39.49.94.76,1.09,2.13.34,3.08-3.56,4.49-6.66,9.36-9.2,14.48-1.2,2.43-2.29,4.93-3.25,7.47,10.1-4.26,19.3-10.03,27.41-17.19,2.58-2.27,5.06-4.71,7.41-7.27-1.58-1.74-3.29-3.52-5.12-5.33-3.28-3.24-6.58-6.19-9.45-8.46-3.69,3.12-7.14,6.54-10.27,10.19-2.26,2.63-4.37,5.4-6.31,8.27,1.99-1.4,3.79-3.06,5.37-4.96.43-.52,1.06-.79,1.69-.79Z"/>
                </g>
              </g>
            </g>
            <g>
              <g>
                <path class="cls-4" d="m2709.44,1011.05l15.24-48.73c1.7-5.42-3.44-10.49-8.84-8.73l-48.53,15.86c-13.4,4.38-25.56,11.9-35.47,21.93-6.62,6.7-12.12,14.42-16.31,22.86l-18.03,34.92c-1.34,1.35,4.99,9.77,14.14,18.8,9.14,9.03,17.64,15.25,18.98,13.9l34.69-18.47c8.38-4.29,16.03-9.89,22.65-16.6,9.91-10.03,17.27-22.29,21.48-35.74Z"/>
                <path class="cls-1" d="m2630.13,1084.25c-1.89,0-4.38-1.48-7.37-3.67-3.67-2.69-8.17-6.61-12.66-11.05-11.45-11.31-16.32-18.53-14.48-21.5l17.96-34.8c4.28-8.63,9.9-16.51,16.7-23.39,10.11-10.23,22.68-18.01,36.35-22.48l48.53-15.86c3.29-1.08,6.85-.23,9.31,2.19,2.46,2.43,3.35,5.99,2.32,9.28l-15.24,48.73c-4.3,13.73-11.91,26.4-22.01,36.63-6.79,6.88-14.6,12.6-23.21,17.01l-34.45,18.34c-.51.38-1.09.56-1.74.56Zm-1.07-3.94s0,0,0,0t0,0Zm-29.45-30.4c.63,1.79,4.87,7.88,13.59,16.49,8.72,8.61,14.86,12.78,16.66,13.38l34.42-18.33c8.22-4.21,15.65-9.65,22.11-16.2,9.61-9.74,16.85-21.79,20.94-34.85l15.24-48.73c.54-1.74.09-3.55-1.21-4.83-1.3-1.28-3.11-1.71-4.85-1.14l-48.53,15.86c-13.01,4.25-24.97,11.65-34.58,21.39-6.46,6.55-11.81,14.04-15.9,22.29l-17.9,34.69Zm-.52.8s0,0,0,0c0,0,0,0,0,0Zm110.36-39.66h.02-.02Z"/>
              </g>
              <path class="cls-1" d="m2629.28,1080.87c-1.24,1.26-9.14-4.52-17.63-12.91-8.5-8.39-14.38-16.21-13.14-17.47,1.24-1.26,9.14,4.52,17.63,12.91,8.5,8.39,14.38,16.21,13.14,17.47Z"/>
              <g>
                <path class="cls-4" d="m2623.76,1074.9c-2.34-2.97-5.58-6.56-9.33-10.26-3.83-3.78-7.53-7.02-10.55-9.34-5.68,4.37-11.81,9.84-17.8,16.63-17.18,19.47-24.64,40.01-28.05,52.75,15.71-15.8,24.33-23.06,25.87-21.78,1,.83-.96,5.21-5.87,13.16,6.07-2.33,13.68-6.02,21.45-11.97,12.54-9.6,20-20.88,24.3-29.18Z"/>
                <path class="cls-1" d="m2558.01,1126.87c-.38,0-.75-.1-1.1-.29-.86-.5-1.29-1.51-1.03-2.48,5.45-20.31,15.05-38.36,28.53-53.64,5.44-6.17,11.54-11.86,18.11-16.92.79-.6,1.89-.61,2.68,0,3.2,2.44,7.02,5.82,10.77,9.52,3.67,3.62,7.04,7.34,9.51,10.46.54.68.63,1.61.23,2.38-6.17,11.91-14.55,21.98-24.91,29.92-6.67,5.11-14.07,9.24-22,12.28-.88.34-1.88.08-2.49-.65-.6-.73-.67-1.76-.18-2.56,2.5-4.05,3.93-6.68,4.74-8.38-3,2.2-9.07,7.41-21.3,19.71-.42.43-.99.65-1.56.65Zm45.85-68.78c-5.84,4.62-11.26,9.76-16.15,15.29-11.17,12.66-19.59,27.29-25.08,43.6,19.14-18.71,20.85-17.27,22.65-15.78,1.62,1.34,1.74,3.43-1.97,10.18,5.25-2.5,10.21-5.53,14.8-9.05,9.47-7.26,17.21-16.4,23.01-27.18-2.26-2.74-5.15-5.87-8.26-8.95-3.1-3.06-6.25-5.89-9.01-8.11Z"/>
              </g>
              <g>
                <circle class="cls-4" cx="2662.63" cy="1016.32" r="22.37"/>
                <path class="cls-1" d="m2662.63,1040.88c-6.24,0-12.48-2.35-17.26-7.07-9.64-9.52-9.74-25.11-.22-34.75,4.61-4.67,10.77-7.27,17.33-7.31h.16c6.5,0,12.63,2.51,17.26,7.09,9.64,9.52,9.74,25.11.22,34.75h0c-4.8,4.86-11.14,7.3-17.49,7.3Zm0-44.73h-.13c-5.39.03-10.44,2.16-14.22,6-3.79,3.84-5.85,8.91-5.82,14.3.03,5.39,2.17,10.44,6,14.23,7.91,7.81,20.71,7.74,28.53-.18,7.81-7.92,7.73-20.71-.18-28.52-3.8-3.76-8.83-5.82-14.17-5.82Zm15.92,35.89h.02-.02Z"/>
              </g>
            </g>
          </g>
        </g>
        <g>
          <g>
            <circle class="cls-4" cx="945.35" cy="1793.43" r="165.13" transform="translate(-991.26 1193.75) rotate(-45)"/>
            <path class="cls-1" d="m945.35,1960.76c-92.27,0-167.33-75.07-167.33-167.33s75.07-167.33,167.33-167.33,167.33,75.07,167.33,167.33-75.07,167.33-167.33,167.33Zm0-330.26c-89.84,0-162.93,73.09-162.93,162.93s73.09,162.93,162.93,162.93,162.93-73.09,162.93-162.93-73.09-162.93-162.93-162.93Z"/>
          </g>
          <g>
            <g>
              <path class="cls-1" d="m913.09,1874.99h67.52c0-7-5.67-12.67-12.67-12.67h-42.19c-6.99,0-12.67,5.67-12.67,12.67Z"/>
              <path class="cls-1" d="m1020.3,1711.87h-149.91c-5.92,0-10.72,4.8-10.72,10.72v99.99c0,5.92,4.8,10.72,10.72,10.72h149.91c5.92,0,10.72-4.8,10.72-10.72v-99.99c0-5.92-4.8-10.72-10.72-10.72Z"/>
              <path class="cls-4" d="m1012.6,1720.19h-134.51c-5.31,0-9.62,4.14-9.62,9.25v86.29c0,5.11,4.31,9.25,9.62,9.25h134.51c5.31,0,9.62-4.14,9.62-9.25v-86.29c0-5.11-4.31-9.25-9.62-9.25Z"/>
              <rect class="cls-1" x="931.07" y="1832.66" width="31.57" height="29.67"/>
            </g>
            <g>
              <circle class="cls-4" cx="864.14" cy="1715.13" r="24.01"/>
              <path class="cls-1" d="m864.14,1741.34c-14.81,0-26.86-11.76-26.86-26.21s12.05-26.21,26.86-26.21,26.86,11.76,26.86,26.21-12.05,26.21-26.86,26.21Zm0-48.02c-12.38,0-22.46,9.78-22.46,21.81s10.08,21.81,22.46,21.81,22.46-9.78,22.46-21.81-10.07-21.81-22.46-21.81Z"/>
              <path class="cls-1" d="m830.68,1751.47c-.58,0-1.16-.23-1.59-.68-.84-.88-.81-2.27.07-3.11l17.01-16.25c.88-.84,2.27-.81,3.11.07.84.88.81,2.27-.07,3.11l-17.01,16.25c-.43.41-.97.61-1.52.61Z"/>
            </g>
          </g>
        </g>
        <g>
          <g>
            <circle class="cls-4" cx="1968.42" cy="1793.08" r="165.13"/>
            <path class="cls-1" d="m1968.42,1960.41c-92.27,0-167.33-75.07-167.33-167.33s75.07-167.33,167.33-167.33,167.33,75.07,167.33,167.33-75.07,167.33-167.33,167.33Zm0-330.26c-89.84,0-162.93,73.09-162.93,162.93s73.09,162.93,162.93,162.93,162.93-73.09,162.93-162.93-73.09-162.93-162.93-162.93Z"/>
          </g>
          <g>
            <path class="cls-4" d="m1912.55,1849.41c.66-.4,1.27-.85,1.86-1.32,5.54,5.44,11.78,9.94,18.5,13.42-.26.71-.5,1.43-.68,2.18-2.41,10.08,3.81,20.21,13.89,22.63,10.08,2.41,20.21-3.81,22.62-13.89.18-.75.3-1.5.38-2.25,7.56-.06,15.17-1.24,22.57-3.59.31.68.66,1.36,1.06,2.02,5.42,8.84,16.99,11.6,25.82,6.18,8.84-5.42,11.6-16.98,6.18-25.82-.4-.66-.85-1.27-1.32-1.86,5.44-5.54,9.94-11.78,13.42-18.5.71.26,1.43.5,2.18.68,10.08,2.41,20.21-3.81,22.63-13.89,2.41-10.08-3.81-20.21-13.89-22.63-.75-.18-1.5-.3-2.25-.38-.06-7.56-1.24-15.17-3.59-22.57.69-.31,1.36-.66,2.02-1.06,8.84-5.42,11.6-16.99,6.18-25.82-5.42-8.84-16.98-11.6-25.82-6.18-.66.4-1.27.85-1.86,1.32-5.54-5.44-11.78-9.94-18.5-13.42.26-.71.5-1.43.68-2.18,2.41-10.08-3.81-20.21-13.89-22.62-10.08-2.41-20.21,3.81-22.63,13.89-.18.75-.3,1.5-.38,2.25-7.56.06-15.17,1.25-22.57,3.59-.31-.69-.66-1.36-1.06-2.02-5.42-8.84-16.99-11.6-25.82-6.18-8.84,5.43-11.6,16.98-6.18,25.82.4.66.85,1.27,1.32,1.86-5.44,5.54-9.94,11.78-13.42,18.5-.71-.26-1.43-.5-2.18-.68-10.08-2.41-20.21,3.81-22.63,13.89-2.41,10.08,3.81,20.21,13.89,22.62.75.18,1.5.3,2.25.38.06,7.56,1.24,15.17,3.59,22.57-.68.31-1.36.66-2.02,1.06-8.84,5.42-11.6,16.98-6.18,25.82,5.42,8.84,16.99,11.6,25.82,6.18Zm37.63-86.04c16.41-10.07,37.88-4.94,47.95,11.47,10.07,16.41,4.94,37.88-11.47,47.95-16.41,10.07-37.88,4.94-47.95-11.47-10.07-16.41-4.94-37.88,11.47-47.95Z"/>
            <path class="cls-1" d="m1950.53,1889.03c-1.64,0-3.29-.19-4.92-.58-5.45-1.3-10.06-4.65-13-9.42-2.93-4.78-3.83-10.41-2.52-15.86.05-.2.1-.39.15-.59-5.81-3.19-11.19-7.09-16.02-11.62-.17.11-.35.22-.52.33t0,0c-4.77,2.93-10.41,3.82-15.85,2.52-5.45-1.3-10.06-4.65-13-9.43-2.93-4.78-3.83-10.4-2.52-15.85,1.3-5.45,4.65-10.06,9.43-13,.17-.11.35-.21.53-.31-1.86-6.37-2.9-12.92-3.11-19.55-.2-.04-.4-.09-.6-.13-11.25-2.69-18.21-14.03-15.52-25.28,2.69-11.25,14.02-18.21,25.28-15.52.2.05.39.1.6.15,3.18-5.81,7.08-11.18,11.62-16.02-.11-.17-.22-.34-.33-.52-6.05-9.86-2.96-22.8,6.9-28.85,9.86-6.05,22.8-2.95,28.85,6.9.11.17.21.35.31.53,6.37-1.86,12.93-2.9,19.55-3.11.04-.2.08-.4.13-.6,1.3-5.45,4.65-10.07,9.43-13,4.78-2.93,10.41-3.83,15.85-2.52,11.25,2.69,18.21,14.03,15.52,25.28-.05.2-.1.4-.15.6,5.81,3.18,11.19,7.08,16.02,11.62.17-.11.34-.22.51-.33,4.78-2.94,10.41-3.83,15.86-2.53,5.45,1.3,10.06,4.65,13,9.43,6.05,9.86,2.96,22.8-6.9,28.85-.17.11-.35.21-.53.31,1.86,6.37,2.9,12.93,3.11,19.55.2.04.4.09.6.13,11.24,2.69,18.21,14.03,15.52,25.28-2.69,11.25-14.03,18.22-25.28,15.52-.2-.05-.39-.1-.59-.15-3.18,5.81-7.08,11.18-11.62,16.02.11.17.23.35.33.52,2.93,4.78,3.83,10.4,2.53,15.85-1.3,5.45-4.65,10.06-9.43,13-4.78,2.93-10.41,3.83-15.85,2.52-5.45-1.3-10.06-4.65-13-9.42-.11-.17-.21-.35-.31-.53-6.37,1.86-12.93,2.9-19.55,3.11-.04.2-.09.4-.13.6-1.3,5.45-4.65,10.06-9.43,12.99-3.34,2.05-7.11,3.11-10.93,3.11Zm-36.12-43.15c.56,0,1.12.21,1.54.63,5.31,5.22,11.35,9.61,17.97,13.03.99.51,1.44,1.68,1.05,2.72-.23.62-.44,1.26-.6,1.93-1.03,4.3-.32,8.75,2,12.52,2.32,3.77,5.96,6.42,10.27,7.45,4.3,1.04,8.75.32,12.52-1.99,3.77-2.32,6.42-5.96,7.45-10.27.16-.67.26-1.33.34-1.99.13-1.11,1.06-1.94,2.17-1.95,7.44-.06,14.81-1.24,21.92-3.49,1.07-.34,2.2.17,2.67,1.18.28.6.58,1.2.94,1.79,2.31,3.77,5.96,6.41,10.26,7.44,4.31,1.04,8.75.32,12.52-2,3.77-2.32,6.42-5.96,7.45-10.27,1.03-4.3.32-8.75-2-12.52-.36-.58-.75-1.12-1.17-1.64-.69-.87-.63-2.12.15-2.92,5.23-5.32,9.61-11.36,13.03-17.97.51-.99,1.68-1.43,2.72-1.05.62.23,1.26.44,1.93.6,8.88,2.13,17.85-3.37,19.97-12.26,2.12-8.89-3.38-17.85-12.26-19.97-.67-.16-1.33-.26-1.99-.34-1.11-.13-1.94-1.06-1.95-2.17-.06-7.44-1.24-14.81-3.49-21.92-.34-1.06.17-2.21,1.18-2.67.61-.28,1.2-.58,1.79-.94,7.79-4.78,10.23-15.01,5.45-22.79-4.78-7.78-15-10.24-22.79-5.45-.58.36-1.12.75-1.65,1.17-.87.69-2.12.63-2.91-.15-5.31-5.23-11.36-9.61-17.97-13.03-.99-.51-1.44-1.68-1.05-2.73.23-.62.44-1.26.6-1.92,2.12-8.88-3.38-17.84-12.26-19.97-4.3-1.03-8.75-.32-12.52,1.99-3.77,2.32-6.42,5.96-7.45,10.27-.16.66-.26,1.33-.34,1.99-.13,1.11-1.06,1.94-2.17,1.95-7.44.06-14.81,1.24-21.92,3.49-1.06.34-2.21-.17-2.67-1.18-.28-.6-.58-1.2-.94-1.78-2.32-3.77-5.96-6.42-10.27-7.45-4.29-1.03-8.75-.32-12.52,2-7.79,4.78-10.23,15.01-5.45,22.79.36.58.75,1.12,1.17,1.64.69.87.63,2.12-.15,2.92-5.22,5.32-9.61,11.36-13.03,17.97-.51.99-1.68,1.44-2.72,1.05-.62-.23-1.26-.44-1.92-.6-8.89-2.12-17.85,3.38-19.97,12.26-2.13,8.89,3.37,17.85,12.26,19.97.67.16,1.33.26,1.99.34,1.11.13,1.94,1.06,1.95,2.17.06,7.44,1.24,14.81,3.49,21.92.34,1.06-.17,2.21-1.18,2.67-.6.28-1.2.58-1.78.94-3.77,2.32-6.42,5.96-7.45,10.27-1.03,4.3-.32,8.75,2,12.52,2.32,3.77,5.96,6.42,10.27,7.45,4.3,1.03,8.75.32,12.52-1.99.58-.36,1.12-.76,1.64-1.17.4-.32.89-.48,1.37-.48Zm-1.86,3.52h.02-.02Zm55.94-19.28c-12.47,0-24.66-6.28-31.65-17.66-10.69-17.42-5.22-40.29,12.2-50.98,17.42-10.7,40.28-5.22,50.98,12.19,5.18,8.44,6.76,18.39,4.46,28.02-2.3,9.63-8.22,17.79-16.65,22.97-6.03,3.7-12.72,5.47-19.33,5.47Zm-.11-69.71c-5.83,0-11.72,1.55-17.04,4.82-7.44,4.56-12.65,11.75-14.68,20.23-2.03,8.48-.63,17.25,3.93,24.69,9.42,15.35,29.58,20.17,44.92,10.74,7.44-4.56,12.65-11.75,14.68-20.23,2.03-8.48.63-17.25-3.93-24.69-6.16-10.03-16.9-15.56-27.89-15.56Zm-18.19,2.94h.02-.02Z"/>
          </g>
        </g>
      </g>
    </g>
  </g>
</svg>