<?xml version="1.0" encoding="UTF-8"?>
<svg id="Layer_1" data-name="Layer 1" xmlns="http://www.w3.org/2000/svg" xmlns:xlink="http://www.w3.org/1999/xlink" viewBox="0 0 256 256">
  <defs>
    <style>
      .cls-1 {
        fill: url(#New_Gradient_Swatch-2);
      }

      .cls-1, .cls-2, .cls-3, .cls-4, .cls-5, .cls-6, .cls-7, .cls-8, .cls-9, .cls-10, .cls-11, .cls-12, .cls-13, .cls-14, .cls-15, .cls-16, .cls-17, .cls-18 {
        stroke-width: 0px;
      }

      .cls-2 {
        fill: url(#New_Gradient_Swatch-13);
      }

      .cls-3 {
        fill: url(#New_Gradient_Swatch-14);
      }

      .cls-4 {
        fill: url(#New_Gradient_Swatch-4);
      }

      .cls-5 {
        fill: url(#New_Gradient_Swatch-8);
      }

      .cls-6 {
        fill: url(#New_Gradient_Swatch-7);
      }

      .cls-7 {
        fill: url(#New_Gradient_Swatch-15);
      }

      .cls-8 {
        fill: url(#New_Gradient_Swatch-16);
      }

      .cls-9 {
        fill: url(#New_Gradient_Swatch-11);
      }

      .cls-10 {
        fill: url(#New_Gradient_Swatch-6);
      }

      .cls-11 {
        fill: url(#New_Gradient_Swatch);
      }

      .cls-12 {
        fill: url(#New_Gradient_Swatch-10);
      }

      .cls-13 {
        fill: url(#New_Gradient_Swatch-5);
      }

      .cls-14 {
        fill: url(#New_Gradient_Swatch-3);
      }

      .cls-15 {
        fill: url(#New_Gradient_Swatch-12);
      }

      .cls-16 {
        fill: #fff;
        opacity: 0;
      }

      .cls-17 {
        fill: url(#New_Gradient_Swatch-9);
      }

      .cls-18 {
        fill: url(#New_Gradient_Swatch-17);
      }
    </style>
    <linearGradient id="New_Gradient_Swatch" data-name="New Gradient Swatch" x1="34.67" y1="91.33" x2="154.67" y2="91.33" gradientUnits="userSpaceOnUse">
      <stop offset="0" stop-color="#58d3cc"/>
      <stop offset="1" stop-color="#4ab6ff"/>
    </linearGradient>
    <linearGradient id="New_Gradient_Swatch-2" data-name="New Gradient Swatch" x1="28" y1="179.67" x2="228" y2="179.67" xlink:href="#New_Gradient_Swatch"/>
    <linearGradient id="New_Gradient_Swatch-3" data-name="New Gradient Swatch" x1="201.33" y1="163" x2="208" y2="163" xlink:href="#New_Gradient_Swatch"/>
    <linearGradient id="New_Gradient_Swatch-4" data-name="New Gradient Swatch" x1="48" y1="191.33" x2="54.67" y2="191.33" xlink:href="#New_Gradient_Swatch"/>
    <linearGradient id="New_Gradient_Swatch-5" data-name="New Gradient Swatch" x1="64.66" y1="58" x2="71.33" y2="58" xlink:href="#New_Gradient_Swatch"/>
    <linearGradient id="New_Gradient_Swatch-6" data-name="New Gradient Swatch" x1="78" y1="58" x2="84.66" y2="58" xlink:href="#New_Gradient_Swatch"/>
    <linearGradient id="New_Gradient_Swatch-7" data-name="New Gradient Swatch" x1="91.33" y1="58" x2="98" y2="58" xlink:href="#New_Gradient_Swatch"/>
    <linearGradient id="New_Gradient_Swatch-8" data-name="New Gradient Swatch" x1="64.67" y1="71.33" x2="148" y2="71.33" xlink:href="#New_Gradient_Swatch"/>
    <linearGradient id="New_Gradient_Swatch-9" data-name="New Gradient Swatch" x1="106.87" y1="88.09" x2="152.88" y2="88.09" xlink:href="#New_Gradient_Swatch"/>
    <linearGradient id="New_Gradient_Swatch-10" data-name="New Gradient Swatch" x1="145.17" y1="181.65" x2="167.17" y2="181.65" xlink:href="#New_Gradient_Swatch"/>
    <linearGradient id="New_Gradient_Swatch-11" data-name="New Gradient Swatch" x1="90.47" y1="95.09" x2="228" y2="95.09" xlink:href="#New_Gradient_Swatch"/>
    <linearGradient id="New_Gradient_Swatch-12" data-name="New Gradient Swatch" x1="174.67" y1="96.33" x2="208" y2="96.33" xlink:href="#New_Gradient_Swatch"/>
    <linearGradient id="New_Gradient_Swatch-13" data-name="New Gradient Swatch" x1="28" y1="161.05" x2="157.98" y2="161.05" xlink:href="#New_Gradient_Swatch"/>
    <linearGradient id="New_Gradient_Swatch-14" data-name="New Gradient Swatch" x1="41.33" y1="164.67" x2="48" y2="164.67" xlink:href="#New_Gradient_Swatch"/>
    <linearGradient id="New_Gradient_Swatch-15" data-name="New Gradient Swatch" x1="54.67" y1="164.67" x2="61.33" y2="164.67" xlink:href="#New_Gradient_Swatch"/>
    <linearGradient id="New_Gradient_Swatch-16" data-name="New Gradient Swatch" x1="68" y1="164.67" x2="74.67" y2="164.67" xlink:href="#New_Gradient_Swatch"/>
    <linearGradient id="New_Gradient_Swatch-17" data-name="New Gradient Swatch" x1="81.33" y1="164.67" x2="88" y2="164.67" xlink:href="#New_Gradient_Swatch"/>
  </defs>
  <rect class="cls-16" width="256" height="256"/>
  <g>
    <path class="cls-11" d="m41.33,98c0-4.24,2.67-8.01,6.67-9.43v52.76h6.67V58c0-5.52,4.48-9.99,10-10h90v-6.67h-90c-9.2.01-16.66,7.47-16.67,16.67v23.67c-7.75,1.59-13.32,8.41-13.33,16.33v40h6.67v-40Z"/>
    <path class="cls-1" d="m224.67,201.33h-3.33v-70h-6.67v70h-58.62c-3.9-.01-7.65,1.54-10.4,4.31-1.51,1.51-3.55,2.36-5.69,2.36h-23.91c-2.14,0-4.18-.84-5.69-2.36-2.75-2.77-6.5-4.32-10.4-4.31h-58.62v-13.33h-6.67v13.33h-3.33c-1.84,0-3.33,1.49-3.33,3.33v10c0,7.36,5.97,13.33,13.33,13.33h173.33c7.36,0,13.33-5.97,13.33-13.33v-10c0-1.84-1.49-3.33-3.33-3.33Zm-3.33,13.33c0,3.68-2.99,6.66-6.67,6.67H41.33c-3.68,0-6.66-2.99-6.67-6.67v-6.67h65.29c2.14,0,4.18.84,5.69,2.36,2.75,2.76,6.49,4.32,10.39,4.31h23.93c3.9,0,7.64-1.54,10.39-4.31,1.51-1.51,3.55-2.36,5.69-2.36h65.29v6.67Z"/>
    <path class="cls-14" d="m201.33,131.33h6.67v63.33h-6.67v-63.33Z"/>
    <path class="cls-4" d="m48,188h6.67v6.67h-6.67v-6.67Z"/>
    <path class="cls-13" d="m64.66,54.67h6.67v6.67h-6.67v-6.67Z"/>
    <path class="cls-10" d="m78,54.67h6.67v6.67h-6.67v-6.67Z"/>
    <path class="cls-6" d="m91.33,54.67h6.67v6.67h-6.67v-6.67Z"/>
    <path class="cls-5" d="m64.67,68h83.33v6.67h-83.33v-6.67Z"/>
    <path class="cls-17" d="m115.97,91.43c10.78-4.93,23.37-3.78,33.07,3.03l3.84-5.45c-13.8-9.72-32.21-9.72-46.01,0l3.84,5.45c1.66-1.17,3.42-2.18,5.26-3.03h0Z"/>
    <path class="cls-12" d="m149.97,196.14c7.38-7.65,13.22-16.64,17.2-26.49l-6.18-2.5c-3.67,9.06-9.04,17.34-15.82,24.37l4.8,4.62Z"/>
    <path class="cls-9" d="m224.67,68h-3.33v-10c0-16.57-13.43-30-30-30s-30,13.43-30,30c0,1.84,1.49,3.33,3.33,3.33h13.33c1.84,0,3.33-1.49,3.33-3.33,0-5.52,4.48-10,10-10s10,4.48,10,10v10h-43.33c-1.84,0-3.33,1.49-3.33,3.33v30.31c-8.4-4.35-17.74-6.61-27.2-6.58h-.47c-11.12,0-21.99,3.34-31.17,9.61l3.75,5.51c8.08-5.52,17.64-8.46,27.43-8.46h.47c9.59-.04,19.01,2.57,27.2,7.56v8.04c-7.86-5.85-17.4-8.98-27.2-8.93h-.47c-13.95.06-26.99,6.93-34.94,18.4l-1.6,2.3,5.47,3.81,1.6-2.3c6.69-9.68,17.69-15.48,29.47-15.54h.47c12.43,0,23.89,5.7,30.64,15.25,2.36,3.34,4.13,7.06,5.22,11,1.77,6.22,1.77,12.82,0,19.04l6.42,1.81c2.11-7.41,2.11-15.26,0-22.66-1.3-4.67-3.39-9.08-6.19-13.03-.44-.62-.89-1.22-1.36-1.81h62.47c1.84,0,3.33-1.49,3.33-3.33v-50c0-1.84-1.49-3.33-3.33-3.33h0Zm-33.33-26.67c-7.92,0-14.74,5.58-16.33,13.33h-6.76c1.83-12.76,13.66-21.61,26.42-19.77,11.49,1.65,20.02,11.5,20.01,23.11v10h-6.67v-10c-.01-9.2-7.47-16.66-16.67-16.67h0Zm30,76.67h-60v-43.33h60v43.33Z"/>
    <path class="cls-15" d="m200.86,94.33c.31-.97.47-1.98.47-3,0-5.52-4.48-10-10-10s-10,4.48-10,10c0,1.02.16,2.03.47,3-4.48,3.1-7.15,8.21-7.14,13.67,0,1.84,1.49,3.33,3.33,3.33h26.67c1.84,0,3.33-1.49,3.33-3.33.01-5.45-2.66-10.56-7.14-13.67Zm-18.96,10.33c.95-2.69,3.01-4.85,5.66-5.92,1.7-.7,2.52-2.64,1.83-4.35-.14-.33-.33-.64-.56-.92-.53-.59-.82-1.36-.83-2.15,0-1.84,1.49-3.33,3.33-3.33s3.33,1.49,3.33,3.33c0,.79-.3,1.56-.83,2.15-1.2,1.39-1.05,3.5.35,4.7.27.24.58.43.92.56,2.65,1.07,4.71,3.22,5.66,5.92h-18.86Z"/>
    <path class="cls-2" d="m31.33,181.33h67.55l-.41.41,4.71,4.72,5.13-5.12h9.41l-9.35,9.34,4.71,4.71,16.76-16.76c6.47-6.45,11.29-14.35,14.06-23.06,1.52-4.76.66-9.96-2.32-13.96-2.99-4.13-7.79-6.57-12.89-6.54h-1.7c-6.73,0-12.79,4.42-15.09,11.02-.22.66-.47,1.29-.74,1.91h-7.63c.88-1.26,1.57-2.63,2.08-4.08,3.2-9.28,11.79-15.52,21.38-15.52h1.7c7.2.01,13.97,3.44,18.24,9.23,4.25,5.72,5.49,13.14,3.31,19.93-3.08,9.72-8.46,18.56-15.68,25.78l-12.3,12.3,4.71,4.71,12.3-12.3c7.97-7.97,13.91-17.74,17.32-28.48,2.83-8.81,1.23-18.45-4.29-25.88-5.53-7.51-14.3-11.95-23.62-11.96h-1.7c-12.43,0-23.56,8.04-27.68,20.01-.51,1.46-1.35,2.79-2.44,3.9l-2.36,2.36H31.33c-1.84,0-3.33,1.49-3.33,3.33v26.67c0,1.84,1.49,3.33,3.33,3.33h0Zm95.67-39.6h1.7c2.97-.01,5.77,1.41,7.51,3.81,1.71,2.3,2.21,5.28,1.35,8.01-1.99,6.34-5.24,12.21-9.56,17.26v-11.81c1.53-2.83,2.74-5.82,3.6-8.91.12-.44-.15-.9-.59-1.02-.02,0-.05-.01-.08-.02l-6.26-1.06h-6.35c1.44-3.81,4.82-6.27,8.68-6.27h0Zm-92.33,12.93h86.67v20H34.67v-20Z"/>
    <path class="cls-3" d="m41.33,161.33h6.67v6.67h-6.67v-6.67Z"/>
    <path class="cls-7" d="m54.67,161.33h6.67v6.67h-6.67v-6.67Z"/>
    <path class="cls-8" d="m68,161.33h6.67v6.67h-6.67v-6.67Z"/>
    <path class="cls-18" d="m81.33,161.33h6.67v6.67h-6.67v-6.67Z"/>
  </g>
</svg>