<?xml version="1.0" encoding="UTF-8"?>
<svg id="Layer_1" data-name="Layer 1" xmlns="http://www.w3.org/2000/svg" xmlns:xlink="http://www.w3.org/1999/xlink" viewBox="0 0 72 72">
  <defs>
    <style>
      .cls-1 {
        fill: url(#New_Gradient_Swatch-2);
      }

      .cls-1, .cls-2, .cls-3, .cls-4, .cls-5, .cls-6, .cls-7, .cls-8, .cls-9 {
        stroke-width: 0px;
      }

      .cls-2 {
        fill: url(#New_Gradient_Swatch-4);
      }

      .cls-3 {
        fill: url(#New_Gradient_Swatch-8);
      }

      .cls-4 {
        fill: url(#New_Gradient_Swatch-7);
      }

      .cls-5 {
        fill: url(#New_Gradient_Swatch-6);
      }

      .cls-6 {
        fill: url(#New_Gradient_Swatch);
      }

      .cls-7 {
        fill: url(#New_Gradient_Swatch-5);
      }

      .cls-8 {
        fill: url(#New_Gradient_Swatch-3);
      }

      .cls-9 {
        fill: #fff;
        opacity: 0;
      }
    </style>
    <linearGradient id="New_Gradient_Swatch" data-name="New Gradient Swatch" x1="9.87" y1="36" x2="62.16" y2="36" gradientUnits="userSpaceOnUse">
      <stop offset="0" stop-color="#58d3cc"/>
      <stop offset="1" stop-color="#4ab6ff"/>
    </linearGradient>
    <linearGradient id="New_Gradient_Swatch-2" data-name="New Gradient Swatch" x1="17.32" y1="29.74" x2="27.27" y2="29.74" xlink:href="#New_Gradient_Swatch"/>
    <linearGradient id="New_Gradient_Swatch-3" data-name="New Gradient Swatch" x1="17.34" y1="42.84" x2="42.21" y2="42.84" xlink:href="#New_Gradient_Swatch"/>
    <linearGradient id="New_Gradient_Swatch-4" data-name="New Gradient Swatch" x1="17.4" y1="47.83" x2="42.19" y2="47.83" xlink:href="#New_Gradient_Swatch"/>
    <linearGradient id="New_Gradient_Swatch-5" data-name="New Gradient Swatch" x1="17.36" y1="52.8" x2="42.19" y2="52.8" xlink:href="#New_Gradient_Swatch"/>
    <linearGradient id="New_Gradient_Swatch-6" data-name="New Gradient Swatch" x1="31.67" y1="29.78" x2="42.2" y2="29.78" xlink:href="#New_Gradient_Swatch"/>
    <linearGradient id="New_Gradient_Swatch-7" data-name="New Gradient Swatch" x1="31.66" y1="34.74" x2="42.19" y2="34.74" xlink:href="#New_Gradient_Swatch"/>
    <linearGradient id="New_Gradient_Swatch-8" data-name="New Gradient Swatch" x1="31.67" y1="24.78" x2="42.2" y2="24.78" xlink:href="#New_Gradient_Swatch"/>
  </defs>
  <rect class="cls-9" width="72" height="72"/>
  <path class="cls-6" d="m49.72,36.63h10.21c2.02,0,2.23.2,2.23,2.18v14.83c0,4.7-3.13,7.87-7.81,7.87-12.22,0-24.44,0-36.65,0-4.69,0-7.83-3.16-7.83-7.85,0-13.74-.01-27.47.03-41.21,0-.61.27-1.47.72-1.77.35-.23,1.34.03,1.74.4,1.7,1.57,3.27,1.7,4.95,0,.81-.82,1.68-.66,2.61-.01,2.39,1.65,2.44,1.66,4.79.01.99-.69,1.76-.67,2.74.02,2.33,1.63,2.39,1.64,4.69.01,1.03-.73,1.82-.69,2.83.02,2.28,1.61,2.35,1.61,4.59.01,1.07-.76,1.88-.73,2.93.02,2.22,1.58,2.26,1.53,4.51.03.29-.19.57-.42.88-.56.87-.4,1.67.03,1.82.97.06.38.03.78.03,1.16v23.87Zm-2.51-22.52c-.47.29-.79.42-1.04.64-.98.87-1.86.75-2.91,0-2.22-1.58-2.29-1.57-4.61.04-.96.67-1.72.75-2.73.05-2.37-1.66-2.43-1.65-4.8-.01-.93.64-1.77.85-2.61.01-1.67-1.67-3.27-1.66-4.94,0-.78.77-1.63.75-2.5.05-.57-.46-1.18-.91-1.85-1.21-.37-.17-.91-.12-1.31,0-.43.14-.82.45-1.16.76-1.27,1.15-2.51,1.23-3.78.02-.12-.11-.32-.14-.6-.25v39.2c0,3.65,1.97,5.62,5.62,5.62h29.88c.33,0,.66-.04,1.23-.08-1.89-2.11-1.91-4.5-1.9-6.94.03-10.89,0-21.79,0-32.68v-5.23h0Zm2.68,25.06c-.07.13-.13.2-.13.27,0,5.09-.05,10.18.03,15.27.02,1.52.93,2.7,2.21,3.52,3.22,2.07,7.52-.08,7.6-3.9.11-4.93.03-9.87.02-14.81,0-.1-.08-.21-.17-.42h-8.69c-.3,0-.6.05-.87.07Z"/>
  <path class="cls-1" d="m23.69,36.04c-.41,1.11.52,2.93-1.34,2.97-1.98.04-.99-1.87-1.45-3.02-.51,0-1.08.02-1.65,0-.76-.04-1.26-.43-1.27-1.23,0-.81.51-1.22,1.26-1.24,1.32-.05,2.64-.03,3.96-.02.84,0,1.53-.25,1.55-1.18.03-1-.68-1.29-1.57-1.28-.62.01-1.24.01-1.86,0-2.22-.05-3.83-1.44-3.99-3.45-.16-1.98,1.12-3.54,3.27-4,.11-.02.22-.07.45-.14,0-.55-.02-1.12,0-1.69.03-.78.45-1.27,1.22-1.29.78-.02,1.21.49,1.26,1.25.04.57,0,1.15,0,1.86.71,0,1.29-.03,1.86,0,.78.04,1.35.52,1.18,1.25-.1.46-.72,1.07-1.17,1.13-1.26.16-2.56.07-3.84.07-.89,0-1.72.16-1.71,1.26,0,1.09.83,1.26,1.73,1.24.58-.01,1.17,0,1.75,0,2.15.04,3.7,1.37,3.92,3.38.21,1.89-1.04,3.53-3.1,4.04-.15.04-.3.06-.48.09h.02Z"/>
  <path class="cls-8" d="m29.68,41.59h10.72c.89,0,1.68.13,1.8,1.19.1.83-.58,1.32-1.8,1.32h-21.56c-.84-.02-1.5-.33-1.5-1.26s.64-1.25,1.49-1.25h10.85Z"/>
  <path class="cls-2" d="m29.68,49.07h-10.37c-.35,0-.79.1-1.02-.08-.39-.3-.85-.75-.89-1.18-.03-.35.43-.84.79-1.12.23-.18.67-.13,1.01-.13h21.56c.86.03,1.47.41,1.43,1.32-.03.83-.63,1.19-1.44,1.19h-11.08,0Z"/>
  <path class="cls-7" d="m29.83,51.57h10.62c.9,0,1.74.15,1.74,1.23s-.82,1.25-1.73,1.24c-7.12,0-14.24,0-21.36,0-.9,0-1.73-.14-1.74-1.23,0-1.09.83-1.25,1.73-1.24,3.58,0,7.16,0,10.74,0Z"/>
  <path class="cls-5" d="m36.94,28.52h3.85c.82,0,1.39.38,1.41,1.22s-.55,1.27-1.36,1.28c-2.61.02-5.21.02-7.82,0-.81,0-1.38-.44-1.35-1.28.02-.84.59-1.21,1.42-1.21h3.85Z"/>
  <path class="cls-4" d="m36.88,35.99c-1.21,0-2.41,0-3.62,0-.9,0-1.6-.29-1.6-1.27,0-.91.67-1.24,1.52-1.24h7.47c.84,0,1.52.32,1.54,1.22.02.97-.67,1.3-1.58,1.29-1.24-.02-2.49,0-3.73,0Z"/>
  <path class="cls-3" d="m36.93,26.01h-3.85c-.82,0-1.4-.37-1.41-1.21s.54-1.25,1.37-1.25h7.81c.83,0,1.37.42,1.35,1.26s-.61,1.2-1.42,1.2h-3.85Z"/>
</svg>