<?xml version="1.0" encoding="UTF-8"?>
<svg id="Layer_1" data-name="Layer 1" xmlns="http://www.w3.org/2000/svg" xmlns:xlink="http://www.w3.org/1999/xlink" viewBox="0 0 360 180">
  <defs>
    <style>
      .cls-1 {
        fill: #222122;
      }

      .cls-1, .cls-2, .cls-3, .cls-4, .cls-5, .cls-6, .cls-7, .cls-8, .cls-9, .cls-10, .cls-11, .cls-12, .cls-13, .cls-14, .cls-15, .cls-16, .cls-17, .cls-18, .cls-19, .cls-20, .cls-21, .cls-22, .cls-23, .cls-24, .cls-25, .cls-26, .cls-27, .cls-28, .cls-29, .cls-30, .cls-31, .cls-32, .cls-33, .cls-34, .cls-35, .cls-36, .cls-37, .cls-38, .cls-39, .cls-40, .cls-41, .cls-42 {
        stroke-width: 0px;
      }

      .cls-2 {
        fill: #eae8e9;
      }

      .cls-3 {
        fill: #fefefe;
      }

      .cls-4 {
        fill: #e1dfe0;
      }

      .cls-5 {
        fill: #2f2f2f;
      }

      .cls-6 {
        fill: url(#New_Gradient_Swatch_copy);
      }

      .cls-7 {
        fill: #f3f3f3;
      }

      .cls-8 {
        fill: #262626;
      }

      .cls-9 {
        fill: #222;
      }

      .cls-10 {
        fill: #212021;
      }

      .cls-11 {
        fill: #212020;
      }

      .cls-12 {
        fill: #252525;
      }

      .cls-13 {
        fill: #201e1f;
      }

      .cls-14 {
        fill: #f8f7f8;
      }

      .cls-15 {
        fill: #d6d5d5;
      }

      .cls-16 {
        fill: #faf6e8;
      }

      .cls-17 {
        fill: #fbefcf;
      }

      .cls-18 {
        fill: #232323;
      }

      .cls-19 {
        fill: #333;
      }

      .cls-20 {
        fill: #232222;
      }

      .cls-21, .cls-40 {
        fill: #fff;
      }

      .cls-22 {
        fill: #dcdbdb;
      }

      .cls-23 {
        fill: #222121;
      }

      .cls-24 {
        fill: #fdfdfc;
      }

      .cls-25 {
        fill: #222021;
      }

      .cls-26 {
        fill: #e5e4e4;
      }

      .cls-27 {
        fill: #f9f3df;
      }

      .cls-28 {
        fill: #272727;
      }

      .cls-29 {
        fill: #faf2da;
      }

      .cls-30 {
        fill: #f0eff0;
      }

      .cls-31 {
        fill: #3c3c3c;
      }

      .cls-32 {
        fill: #efedee;
      }

      .cls-33 {
        fill: #282828;
      }

      .cls-34 {
        fill: #211e1f;
      }

      .cls-35 {
        fill: #fdfdfd;
      }

      .cls-36 {
        fill: #eceaeb;
      }

      .cls-37 {
        fill: #221e1f;
      }

      .cls-38 {
        fill: #292929;
      }

      .cls-39 {
        fill: #242424;
      }

      .cls-40 {
        opacity: 0;
      }

      .cls-41 {
        fill: #ebeaea;
      }

      .cls-42 {
        fill: #efefef;
      }
    </style>
    <linearGradient id="New_Gradient_Swatch_copy" data-name="New Gradient Swatch copy" x1="2486.86" y1="69.61" x2="2537.15" y2="69.61" gradientTransform="translate(-2214)" gradientUnits="userSpaceOnUse">
      <stop offset="0" stop-color="#4087e3"/>
      <stop offset="1" stop-color="#8e41f9"/>
    </linearGradient>
  </defs>
  <rect class="cls-40" width="360" height="180"/>
  <g>
    <path class="cls-34" d="m290.14,81.46c.42-.73,1.08-1.16,1.85-1.45,1.02-.38,1.79.15,1.85,1.24.03.56-.2,1.07-.32,1.6,1.64-.06,1.93.47,1.42,2.56,1.09.13,1.36.46,1.19,1.56-.05.34-.1.73-.29,1-.52.76-.33,1.46.09,2.15,1.26,2.09,2.28,4.34,3.91,6.2,5.17,5.86,8.58,12.75,11.42,19.94,2.03,5.16,4.39,10.2,5.92,15.55,1.19,4.16,1.81,8.41,1.34,12.75-.32,2.99-1.62,5.54-3.54,7.8-1.07,1.26-2.47,1.99-4.05,2.43-2.6.73-5.23,1.02-7.93.98-3-.05-5.39-1.25-7.42-3.38-3.47-3.65-6.23-7.8-8.7-12.17-1.87-3.31-3.64-6.67-5.61-9.92-.1-.17-.21-.33-.42-.65.59,5.1.68,10.03.78,14.95.11,5.21.57,3.04,1,8.22.07.89.54,1.8,0,2.71-.11.19.23.21.36.28,1.02.48,2.04.95,2.98,1.58.58.39,1.23.75,1.66,1.27.67.8,1.36.97,2.38.82,6.19-.86,12.44-.43,18.66-.79,2.75-.16,5.49-.27,8.24-.4.22-.01.45-.05.67-.04.48.02,1.16-.14,1.2.55.04.64-.64.7-1.12.74-2.86.23-5.73.54-8.6.62-6.28.19-12.54.75-18.82.68-.51,0-.83.1-.75.75.08.65-.34,1.02-1.01.99-.29-.01-.58-.1-.95-.16.22.64.7,1.28.08,1.86-.58.54-1.22.16-1.83-.03-.17.15,0,.28.02.4.14.74-.09,1.01-.86,1.01-.79,0-1.51-.3-2.24-.56.06,1.08-.26,1.34-1.51,1.06-2.15-.49-4.35-.67-6.53-.92-.42-.05-.85-.07-1.27-.08-1.04-.02-2.02.06-3.03.53-1.77.81-3.76.8-5.68.8-6.19.02-12.32.89-18.47,1.39-4.7.38-9.35,1.25-14.11,1.25-4.89,0-9.74-.16-14.58-.92-1.46-.23-2.92-.37-4.34-.8-.16-.05-.35-.05-.51-.01-3.07.71-6.21.68-9.33.75-1.1.03-2.2.09-3.3.15-.43.02-.86,0-.9-.54-.04-.48.38-.63.75-.67,1.19-.13,2.39-.29,3.59-.22,2.43.16,4.83-.22,7.28-.24-.03-.27-.24-.26-.37-.33-1.6-.86-2.61-2.22-3.29-3.86-.9-2.17-1.25-4.47-1.48-6.79-.64-6.4-1.11-5.46-1.56-11.87-.38-5.42-.81-10.83-.77-16.26.03-4.9.57-9.73,2.2-14.39,2.02-5.75,5.71-9.91,11.32-12.42,4.82-2.16,9.75-4.02,14.65-5.97,1.39-.55,2.77-1.15,4.15-1.73.24-.1.5-.14.44-.56-.37-2.52-.71-5.05-1.04-7.58-.08-.61-.21-.88-.96-.71-.98.22-1.79-.31-2.43-1.05-.84-.97-1.27-2.14-1.54-3.37-.06-.3-.1-.52-.49-.49-3.46.22-5.36-3.76-3.51-6.83.31-.51.27-.76-.12-1.18-.88-.92-1.78-1.83-2.47-2.92-.69-1.1-1.14-2.28-.98-3.62.19-1.63,1.25-2.7,2.88-2.84.39-.03.48-.11.46-.51-.12-3.35,1.24-5.41,4.34-6.55.38-.14.34-.38.37-.63.28-1.95.99-3.72,2.29-5.22,1.95-2.24,4.38-3.17,7.32-2.52.44.1.61-.02.82-.37.92-1.53,2.13-2.78,3.74-3.59,1.82-.92,3.52-.79,5.05.75.76-1.94,2.24-2.93,4.16-3.29,2.86-.55,4.57.67,5.03,3.55,1.03-.51,2.1-.78,3.26-.6,2.31.37,3.36,2.23,2.41,4.36-.18.4-.24.59.26.81.73.32,1,1.01,1.06,1.78.14,1.88-1.13,3.83-3.12,4.8-1.01.49-2.09.66-3.26.75.48,1.48,1.09,2.87,1.47,4.34.8,3.12,1.7,6.22,2.9,9.22.36.92.12,1.37-.8,1.76-3.71,1.57-7.62,2.39-11.55,3.15-.39.08-.79.14-1.18.22-.89.17-.9.2-.38.99.99,1.52,2.49,2.1,4.22,2.21,2.16.14,4.21-.43,6.25-1.06,1.03-.32,2.03-.69,3.09-.92.66-.14,1.01.09,1.3.67.9,1.8.53,3.36-1.12,4.53-1.28.9-2.73,1.35-4.25,1.57-.59.09-.65.3-.6.82.21,2.3.81,4.53,1.02,6.82.04.42.36.43.62.53,2.32.82,4.75,1.18,7.15,1.66,3.82.77,7.45,1.94,10.43,4.6,2.56,2.29,4.56,5.03,6.38,7.92,3.94,6.27,7.32,12.85,10.97,19.29,2.02,3.57,4.13,7.08,6.21,10.61.31.52.65,1.01,1.16,1.36.36.25.57.22.67-.26.15-.74-.01-1.44-.17-2.15-1.76-7.65-4.57-14.95-7.48-22.22-1.52-3.78-3.05-7.56-4.85-11.21-1.01-2.04-2.42-3.84-3.73-5.7-1.36-1.93-2.36-3.99-2.67-6.36-.1-.75,0-1.5.01-2.25-.14-1.09.62-2.69,1.54-3.22.67-.39,1.3-.14,1.58.67.25.73.18,1.49.12,2.23-.06.72-.15,1.44-.08,2.17.03.33-.03.63-.41.68-.37.06-.54-.21-.62-.52-.1-.41-.14-.83-.09-1.26.09-.84.06-1.68-.06-2.54-.66.92-.72,2-.81,3.06-.05.41.09.78.19,1.17.54,2.11,1.41,4.04,2.8,5.75.84,1.02,1.57,2.13,2.33,3.22.28.4.55.45,1.01.28,1.51-.55,2.83-1.49,4.33-2.06.47-.18.36-.52.19-.86-.47-.91-1.05-1.76-1.51-2.68-.09-.18-.18-.36-.28-.53-.71-1.2-.97-2.4-.08-3.64.12-.17.22-.39.13-.67-.42.03-.9.37-1.23-.12-.32-.48-.08-.96.13-1.42.05-.11.1-.23.14-.35.06-.21.21-.45.03-.64-.19-.2-.42,0-.62.05-.43.13-.89.32-1.25-.12-.34-.42-.15-.85.03-1.27.17-.38.46-.72.46-1.17,0-.22.04-.48-.18-.62-.23-.15-.43.03-.61.16-.45.32-.84.7-1.23,1.09-.3.17-.63.28-.83-.1-.21-.4.06-.64.38-.83Z"/>
    <path class="cls-6" d="m285.61,86.96c-.03-1.11.2-2.18.6-3.21.09-.22.19-.53.49-.48.31.06.29.38.28.62-.03.97-.12,1.95-.1,2.92,0,.43-.14,1.18.46,1.16.6-.02.18-.69.22-1.06.09-.97.13-1.94.15-2.92.01-.66,0-1.43-.73-1.65-.74-.22-1.13.48-1.51,1-.49.66-.56,1.49-.83,2.23-1.32-1.34-2.36-2.9-3.47-4.4-.7-.94-1.33-1.94-1.97-2.92-.2-.31-.42-.49-.78-.45-.05,0-.1,0-.15,0-3.35-.29-2.88.05-4.25-3.18-.9-2.12-1.19-4.38-1.14-6.68,0-.45.13-.74.54-.85,3.37-.97,6.36-2.76,9.51-4.22,7.83-3.63,15.59-7.39,23.34-11.17,2.2-1.07,4.41-2.14,6.61-3.21,1.25-.61,1.68-.55,2.71.4,1.08,1,1.64,2.31,2.14,3.65.36.96.68,1.93.97,2.92.18.61.47.9,1.11.66.02,0,.05-.01.07-.02,1.35-.25,1.35-.17,1.81,1.1.63,1.75.97,3.57,1.35,5.38.12.57.13,1.14.07,1.72-.14,1.22-.79,2-1.99,2.23-.7.13-.78.47-.63,1.05.47,1.79.96,3.57,1.03,5.44.04,1.24-.17,2.43-.52,3.62-.24.8-.75,1.01-1.45.98-2.3-.09-4.6-.19-6.89-.3-4.85-.22-9.7-.29-14.55-.17-3.1.08-6.2.22-9.3.34-.96.04-.96.04-.47.9.59,1.04,1.09,2.14,1.81,3.1-.1.26-.48.45-.3.78.16.3.44.1.66.05.34.06.46.36.61.61.71,1.17,1.37,2.38,2.13,3.52.66,1,.66,2.01-.1,2.99-.35.46-.74.88-1.18,1.24-.86.7-1.8.65-2.73.03-1.48-.99-2.66-2.25-3.62-3.73Z"/>
    <path class="cls-21" d="m332.24,77.82c.09-.32.28-.35.45-.37,1.61-.22,3.21-.55,4.84-.29,1.77.28,2.34,1.21,1.66,2.85-.2.48,0,.6.33.77,3.17,1.63,6.52,2.64,10.04,3.14.79.11,1.57.3,2.35.45.55.1.79.43.66.97-.12.5-.46.8-.99.69-4.45-.95-8.9-1.89-12.87-4.3-.93-.57-1.04-.87-.59-1.9.51-1.16.43-1.31-.8-1.64-1.2-.32-2.43-.24-3.65-.26-.46,0-.94.03-1.43-.11Z"/>
    <path class="cls-21" d="m341.06,58.85c-.26-.03-.61-.05-.96-.11-.65-.1-1.08-.36-1.11-1.14-.03-.81-.29-.94-1.08-.77-.84.18-1.58.6-2.34.99-.82.43-1.64.86-2.57.99-.17.02-.39.08-.44-.15-.06-.27.2-.21.35-.27,1.02-.36,1.87-1.04,2.79-1.59.73-.43,1.45-.89,2.28-1.11,1.11-.29,1.75.05,1.99,1.18.12.56.34.69.88.68,2.69-.04,5.29-.69,7.92-1.17,1.4-.25,2.81-.43,4.19-.78.47-.12,1-.06,1.08.6.06.57-.32.8-.82.88-3.8.57-7.6,1.14-11.41,1.7-.22.03-.45.04-.76.06Z"/>
    <path class="cls-21" d="m334.73,40.52c-.31-.02-.68-.1-.85-.43-.28-.54-.63-.44-1.03-.2-1.41.87-2.65,1.95-3.75,3.19-.16.18-.25.52-.56.29-.26-.19-.11-.46,0-.68.51-.94,1.29-1.65,2.08-2.34.73-.64,1.46-1.3,2.39-1.65.49-.19,1.01-.29,1.31.29.36.69.81.57,1.36.26,2.9-1.62,5.81-3.22,8.71-4.82.68-.37,1.38-.71,2.06-1.06.35-.18.73-.33,1,.08.28.44-.02.78-.36,1.01-.3.21-.67.33-1.01.49-3.19,1.49-6.31,3.12-9.38,4.83-.61.34-1.22.69-1.99.75Z"/>
    <path class="cls-13" d="m325.86,144.52c-.02.4-.02.8-.07,1.19-.04.32-.21.6-.59.52-.35-.07-.35-.37-.31-.66.2-1.39.28-2.78-.18-4.14-.08-.25-.01-.49.22-.56.34-.11.3.25.37.43.4,1.03.57,2.11.56,3.22Z"/>
    <path class="cls-11" d="m196.58,104.19c-.82,1.6-1.14,3.24-1.55,4.86-.05.19-.07.39-.13.58-.09.31-.26.58-.63.51-.38-.07-.32-.41-.28-.67.04-.29.11-.59.21-.87.51-1.33,1.13-2.61,1.81-3.86.1-.19.19-.41.56-.54Z"/>
    <path class="cls-9" d="m321.97,146.68c-.16,1.41-.54,2.92-1.33,4.3-.07.13-.16.26-.26.36-.2.2-.44.39-.71.14-.24-.23-.08-.46.09-.66,1.01-1.14,1.4-2.56,1.74-3.99.04-.17.12-.42.04-.5-.2-.2-.21-.36-.04-.56.07-.08.16-.15.25-.1.22.14.19.39.21.61,0,.07,0,.15,0,.39Z"/>
    <path class="cls-25" d="m252.41,30.81c-.1.92-.33,1.82-.33,2.75,0,.31-.21.51-.53.52-.3,0-.33-.25-.39-.47-.16-.61.05-1.19.16-1.77.07-.37.14-.74.16-1.11.02-.36.18-.58.54-.57.44.01.43.33.39.65Z"/>
    <path class="cls-10" d="m201.29,106.23c-.21.55-.44,1.08-.62,1.64-.29.9-.62,1.79-.68,2.74-.02.25-.1.49-.3.66-.14.12-.31.19-.48.11-.15-.07-.15-.24-.14-.39.03-.66.27-1.26.51-1.86.42-1.05.86-2.08,1.72-2.9Z"/>
    <path class="cls-1" d="m211.86,50.26c.93.28,1.87.55,2.8.84.23.07.4.24.29.52-.1.26-.31.45-.58.33-.89-.4-1.85-.61-2.7-1.1-.15-.09-.32-.19-.25-.41.07-.21.27-.18.44-.17Z"/>
    <path class="cls-9" d="m209.66,96.67c0,.26-.18.4-.38.51-.91.48-1.79.99-2.39,1.87-.09.13-.22.22-.38.11-.11-.09-.11-.23-.04-.34.7-1.07,1.6-1.91,2.79-2.41.27-.12.39,0,.39.26Z"/>
    <path class="cls-9" d="m272.42,41.63c-.06.09-.1.28-.21.33-.56.26-.93.73-1.36,1.14-.13.12-.3.19-.47.05-.16-.13-.15-.3-.11-.48.08-.36,1.34-1.43,1.73-1.47.28-.03.42.09.42.42Z"/>
    <path class="cls-9" d="m205.27,95.03c-.32-.07-.36-.28-.34-.52.03-.51.79-1.46,1.25-1.58.15-.04.3-.06.42.06.14.15.13.36,0,.48-.46.41-.94.8-1.11,1.43-.02.06-.16.09-.22.13Z"/>
    <path class="cls-39" d="m221.05,41.01c0-.76.18-.91.69-.61.63.37,1.07.95,1.51,1.52.14.18.17.36-.04.51-.21.14-.32-.04-.42-.17-.32-.41-.63-.83-.94-1.24-.22-.29-.46-.51-.79,0Z"/>
    <path class="cls-8" d="m315.86,154.83c-.24-.08-.38-.26-.19-.49.38-.47.92-.75,1.43-1.04.21-.12.38.04.33.31-.04.22-1.34,1.24-1.56,1.22Z"/>
    <path class="cls-3" d="m237.86,104.79c-1.22-3.27-2.56-6.3-3.95-9.32-.16-.34,0-.44.23-.58.6-.37,1.21-.71,1.77-1.12.45-.33.77-.24,1.08.15,2.9,3.62,6.22,6.84,9.39,10.22.95,1.01,1.79,2.16,3.07,2.82.25.13.18.4.2.61.82,6.62,1.61,13.25,2.46,19.87.54,4.24,1.32,8.45,1.73,12.71.27,2.86.31,5.74.47,8.61.21,3.77.58.18.58,3.96,0,.6-.11.8-.76.8-5.15,0-10.31.16-15.45-.36-2.56-.26-5.12-.46-7.7-.58-2.01-.1-2.75-.8-3.16-2.77-.78-3.75-1.86-1.16-1.86-7.59-.19-7.51-.51-11.41-1.73-18.82-.07-.39-.12-.79-.15-1.19-.03-.31-.11-.56-.47-.56-.39,0-.59.24-.6.63-.03.85.06,1.7.18,2.54.87,6.48,1.26,12.99,1.56,19.51.22,4.68.6,1.98,1.83,6.53.51,1.87,1.7,2.82,3.53,3.07,2.03.28,4.1.15,6.13.44,6.22.87,12.49.52,18.73.65,5.03.1,10.05.23,15.06.71.56.05.73.13.58.78-.55,2.49-.84,5.03-1.08,7.57-.04.45-.15.62-.64.68-4.28.53-8.58.62-12.87.86-2.98.17-5.92.54-8.87.96-2.23.32-4.5.24-6.71.7-2.67.56-5.37.51-8.06.63-4.91.21-9.79-.06-14.67-.7-1.97-.26-3.89-.53-5.75-1.27-1.83-.72-3.03-1.98-3.78-3.73-.97-2.26-1.34-4.66-1.52-7.08-.62-8-1.24-8.66-1.77-16.67-.32-4.72-.57-9.44-.2-14.17.32-4.13,1.01-8.19,2.64-12.03,1.79-4.22,4.64-7.38,8.79-9.43,3.95-1.95,8.07-3.49,12.12-5.18,1.52-.64,3.02-1.31,4.53-1.99.34-.15.53-.28.65.24.83,3.41,2.24,6.62,3.37,9.93.14.41.33.85.82.87.45.02.67-.37.89-.72.9-1.47,1.85-2.91,2.9-4.28.26-.34.48-.72.06-1.05-.37-.29-.65.06-.89.29-.71.68-1.2,1.53-1.73,2.35-.3.46-.59.92-.98,1.51Z"/>
    <path class="cls-3" d="m281.54,155.26c-2.24-.82-4.47-.55-6.69-.39-.67.05-1.35.08-2.02.12-.17,0-.39.04-.51-.04-1.12-.78-2.42-.73-3.68-.81-4.19-.28-8.38-.68-12.59-.61-.43,0-.48-.17-.48-.53-.15-6.38-.76-5.38-1.07-11.75-.19-3.95-.88-7.85-1.43-11.76-.6-4.24-.85-8.51-1.39-12.75-.39-3.1-.86-6.19-1.56-9.24-.1-.45-.03-.72.3-1.03.32-.3.6-.68.81-1.07,2.1-3.85,4.68-7.39,7.04-11.07.59-.93,1.16-1.87,1.72-2.81.15-.26.25-.44.62-.25,1,.53,2.08.85,3.18,1.09.33.07.47.14.34.53-1.11,3.24-2.2,6.48-3.34,9.86-1.19-1.49-2.8-2.3-4.05-3.54-.25-.25-.61-.18-.82,0-.21.19.03.41.18.57,1.42,1.44,2.85,2.88,4.28,4.31.43.43.79.29,1.07-.21.71-1.23.98-2.62,1.47-3.92.82-2.2,1.54-4.44,2.32-6.65.08-.23.05-.59.5-.46,2.53.7,5.11,1.17,7.57,2.13,2.46.96,4.26,2.76,5.99,4.65,2.82,3.09,4.93,6.66,7.01,10.26,3.8,6.58,7.23,13.37,11.19,19.85,1.04,1.71,2.1,3.4,3.15,5.1.4.64.85,1.24,1.48,1.68,1.11.79,2.09.41,2.29-.93.25-1.69-.14-3.34-.46-4.98-.77-3.99-2.09-7.82-3.49-11.62-2.13-5.79-4.32-11.56-6.95-17.15-.38-.81-.76-1.63-1.18-2.43-.2-.38-.11-.55.24-.75.88-.53,1.82-.93,2.75-1.36.64-.29,1.3-.54,1.89-.91.49-.31.72-.26,1.13.19,5.18,5.77,8.61,12.54,11.42,19.67,1.97,5,4.19,9.9,5.78,15.04,1.25,4.04,1.91,8.17,1.73,12.42-.12,2.88-1.34,5.31-3.07,7.5-.87,1.11-2.13,1.77-3.48,2.1-2.7.66-5.44,1.07-8.25.82-2.04-.18-3.74-.97-5.21-2.36-2.52-2.4-4.52-5.2-6.39-8.11-2.71-4.21-4.96-8.68-7.47-13-.93-1.6-2-3.11-2.81-4.78-.18-.36-.44-.73-.93-.56-.54.18-.68.66-.62,1.16.1.94.26,1.88.38,2.82.75,5.59.71,11.23.89,16.85.18,5.33.46,3.3,1.18,8.58.02.15.02.29.04.56Z"/>
    <path class="cls-3" d="m247.8,54.4c3.03,1.87,5.81.43,6.67-2.18.49.45.96.9,1.44,1.32.71.63,1.46,1.26,2.37,1.54.58.18.79.51.87,1.03.06.37.17.73.27,1.16-1.71-.29-3.24.26-4.72.99-.47.23-.91.52-1.26.92-.5.58-.43,1.13.15,1.62.16.14.23.08.37.02,1.59-.67,3.17-1.32,4.92-1.44.41-.03.72-.31.96-.73.69,2.41,1.32,4.71,2.01,7.01.34,1.12.7,2.25,1.17,3.32.3.67.07.83-.49,1.05-1.57.6-3.22.91-4.85,1.29-2.63.61-5.24,1.28-7.92,1.66-.2.03-.39.08-.58.15-.76.27-.87.52-.61,1.29.85,2.47,2.88,3.88,5.69,3.97,2.57.08,4.98-.71,7.4-1.45.62-.19,1.24-.38,1.85-.61.34-.12.48-.01.61.3.52,1.26.17,2.33-1.04,2.98-1.05.56-2.22.73-3.37,1-2.02.47-2.08.54-1.93,2.59.16,2.13.65,4.2,1.02,6.29.19,1.07.04,1.93-.57,2.86-2.68,4.1-5.22,8.29-7.95,12.36-.18.27-.37.53-.6.88-1.32-1.38-2.61-2.71-3.89-4.06-2.66-2.79-5.36-5.53-8.22-8.11-.26-.23-.39-.48-.44-.82-.43-2.92-.75-5.85-1.36-8.74-.05-.22-.06-.42.06-.64,1.01-1.98.58-3.91-.41-5.72-.33-.6-1.03-1-1.55-1.5-.4-.38-.75-.81-.96-1.33-.28-.67-.12-1.09.53-1.41.22-.11.46-.19.69-.29.62-.27,1.07-.17,1.41.5.51,1,1.09,1.98,1.93,2.75.35.32.73.66,1.26.38.54-.28.46-.78.36-1.25-.24-1.24-.88-2.33-1.35-3.48-1.17-2.84-2.36-5.67-3.36-8.65.64-.02,1.23-.11,1.67-.56.45-.46.64-1,.59-1.64-.02-.27.13-.22.32-.22,1.81,0,2.99-.94,3.3-2.71.09-.5.25-.4.57-.27.98.39,2,.47,3.02.29,2.09-.38,3.48-1.55,3.95-3.69Z"/>
    <path class="cls-35" d="m288.43,161.54c-.38.05-.61-.14-.82-.29-1.49-1.08-3.25-1.52-4.93-2.13-.38-.14-.72-.09-.88.3-.17.4.17.6.45.74,1.12.56,2.25,1.1,3.24,1.86.55.42,1.07.88,1.49,1.55-.66.03-1.15-.25-1.61-.56-1.24-.81-2.61-1.24-4.03-1.55-.38-.08-.77-.17-.89.36-.11.49.27.56.61.68,1.35.46,2.66,1,3.75,2.2-1.12-.22-2.01-.64-2.95-.94-.62-.2-1.24-.39-1.86-.58-.29-.09-.49.02-.6.29-.12.28,0,.48.24.62.47.27.93.55,1.37.88-2.03-.46-4.06-.89-6.12-1.08-1.02-.09-2.05-.15-3.07-.09-.44.02-.54-.11-.54-.54.03-2.44.44-4.83.78-7.23.04-.27.11-.41.42-.32,1.54.42,3.13.31,4.7.32,3.53.02,6.63,1.31,9.45,3.34.76.55,1.34,1.27,1.79,2.16Z"/>
    <path class="cls-35" d="m285.61,86.96c.5.35.85.85,1.21,1.32.79,1.03,1.85,1.74,2.84,2.53.47.37,1.01.27,1.5.07,1.18-.49,1.9-1.44,2.34-2.6.19-.51-.01-1.04-.29-1.5-.9-1.5-1.81-2.99-2.72-4.49.4-.6.95-1.03,1.56-1.37.48-.27.76-.1.78.46.02.43-.03.84-.29,1.22-.14.21-.25.43-.35.66-.14.31-.23.64.02.92.24.27.56.11.85.06.05,0,.09-.05.14-.06.34-.08.72-.51,1.01-.19.29.32,0,.75-.15,1.12-.12.3-.28.59-.37.9-.08.24-.12.51.1.7.22.2.46.09.7,0,.23-.09.49-.35.68-.16.21.2-.04.5-.1.75-.03.14-.08.3-.16.42-.84,1.08-.56,2.14.04,3.2.69,1.22,1.35,2.45,2.04,3.66.19.34.18.51-.21.66-1.7.66-3.22,1.71-4.95,2.31-.3.1-.46.14-.67-.15-1.27-1.8-2.61-3.54-3.82-5.38-1-1.52-1.44-3.27-1.75-5.05Z"/>
    <path class="cls-42" d="m229.61,59.53c.1-.73,1.29-1.97,2.05-2.14.16-.03.31-.05.4.1.12.2-.02.34-.16.44-.29.19-.62.33-.9.54-.46.36-1.01.68-.79,1.43.05.17-.07.32-.24.28-.33-.08-.4-.33-.36-.64Z"/>
    <path class="cls-30" d="m242.98,49.38c-.04.19-.17.31-.34.36-.77.22-1.28.75-1.67,1.42-.09.15-.17.34-.38.24-.19-.1-.15-.28-.09-.46.18-.61,1.49-1.77,2.08-1.83.3-.03.43.05.41.27Z"/>
    <path class="cls-36" d="m226.51,65.38c.08,1.13.72,1.78,1.39,2.42.17.16.47.32.17.59-.26.23-.4-.07-.53-.21-.53-.54-1.02-1.11-1.21-1.86-.06-.25-.13-.53.18-.94Z"/>
    <path class="cls-26" d="m250,47.79c.74-.75,1.51-1.05,2.33-1.2.28-.05.68.1.62.47-.06.37-.39.14-.61.09-.5-.1-.92.11-1.35.32-.24.11-.44.32-.99.32Z"/>
    <path class="cls-2" d="m259.1,46.29c-.15-.02-.29,0-.33-.16-.04-.15.07-.24.18-.29.44-.22.88-.43,1.33-.64.11-.05.25-.08.34.04.09.11.08.27-.02.33-.48.3-.97.58-1.5.72Z"/>
    <path class="cls-41" d="m237.96,55.05c-.33-.1-.66-.19-.98-.32-.19-.08-.46-.2-.32-.48.11-.22.33-.12.52-.06.3.11.61.2.92.28.2.05.43.07.36.35-.06.24-.28.24-.5.22Z"/>
    <path class="cls-15" d="m254.73,49.02c.59.19,1.13.13,1.69-.04.15-.05.39-.09.43.15.04.22-.17.29-.34.3-.63.03-1.29.15-1.78-.41Z"/>
    <path class="cls-4" d="m247.18,51.97c-.04.23-.16.38-.35.33-.32-.08-.49-.34-.51-.66-.01-.17.11-.42.28-.35.3.11.45.42.58.69Z"/>
    <path class="cls-3" d="m317,76.09c-2.59-.09-5.04-.2-7.48-.27-6.4-.19-12.8-.04-19.2.26-.38.02-.57-.07-.73-.45-1.56-3.71-3.1-7.43-4.27-11.29-.21-.68-.16-1.02.57-1.36,5.26-2.45,10.5-4.94,15.69-7.53,2.91-1.46,5.82-2.9,8.73-4.35.24-.12.52-.4.74-.25.28.19-.02.5-.09.75-.61,2.28-.33,4.57-.13,6.86.48,5.31,2.26,10.23,4.57,14.98.43.89,1.02,1.7,1.6,2.65Z"/>
    <path class="cls-3" d="m312.27,58.59c-.12-.52.16-.74.78-.75,1.8-.02,3.6-.08,5.38-.28.38-.04.56.05.51.48-.3,2.31.28,4.46,1.2,6.54.18.41.13.64-.31.8-1.67.6-3.36,1.14-4.96,1.9-.38.18-.49-.01-.59-.3-.94-2.69-1.72-5.42-2.01-8.39Z"/>
    <path class="cls-35" d="m311.87,54.27c-.05-1.11.07-2.2.53-3.22.27-.6.66-1.11,1.2-1.51.8-.59.97-.57,1.53.26.98,1.46,1.4,3.13,1.89,4.78.03.1.05.19.08.29.42,1.55.43,1.57-1.15,1.7-1.14.1-2.29.19-3.41.45-.34.08-.51.03-.53-.37-.04-.8-.18-1.59-.14-2.39Z"/>
    <path class="cls-24" d="m319.94,72.7c-.03.77-.17,1.7-.5,2.6-.23.63-.46.55-.87.16-1.15-1.09-1.89-2.44-2.49-3.87-.39-.92-.72-1.86-1.1-2.78-.16-.39-.08-.6.34-.71,1.09-.28,2.18-.56,3.26-.86.35-.1.52.01.59.35.36,1.63.77,3.25.78,5.12Z"/>
    <path class="cls-16" d="m321.74,64.23c-1.03-2.08-1.78-4.23-1.59-6.59,1.08,2.06,1.72,4.23,1.59,6.59Z"/>
    <path class="cls-27" d="m281.13,68.26c-.04.09-.1.25-.19.4-.34.55-.7,1.09-1.03,1.64-.11.18-.21.37-.45.28-.26-.09-.21-.32-.14-.5.27-.78.64-1.51,1.22-2.12.1-.11.22-.21.39-.14.16.07.2.21.21.44Z"/>
    <path class="cls-29" d="m275.24,70.62c.21-.78.76-1.34,1.21-1.95.08-.11.22-.13.34-.06.12.07.14.2.14.32,0,.24-.12.42-.25.61-.29.43-.69.78-.88,1.28-.06.15-.19.32-.4.24-.21-.08-.13-.29-.16-.45Z"/>
    <path class="cls-17" d="m278.67,68.9c-.01.36-1.12,1.75-1.41,1.82-.23.05-.41-.06-.28-.25.4-.61.84-1.21,1.31-1.77.15-.17.36-.01.38.21Z"/>
    <path class="cls-23" d="m221.66,149.56c-1.04-.23-1.93-.38-2.73-.81-.25-.14-.56,7.04-.37,6.66.18-.37.47-.27.76-.13.76.36,1.5-6.56,2.35-6.44.21.03.39.14.33.39-.06.25-.25.36-.35.33Z"/>
    <path class="cls-39" d="m246.45,108.3c-.42.64-.69,1.45-1.33,2-.11.1-.26.17-.4.05-.13-.12-.11-.28-.04-.41.09-.18.19-.35.32-.5.35-.4.67-.8.9-1.28.08-.16.21-.3.42-.22.13.05.16.18.14.36Z"/>
    <path class="cls-28" d="m221.67,153.69s.11-.07.2-.09c.53-.13,1.06-.25,1.6-.36.12-.02.25.04.28.19.02.13-.05.34-.13.3-.57-.22-.94.3-1.43.36-.24.03-.45.03-.52-.41Z"/>
    <path class="cls-12" d="m233.18,148.53c-.25-.09-.69.12-.75-.35-.03-.23.26-.23.41-.18.28.09.73-.08.81.33.06.28-.25.22-.47.2Z"/>
    <path class="cls-20" d="m303.33,143.1c.43-.87.86-1.76,1.56-2.49.1-.1.28-.12.42-.01.14.11.17.3.07.4-.66.66-.87,1.57-1.35,2.32-.09.14-.2.31-.41.25-.2-.06-.22-.24-.28-.47Z"/>
    <path class="cls-9" d="m302.68,140.63c-.05.07-.1.15-.17.22-.61.54-.99,1.23-1.28,1.98-.08.2-.19.39-.42.34-.24-.05-.26-.31-.2-.49.31-.85.87-1.55,1.5-2.18.18-.18.41-.17.56.13Z"/>
    <path class="cls-38" d="m282.18,120.28c.33.09.31.32.14.5-.47.51-.98.99-1.47,1.48-.09.08-.19.08-.25-.02-.04-.08-.09-.21-.05-.27.42-.62.93-1.17,1.49-1.66.03-.03.09-.02.15-.03Z"/>
    <path class="cls-38" d="m284.63,124.05c.27.08.31.29.15.5-.27.35-.61.64-.85,1.03-.11.19-.31.13-.41-.07-.16-.35.68-1.48,1.1-1.46Z"/>
    <path class="cls-37" d="m247.77,60.25c.85,0,1.57.35,1.59.84.04.86-.63,1.12-1.27,1.22-3.33.53-6.29,2.1-9.41,3.21-.46.16-.85.12-1.14-.23-.28-.34-.1-.72.1-1.04.23-.37.58-.61.93-.86,1.94-1.35,4.12-2.13,6.43-2.57.93-.18,1.82-.57,2.78-.58Z"/>
    <path class="cls-37" d="m245.7,64.59c.85.06,1.79.14,2.5.9.88.95.65,1.92-.59,2.2-1.48.34-2.98.63-4.48.87-1.17.19-1.62-.43-1.21-1.56.56-1.56,1.87-2.42,3.78-2.42Z"/>
    <path class="cls-34" d="m258.5,60.79c.48.01,1.19.2,1.76.76.77.76.59,1.76-.41,2.14-1.14.43-2.3.85-3.47,1.19-1.07.31-1.51-.15-1.33-1.25.26-1.67,1.57-2.84,3.46-2.83Z"/>
    <path class="cls-13" d="m252.21,61.74c.55.97.76,1.9,1.04,2.79.2.63.49,1,1.19,1.15,1.35.3,2.12,1.14,2.1,2.11-.02.97-.9,1.86-2.18,2.16-.38.09-.78.2-1.18.05-.25-.09-.48-.21-.47-.51.01-.3.25-.39.52-.43.67-.1,1.33-.24,1.94-.56.33-.17.72-.33.71-.78-.01-.41-.37-.57-.69-.72-.36-.17-.73-.35-1.12-.42-.94-.18-1.43-.78-1.64-1.65-.19-.75-.31-1.52-.49-2.27-.08-.35.17-.52.27-.93Z"/>
    <path class="cls-23" d="m241.49,66.07c.86-2.02,3.79-3.06,5.65-2.05.16.09.43.15.33.41-.09.25-.28.09-.43.03-2.08-.77-3.72-.35-5.14,1.33-.09.11-.15.27-.4.28Z"/>
    <path class="cls-28" d="m247.34,71.84c0-.83,1.2-2.42,2.06-2.74-.69.91-1.38,1.83-2.06,2.74Z"/>
    <path class="cls-19" d="m243.37,72.99c.18-1.06.67-1.93,1.56-2.55-.36.94-1.16,1.62-1.56,2.55Z"/>
    <path class="cls-28" d="m258.91,68.53c.18-.82.74-1.4,1.18-2.05.06-.09.18-.1.26-.04.05.04.1.16.08.19-.5.64-.81,1.43-1.53,1.91Z"/>
    <path class="cls-33" d="m257.56,68.77c.25-.99.67-1.88,1.5-2.51-.26.99-1.11,1.6-1.5,2.51Z"/>
    <path class="cls-19" d="m247.13,69.9c-.67.8-1.34,1.61-1.91,2.65-.02-.83.94-2.15,1.91-2.65Z"/>
    <path class="cls-31" d="m240.36,81.7c0,.11,0,.36-.25.37-.24,0-.19-.25-.22-.41-.07-.44-.12-.88-.18-1.32-.02-.18-.03-.39.18-.42.23-.03.23.21.26.37.07.44.13.88.21,1.41Z"/>
    <path class="cls-28" d="m240.9,82.39c-.11-.71-.44-1.42-.13-2.16.07,0,.14,0,.21-.01.06.72.13,1.44.19,2.16-.09,0-.18,0-.27.01Z"/>
    <path class="cls-5" d="m253.29,82.27c.21.22.59.32.7.66.05.14-.13.29-.29.23-.32-.12-.67-.25-.75-.65-.03-.16.11-.26.33-.25Z"/>
    <path class="cls-18" d="m254.45,82.61c-.21-.16-.44-.32-.54-.58-.03-.09.02-.22.15-.19.3.08.51.28.59.58.03.11-.1.15-.2.19Z"/>
    <path class="cls-14" d="m245.1,65.43c-.3.81-.23,1.41.53,1.83-.93.34-1.84.46-2.74.56-.56.06-.39-.35-.31-.6.37-1.16,1.34-1.51,2.52-1.79Z"/>
    <path class="cls-32" d="m247.21,65.78c.35.3.77.5.66.95-.04.17-.42.16-.67.14-.21-.02-.21-.12-.16-.3.07-.23.1-.47.17-.79Z"/>
    <path class="cls-7" d="m257.12,61.9c-.26.82-.04,1.31.61,1.67-.48.23-.89.45-1.32.63-.46.19-.72.04-.67-.5.08-.82.54-1.35,1.38-1.8Z"/>
    <path class="cls-22" d="m259.5,62.03c.24.2.52.39.41.68-.08.22-.39.25-.67.24.09-.31.17-.6.26-.92Z"/>
  </g>
  <g>
    <path class="cls-21" d="m70.93,107.25c2.39.47,4.4,1.64,6.01,3.51,2.33,2.69,3.24,5.64,2.72,8.85-.52,3.21-2.46,6.27-5.82,9.19l-15.01,13-27.92-32.22,14.5-12.57c3.27-2.84,6.48-4.31,9.64-4.41,3.15-.1,5.84,1.13,8.07,3.7,1.64,1.9,2.51,3.9,2.61,6.02.09,2.12-.47,4.14-1.7,6.06,2.21-1.22,4.51-1.59,6.9-1.12Zm-20.87,8.56l5.14-4.45c1.28-1.11,2.03-2.25,2.22-3.41.2-1.16-.18-2.29-1.13-3.4-.95-1.1-2.03-1.64-3.22-1.63-1.19.02-2.43.58-3.72,1.69l-5.14,4.45,5.85,6.75Zm19.19,4.3c.2-1.22-.19-2.39-1.17-3.53s-2.12-1.7-3.43-1.69c-1.31,0-2.62.58-3.93,1.72l-5.69,4.93,6.16,7.11,5.78-5.01c1.31-1.14,2.07-2.32,2.28-3.54Z"/>
    <path class="cls-21" d="m67.5,74.82l29.43,33.96-7.85,6.8-29.43-33.96,7.85-6.8Z"/>
    <path class="cls-21" d="m106.43,98.38c-2.93.67-5.83.5-8.7-.49-2.87-.99-5.46-2.82-7.77-5.49-2.28-2.63-3.71-5.45-4.28-8.46-.57-3.01-.31-5.93.78-8.75,1.09-2.82,2.89-5.32,5.4-7.49s5.24-3.6,8.18-4.28c2.95-.68,5.87-.52,8.77.48,2.9,1,5.49,2.81,7.77,5.44,2.28,2.63,3.7,5.46,4.26,8.49.56,3.03.28,5.95-.82,8.79s-2.91,5.34-5.42,7.51c-2.51,2.17-5.23,3.59-8.16,4.26Zm4.68-16.03c.1-2.02-.74-4.05-2.51-6.1s-3.65-3.18-5.63-3.39c-1.98-.21-3.72.33-5.22,1.63s-2.33,2.97-2.4,4.93c-.07,1.96.8,3.98,2.6,6.06,1.78,2.05,3.64,3.2,5.59,3.44,1.95.24,3.67-.29,5.17-1.59s2.3-2.96,2.4-4.97Z"/>
    <path class="cls-21" d="m124.78,41.1c2-.45,3.88-.39,5.65.17l-3.14-3.63,7.85-6.8,22.15,25.56c2.04,2.36,3.42,4.89,4.15,7.62.72,2.72.62,5.48-.31,8.26s-2.82,5.42-5.66,7.88c-3.79,3.29-7.65,5.06-11.55,5.31-3.91.25-7.36-1.01-10.34-3.77l7.76-6.72c1.09.77,2.34,1.03,3.75.81,1.41-.23,2.79-.93,4.13-2.09,1.62-1.4,2.51-2.99,2.66-4.76.15-1.77-.66-3.68-2.43-5.73l-3.14-3.63c.27,1.86.05,3.74-.64,5.66s-1.95,3.66-3.75,5.22c-2.11,1.83-4.49,2.94-7.15,3.34-2.65.4-5.35.03-8.08-1.12-2.73-1.14-5.24-3.03-7.52-5.66s-3.79-5.37-4.51-8.22c-.73-2.85-.7-5.55.08-8.11.79-2.55,2.23-4.75,4.35-6.58,1.8-1.56,3.71-2.57,5.71-3.02Zm7.96,6.12c-2.07-.19-3.88.39-5.44,1.74s-2.4,3.06-2.52,5.12c-.12,2.06.67,4.07,2.37,6.02s3.59,3.04,5.67,3.25c2.08.21,3.9-.37,5.46-1.72s2.39-3.06,2.5-5.14c.1-2.07-.69-4.09-2.39-6.05-1.7-1.96-3.58-3.03-5.65-3.22Z"/>
  </g>
  <path class="cls-21" d="m71.11,17.35c-2.61-4.39-6.13-7.91-10.53-10.52-1.72-1.02-3.6-1.61-5.62-1.67-.41-.01-.72.11-1,.4-2.56,2.73-3.73,5.9-3.12,9.65.05.28.02.46-.19.67-2.24,2.23-4.48,4.47-6.71,6.71-.21.21-.36.25-.63.09-1.47-.82-3.06-1.17-4.74-1.12-1.67-.02-3.27.29-4.77,1.02-1.26.62-2.48,1.34-3.24,2.56-.94,1.51-.63,3.09-.02,4.62,1.05,2.65,2.85,4.82,4.64,6.98.28.33.31.51.04.88-3.32,4.5-6.63,9.02-9.93,13.54-.15.2-.3.41-.4.63-.2.41-.08.78.23,1.08.29.28.65.39,1.03.21.22-.11.43-.26.63-.4,4.52-3.31,9.03-6.61,13.54-9.93.35-.26.54-.27.87.03,1,.91,2.06,1.76,3.17,2.52,1.62,1.11,3.27,2.15,5.23,2.56,1.63.34,3.04,0,4.18-1.28,2.71-3.06,3.4-8.12,1.59-11.82-.19-.39-.16-.59.14-.89,2.18-2.15,4.34-4.32,6.5-6.49.22-.22.4-.34.75-.28,3.75.63,6.92-.55,9.64-3.11.27-.26.4-.55.39-.94-.05-2.05-.65-3.95-1.68-5.68Zm-32.18,23.94c-2.54,1.85-5.06,3.71-7.59,5.56-.15.11-.29.25-.52.14,1.94-2.64,3.88-5.28,5.8-7.93.24-.33.36-.35.64-.05.55.6,1.13,1.16,1.72,1.72.26.25.22.36-.05.56Zm13.2,4.1c-.68.68-1.51.64-2.34.44-1.57-.37-2.93-1.19-4.2-2.14-4.7-3.49-8.82-7.55-12.04-12.47-.79-1.2-1.49-2.46-1.52-3.97-.01-.65.21-1.16.71-1.59,1.6-1.36,3.46-2.05,5.56-2.08,1.31-.05,2.57.13,3.76.7.25.12.41.23.36.56-.21,1.31.25,2.48.91,3.55,1.61,2.62,3.74,4.73,6.37,6.31,1.03.62,2.15,1.02,3.38.85.29-.04.4.09.51.32,1.44,2.8.75,7.3-1.46,9.52Zm7.13-18.12c-1.92,1.93-3.87,3.84-5.76,5.8-.52.54-1.05.6-1.69.4-1.09-.35-2.01-.99-2.87-1.72-1.66-1.41-3.18-2.93-4.17-4.91-.14-.28-.25-.57-.33-.87-.15-.56-.04-1.02.41-1.46,2.13-2.08,4.22-4.2,6.32-6.3.13-.13.22-.31.41-.32,1.61,3.51,4.11,6.17,7.49,8.02.32.18.89.2.92.51.04.35-.46.59-.74.86Zm6.76-2.12c-2.14.38-4.16,0-6.02-1.07-2.79-1.59-5.08-3.69-6.4-6.7-1.27-2.9-1.28-5.77.37-8.56.05-.08.11-.16.2-.3,2.84,7.37,7.89,12.4,15.23,15.25-1.05.72-2.17,1.15-3.38,1.37Zm4.3-3.24c-1.11-.29-2.15-.76-3.16-1.31-5.06-2.73-8.7-6.74-10.83-12.09-.15-.36-.45-.86-.25-1.1.24-.29.73.05,1.09.15,1.91.56,3.56,1.59,5.1,2.82,2.64,2.12,4.99,4.52,6.78,7.43.71,1.16,1.25,2.39,1.56,3.72.06.24.12.49-.29.39Z"/>
  <path class="cls-21" d="m71.93,23.05c26.25-.38,52.58-.62,78.84-.69,0,0,4.38-.01,4.38-.01,7.49-.46,15.28,1.96,20.53,7.52,4.27,4.31,6.79,10.27,6.96,16.33.08,5.9,0,11.7,0,17.55-.09,11.68-.32,41.28-.42,52.56-.04,5.75-.07,20.71-.09,26.28-.02,2.9.06,5.88-.58,8.78-1.79,8.75-8.86,16.08-17.49,18.32-2.84.83-5.86.91-8.78.89-31.84.19-90.99.58-122.64.61-12.98.5-24.56-9.6-25.72-22.57-.25-4.48-.06-11.96-.11-16.52.04-19.56.2-50.52.36-70.08.08-2.71.05-10.47.11-13.14-.33-7.43,2.66-15,8.34-19.83,4.44-3.91,10.33-6.07,16.2-6v.2c-11.76-.02-22.35,9.63-23.34,21.31-.26,4.87.02,12.44,0,17.46.15,19.56.32,50.52.36,70.08,0,0,0,8.76,0,8.76.06,2.43-.15,6.21.28,8.6,1.54,11.5,11.99,20.03,23.52,19.65,31.6.08,90.84.38,122.64.61,2.82.02,5.86.04,8.59-.75,12.08-3.29,18.62-14.13,17.63-26.38-.02-5.5-.07-20.57-.09-26.28-.09-11.15-.34-41.04-.42-52.56-.04-5.82.02-11.71-.09-17.49-.19-5.63-2.55-11.13-6.47-15.17-3.9-4.07-9.32-6.62-14.95-7.03-2.36-.13-6.24-.1-8.7-.11-26.12-.28-53.11.06-78.84-.89h0Z"/>
  <path class="cls-21" d="m70.19,25.05c10.48-.68,20.97-.9,31.46-.73,10.49.42,20.97.76,31.46.28,7.57-.3,15.98-.4,23.6-.49,10.53-.13,22.38,4.03,27.53,13.83,1.22,2.4,1.83,5.12,1.67,7.76h-.2c-.18-2.61-1.03-5.1-2.35-7.27-4.09-6.56-11.63-10.15-19.02-11.51-4.35-.96-10.99-.71-15.48-.83-10.49-.07-20.97-.77-31.46-.62-10.48.28-20.97.82-31.46.45-5.24-.11-10.49-.32-15.73-.67v-.2h0Z"/>
  <path class="cls-21" d="m185.9,80.06c.46,21.14.64,42.74.72,63.92.02,2.1.03,7.55.04,9.59,0,5.09-2.53,9.9-6.3,13.24-6.92,6.35-16.71,8.45-25.85,8.04-6.4-.08-19.18-.2-25.57-.29-21.19-.17-42.77-.09-63.92.14,0,0-25.57.25-25.57.25-4.3.05-8.71-.39-12.87-1.74-3.11-.95-6.17-2.44-8.85-4.28-5.09-3.6-8.86-8.97-8.93-15.39-.02-.99,0-3.76-.02-4.79-.07-33.57.02-68.78.44-102.28-.23-11.59,11.3-18.91,21.58-20.66,0,0,.04.2.04.2-9.85,2.04-20.91,9.31-20.46,20.46.39,33.48.54,68.72.44,102.28.02,1.76-.09,4.55.08,6.29.55,6.08,5.29,11.18,10.53,14.03,5.48,3.07,11.74,4.34,18.02,4.31,29.21.28,60.38.66,89.49.38,6.35-.09,19.22-.21,25.57-.29,9.28.18,19.16-2.12,25.76-9,2.75-2.98,4.62-6.79,4.66-10.88,0,0,.01-3.2.01-3.2l.03-6.39c.26-21.05-.09-43.29.92-63.92h0Z"/>
</svg>