<?xml version="1.0" encoding="UTF-8"?>
<svg id="Layer_1" data-name="Layer 1" xmlns="http://www.w3.org/2000/svg" viewBox="0 0 250 250">
  <defs>
    <style>
      .cls-1, .cls-2, .cls-3, .cls-4 {
        stroke-width: 0px;
      }

      .cls-2 {
        fill: #f4c8c1;
      }

      .cls-3 {
        fill: #333;
      }

      .cls-4 {
        fill: #fff;
        opacity: 0;
      }
    </style>
  </defs>
  <rect class="cls-4" width="250" height="250"/>
  <g>
    <g>
      <path class="cls-2" d="m153.19,230.52c.61-.41.36-1.16.66-1.69-.79.34-.68,1.04-.66,1.69Z"/>
      <path class="cls-2" d="m55.91,139.75c.49-2.71-2.23-3.42-4.25-4.14-3.2-1.13-6.3.43-9.46.55-.55.06-1.08.11-1.62.17-.41.08-.69.32-.83.72.31.55.63,1.08.94,1.62,1.95,4.78,6.22,3.86,10.03,4.09,2.43.14,4.76-.65,5.18-3.01Z"/>
      <path class="cls-2" d="m50.61,219.56c-.1-.02-.19-.02-.28-.04-.23-.03-.43-.31-.65-.48-1.52,1.88-1.27,3.78-.05,5.69.3,0,.61,0,.92.02,1.51.03,2.97-.03,3.24-2.19.3-2.43-1.44-2.75-3.18-3Z"/>
      <path class="cls-2" d="m153.29,219.68c-1.32,1.37-4.75.39-4.21,3.87.42,2.74,2.76,1.39,4.15,2.05,1.15-1.96,1.69-3.92.06-5.91Z"/>
      <path class="cls-2" d="m140.22,143.62c.27,0,.55,0,1.57,0,1.31.07,3.32-.11,5.28-.86,1.33-.51,2.03-1.36,1.89-2.77-.13-1.37-1.08-2.18-2.18-2.78-1.5-.82-1.89,1.24-3.16,1.29-2.21.08.86-2.31-1.22-2.36-2.72-.06-5.16.38-7.1,2.46-.79.85-1.41,1.78-.84,2.93,1.23,2.49,3.6,2.03,5.75,2.1Z"/>
      <path class="cls-2" d="m142.35,221.47c-2.21-.07-2.95-.82-3.57-2.9-1.11-3.67-3.34-3.98-6.07-1.2-3.11,3.15-4.02,7.2-3.88,11.35.11,3.42,2.62,4.91,6.18,5.08,3.81-1.18,8.23-1.68,10.71-5.81,2.08-3.49.68-6.39-3.37-6.52Z"/>
      <path class="cls-2" d="m149.14,211.42v-.07h-.03c-.51-.07-1.05-.05-1.52-.23-1.97-.79-3.21-.21-3.49,1.91-.22,1.61.18,3.11,2.12,3.31,2.1.22,2.9-1.04,2.86-3,0-.65.03-1.28.05-1.93Z"/>
      <path class="cls-2" d="m149.15,211.33h0s0,.02,0,.02c0,0,.02,0,.03,0l-.02-.03Z"/>
      <path class="cls-2" d="m135.08,211.48c1.38-.11,2.33-.75,2.24-2.24-.07-1.28-.99-1.84-2.19-1.87-1.38-.03-2.47.54-2.48,2.01-.02,1.46,1.02,2.08,2.43,2.1Z"/>
      <path class="cls-2" d="m70.8,217.28c-2.67-3.53-5.33-3.19-6.84,1.04-.66,1.85-1.43,2.45-3.18,2.28-2-.2-3.66.49-4.26,2.45-.6,1.91-.24,3.7,1.35,5.27,3,2.96,6.6,4.34,9.74,4.67,4.86,0,7.05-1.94,6.76-5.78-.27-3.55-1.37-7.04-3.56-9.94Z"/>
      <path class="cls-2" d="m58.77,213.32c.1-1.65-.69-2.64-2.4-2.67-1.7-.02-2.46.94-2.53,2.59-.06,1.49.46,2.4,1.57,2.36,2.09,0,3.25-.55,3.35-2.29Z"/>
      <path class="cls-2" d="m67.42,211.3c1.53.09,2.35-1.04,2.86-2.33.02-1.57-1.11-2.05-2.24-2.28-.04,0-.09-.02-.13-.02-.96-.17-1.63.16-2.02.8-.21.34-.34.77-.38,1.25-.12,1.37.45,2.5,1.91,2.58Z"/>
    </g>
    <g>
      <path class="cls-3" d="m184.85,145.12c-6.14-2.56-12.55-4.13-19.18-4.8-1.1-.11-2.69.44-2.77-1.55-.1-2.33,1.75-1.71,2.93-1.78,6.22-.37,12.4-.22,18.48,1.4,1.04.27,2.24.92,3.42-.15-1.4-1.69-3.34-1.52-5-1.89-5.7-1.23-11.48-1.43-17.29-1.03-1.66.12-3.01.39-3.65-2.01-.67-2.56.99-2.81,2.4-3.44,6.73-3.01,13.79-4.74,21.14-5.32.89-.07,2.33.65,2.59-1.51-5.79-.37-11.24.94-16.63,2.53-3.42,1-7.32,4.16-9.88,3.24-2.42-.88-3.36-5.82-4.97-8.97-.31-.61-.6-1.28-1.08-1.76-1.89-1.95-1.56-4.02-.93-6.45,3.17-12.25,2.96-24.6.12-36.85-2.09-9.07-7.28-11.18-15.64-6.86-8.93,4.62-16.19,11.42-23.39,18.26-1.66,1.57-3.07,2.12-5.44,1.54-8.54-2.09-17.23-2.26-25.82-.32-2.66.6-4.23.02-6.04-1.87-6.86-7.17-13.87-14.23-22.65-19.14-7.94-4.43-13.14-2.36-15.6,6.39-3.02,10.76-4.14,21.78-2.01,32.74,1.27,6.54,2.02,12.56-2.23,18.25-.55.74-.85,1.76-.97,2.7-.45,3.62-2.2,3.37-4.89,2.08-5.26-2.52-10.9-3.88-16.66-4.65-2.68-.36-5.47-1.04-8.45.07,1.38,1.45,2.86.94,4.13,1.04,7.64.6,14.92,2.5,21.91,5.63,1.46.65,2.66,1.24,2.19,3.3-.49,2.13-1.96,1.54-3.24,1.45-7.07-.53-14.06-.15-20.94,1.63-1.18.31-2.79.08-3.21,1.78.86.91,1.66.36,2.4.14,6.43-1.91,13.01-2.38,19.65-1.91,1.65.12,4.65-.99,4.56,1.81-.07,2.4-2.91,1.18-4.48,1.4-7.89,1.08-15.49,2.96-22.79,7.07,1.95,1.38,3.03.06,4.15-.41,6.28-2.64,12.8-4.21,19.56-4.98,2.59-.3,3.84.1,4.22,3.15,1.65,13.2,8.81,22.75,21.25,27.05,6.72,2.33,8.27,6.07,7.89,12.22-.26,4.29-5.2,11.43-9.37,12.78-7.06,2.27-9.66,8.83-6.29,15.52.59,1.17,2.39,1.99,1.19,3.93-2.54,4.11-1.3,7.9,1.38,11.45.79.86,1.57,1.72,2.37,2.58,1.04.87,2.09,1.75,3.12,2.62,2.01,1.8,4.25,3.19,6.87,3.92,5.26,2.69,11.48,5.5,16.41,2.17,5.29-3.57,10.89-5.77,16.57-8.14.36-.16.6-.7.94-.78,2.73-.58,5.86-1.78,7.97.63,2.19,2.53,4.77,3.88,7.8,3.99,4.78.18,9.28-.17,12.79,4.43,1.66,2.16,5.32,1.86,8.25,1.46,3.97-.55,7.68-1.95,11.32-3.65,3.67-1.71,6.38-4.73,9.85-6.7-.02-.65-.12-1.35.66-1.69,2.04-2.42,3.53-5.24,2.71-8.33-.74-2.8-.39-5.22.31-7.91,2.05-8.02-2.32-13.92-10.56-14.65-.94-.08-1.86.05-2.78-.5-5.18-3.12-8.72-14.75-6.04-19.98.46-.89,1.33-.94,2.05-1.17,15.48-5,22.76-16.07,23.44-31.88.11-2.5,1.18-2.61,3.07-2.34,4.09.59,8.2,1.15,12.15,2.43,3.2,1.03,6.35,2.19,9.8,3.39-.39-2.24-1.99-2.3-3.15-2.78Zm-122.1,46.84c.31,2.31,1.23,4.46.96,6.84q-5.78-2.48-.96-6.84Zm-13.1,8.78c4.36-3.79,9.95-3.05,14.7,2.11-2.29,1.96-4.53,2.97-7.49,3.16-4.43.28-6.67,3.43-7.23,7.89-4.18-5.12-4.12-9.56.02-13.17Zm25.23,37.48c-4.55.54-8.64-1.12-12.7-2.79-.17-.1-.34-.2-.51-.3h0c-1.9-1.1-3.82-2.2-5.71-3.3h0c-.17-.11-.35-.21-.52-.31-2-2.21-4.77-3.75-5.8-6.79-1.22-1.9-1.47-3.81.05-5.69,1.47-1.36,2.77-2.48,2.58-5.03-.27-3.63,2.81-5.67,6.85-4.84,2.03.42,3.3.71,4.69-1.52,1.94-3.11,5.95-3,7.87.15,3.93,6.43,7.54,13.1,10.18,20.16,1.86,4.99-1.57,9.63-6.98,10.27Zm40.04-5.17c-1.47-1.07.97-2.23-.23-3.35-2.23-.03-1.03,4.09-4.08,3.37-4.1-.98.73-3.4-.93-4.69-.25,0-.55-.12-.75-.02-1.29.67-.75,3.5-2.72,2.95-1.76-.5-1.04-2.63-1.14-4.06-.74-9.78.12-19.57-.08-29.34-.02-1.26.65-3.2-1.31-3.36-2.38-.2-1.77,1.96-1.83,3.33-.34,8.27-.17,16.54.74,24.77.31,2.88-.19,4.03-3.54,4.03-3.62,0-2.69-1.91-2.6-3.91.4-8.66,1.53-17.31.7-26.01-.12-1.32.76-3.66-1.49-3.62-2.64.04-1.45,2.53-1.46,3.92-.09,8.82,0,17.64,0,26.46,0,.96-.07,1.94-.25,2.87-.25,1.28.36,3.22-1.33,3.56-1.56.31-1.18-1.87-2.09-2.63-.27-.23-.56-.45-.79-.64-.98.59-.55,1.18-.4,1.85.22.96,1.95,2.19-.34,2.84-1.52.43-2.19-.09-3.15-1.56-3.9-6-6.47-12.66-9.85-18.91-1.69-3.12-2.96-6.63-6.92-7.73-1.2-.33-1.13-1.41-1.35-2.32-1.7-6.98-2.67-14.05-2.98-21.24-.12-2.84.67-3.11,3.28-2.42,13.28,3.56,26.89,4.29,40.57,4.12.53,0,1.05-.24,1.58-.36,3.38.13,6.75.3,10.04-.58.28-.07.56-.15.84-.24,3.61-.02,7.11-.82,10.58-1.68,2.02-.51,2.69.02,2.57,2.14-.62,10.15-1.18,20.15-6.31,29.49-3.68,6.68-8.07,13.18-9.41,20.97-.36,2.05-2.21,1.64-3.56,2.02Zm38.31-7.45c-5.86,8.59-14.26,12.79-24.38,13.21-6.26.26-9.95-5.38-7.44-11.1,2.82-6.41,6.1-12.64,9.52-18.75,2.07-3.71,6.13-3.95,8.35-.55,1.18,1.81,2.1,1.91,3.96,1.53,2.05-.41,4.41-1.01,5.89,1.39h0c1.34.56,1.81,1.76,1.56,2.98-.53,2.55.97,3.96,2.59,5.38,1.63,1.99,1.09,3.95-.06,5.91Zm-1.61-24.35c3.56,2.51,4.26,6.94,1.9,13.6-1.07-5.96-4.34-8.5-10.1-8.49-2.45,0-4.16-2.82-7-3.24,5.39-4.07,11.2-4.69,15.21-1.88Zm-10.57-3.03c-2.08,1.25-4.21,1.74-6.38,4.05.61-3.4,1.03-5.71,1.55-8.57,1.78,1.66,3.19,2.98,4.83,4.52Zm13.36-56.18c6.47-.07,6.52-.07,5.48,6.19-2.1,12.67-8.39,21.77-21.35,25.49-5.82,1.67-11.72,2.85-17.65,3.96-4.03.38-8.07.77-12.11,1.16-.75.07-1.5.14-2.25.22-17.67.15-34.89-2.1-51.29-9.16-9.72-4.18-16.51-10.76-18.88-21.37-1.37-6.14-1.44-6.12,4.02-7.21.14-1-.65-.94-1.26-1.18-1.24-.49-3.86.83-3.53-1.3.25-1.64,2.52.23,3.9-.02.39-.07.8-.08,1.2-.12-.31-.54-.63-1.08-.94-1.62-1.49-.36-3.35.1-4.22-1.66-.19-.39.08-1.47.23-1.48,2.11-.26,3.25,1.51,4.82,2.43.54-.06,1.08-.11,1.62-.17-.02-1.2-.99-1.72-1.82-2.03-5.07-1.87-4.25-5.16-2.66-9.11,4.45-11,11.99-19.33,21.64-25.94.79-.55,1.62-1.04,2.42-1.58.66-.45,1.71-.88,1.18-1.83-.77-1.37-1.69-.18-2.37.25-6.47,4.07-12.18,9-17.07,14.89-.68.82-1.37,1.62-2.48,2.94-3.13-14.56-2.77-28.36,1.77-41.92,1.71-5.11,4.6-6.06,9.76-3.67,10.11,4.67,17.66,12.52,25.34,20.37-1.99,1.9-5.13,1.57-6.6,4.68,18.27-6.74,36.32-7.36,54.12,1.44-.77-2.21-2.67-2.56-4.25-3.3-1.59-.74-3.24-1.37-5.29-2.22,8.08-7.82,16.08-15.32,26.46-19.6,5.08-2.1,8.03-.75,9.46,4.44,3.54,12.86,3.67,25.81.48,39.26-4.02-4-7.49-8.02-11.65-11.3-.87-.68-1.72-1.37-2.63-2-.64-.43-1.41-1.23-2.08-.18-.44.7.18,1.25.75,1.7,1.29,1.03,2.6,2.04,3.87,3.1,7.54,6.28,13.41,13.77,17.13,22.94.95,2.35.82,3.72-1.68,4.77-1.49.62-2.79,1.75-4.14,2.7-.53.37-1.37.81-.83,1.6.71,1.03,1.42-.19,2.14-.22,1.32-.93,2.61-1.91,3.97-2.77.82-.52,1.85-1.65,2.46.28.45,1.43.17,2.33-1.55,2.48-1.33.12-2.65.46-3.98.7-.46.63-1.85.52-1.62,1.55.27,1.23,1.27.54,2,.37,1.34-.31,2.67-.65,4.01-.94.84-.19,1.71-.28,1.9.86.19,1.21-.73,1.18-1.56,1.3-2.02.32-4.31-.57-6.16.96.42,1.14,1.16.92,1.77.91Z"/>
      <path class="cls-3" d="m68.04,127.18c-4.08.92-6.78,6.06-5.75,10.97,1.04,4.95,4.55,8.24,8.25,7.63,1.83-.31,3.36-1.19,4.46-2.73,1.4-1.97,2.18-4.12,2.09-6.58-.15-1.08-.2-2.19-.47-3.25-1.11-4.16-4.98-6.86-8.57-6.04Z"/>
      <path class="cls-3" d="m123.92,126.86c-4.5,0-7.69,3.92-7.7,9.43,0,5.27,3.22,9.31,7.4,9.27,4.09-.04,7.4-4.36,7.49-9.8.07-5.02-3.06-8.91-7.2-8.9Z"/>
      <path class="cls-3" d="m140.58,93.67c.13.65,1.99-.16,2.72-1.04,1.19-1.43,1.71-3.11,1.6-5-.41-2.68-.41-5.8-2.97-7.31-2.47-1.47-4.21,1.31-6.23,2.23-1.18.54-2.07,1.76-3.07,2.69-1.13,1.05-1.32,2.52-.99,3.83,1.17,4.74,7.82-.85,8.94,4.61Z"/>
      <path class="cls-3" d="m53.64,79.03c-4.52.17-3.2,4.35-4.4,6.79-.18.36-.19.8-.29,1.27.18,1.95.83,3.73,2.62,4.84,1.1.69,2.33.33,2.91-.69,1.25-2.21,2.59-1.89,4.66-1.04,2.34.96,3.68-.65,3.58-2.97-.12-2.72-6.29-8.3-9.07-8.19Z"/>
      <path class="cls-3" d="m45.02,92.12c-2.05-.33-.54,2.57-1.25,3.88.68,1.76-1.11,4.79,2.05,4.97,1.94.11,3.79-1.47,3.87-4,.08-3.19-2.82-4.55-4.67-4.84Z"/>
      <path class="cls-3" d="m128.03,118.74c.91.3,1.45-.41,1.63-1.32-.65-1.64-2.11-1.96-3.59-2.1-1.03-.1-2.11.31-1.72,1.54.53,1.66,2.38,1.45,3.68,1.89Z"/>
      <path class="cls-3" d="m65.34,120.21c1.05-.77,3.26.15,3.48-1.98.13-1.32-1.16-1.33-2.09-1.23-1.31.13-2.93.07-3.14,1.89-.11.94.7,1.38,1.76,1.32Z"/>
      <path class="cls-3" d="m149.18,101.19c1.93,0,1.43-1.56,1.48-2.66.02-.75.11-1.7-1.16-1.73-1.19.54-1.68,1.66-1.82,2.86-.11.93.64,1.53,1.5,1.53Z"/>
      <path class="cls-3" d="m101.03,138.51c-1.08-.88-1.99-.33-3.01.19-.65.33-.89,2.14-2,.89-1.29-1.45-2.56-2.91-4.31-1.01-1.49,1.61-.69,3.86.65,4.8,4.74,3.34,3.82,8.24,4.25,12.88.3,3.14-.36,6.46,1.27,9.85,1.29-1.23,1.07-2.04,1.07-2.86-.03-7.37-3.72-15.16,2.65-21.81.7-.74.48-2.09-.56-2.94Z"/>
    </g>
  </g>
  <g>
    <path class="cls-1" d="m168.06,13.1c.34-.27.69-.51,1-.81,8.05-7.63,20.36-6.29,26.59,2.91.21.31.43.62.7,1.01,7.49-6.05,15.58-7.34,23.86-2.16,7.22,4.52,9.67,11.54,8.57,19.96,3.67,1.23,6.85,3.21,9.15,6.41.58.8,1.08,1.66,1.55,2.53.43.79.89,1.71-.23,2.28-1.1.56-1.54-.3-1.97-1.14-1.94-3.76-4.89-6.31-9.05-7.56-1.05,1.88-2.08,3.73-3.01,5.39,1.49.83,3.19,1.46,4.48,2.56,3.24,2.77,3.7,7.41,1.32,10.93-2.32,3.43-6.72,4.65-10.54,2.92-4.88-2.21-8.16-1.65-12.02,2.06-1.5,1.44-1.66,3.35-.4,4.71,1.2,1.29,3.21,1.44,4.57,0,1.78-1.87,3.42-1.86,5.73-.84,9.41,4.15,20.08-2.8,20.45-13.15.04-1.01-.43-2.57,1.3-2.46,1.6.1,1.29,1.65,1.13,2.63-.38,2.32-.98,4.6-1.49,6.89l-2.53,3.88c-.45.39-.91.79-1.36,1.18-5.55,4.82-11.76,5.99-18.6,3.24-1.25-.5-2.01-.42-3.01.49-2.5,2.28-5.97,2.08-8.12-.32-2.06-2.3-1.83-5.69.56-8.01,4.58-4.45,8.81-5.18,14.76-2.59,2.33,1.01,4.54.75,6.49-.91,1.86-1.58,2.44-3.65,1.86-5.97-.58-2.35-2.18-3.79-4.52-4.34-1.51-.35-2.87-.1-4.2.87-4.14,3.03-8.83,4.25-13.9,3.47-1.59-.24-2.44.02-3.32,1.42-1.83,2.94-5.23,3.82-8.06,2.35-3.27-1.7-4.36-5.49-2.51-8.77,3.44-6.1,8.24-8.41,15.16-7.28,3.55.58,6.74-1.26,7.87-4.54,1.06-3.09-.21-6.44-3.08-8.12-2.93-1.71-6.7-1.12-8.76,1.66-1.69,2.29-3.71,3.53-6.6,3.3-1.1,3.37-2.83,6.26-5.5,8.54-.71.6-1.47,1.23-2.27.31-.81-.93-.07-1.59.64-2.18,2.03-1.71,3.46-3.83,4.38-6.31.29-.77.29-1.32-.42-2-2.4-2.29-2.68-5.29-.82-8.09.59-.88.55-1.5.04-2.36-3.05-5.16-8.95-8-14.91-7.11-5.98.89-10.91,5.43-12.26,11.29-.53,2.29.32,4.02,2.2,4.47,1.9.45,3.34-.63,3.95-2.98,1.32-5.09,6.31-7.82,11.16-6.11,4.65,1.64,6.87,6.94,4.76,11.53-1.15,2.51-3.18,4.03-5.85,4.69-5.05,1.26-7.55,4.21-7.95,9.41-.14,1.8.88,3.21,2.54,3.51,1.74.31,3.23-.71,3.67-2.52.17-.7.23-1.42.42-2.1.4-1.46,3.2-2.93,4.58-2.35.36.15.8.75.76,1.09-.05.44-.53,1.14-.87,1.17-1.9.16-2.23,1.36-2.55,2.96-.59,2.94-3.44,4.71-6.35,4.22-2.85-.47-4.85-2.99-4.7-5.9.33-6.23,3.75-10.38,9.8-11.89,3.12-.78,5.08-3.38,4.81-6.4-.25-2.85-2.51-5.14-5.36-5.42-3.03-.3-5.64,1.62-6.46,4.73-.99,3.77-3.9,5.68-7.19,4.71-2.77-.82-4.48-3.5-3.95-6.42.27-1.5.78-2.96,1.18-4.44.9-1.39,1.8-2.77,2.71-4.16Zm28.3,31.07c-.36.55-.77,1.08-1.07,1.67-.84,1.64-.29,3.66,1.22,4.68,1.51,1.02,3.6.77,4.81-.61.33-.37.62-.78.85-1.22,1.01-1.93,2.45-2.5,4.65-2.08,6.95,1.34,14.15-2.02,17.5-7.97,4.44-7.9,2.17-17.57-5.28-22.46-7.46-4.89-17.25-3.15-22.72,4.06-1.57,2.07-1.45,4.35.32,5.72,1.77,1.38,3.98.91,5.57-1.19,2.99-3.91,7.9-5.07,12.07-2.85,4.02,2.14,5.88,6.96,4.38,11.33-1.52,4.42-6.03,6.94-10.83,6.06-5.07-.93-8.71.6-11.47,4.85Z"/>
    <path class="cls-1" d="m187.16,64.96c-2.84-1.86-3.64-5.75-1.78-8.59,1.86-2.84,5.77-3.65,8.59-1.8,2.83,1.86,3.64,5.77,1.77,8.6-1.88,2.84-5.75,3.65-8.59,1.79Zm6.47-3.15c1.14-1.71.71-3.95-.97-5.1-1.74-1.19-4.05-.71-5.19,1.08-1.11,1.73-.63,3.94,1.08,5.06,1.72,1.12,3.94.66,5.07-1.04Z"/>
    <path class="cls-1" d="m179,50.88c2.67,1.7,3.42,5.15,1.71,7.82-1.7,2.65-5.22,3.41-7.83,1.69-2.53-1.66-3.29-5.15-1.69-7.74,1.64-2.66,5.17-3.45,7.82-1.77Zm-.34,6.47c.9-1.43.48-3.43-.93-4.36-1.48-.99-3.49-.52-4.42,1.03-.91,1.5-.46,3.37,1.02,4.3,1.47.92,3.41.49,4.33-.96Z"/>
    <path class="cls-1" d="m203.73,66.97c2.65,1.74,3.36,5.19,1.6,7.83-1.71,2.56-5.14,3.31-7.72,1.68-2.62-1.66-3.41-5.24-1.72-7.85,1.71-2.64,5.21-3.39,7.84-1.66Zm-4.75,7.39c1.48.92,3.44.47,4.36-.99.91-1.45.44-3.46-1.01-4.37-1.47-.92-3.4-.46-4.34,1.04-.95,1.49-.51,3.39.99,4.33Z"/>
  </g>
</svg>