<?xml version="1.0" encoding="UTF-8"?>
<svg id="Layer_1" data-name="Layer 1" xmlns="http://www.w3.org/2000/svg" xmlns:xlink="http://www.w3.org/1999/xlink" viewBox="0 0 72 72">
  <defs>
    <style>
      .cls-1 {
        fill: url(#New_Gradient_Swatch-2);
      }

      .cls-1, .cls-2, .cls-3, .cls-4, .cls-5, .cls-6, .cls-7, .cls-8 {
        stroke-width: 0px;
      }

      .cls-2 {
        fill: url(#New_Gradient_Swatch-4);
      }

      .cls-3 {
        fill: url(#New_Gradient_Swatch-7);
      }

      .cls-4 {
        fill: url(#New_Gradient_Swatch-6);
      }

      .cls-5 {
        fill: url(#New_Gradient_Swatch);
      }

      .cls-6 {
        fill: url(#New_Gradient_Swatch-5);
      }

      .cls-7 {
        fill: url(#New_Gradient_Swatch-3);
      }

      .cls-8 {
        fill: #fff;
        opacity: 0;
      }
    </style>
    <linearGradient id="New_Gradient_Swatch" data-name="New Gradient Swatch" x1="9" y1="36" x2="63" y2="36" gradientUnits="userSpaceOnUse">
      <stop offset="0" stop-color="#58d3cc"/>
      <stop offset="1" stop-color="#4ab6ff"/>
    </linearGradient>
    <linearGradient id="New_Gradient_Swatch-2" data-name="New Gradient Swatch" x1="36.08" y1="36" x2="48.37" y2="36" xlink:href="#New_Gradient_Swatch"/>
    <linearGradient id="New_Gradient_Swatch-3" data-name="New Gradient Swatch" x1="23.76" y1="35.99" x2="36.05" y2="35.99" xlink:href="#New_Gradient_Swatch"/>
    <linearGradient id="New_Gradient_Swatch-4" data-name="New Gradient Swatch" x1="21.31" y1="22.45" x2="23.74" y2="22.45" xlink:href="#New_Gradient_Swatch"/>
    <linearGradient id="New_Gradient_Swatch-5" data-name="New Gradient Swatch" x1="48.39" y1="22.45" x2="50.82" y2="22.45" xlink:href="#New_Gradient_Swatch"/>
    <linearGradient id="New_Gradient_Swatch-6" data-name="New Gradient Swatch" x1="21.31" y1="49.54" x2="23.74" y2="49.54" xlink:href="#New_Gradient_Swatch"/>
    <linearGradient id="New_Gradient_Swatch-7" data-name="New Gradient Swatch" x1="48.39" y1="49.54" x2="50.82" y2="49.54" xlink:href="#New_Gradient_Swatch"/>
  </defs>
  <rect class="cls-8" width="72" height="72"/>
  <g>
    <path class="cls-5" d="m24.64,63.08c-.68-.36-.91-.93-.89-1.68.04-1.62.01-3.24.01-4.87,0-.25,0-.5,0-.84-2.15.14-4.06-.27-5.58-1.8-1.52-1.52-1.95-3.42-1.79-5.59-1.05,0-2,0-2.96,0-.99,0-1.97,0-2.96,0-.93-.01-1.49-.5-1.47-1.25.02-.72.57-1.19,1.46-1.19,1.92,0,3.85,0,5.84,0v-4.93c-1.2,0-2.4,0-3.59,0-.7,0-1.41,0-2.11,0-1,0-1.58-.45-1.6-1.21-.02-.78.58-1.26,1.62-1.26,1.62,0,3.24,0,4.86,0,.26,0,.51,0,.83,0v-4.87c-.25-.01-.5-.03-.75-.03-1.62,0-3.24,0-4.86,0-.32,0-.68-.01-.97-.14-.54-.24-.81-.71-.7-1.32.11-.62.59-1,1.34-1,1.72-.02,3.43,0,5.15,0,.25,0,.5,0,.8,0v-4.93c-.48,0-.94,0-1.41,0-1.5,0-3.01.01-4.51,0-.87,0-1.42-.52-1.4-1.25.02-.71.54-1.18,1.39-1.19,1.72-.02,3.43,0,5.15,0,.25,0,.5,0,.84,0-.13-2.15.28-4.05,1.8-5.58,1.52-1.53,3.43-1.94,5.59-1.81,0-.53,0-1,0-1.46,0-1.48,0-2.96,0-4.44,0-.93.5-1.49,1.25-1.47.72.02,1.19.57,1.19,1.46.01,1.69,0,3.38,0,5.08,0,.25,0,.5,0,.79h4.93c0-1.27,0-2.51,0-3.75,0-.71-.01-1.41,0-2.12.02-.89.48-1.44,1.2-1.47.74-.02,1.26.55,1.27,1.47.02,1.72,0,3.43,0,5.15,0,.21,0,.42,0,.69h4.86c.01-.23.03-.48.03-.73,0-1.57,0-3.15,0-4.72,0-.23,0-.47.03-.7.1-.69.59-1.15,1.21-1.15.65,0,1.18.49,1.21,1.22.04,1.1.02,2.21.02,3.31,0,.91,0,1.82,0,2.78h4.93c0-.25,0-.5,0-.75,0-1.69,0-3.38,0-5.08,0-.93.49-1.5,1.23-1.49.75,0,1.21.57,1.21,1.51.01,1.67,0,3.34,0,5.01,0,.25,0,.51,0,.86,2.13-.14,4.04.27,5.57,1.78,1.53,1.52,1.95,3.42,1.82,5.6.34,0,.61,0,.88,0,1.62,0,3.24.01,4.86,0,.6,0,1.11.13,1.5.6v1.27c-.4.46-.9.6-1.5.59-1.45-.02-2.91,0-4.37,0-.44,0-.87,0-1.32,0v4.93c1.9,0,3.74-.04,5.59.03.54.02,1.06.34,1.6.53v1.27c-.35.52-.88.66-1.47.65-1.67,0-3.33,0-5,0-.25,0-.49.02-.73.04v4.86c.29,0,.54,0,.8,0,1.64,0,3.28,0,4.93,0,.59,0,1.11.13,1.47.65v1.27c-.53.18-1.06.51-1.6.53-1.62.07-3.24.02-4.86.03-.23,0-.46.02-.78.03,0,.41.02.78,0,1.14-.06.78-.56,1.27-1.24,1.26-.68,0-1.16-.51-1.22-1.3-.01-.21,0-.42,0-.63,0-6.16,0-12.32,0-18.47,0-2.72-1.46-4.18-4.17-4.18-8.69,0-17.39,0-26.08,0-2.72,0-4.19,1.46-4.19,4.17,0,8.7,0,17.39,0,26.09,0,2.73,1.45,4.19,4.17,4.19,8.69,0,17.39,0,26.08,0,2.73,0,4.19-1.45,4.19-4.16,0-.61-.02-1.22,0-1.83.03-.89.48-1.36,1.36-1.37,2.37-.02,4.75-.03,7.12.02.41,0,.82.36,1.22.56v1.27c-.37.45-.85.61-1.43.6-1.53-.02-3.05,0-4.58,0-.39,0-.78,0-1.24,0,.13,2.17-.28,4.08-1.82,5.6-1.53,1.52-3.43,1.93-5.58,1.78,0,.35,0,.6,0,.85,0,1.62-.03,3.24.01,4.86.02.76-.21,1.33-.89,1.68h-.71c-.67-.37-.93-.93-.87-1.69.04-.56,0-1.13,0-1.69,0-1.31,0-2.61,0-3.94h-4.93c0,1.88-.02,3.71.01,5.53.02.77-.18,1.37-.85,1.79h-.71c-.72-.32-.95-.9-.94-1.65.02-1.48,0-2.96,0-4.43,0-.41,0-.83,0-1.24h-4.9c0,1.93-.01,3.8,0,5.67,0,.75-.22,1.33-.94,1.65h-.71c-.67-.41-.88-1.02-.85-1.79.04-1.12.01-2.25.01-3.38,0-.72,0-1.44,0-2.18h-4.92c0,.27,0,.5,0,.72,0,1.64-.03,3.28.01,4.92.02.76-.21,1.32-.88,1.69h-.71Z"/>
    <path class="cls-1" d="m41.03,26.14c-.02.29-.04.5-.04.7,0,2.91,0,5.83,0,8.74,0,.41.08.66.49.88,1.54.81,2.27,2.49,1.86,4.1-.43,1.65-1.86,2.79-3.54,2.8-1.68.02-3.16-1.11-3.59-2.74-.43-1.65.24-3.31,1.78-4.13.47-.25.54-.54.54-1-.01-3.31,0-6.63,0-9.94,0-1.52.35-1.87,1.86-1.87,1.34,0,2.68-.01,4.02,0,2.45.02,3.96,1.51,3.96,3.96.01,5.55.01,11.09,0,16.64,0,2.49-1.5,3.98-4,4-2.21.01-4.42,0-6.63,0-.16,0-.33,0-.49-.02-.69-.08-1.16-.56-1.17-1.19-.01-.65.49-1.18,1.2-1.23.51-.03,1.03-.01,1.55-.01,1.83,0,3.67,0,5.5,0,1.12,0,1.58-.46,1.58-1.59,0-5.5,0-11,0-16.5,0-1.17-.45-1.61-1.63-1.62-1.06,0-2.11,0-3.25,0Zm-1.25,12.34c-.67,0-1.21.52-1.22,1.19,0,.66.53,1.22,1.19,1.23.65,0,1.22-.54,1.23-1.2,0-.66-.54-1.21-1.2-1.22Z"/>
    <path class="cls-7" d="m31.14,45.85c0-1.29,0-2.48,0-3.68,0-1.93-.01-3.85,0-5.78,0-.43-.11-.65-.51-.87-1.63-.87-2.32-2.67-1.76-4.38.57-1.7,2.21-2.71,4.03-2.48,1.67.21,3.02,1.65,3.12,3.41.09,1.53-.58,2.7-1.91,3.43-.42.23-.53.49-.53.93.02,3.34.01,6.68,0,10.01,0,1.51-.35,1.85-1.88,1.85-1.32,0-2.63,0-3.95,0-2.5-.02-4.01-1.5-4.02-3.98-.01-5.55-.01-11.09,0-16.64,0-2.46,1.5-3.96,3.94-3.98,2.28-.02,4.56,0,6.84,0,.64,0,1.17.16,1.41.82.32.86-.29,1.62-1.34,1.63-2.11.01-4.23,0-6.34,0-.19,0-.38,0-.56,0-1.03.03-1.49.49-1.5,1.54-.01,1.41,0,2.82,0,4.23,0,4.07,0,8.13,0,12.2,0,1.32.41,1.74,1.72,1.74,1.03,0,2.06,0,3.21,0Zm2.44-13.55c0-.66-.56-1.21-1.21-1.21-.65,0-1.21.57-1.21,1.22,0,.66.56,1.2,1.22,1.2.67,0,1.2-.54,1.2-1.21Z"/>
    <path class="cls-2" d="m23.74,22.44c.01.66-.54,1.22-1.2,1.23-.66.01-1.22-.54-1.23-1.2-.01-.66.54-1.22,1.2-1.23.66-.01,1.22.54,1.23,1.2Z"/>
    <path class="cls-6" d="m49.59,23.67c-.66-.01-1.21-.58-1.2-1.23.01-.66.58-1.21,1.23-1.2.66.01,1.21.58,1.2,1.23-.01.66-.58,1.21-1.23,1.2Z"/>
    <path class="cls-4" d="m22.55,50.75c-.66.01-1.22-.54-1.23-1.2-.01-.66.54-1.22,1.2-1.23.66-.01,1.22.54,1.23,1.2.01.66-.54,1.22-1.2,1.23Z"/>
    <path class="cls-3" d="m50.82,49.55c-.01.66-.58,1.21-1.23,1.2-.66-.01-1.21-.58-1.2-1.23.01-.66.58-1.21,1.23-1.2.66.01,1.21.58,1.2,1.23Z"/>
  </g>
</svg>