<svg width="479" height="501" viewBox="0 0 479 501" fill="none" xmlns="http://www.w3.org/2000/svg">
<path d="M176.04 500.893L8.22705 327.66L188.038 455.683L475.407 425.742L176.04 500.893Z" fill="black"/>
<path d="M186.75 409.737L191.358 249.988C191.431 247.469 193.368 245.397 195.876 245.155L469.927 218.747C472.864 218.464 475.407 220.773 475.407 223.724V418.758C475.407 421.274 473.537 423.398 471.042 423.718L213.332 456.734" stroke="black" stroke-width="7" stroke-linecap="round"/>
<path d="M191.485 246.094L17.2735 145.625C13.9402 143.703 9.77563 146.108 9.77563 149.956V323.093C9.77563 324.666 10.5158 326.147 11.7738 327.092L98.8237 392.442L187.872 459.293" stroke="black" stroke-width="7" stroke-linecap="round"/>
<rect x="300.83" y="268.905" width="84.2462" height="32.569" rx="16.2845" transform="rotate(-4.10101 300.83 268.905)" stroke="black" stroke-width="7"/>
<path d="M283.889 360.179L311.765 357.082" stroke="black" stroke-width="7" stroke-linecap="round"/>
<path d="M309.184 378.766L339.124 375.152" stroke="black" stroke-width="7" stroke-linecap="round"/>
<path d="M385.068 347.791L405.717 345.727" stroke="black" stroke-width="7" stroke-linecap="round"/>
<path d="M326.219 354.502L370.614 349.34" stroke="black" stroke-width="7" stroke-linecap="round"/>
<path d="M354.611 373.086L381.455 369.988" stroke="black" stroke-width="7" stroke-linecap="round"/>
<path d="M220.043 226.996L235.123 197.959C235.916 196.433 237.437 195.421 239.151 195.28L466.573 176.575C470.337 176.265 473.073 180.082 471.57 183.548L456.307 218.737" stroke="black" stroke-width="7" stroke-linecap="round"/>
<path d="M333.051 4.76179L378.171 156.13C379.07 159.146 376.992 162.233 373.859 162.535L206.136 178.719C204.41 178.885 202.893 179.935 202.128 181.492L177.381 231.887C176.084 234.527 172.801 235.483 170.29 233.952L155.53 224.952C154.421 224.276 153.619 223.195 153.293 221.938L102.129 24.7341C101.348 21.7223 103.477 18.7359 106.579 18.4936L327.87 1.20525C330.22 1.02171 332.378 2.50347 333.051 4.76179Z" fill="black"/>
<path d="M176.515 235.255L201.627 180.106C202.378 178.459 203.96 177.345 205.764 177.195L443.406 157.474C447.156 157.163 449.893 160.95 448.421 164.413L442.885 177.438" stroke="black" stroke-width="7" stroke-linecap="round"/>
<path d="M105.276 22.0547C97.0166 23.0871 54.6451 34.8711 65.5281 77.2903C77.0504 122.201 84.2773 153.691 88.9232 173.307" stroke="black" stroke-width="7" stroke-linecap="round"/>
<path d="M62.4304 156.274L41.9126 74.0799C39.7346 65.3547 45.6706 56.6872 54.5932 55.5644L62.4304 54.5781" stroke="black" stroke-width="7" stroke-linecap="round"/>
<path d="M38.8501 132.011L23.7139 68.5156C22.1651 61.8047 21.1328 49.4154 34.5545 46.8343L72.7547 38.0586" stroke="black" stroke-width="7" stroke-linecap="round"/>
<path d="M24.7461 149.564L4.5586 63.1083C2.61813 54.7981 7.99222 46.5454 16.3773 44.959L77.4007 33.4141" stroke="black" stroke-width="7" stroke-linecap="round"/>
<path d="M88.2412 64.9023L106.309 133.043" stroke="black" stroke-width="7" stroke-linecap="round"/>
<path d="M113.186 160.918L121.445 191.375" stroke="black" stroke-width="7" stroke-linecap="round"/>
</svg>
