<svg width="639" height="503" viewBox="0 0 639 503" fill="none" xmlns="http://www.w3.org/2000/svg">
<path d="M111.015 466.565L149.023 466.565C160.069 466.565 169.023 457.611 169.023 446.565L169.023 247.531C169.023 236.486 160.069 227.531 149.023 227.531L23.9999 227.531C12.9542 227.531 3.99992 236.486 3.99993 247.531L3.99993 367.051" stroke="black" stroke-width="7" stroke-linecap="round"/>
<path d="M46.0059 255.535L46.0059 303.542" stroke="black" stroke-width="7" stroke-linecap="round"/>
<path d="M46.0059 319.545L46.0059 326.545" stroke="black" stroke-width="7" stroke-linecap="round"/>
<rect x="147.02" y="230.533" width="233.033" height="28.004" transform="rotate(90 147.02 230.533)" fill="black"/>
<circle cx="41.0071" cy="427.561" r="29.0041" transform="rotate(90 41.0071 427.561)" fill="black"/>
<path d="M67.0224 448.627C67.9872 451.475 68.511 454.531 68.511 457.711C68.511 473.132 56.1971 485.632 41.0071 485.632C25.8171 485.632 13.5032 473.132 13.5032 457.711C13.5032 454.531 14.027 451.475 14.9918 448.627" stroke="black" stroke-width="5" stroke-linecap="round"/>
<path d="M614.502 310.043C614.502 314.348 615.247 318.127 616.354 320.736C616.909 322.045 617.507 322.944 618.043 323.478C618.569 324.003 618.891 324.046 619.003 324.046C619.115 324.046 619.437 324.003 619.963 323.478C620.499 322.944 621.096 322.045 621.652 320.736C622.759 318.127 623.504 314.348 623.504 310.043C623.504 305.739 622.759 301.96 621.652 299.351C621.096 298.041 620.499 297.143 619.963 296.608C619.437 296.084 619.115 296.041 619.003 296.041C618.891 296.041 618.569 296.084 618.043 296.608C617.507 297.143 616.909 298.041 616.354 299.351C615.247 301.96 614.502 305.739 614.502 310.043Z" stroke="black" stroke-width="5"/>
<path d="M226.948 211.029C218.113 211.529 199.544 208.429 195.943 192.027C192.343 175.624 197.11 175.191 199.944 177.024C202.023 178.37 202.944 182.025 196.943 190.026" stroke="black" stroke-width="5" stroke-linecap="round"/>
<path d="M186.442 198.528C183.441 198.195 178.941 195.202 178.941 185.526C178.941 171.524 170.44 184.527 170.44 193.028C170.44 200.028 177.941 208.029 188.442 205.529" stroke="black" stroke-width="5" stroke-linecap="round"/>
<path d="M220.447 222.037C209.112 224.037 183.741 215.531 184.942 179.526C185.292 169.022 194.943 164.524 203.444 168.525C213.446 174.026 209.345 192.031 200.944 198.032" stroke="black" stroke-width="5" stroke-linecap="round"/>
<path d="M580.497 310.545C580.497 324.832 583.78 337.643 588.961 346.795C594.184 356.022 601.012 361.052 608.001 361.052C614.99 361.052 621.819 356.022 627.042 346.795C632.222 337.643 635.505 324.832 635.505 310.545C635.505 296.258 632.222 283.446 627.042 274.294C621.819 265.067 614.99 260.037 608.001 260.037C601.012 260.037 594.184 265.067 588.961 274.294C583.78 283.446 580.497 296.258 580.497 310.545Z" stroke="black" stroke-width="5"/>
<path d="M596.499 316.045C596.499 320.35 597.244 324.128 598.351 326.738C598.907 328.047 599.504 328.946 600.04 329.48C600.566 330.005 600.888 330.048 601 330.048C601.112 330.048 601.434 330.005 601.96 329.48C602.496 328.946 603.094 328.047 603.649 326.738C604.756 324.128 605.501 320.35 605.501 316.045C605.501 311.741 604.756 307.962 603.649 305.353C603.094 304.043 602.496 303.145 601.96 302.61C601.434 302.086 601.112 302.043 601 302.043C600.888 302.043 600.566 302.086 600.04 302.61C599.504 303.145 598.907 304.043 598.351 305.353C597.244 307.962 596.499 311.741 596.499 316.045Z" stroke="black" stroke-width="5"/>
<path d="M546.993 279.539C541.492 292.374 534.091 325.145 548.493 353.549" stroke="black" stroke-width="5" stroke-linecap="round"/>
<path d="M558.494 257.537L605.001 260.037" stroke="black" stroke-width="5" stroke-linecap="round"/>
<path d="M612.002 360.551C607.001 363.385 593.499 370.052 577.497 370.052C561.495 370.052 554.827 370.719 553.493 371.052" stroke="black" stroke-width="5" stroke-linecap="round"/>
<path d="M579.997 370.553C573.496 383.555 553.294 413.759 524.489 430.561" stroke="black" stroke-width="5" stroke-linecap="round"/>
<path d="M535.991 423.561C536.491 441.73 534.691 480.469 523.489 490.07C512.288 499.671 483.817 494.07 470.982 490.07" stroke="black" stroke-width="5" stroke-linecap="round"/>
<path d="M477.483 434.061C478.65 453.397 477.183 493.169 461.981 497.57C446.778 501.97 420.975 499.403 409.973 497.57C408.306 497.57 404.273 495.369 401.472 486.568C398.672 477.767 395.971 448.896 394.971 435.561" stroke="black" stroke-width="5" stroke-linecap="round"/>
<path d="M504.987 440.062C499.986 443.063 488.884 448.564 478.483 446.563" stroke="black" stroke-width="5" stroke-linecap="round"/>
<path d="M396.971 458.564C379.136 460.064 339.663 460.864 320.461 450.062" stroke="black" stroke-width="5" stroke-linecap="round"/>
<path d="M353.965 459.064C352.799 466.399 348.965 480.567 342.964 482.568C335.463 485.068 316.46 487.068 311.459 482.068" stroke="black" stroke-width="5" stroke-linecap="round"/>
<path d="M320.461 439.563C319.627 455.398 315.06 487.47 303.458 489.07C288.956 491.07 266.453 491.57 251.451 478.068C239.449 467.267 241.45 428.228 243.95 410.059" stroke="black" stroke-width="5" stroke-linecap="round"/>
<path d="M242.45 422.559C217.78 393.055 178.741 312.144 219.947 224.531C241.954 177.739 282.152 152.924 322.045 140.82" stroke="black" stroke-width="5" stroke-linecap="round"/>
<path d="M413.474 132.019C405.209 131.029 395.187 130.535 384.054 130.859" stroke="black" stroke-width="5" stroke-linecap="round"/>
<path d="M437.977 135.02C472.316 142.021 545.993 174.725 577.997 257.537" stroke="black" stroke-width="5" stroke-linecap="round"/>
<circle r="15.0021" transform="matrix(-1 0 0 1 505.987 231.533)" fill="black"/>
<ellipse rx="12.5018" ry="13.0018" transform="matrix(-1 0 0 1 552.493 212.529)" fill="black"/>
<path d="M505.486 158.022C508.153 151.688 511.687 139.886 510.487 133.885" stroke="black" stroke-width="5" stroke-linecap="round"/>
<path d="M511.988 123.885C511.488 121.718 509.087 119.084 503.486 125.885C497.886 132.686 490.485 143.387 487.484 147.888" stroke="black" stroke-width="5" stroke-linecap="round"/>
<path d="M513.987 172.025C519.154 154.022 526.389 116.817 513.987 112.016C501.585 107.216 479.815 132.019 470.481 145.021" stroke="black" stroke-width="5" stroke-linecap="round"/>
<path d="M464.481 175.025C452.979 154.022 427.376 115.517 416.974 129.519C406.573 143.521 407.306 192.695 408.973 215.531" stroke="black" stroke-width="5" stroke-linecap="round"/>
<path d="M425.476 199.529C420.808 185.694 414.274 155.923 425.476 147.522C428.809 145.188 438.377 148.122 449.979 178.526" stroke="black" stroke-width="5" stroke-linecap="round"/>
<path d="M429.591 43.9422C402.74 66.0224 387.76 112.147 383.553 133.019C383.553 76.0875 393.21 50.844 399.876 42.9119C400.889 41.7074 400.714 39.642 399.233 39.1102C388.623 35.3001 363.444 30.0895 349.229 27.411C348.06 27.1905 347.345 26.007 347.729 24.8801C351.102 14.9811 356.9 6.02653 360.355 1.50383C361.008 0.64938 362.218 0.516847 363.084 1.15424C377.435 11.717 411.316 30.7679 429.312 40.5221C430.598 41.2192 430.721 43.0131 429.591 43.9422Z" fill="black"/>
<path d="M324.045 150.418C321.318 151.347 318.805 152.354 316.577 153.445C315.811 153.821 315.173 154.411 314.708 155.127L313.973 156.259C311.632 159.865 314.629 164.584 318.894 164.039C338.29 161.564 366.681 158.644 382.678 158.723C384.301 158.731 385.84 158.002 386.766 156.67C389.036 153.404 392.036 148.475 392.792 144.297C393.193 142.08 391.147 140.555 388.897 140.645C387.53 140.701 386.078 140.769 384.554 140.852" stroke="black" stroke-width="5" stroke-linecap="round"/>
<path d="M313.96 158.023C327.562 150.822 376.135 147.855 389.47 147.521C389.471 150.022 386.97 154.522 384.47 157.023C369.468 156.523 324.961 163.024 314.96 163.024L313.96 158.023Z" fill="black"/>
<path d="M385.054 148.02C382.159 121.969 381.405 65.8531 400.393 42.8887C401.338 41.7451 400.907 39.9531 399.493 39.5027C383.523 34.4146 351.274 26.106 327.068 26.4685C326.165 26.482 325.403 27.0917 325.203 27.9718C319.903 51.2505 313.015 106.75 325.545 154.521" stroke="black" stroke-width="5" stroke-linecap="round"/>
</svg>
