<svg width="395" height="503" viewBox="0 0 395 503" fill="none" xmlns="http://www.w3.org/2000/svg">
<path d="M8.31515 319.933L30.4233 315.913C31.4044 315.735 32.2328 315.081 32.6336 314.168L39.7335 297.996C40.2255 296.875 39.9875 295.568 39.1321 294.693L22.4183 277.59C21.181 276.324 21.3033 274.268 22.6818 273.157L51.9515 249.579C53.2585 248.526 55.175 248.75 56.2038 250.076L73.8816 272.861C74.8965 274.169 76.7793 274.408 78.0884 273.394L89.0724 264.89C89.9256 264.23 90.3583 263.162 90.2057 262.094L86.6642 237.303C86.406 235.496 87.8084 233.879 89.634 233.879H119.772C121.429 233.879 122.772 235.222 122.772 236.879V256.981C122.772 258.236 123.553 259.358 124.73 259.794L146.779 267.961C147.802 268.34 148.951 268.133 149.778 267.421L166.523 253.012C167.809 251.906 169.755 252.085 170.818 253.407L186.562 272.99C187.568 274.242 187.41 276.064 186.203 277.124L170.45 290.955C169.504 291.786 169.177 293.12 169.633 294.294L176.894 313.02C177.463 314.489 179.072 315.267 180.577 314.802L200.649 308.598C202.425 308.049 204.267 309.23 204.509 311.073L208.472 341.187C208.661 342.625 207.795 343.992 206.414 344.435L185.158 351.253C184.192 351.563 183.447 352.34 183.18 353.32L178.257 371.372C178.033 372.193 178.168 373.071 178.63 373.786L190.154 391.669C191.015 393.005 190.684 394.782 189.399 395.718L165.431 413.186C164.37 413.96 162.928 413.953 161.874 413.169L146.736 401.913C145.754 401.182 144.426 401.122 143.382 401.76L129.804 410.058C128.722 410.719 128.173 411.989 128.431 413.23L132.062 430.657C132.429 432.42 131.172 434.107 129.377 434.259L96.2212 437.055C94.5988 437.192 93.1634 436.01 92.9868 434.391L90.692 413.355C90.5496 412.05 89.5746 410.988 88.2857 410.736L70.4607 407.249C69.3187 407.025 68.1506 407.482 67.4635 408.421L56.2595 423.734C55.2219 425.152 53.1931 425.378 51.8681 424.224L26.8246 402.412C25.6991 401.432 25.4654 399.773 26.2762 398.52L39.6167 377.903C40.1936 377.012 40.2562 375.882 39.7813 374.932L29.0194 353.408C28.5112 352.392 27.4724 351.75 26.3361 351.75H8.85181C7.19495 351.75 5.85181 350.406 5.85181 348.75V322.885C5.85181 321.435 6.88868 320.192 8.31515 319.933Z" stroke="black" stroke-width="5"/>
<path d="M190.262 394.524L162.584 415.059C161.522 415.848 160.068 415.847 159.007 415.057L143.884 403.813C142.902 403.082 141.574 403.022 140.53 403.66L126.952 411.958C125.87 412.619 125.321 413.888 125.579 415.129L129.21 432.557C129.577 434.32 128.32 436.007 126.525 436.158L93.3694 438.955C91.747 439.091 90.3116 437.909 90.135 436.291L87.8402 415.255C87.6978 413.949 86.7228 412.888 85.4339 412.636L67.6089 409.149C66.4669 408.925 65.2988 409.382 64.6117 410.321L53.4077 425.633C52.3701 427.051 50.3413 427.278 49.0163 426.124L23.9728 404.312C22.8473 403.332 22.6136 401.673 23.4244 400.42L36.7649 379.803C37.3418 378.911 37.4044 377.781 36.9295 376.831L26.1676 355.308C25.6594 354.291 24.6206 353.649 23.4843 353.649H6C4.34315 353.649 3 352.306 3 350.649V324.784C3 323.334 4.03687 322.092 5.46334 321.833L27.5715 317.813C28.5526 317.635 29.381 316.98 29.7818 316.067L36.8817 299.895C37.3736 298.775 37.1357 297.468 36.2803 296.593L19.5665 279.49C18.3292 278.224 18.4515 276.167 19.83 275.057L49.0997 251.479C50.4067 250.426 52.3232 250.65 53.352 251.976L71.0298 274.761C72.0447 276.069 73.9275 276.307 75.2366 275.294L86.4373 266.622C87.1712 266.054 87.6008 265.178 87.6008 264.25V236.254" stroke="black" stroke-width="5" stroke-linecap="round"/>
<circle cx="107.563" cy="335.589" r="32.6711" stroke="black" stroke-width="5"/>
<path d="M111.84 367.911C127.049 364.109 136.08 351.866 136.08 335.592C136.08 319.317 125.624 302.797 105.662 302.797" stroke="black" stroke-width="5" stroke-linecap="round"/>
<circle cx="281.63" cy="235.78" r="21.2643" stroke="black" stroke-width="5"/>
<path d="M283.531 257.166C294.463 252.413 300.642 246.71 300.642 235.778C299.691 224.847 293.988 218.193 283.531 214.391" stroke="black" stroke-width="5" stroke-linecap="round"/>
<circle cx="268.798" cy="398.328" r="17.9373" stroke="black" stroke-width="5"/>
<path d="M269.275 416.389C279.73 413.537 284.601 406.883 285.433 399.278C286.661 388.058 278.304 382.643 272.601 380.742" stroke="black" stroke-width="5" stroke-linecap="round"/>
<path d="M219.087 249.154L223.779 259.622C224.274 260.725 224.058 262.018 223.23 262.901L212.22 274.645C211.155 275.781 211.136 277.542 212.175 278.701L225.249 293.269C226.24 294.373 227.889 294.587 229.129 293.772L242.164 285.206C243.057 284.619 244.196 284.552 245.153 285.03L254.306 289.607C255.323 290.115 255.965 291.154 255.965 292.29V305.022C255.965 306.679 257.308 308.022 258.965 308.022H284.334C285.991 308.022 287.334 306.679 287.334 305.022V295.855C287.334 294.598 288.117 293.475 289.297 293.04L303.204 287.916C304.492 287.442 305.938 287.902 306.715 289.035L314.808 300.837C315.853 302.362 318.015 302.587 319.352 301.312L335.289 286.116C336.398 285.059 336.532 283.336 335.6 282.12L327.52 271.581C326.785 270.623 326.697 269.317 327.296 268.268L333.175 257.98C333.639 257.168 334.456 256.618 335.383 256.495L352.564 254.204C354.11 253.998 355.241 252.641 355.164 251.083L354.022 227.867C353.94 226.203 352.518 224.924 350.855 225.019L339.166 225.687C337.992 225.754 336.887 225.13 336.34 224.09L328.825 209.811C328.183 208.592 328.454 207.093 329.481 206.176L338.977 197.697C340.143 196.656 340.315 194.895 339.372 193.649L329.672 180.832C328.623 179.446 326.62 179.238 325.31 180.38L314.753 189.574C313.721 190.473 312.211 190.56 311.083 189.784L298.88 181.395C298.186 180.917 297.724 180.17 297.608 179.335L295.822 166.473C295.595 164.845 294.102 163.702 292.471 163.91L271.894 166.529C270.396 166.719 269.273 167.994 269.273 169.505V181.234C269.273 182.574 268.385 183.751 267.097 184.119L257.33 186.909C256.466 187.156 255.537 187.003 254.798 186.491L239.458 175.872C238.279 175.055 236.687 175.188 235.659 176.187L222.461 189.019C221.276 190.171 221.246 192.063 222.392 193.252L231.487 202.684C232.46 203.693 232.604 205.242 231.834 206.414L223.108 219.692C222.554 220.536 221.611 221.045 220.601 221.045H209.101C207.624 221.045 206.366 222.12 206.138 223.58L203.2 242.305C202.943 243.948 204.07 245.487 205.715 245.736L216.799 247.415C217.808 247.568 218.67 248.223 219.087 249.154Z" stroke="black" stroke-width="5"/>
<path d="M338.189 197.757L326.821 182.734C325.772 181.348 323.769 181.141 322.458 182.282L311.901 191.477C310.869 192.376 309.359 192.462 308.231 191.687L296.028 183.297C295.334 182.82 294.872 182.072 294.756 181.238L292.97 168.375C292.744 166.747 291.25 165.604 289.62 165.812L269.043 168.431C267.544 168.622 266.421 169.896 266.421 171.407V183.137C266.421 184.476 265.533 185.653 264.245 186.021L254.478 188.812C253.614 189.059 252.685 188.905 251.946 188.394L236.606 177.774C235.427 176.958 233.836 177.09 232.808 178.09L219.609 190.921C218.425 192.073 218.394 193.966 219.541 195.155L228.635 204.586C229.608 205.595 229.753 207.144 228.983 208.316L220.257 221.595C219.702 222.439 218.76 222.947 217.75 222.947H206.25C204.772 222.947 203.515 224.023 203.286 225.482L200.349 244.207C200.091 245.85 201.219 247.389 202.863 247.638L213.947 249.318C214.956 249.471 215.818 250.126 216.235 251.057L221.003 261.692C221.459 262.709 221.313 263.895 220.624 264.772L211.288 276.654" stroke="black" stroke-width="5" stroke-linecap="round"/>
<path d="M327.738 379.839L317.744 386.042C316.863 386.589 316.326 387.553 316.326 388.591V400.1C316.326 401.327 317.073 402.43 318.212 402.885L325.904 405.962C327.241 406.497 328.01 407.906 327.735 409.32L325.353 421.567C325.079 422.976 323.845 423.994 322.409 423.994H308.321C307.376 423.994 306.487 424.439 305.921 425.194L300.925 431.854C300.182 432.846 300.124 434.193 300.782 435.244L307.483 445.966C308.408 447.446 307.879 449.401 306.333 450.212L292.766 457.335C291.329 458.09 289.552 457.564 288.757 456.15L282.491 445.01C281.959 444.065 280.96 443.481 279.876 443.481H266.572C265.335 443.481 264.225 444.24 263.776 445.393L258.874 457.998C258.306 459.461 256.706 460.238 255.205 459.781L239.128 454.888C237.447 454.377 236.564 452.536 237.216 450.904L241.708 439.674C242.255 438.307 241.729 436.745 240.466 435.988L229.988 429.701C229.014 429.116 227.793 429.132 226.834 429.742L220.749 433.615C219.248 434.57 217.25 434.017 216.455 432.426L209.728 418.973C209.007 417.531 209.555 415.776 210.969 415.001L221.613 409.164C222.573 408.637 223.17 407.629 223.17 406.533V394.302C223.17 393.26 222.63 392.293 221.743 391.747L213.067 386.408C211.779 385.615 211.282 383.988 211.908 382.611L216.825 371.795C217.46 370.397 219.048 369.705 220.504 370.19L229.944 373.337C231.266 373.778 232.717 373.25 233.448 372.063L238.838 363.304C239.431 362.34 239.431 361.124 238.838 360.159L233.726 351.853C232.876 350.472 233.278 348.666 234.632 347.775L247.476 339.325C248.965 338.345 250.974 338.872 251.791 340.455L257.028 350.602C257.543 351.599 258.571 352.226 259.694 352.226H274.693C275.995 352.226 277.149 351.386 277.548 350.147L280.648 340.538C281.18 338.888 282.995 338.032 284.606 338.669L299.45 344.537C300.922 345.119 301.688 346.744 301.201 348.25L297.494 359.71C297.102 360.921 297.517 362.248 298.53 363.02L305.017 367.962C306.084 368.775 307.561 368.781 308.635 367.976L317.31 361.469C318.788 360.361 320.907 360.839 321.766 362.475L328.812 375.895C329.543 377.288 329.074 379.009 327.738 379.839Z" stroke="black" stroke-width="5"/>
<path d="M282.864 339.867L297.478 346.209C298.894 346.824 299.613 348.412 299.139 349.882L295.537 361.053C295.147 362.262 295.561 363.586 296.57 364.357L302.79 369.113C303.859 369.93 305.341 369.936 306.416 369.127L314.723 362.875C316.202 361.762 318.327 362.241 319.185 363.881L325.968 376.846C326.695 378.237 326.228 379.954 324.896 380.783L315.261 386.784C314.382 387.332 313.847 388.295 313.847 389.331V400.487C313.847 401.712 314.592 402.814 315.729 403.271L323.109 406.233C324.444 406.768 325.21 408.176 324.937 409.588L322.642 421.432C322.368 422.843 321.133 423.862 319.696 423.862H306.101C305.155 423.862 304.265 424.308 303.698 425.066L298.889 431.501C298.149 432.491 298.092 433.834 298.745 434.883L305.206 445.256C306.127 446.734 305.599 448.684 304.057 449.496L290.999 456.375C289.56 457.134 287.779 456.607 286.984 455.188L280.948 444.421C280.418 443.474 279.417 442.888 278.331 442.888H265.558C264.289 442.888 263.157 443.687 262.731 444.882L258.817 455.882" stroke="black" stroke-width="5" stroke-linecap="round"/>
<path d="M162.569 211.371C164.407 203.805 173.171 189.03 176.374 179.321C176.722 178.265 178.933 178.129 179.302 179.178C184.045 192.675 189.719 205.621 191.358 211.371C193.207 217.855 193.815 234.179 177.539 233.874C161.264 233.569 160.777 218.745 162.569 211.371Z" fill="black"/>
<path d="M192.765 149.126C193.931 144.362 199.149 135.411 201.679 128.85C202.079 127.814 204.463 127.708 204.842 128.752C207.973 137.373 211.496 145.429 212.558 149.126C213.829 153.551 214.247 164.693 203.057 164.485C191.868 164.277 191.534 154.159 192.765 149.126Z" fill="black"/>
<path d="M202.733 104.082L218.075 77.7886C218.588 76.9095 219.358 76.2078 220.28 75.7774L273.63 50.8845C275.466 50.0278 277.664 50.3505 278.863 51.9838C280.996 54.891 283.286 59.4578 283.513 64.9536C283.598 67.0034 282.082 68.6939 280.1 69.2211L229.485 82.6797C228.273 83.002 227.227 83.768 226.553 84.8259L212.142 107.454" stroke="black" stroke-width="5" stroke-linecap="round"/>
<path d="M214.08 108.569C215.015 104.039 204.737 100.414 200.999 102.227C198.197 104.039 201 107.663 205.672 109.475C209.409 110.925 214.08 110.382 214.08 108.569Z" fill="black"/>
<path d="M275.927 50.1402C276.582 37.6312 286.956 11.2516 322.888 3.44587C324.595 3.07485 326.378 3.67809 327.47 5.04234C336.775 16.6622 351.135 43.0498 347.631 73.095C347.393 75.1335 345.854 76.7623 343.839 77.1509C324.825 80.8174 292.939 82.7881 283.532 68.0047" stroke="black" stroke-width="5" stroke-linecap="round"/>
</svg>
