<svg width="800" height="503" viewBox="0 0 800 503" fill="none" xmlns="http://www.w3.org/2000/svg">
<path d="M407.952 13.4816L484.895 106.441C485.533 107.213 484.768 108.339 483.816 108.03L413.014 85.0334C412.92 85.0026 412.834 84.9626 412.756 84.9014C408.637 81.6804 405.664 61.6044 404.566 50.8374C404.504 50.2253 403.912 49.8141 403.315 49.9642C395.065 52.0394 387.085 53.3778 383.349 53.8976C382.884 53.9622 382.428 53.6703 382.54 53.2144C383.458 49.4822 396.56 41.5023 404.127 37.3659C404.578 37.1195 404.77 36.5763 404.599 36.0919C402.122 29.0902 402.74 17.2126 403.391 11.9592" stroke="black" stroke-width="5" stroke-linecap="round"/>
<path d="M404.316 50.2811C415.72 58.1594 444.439 78.1646 468.086 95.1596" stroke="black" stroke-width="5" stroke-linecap="round"/>
<path d="M382.5 53.9093L406.104 67.1817" stroke="black" stroke-width="5" stroke-linecap="round"/>
<path d="M413.483 41.9991L438.411 64.4693" stroke="black" stroke-width="5" stroke-linecap="round"/>
<path d="M507.608 470.664H722.606C723.71 470.664 724.606 469.769 724.606 468.664V249.353" stroke="black" stroke-width="5" stroke-linecap="round"/>
<path d="M133.177 304.528L126.081 356.039C125.933 357.118 126.674 358.117 127.75 358.287L181.302 366.762C182.518 366.955 183.618 366.012 183.614 364.78L183.367 291.273C183.362 289.942 182.083 288.986 180.805 289.36L134.597 302.882C133.841 303.103 133.285 303.748 133.177 304.528Z" stroke="black" stroke-width="5"/>
<path d="M189.145 292.928L183.968 287.751V368.424L195.616 365.836L189.145 292.928Z" fill="black"/>
<path d="M188.799 294.653H195.664C196.643 294.653 197.479 295.363 197.637 296.33L208.27 361.136C208.467 362.339 207.551 363.437 206.333 363.459L194.372 363.678" stroke="black" stroke-width="5" stroke-linecap="round"/>
<path d="M156.875 296.379C158.081 291.073 162.636 280.726 171.209 281.787C175.801 282.355 178.445 287.491 178.445 290.011" stroke="black" stroke-width="5" stroke-linecap="round"/>
<path d="M146.521 298.967C147.769 292.915 152.69 279.756 161.879 279.139C168.332 278.705 170.526 286.846 169.623 292.254" stroke="black" stroke-width="5" stroke-linecap="round"/>
<path d="M219.86 313.2C316.927 324.417 219.86 54.357 359.636 48.75" stroke="black" stroke-width="5" stroke-linecap="round" stroke-dasharray="10 17"/>
<path d="M450.663 370.829V411.445C450.663 411.804 450.759 412.156 450.942 412.465L468.944 442.821C469.981 444.57 472.664 443.834 472.664 441.8V394.125C472.664 393.683 472.518 393.253 472.247 392.902L454.245 369.606C453.079 368.097 450.663 368.921 450.663 370.829Z" fill="black"/>
<path d="M488.626 248.922V469.238C488.626 471.284 485.917 472.01 484.894 470.237L438.851 390.456C438.676 390.152 438.583 389.807 438.583 389.456V223.469" stroke="black" stroke-width="5" stroke-linecap="round"/>
<path d="M538.588 212.606L489.876 246.241C488.275 247.346 489.035 249.854 490.98 249.886L721.68 253.654C722.175 253.662 722.655 253.487 723.028 253.162L765.885 215.759C767.277 214.544 766.418 212.252 764.57 212.252H539.724C539.318 212.252 538.922 212.375 538.588 212.606Z" fill="black"/>
<path d="M416.278 212.542L487.275 249.414C489.084 250.354 490.975 248.302 489.891 246.575L440.103 167.314C439.954 167.077 439.758 166.874 439.526 166.718L372.646 121.74C370.925 120.583 368.797 122.488 369.758 124.327L415.427 211.694C415.617 212.057 415.914 212.354 416.278 212.542Z" fill="black"/>
<path d="M486.469 80.6729H623.554C624.393 80.6729 625.143 81.1964 625.432 81.9841L655.457 163.834C655.936 165.139 654.97 166.523 653.579 166.523H441.281C440.439 166.523 439.687 165.995 439.4 165.203L419.601 110.44" stroke="black" stroke-width="5" stroke-linecap="round"/>
<path d="M690.525 207.938L656.748 167.49C656.087 166.697 656.137 165.531 656.864 164.799L713.719 107.532C714.492 106.753 715.748 106.743 716.534 107.508L796.363 185.259C797.21 186.084 797.16 187.459 796.256 188.221L781.551 200.604" stroke="black" stroke-width="5" stroke-linecap="round"/>
<path d="M251.784 260.569H58.3572C57.2526 260.569 56.3572 261.465 56.3572 262.569V383.246C56.3572 384.35 57.2526 385.246 58.3572 385.246H278.688C279.793 385.246 280.688 384.35 280.688 383.246V270.923" stroke="black" stroke-width="5" stroke-linecap="round"/>
<path d="M247.039 238.567H81.3788L36.3555 238.567C35.2509 238.567 34.3555 239.463 34.3555 240.567V403.09C34.3555 404.195 35.2509 405.09 36.3555 405.09H300.69C301.795 405.09 302.69 404.195 302.69 403.09V240.567C302.69 239.463 301.795 238.567 300.69 238.567H291.474" stroke="black" stroke-width="5" stroke-linecap="round"/>
<path d="M34.7869 403.797L3.12631 481.282C2.58873 482.598 3.55647 484.038 4.97772 484.038H328.748C330.134 484.038 331.099 482.664 330.63 481.361L302.69 403.797" stroke="black" stroke-width="5" stroke-linecap="round"/>
<path d="M91.7324 425.367L245.744 424.504" stroke="black" stroke-width="5" stroke-linecap="round"/>
<path d="M67.1423 442.623L271.198 443.486" stroke="black" stroke-width="5" stroke-linecap="round"/>
<path d="M2.86279 483.606V498C2.86279 499.104 3.75822 500 4.86279 500H310.456" stroke="black" stroke-width="5" stroke-linecap="round"/>
<path d="M130.482 455.945C130.79 455.193 131.521 454.702 132.333 454.702H203.499C204.27 454.702 204.972 455.145 205.304 455.841L212.455 470.823C213.088 472.15 212.121 473.684 210.65 473.684H126.204C124.783 473.684 123.815 472.243 124.353 470.927L130.482 455.945Z" fill="black"/>
<path fill-rule="evenodd" clip-rule="evenodd" d="M166.797 219.154C198.009 219.154 223.311 193.852 223.311 162.64C223.311 131.428 198.009 106.126 166.797 106.126C135.585 106.126 110.283 131.428 110.283 162.64C110.283 193.852 135.585 219.154 166.797 219.154ZM195.331 148.027C197.028 145.849 196.639 142.707 194.462 141.009C192.284 139.311 189.142 139.701 187.444 141.878L162.263 174.177L145.277 160.963C143.098 159.268 139.956 159.66 138.261 161.84C136.565 164.019 136.957 167.161 139.137 168.856L158.488 183.91C161.537 186.282 165.931 185.736 168.307 182.689L195.331 148.027Z" fill="black"/>
</svg>
