<?xml version="1.0" encoding="UTF-8"?>
<svg id="Layer_1" data-name="Layer 1" xmlns="http://www.w3.org/2000/svg" xmlns:xlink="http://www.w3.org/1999/xlink" viewBox="0 0 360 240">
  <defs>
    <style>
      .cls-1 {
        fill: url(#New_Gradient_Swatch_copy-3);
      }

      .cls-1, .cls-2, .cls-3, .cls-4, .cls-5, .cls-6, .cls-7, .cls-8, .cls-9, .cls-10 {
        stroke-width: 0px;
      }

      .cls-2 {
        fill: url(#New_Gradient_Swatch-2);
      }

      .cls-3 {
        fill: url(#New_Gradient_Swatch_copy);
      }

      .cls-11 {
        font-family: Poppins-Medium, Poppins;
        font-size: 29.21px;
        font-weight: 500;
      }

      .cls-5 {
        fill: url(#New_Gradient_Swatch-4);
      }

      .cls-6, .cls-10 {
        fill: #fff;
      }

      .cls-7 {
        fill: url(#New_Gradient_Swatch_copy-2);
      }

      .cls-8 {
        fill: url(#New_Gradient_Swatch);
      }

      .cls-9 {
        fill: url(#New_Gradient_Swatch-3);
      }

      .cls-10 {
        opacity: 0;
      }
    </style>
    <linearGradient id="New_Gradient_Swatch" data-name="New Gradient Swatch" x1="135.69" y1="82.02" x2="176.45" y2="82.02" gradientUnits="userSpaceOnUse">
      <stop offset="0" stop-color="#58d3cc"/>
      <stop offset="1" stop-color="#4ab6ff"/>
    </linearGradient>
    <linearGradient id="New_Gradient_Swatch_copy" data-name="New Gradient Swatch copy" x1="180.71" y1="82.02" x2="212.96" y2="82.02" gradientUnits="userSpaceOnUse">
      <stop offset="0" stop-color="#4087e3"/>
      <stop offset="1" stop-color="#8e41f9"/>
    </linearGradient>
    <linearGradient id="New_Gradient_Swatch_copy-2" data-name="New Gradient Swatch copy" x1="135.69" y1="92.97" x2="167.94" y2="92.97" xlink:href="#New_Gradient_Swatch_copy"/>
    <linearGradient id="New_Gradient_Swatch-2" data-name="New Gradient Swatch" x1="186.8" y1="117.31" x2="219.05" y2="117.31" xlink:href="#New_Gradient_Swatch"/>
    <linearGradient id="New_Gradient_Swatch-3" data-name="New Gradient Swatch" x1="138.12" y1="148.95" x2="170.37" y2="148.95" xlink:href="#New_Gradient_Swatch"/>
    <linearGradient id="New_Gradient_Swatch-4" data-name="New Gradient Swatch" x1="172.2" y1="92.97" x2="197.14" y2="92.97" xlink:href="#New_Gradient_Swatch"/>
    <linearGradient id="New_Gradient_Swatch_copy-3" data-name="New Gradient Swatch copy" x1="202.62" y1="92.97" x2="227.56" y2="92.97" xlink:href="#New_Gradient_Swatch_copy"/>
  </defs>
  <rect class="cls-10" width="360" height="240"/>
  <path class="cls-4" d="m243.9,180.08c-40.01.06-81.93,1.06-121.9.73-2.22-.1-5.44.12-7.74-.19-4.18-.64-7.41-4.64-7.23-8.83,0,0,.04-3.81.04-3.81l.07-7.62c.29-24.86.29-51.34.13-76.19-.07-2.54-.15-5.43,1.52-7.59,1.53-2.23,4.19-3.62,6.91-3.63,40.63-.31,81.27-.58,121.9-.48,2.26.1,5.42-.16,7.78.14,4.31.63,7.69,4.75,7.53,9.08-.06,13.9-.15,28.02-.35,41.9,0,0-.38,30.48-.38,30.48-.08,5.08-.07,10.16-.1,15.24-.03,1.27.06,2.53-.11,3.83-.5,3.91-4.14,7.02-8.06,6.95h0Zm0-.2c3.81.03,7.31-3,7.76-6.79.15-1.23.05-2.52.07-3.78-.03-5.08-.03-10.16-.1-15.24l-.38-30.48c-.18-13.88-.3-28.01-.35-41.9.12-3.4-2.49-6.57-5.85-7.06-1.84-.19-5.44-.07-7.45-.09-40.63.1-81.27-.18-121.9-.48-3.61-.08-6.99,2.78-7.46,6.39-.16,1.15-.08,2.49-.11,3.74-.17,24.84-.15,51.33.13,76.19,0,0,.07,7.62.07,7.62l.04,3.81c-.1,3.54,2.65,6.84,6.15,7.31,1.91.18,5.44.02,7.49.05,39.96-.32,81.91.66,121.9.73h0Z"/>
  <rect class="cls-8" x="135.69" y="78.37" width="40.77" height="7.3" rx="2" ry="2"/>
  <rect class="cls-3" x="180.71" y="78.37" width="32.25" height="7.3" rx="2" ry="2"/>
  <rect class="cls-7" x="135.69" y="89.32" width="32.25" height="7.3" rx="2" ry="2"/>
  <rect class="cls-2" x="186.8" y="113.66" width="32.25" height="7.3" rx="2" ry="2"/>
  <rect class="cls-9" x="138.12" y="145.3" width="32.25" height="7.3" rx="2" ry="2"/>
  <rect class="cls-5" x="172.2" y="89.32" width="24.95" height="7.3" rx="2" ry="2"/>
  <rect class="cls-1" x="202.62" y="89.32" width="24.95" height="7.3" rx="2" ry="2"/>
  <g>
    <path class="cls-4" d="m310.92,97.24c9.61,0,19.22,0,28.84,0,2.58,0,4.59.95,5.78,3.3.28.55.44,1.22.44,1.84.02,18.12.02,36.24.02,54.37,0,2.38-2.16,4.68-4.75,5.06-.54.08-1.1.1-1.65.1-19.13,0-38.26,0-57.4,0-4.16,0-6.55-2.4-6.55-6.55,0-17.17,0-34.35,0-51.52,0-4.21,2.38-6.58,6.61-6.58,9.55,0,19.1,0,28.65,0Zm.03,61.72c9.58,0,19.16,0,28.74,0,2.49,0,3.56-1.08,3.56-3.59,0-17.2,0-34.4,0-51.6,0-2.51-1.07-3.58-3.57-3.58-19.16,0-38.32,0-57.48,0-2.55,0-3.6,1.06-3.61,3.64,0,17.17,0,34.34,0,51.51,0,2.57,1.05,3.63,3.61,3.63,9.58,0,19.16,0,28.74,0Z"/>
    <path class="cls-4" d="m310.93,111.93c-9.06,0-18.11,0-27.17,0-1.49,0-2.21-.48-2.22-1.46,0-.99.71-1.48,2.19-1.48,18.11,0,36.22,0,54.33,0,1.5,0,2.21.47,2.22,1.46.01.99-.72,1.49-2.19,1.49-9.06,0-18.11,0-27.17,0Z"/>
    <path class="cls-4" d="m302.1,136.95h-5.88c0,1.15,0,2.26,0,3.38,0,.43.03.87-.06,1.28-.15.71-.64,1.13-1.36,1.15-.72.03-1.22-.35-1.43-1.05-.08-.26-.09-.54-.09-.81,0-3.24-.04-6.48,0-9.72.07-4.27,3.91-7.03,7.85-5.63,2.31.82,3.72,2.57,3.83,5.01.16,3.57.07,7.15.05,10.73,0,.87-.66,1.48-1.43,1.49-.81.01-1.45-.61-1.48-1.55-.04-1.4,0-2.8,0-4.28Zm-.03-3.02c0-1.1.06-2.14-.01-3.16-.12-1.52-1.38-2.64-2.87-2.66-1.46-.01-2.76,1.04-2.9,2.51-.1,1.08-.02,2.17-.02,3.3h5.81Z"/>
    <path class="cls-4" d="m310.92,136.9c0,1.44,0,2.75,0,4.06-.01,1.15-.59,1.84-1.49,1.82-.87-.02-1.42-.69-1.45-1.77,0-.15,0-.31,0-.46,0-4.37,0-8.74,0-13.11,0-.24,0-.49,0-.73.07-.93.58-1.5,1.5-1.52,1.59-.04,3.18-.08,4.77.02,2.31.16,3.87,1.82,3.98,4.14.05,1.13.06,2.26,0,3.39-.11,2.38-1.78,4.04-4.16,4.16-1,.05-2.01,0-3.16,0Zm.03-2.94c1.07,0,2.07.03,3.07,0,.85-.04,1.26-.59,1.28-1.39.04-1.04.03-2.08,0-3.12-.01-.7-.39-1.22-1.08-1.27-1.08-.08-2.17-.02-3.28-.02v5.81Z"/>
    <path class="cls-4" d="m322.64,139.86v-11.76c-.46,0-.9.02-1.34,0-.93-.05-1.56-.66-1.55-1.48.01-.78.61-1.42,1.49-1.43,1.93-.04,3.85-.04,5.78,0,.89.02,1.49.64,1.51,1.42.02.82-.6,1.44-1.53,1.5-.42.03-.84,0-1.33,0v11.76c.43,0,.87-.02,1.31,0,.93.05,1.56.66,1.55,1.48-.01.78-.61,1.42-1.49,1.43-1.93.04-3.85.04-5.78,0-.89-.02-1.49-.64-1.51-1.42-.02-.82.6-1.44,1.53-1.5.42-.03.84,0,1.36,0Z"/>
    <path class="cls-4" d="m285.15,106.03c-.27,0-.55.03-.82,0-.79-.12-1.28-.6-1.3-1.4-.03-.81.44-1.33,1.22-1.46.53-.09,1.09-.07,1.64-.04.91.06,1.53.7,1.5,1.51-.03.78-.63,1.34-1.51,1.41-.24.02-.49,0-.73,0,0,0,0-.01,0-.02Z"/>
    <path class="cls-4" d="m292.51,106.03c-.27,0-.55.03-.82,0-.79-.12-1.26-.59-1.33-1.39-.06-.74.51-1.4,1.31-1.49.54-.06,1.09-.06,1.64-.01.86.07,1.44.71,1.42,1.49-.02.78-.62,1.35-1.49,1.42-.24.02-.49,0-.73,0h0Z"/>
    <path class="cls-4" d="m336.64,103.11c.09,0,.18,0,.27,0,1.22.02,1.91.55,1.9,1.48,0,.92-.7,1.45-1.92,1.46-.3,0-.61.01-.91,0-.93-.06-1.54-.66-1.54-1.47,0-.81.63-1.39,1.56-1.46.21-.01.43,0,.64,0,0,0,0,0,0,0Z"/>
  </g>
  <g>
    <text class="cls-11" transform="translate(26.57 140.75)"><tspan x="0" y="0">API</tspan></text>
    <path class="cls-4" d="m76.58,159.39c-17.44-.05-34.89.82-52.33.8-1.21-.03-3,.07-4.2-.24-3.66-.81-6.57-4.11-6.81-7.86-.05-1.39.05-4.68.07-6.11,0,0,.14-8.05.14-8.05.23-10.44.29-21.8.21-32.2.01-2.7-.36-5.65,1.23-8.04,1.47-2.45,4.26-4.01,7.12-4.04,10.73-.19,21.47-.33,32.2-.39l16.1-.1c1.86.02,5.29-.08,7.14.03,3.42.32,6.54,2.72,7.63,5.98.88,2.36.41,5.87.51,8.34-.02,8.05-.15,16.1-.35,24.15,0,0-.38,16.1-.38,16.1-.04,1.35-.04,2.67-.1,4.04-.22,4.17-4.01,7.68-8.18,7.6h0Zm0-.2c4.03.04,7.69-3.37,7.77-7.43.03-1.32-.03-2.68-.05-4.01l-.38-16.1c-.2-8.05-.33-16.1-.35-24.15-.04-1.22.04-4.78-.05-5.95-.24-2.94-2.53-5.54-5.41-6.14-.99-.24-2.73-.16-3.78-.17-17-.07-35.4-.2-52.33-.51-3.86-.11-7.41,3.11-7.6,6.99-.05,1.3-.03,2.67-.05,4-.03,5.37-.07,10.73,0,16.1.03,4.01.11,12.09.21,16.1,0,0,.14,8.05.14,8.05.14,2.15-.21,5.72.55,7.72,1,2.89,3.96,4.84,6.99,4.71,1.23-.03,4.75,0,6.04,0,16.1.07,32.2.83,48.3.78h0Z"/>
    <path class="cls-4" d="m14,109.35c20.83-.07,50.06-.96,70.58,0,0,0,0,.1,0,.1-20.34.86-50.14.26-70.58-.1h0Z"/>
    <path class="cls-4" d="m39.16,103.97c-3.3,0-6.61.56-9.91.37-1.65-.07-3.3-.22-4.96-.25-.69.1-1.42-.57-1.33-1.29,0,0-.01-.62-.01-.62.04-.42-.09-.87.03-1.3.14-.49.62-.87,1.15-.88,4.96-.23,9.92-.43,14.87-.06.73-.06,1.51.69,1.35,1.45-.13.92.19,2.56-1.18,2.58h0Zm0-.1c1.02-.04.95-1.08.86-1.86-.05-.41,0-.87-.18-1.11-.2-.28-.46-.37-.84-.3-4.95.38-9.91.18-14.87-.06-.3-.03-.62.17-.74.47-.12.25-.05.86-.08,1.16.02.41-.08.85.08,1.15.17.32.51.48.91.43,1.65-.04,3.3-.18,4.96-.25,3.31-.19,6.61.36,9.91.37h0Z"/>
    <path class="cls-4" d="m63.5,103.97c-.54-.01-1.07.13-1.61.27-.74.19-1.56-.54-1.46-1.32.29-1.05-.04-2.69,1.42-2.92,1.24-.27,3.12-.51,3.18,1.27,0,1.05-.2,2.78-1.53,2.7h0Zm0-.1c.51.01.86-.55.67-.99-.15-.54-.18-1.07-.2-1.61-.1-.85-1.49-.47-2.12-.73-1.35-.13-.65,1.61-.58,2.38.19.88,1.51.89,2.23.95h0Z"/>
    <path class="cls-4" d="m70.8,103.97c-.54-.01-1.07.13-1.61.27-.74.19-1.56-.54-1.46-1.32.29-1.05-.04-2.69,1.42-2.92,1.24-.27,3.12-.51,3.18,1.27,0,1.05-.2,2.78-1.53,2.7h0Zm0-.1c.51.01.86-.55.67-.99-.15-.54-.18-1.07-.2-1.61-.1-.85-1.49-.47-2.12-.73-1.35-.13-.65,1.61-.58,2.38.19.88,1.51.89,2.23.95h0Z"/>
    <path class="cls-4" d="m78.1,103.97c-.54-.01-1.07.13-1.61.27-.74.19-1.56-.54-1.46-1.32.29-1.05-.04-2.69,1.42-2.92,1.24-.27,3.12-.51,3.18,1.27,0,1.05-.2,2.78-1.53,2.7h0Zm0-.1c.51.01.86-.55.67-.99-.15-.54-.18-1.07-.2-1.61-.1-.85-1.49-.47-2.12-.73-1.35-.13-.65,1.61-.58,2.38.19.88,1.51.89,2.23.95h0Z"/>
  </g>
  <g>
    <polygon class="cls-6" points="78.22 105.07 77.4 118.67 78.68 120.04 110.54 118.41 111.01 124.39 112.62 124.39 125 111.77 125.46 109.99 111.97 100.91 110.54 106.27 78.22 105.07"/>
    <path class="cls-4" d="m110.65,122.9c-8.45.36-16.8.71-25.15,1.07-1.62.07-3.23.2-4.84.23-.34,0-.84-.25-1.01-.53-.78-1.31-1.63-2.62-2.13-4.04-.38-1.07-.43-2.33-.37-3.49.21-3.65.57-7.3.81-10.95.05-.69.36-.83.91-.82,3.51.06,7.02.02,10.52.22,6.85.38,13.7.9,20.55,1.35.18.01.36.02.57.03.06-1.57.11-3.1.19-4.64.06-1.12.61-1.35,1.56-.72,4.48,2.97,8.93,5.96,13.46,8.85,1.08.69,1.48,1.35,1.2,2.63-.39,1.78-.53,3.62-.88,5.42-.1.51-.44,1.11-.85,1.4-3.96,2.67-7.64,5.67-11.03,9.04-.39.39-.81.74-1.26,1.06-.9.64-1.61.36-1.76-.74-.19-1.36-.25-2.73-.37-4.1-.03-.36-.06-.72-.11-1.27Zm-7.14-3.49c-.43-.23-.86-.47-1.29-.7.57.65,1.25,1.1,1.88,1.61.64.51,1.21,1.11,1.86,1.61.26.2.63.26.84.34-.63-.61-1.31-1.25-1.98-1.9.81.52,1.61,1.04,2.43,1.54.25.15.56.22.84.33.02-.05.03-.1.05-.15-1.67-1.14-3.33-2.28-5-3.42-.04.05-.07.1-.11.15.16.2.32.4.49.6Zm.46,2.12c.51.23,1.02.46,1.53.69.04-.07.07-.13.11-.2-1.46-1.08-2.93-2.16-4.39-3.25-.06.07-.12.14-.18.21.1.13.2.26.29.4-.41-.2-.82-.4-1.22-.59.99,1.35,3.97,3.44,4.64,3.32-.3-.22-.54-.4-.78-.58Zm-9.45-.17c.3.24.59.51.91.7.35.21.74.36,1.11.53.04-.09.09-.18.13-.27-.97-.96-1.92-1.94-2.9-2.87-.49-.46-.69-.41-.92.07-.37-.11-.73-.22-1.1-.34-.02.05-.04.1-.06.15,1.16,1.09,2.32,2.18,3.49,3.28.06-.07.13-.13.19-.2l-.85-1.06Zm-16.13-2.51c1.18-.11,2.3-.25,3.42-.3,9.51-.39,19.03-.73,28.54-1.17.91-.04,1.06.38,1.14.99.13,1.03.18,2.07.27,3.1.06.68.12,1.35.2,2.25,4.64-4.32,9.11-8.5,13.67-12.75-4.66-2.99-9.12-5.84-13.59-8.7-.06,1.17-.08,2.27-.18,3.36-.13,1.35-.17,1.39-1.5,1.33-7.01-.3-14.03-.59-21.04-.95-3.44-.18-6.87-.49-10.2-.74-.24,4.46-.48,8.96-.73,13.55Zm15.95,3.84c.04-.09.09-.17.13-.26-.98-.94-1.94-1.91-2.96-2.81-.29-.26-.76-.31-1.15-.45.95,1.19,1.9,2.2,2.92,3.15.25.23.7.25,1.05.37Zm-5.82.22c.02-.07.05-.15.07-.22-1.1-1.03-2.18-2.09-3.33-3.07-.24-.21-.72-.15-1.08-.21-.07.14-.15.29-.22.43,1.27.97,2.54,1.96,3.83,2.9.18.14.49.11.74.16Zm-1.27.02c-1.4-1.23-2.53-2.71-4.24-3.43,1.04,1.21,2.16,2.3,3.34,3.34.18.16.59.07.9.1Zm4.57-.12c.05-.1.11-.19.16-.29-1.12-1.05-2.23-2.1-3.38-3.12-.14-.12-.47-.02-.81-.02,1.14,1.11,2.12,2.1,3.14,3.04.22.21.59.26.89.39Zm-6.21.27c.03-.07.06-.14.1-.2-1.07-1.06-2.13-2.14-3.23-3.17-.19-.18-.56-.16-.84-.23.98,1.17,2.03,2.18,3.07,3.18.07.06.12.15.2.19.23.09.47.16.71.24Zm4.07-.12c.06-.09.12-.18.18-.27-1.01-1.32-3.56-3.26-4.24-3.15,1.39,1.17,2.73,2.29,4.06,3.42Zm6.33-3.84c1.19,1.16,2.31,2.25,3.44,3.34.06-.06.12-.12.18-.19-.97-1.42-2.89-3.16-3.62-3.16Zm1.49,3.41c.08-.08.15-.16.23-.24-.95-1.01-1.89-2.02-2.86-3.01-.14-.14-.46-.12-.69-.17-.02.05-.04.11-.06.16,1.13,1.09,2.26,2.17,3.38,3.26Zm2.97-.12l.21-.22c-1.4-1.8-2.93-3.14-3.59-3.02,1.16,1.11,2.27,2.17,3.38,3.24Zm-11.32-3.06c.6.57,1.2,1.18,1.84,1.73.6.53.95,1.37,1.97,1.64-1.03-1.56-3.18-3.39-3.81-3.38Zm20.09,2.97l.21-.26c-1.7-1.17-3.39-2.35-5.09-3.52-.05.08-.11.16-.16.24,1.68,1.18,3.36,2.36,5.04,3.54Zm1.24-.63c.08-.09.16-.18.23-.28-1.42-1-2.84-2-4.26-3-.06.08-.11.16-.17.24,1.4,1.01,2.8,2.03,4.19,3.04Zm3.76,1.67c.69.35,1.37.69,2.06,1.04.05-.1.1-.21.15-.31-.81-.11-1.09-1.28-2.2-.73Zm-27.25-4l-.16.23c.74.56,1.48,1.12,2.22,1.69-.63-.71-1.11-1.62-2.06-1.92Zm-6.29.21c-.05.06-.11.12-.16.18.78.7,1.56,1.4,2.33,2.1.05-.05.09-.11.14-.16-.77-.71-1.54-1.41-2.31-2.12Zm14.73-.52c-.07.07-.15.14-.22.21.72.68,1.43,1.36,2.15,2.04.05-.06.11-.12.16-.18-.7-.69-1.39-1.38-2.09-2.08Z"/>
  </g>
  <g>
    <polygon class="cls-6" points="239.83 132.18 238.93 147 240.34 148.5 275.06 146.72 275.57 153.24 277.32 153.24 290.82 139.48 291.32 137.55 276.62 127.65 275.06 133.48 239.83 132.18"/>
    <path class="cls-4" d="m275.18,151.62c-9.21.39-18.31.77-27.41,1.16-1.76.08-3.52.22-5.28.25-.37,0-.91-.27-1.1-.58-.85-1.43-1.77-2.85-2.32-4.4-.42-1.17-.47-2.54-.4-3.8.23-3.98.62-7.95.88-11.93.05-.75.39-.9.99-.89,3.82.07,7.65.02,11.46.24,7.47.42,14.93.98,22.4,1.48.2.01.4.02.62.03.07-1.71.12-3.38.21-5.06.07-1.23.66-1.47,1.7-.78,4.88,3.23,9.74,6.5,14.67,9.64,1.18.75,1.61,1.48,1.3,2.87-.43,1.94-.58,3.95-.95,5.9-.11.55-.48,1.21-.93,1.52-4.32,2.91-8.33,6.18-12.02,9.85-.42.42-.89.81-1.37,1.16-.98.69-1.76.4-1.92-.81-.2-1.48-.27-2.98-.4-4.47-.03-.39-.07-.78-.12-1.39Zm-7.78-3.8c-.47-.26-.94-.51-1.41-.77.62.71,1.36,1.2,2.05,1.75.7.56,1.32,1.2,2.03,1.75.28.22.69.28.92.37-.69-.66-1.42-1.36-2.16-2.07.88.56,1.76,1.14,2.65,1.68.28.17.61.24.91.36.02-.05.04-.11.05-.16-1.82-1.24-3.63-2.48-5.45-3.73-.04.05-.08.11-.12.16.18.22.35.43.53.65Zm.5,2.31c.56.25,1.11.5,1.67.76.04-.07.08-.14.12-.21-1.59-1.18-3.19-2.36-4.78-3.54-.07.08-.13.15-.2.23.11.14.21.29.32.43-.44-.22-.89-.43-1.33-.65,1.08,1.47,4.32,3.74,5.06,3.61-.33-.24-.59-.44-.85-.63Zm-10.3-.19c.33.26.64.55.99.77.38.23.81.39,1.21.58.05-.1.1-.19.14-.29-1.05-1.05-2.09-2.11-3.16-3.13-.53-.5-.76-.45-1,.07-.4-.12-.8-.24-1.2-.37-.02.05-.04.11-.06.16,1.27,1.19,2.53,2.38,3.8,3.57.07-.07.14-.14.21-.21l-.93-1.15Zm-17.58-2.73c1.29-.12,2.51-.28,3.73-.33,10.37-.42,20.74-.8,31.11-1.27.99-.04,1.16.42,1.24,1.08.14,1.12.2,2.25.29,3.38.06.74.13,1.47.22,2.45,5.05-4.71,9.93-9.26,14.9-13.89-5.08-3.25-9.94-6.36-14.82-9.48-.07,1.28-.08,2.47-.2,3.66-.14,1.48-.18,1.52-1.63,1.45-7.64-.33-15.29-.64-22.93-1.03-3.75-.19-7.49-.54-11.12-.8-.26,4.86-.52,9.77-.79,14.77Zm17.38,4.19c.05-.09.1-.19.14-.28-1.07-1.03-2.11-2.08-3.22-3.06-.32-.28-.83-.34-1.26-.49,1.03,1.29,2.08,2.4,3.19,3.43.27.25.76.28,1.15.41Zm-6.35.24c.03-.08.05-.16.08-.24-1.2-1.12-2.38-2.28-3.63-3.35-.26-.23-.78-.16-1.18-.23-.08.16-.16.31-.24.47,1.39,1.06,2.77,2.13,4.18,3.17.2.15.53.12.8.18Zm-1.38.02c-1.52-1.34-2.75-2.95-4.62-3.74,1.13,1.31,2.36,2.51,3.64,3.64.2.18.65.08.98.1Zm4.98-.13c.06-.1.12-.21.17-.31-1.22-1.14-2.43-2.29-3.68-3.4-.15-.13-.52-.02-.88-.03,1.24,1.21,2.31,2.29,3.43,3.32.24.23.64.29.97.42Zm-6.77.29c.03-.07.07-.15.1-.22-1.17-1.16-2.32-2.33-3.52-3.46-.2-.19-.61-.17-.92-.25,1.07,1.28,2.21,2.37,3.35,3.46.07.07.13.17.21.2.25.1.52.18.77.26Zm4.43-.13c.07-.1.13-.2.2-.3-1.1-1.43-3.88-3.56-4.62-3.43,1.51,1.27,2.97,2.5,4.43,3.73Zm6.9-4.19c1.3,1.26,2.52,2.45,3.75,3.64.07-.07.13-.13.2-.2-1.06-1.55-3.15-3.45-3.94-3.44Zm1.62,3.72c.08-.09.16-.17.25-.26-1.03-1.1-2.06-2.21-3.12-3.28-.16-.16-.5-.13-.75-.19-.02.06-.04.12-.06.17l3.69,3.55Zm3.23-.13l.22-.24c-1.53-1.97-3.2-3.42-3.91-3.29,1.26,1.21,2.47,2.37,3.69,3.53Zm-12.34-3.34c.66.62,1.31,1.28,2,1.89.65.57,1.03,1.49,2.15,1.79-1.12-1.7-3.46-3.69-4.15-3.68Zm21.9,3.24l.23-.28c-1.85-1.28-3.7-2.56-5.55-3.84-.06.09-.12.17-.17.26,1.83,1.29,3.66,2.57,5.49,3.86Zm1.36-.69c.09-.1.17-.2.26-.3-1.55-1.09-3.1-2.18-4.64-3.27-.06.09-.12.17-.18.26,1.52,1.1,3.05,2.21,4.57,3.31Zm4.1,1.82c.75.38,1.49.75,2.24,1.13.05-.11.11-.22.16-.34-.88-.12-1.19-1.39-2.4-.79Zm-29.7-4.36l-.18.25c.81.61,1.61,1.23,2.42,1.84-.69-.77-1.21-1.76-2.24-2.09Zm-6.86.23c-.06.07-.11.13-.17.2.85.76,1.7,1.52,2.54,2.28.05-.06.1-.12.15-.17-.84-.77-1.68-1.54-2.52-2.31Zm16.06-.57c-.08.08-.16.15-.24.23.78.74,1.56,1.48,2.34,2.23.06-.06.12-.13.18-.19-.76-.75-1.52-1.51-2.28-2.26Z"/>
  </g>
  <path class="cls-4" d="m132.75,74.72c1.13,13.22.81,26.47.22,39.7-.16,8.82.55,17.65.62,26.47.28,13.24.09,26.47-.84,39.7h-.2c-.93-13.23-1.12-26.46-.84-39.7.07-8.82.77-17.64.62-26.47-.28-8.82-.82-17.64-.45-26.47.11-4.41.32-8.82.67-13.23h.2Z"/>
  <path class="cls-4" d="m138.12,100.78c13.22-1.13,26.47-.81,39.7-.22,8.82.16,17.65-.55,26.47-.62,13.24-.28,26.47-.09,39.7.84v.2c-13.23.93-26.46,1.12-39.7.84-8.82-.07-17.64-.77-26.47-.62-8.82.28-17.64.82-26.47.45-4.41-.11-8.82-.32-13.23-.67v-.2h0Z"/>
  <path class="cls-4" d="m138.12,119.03c5.69-.22,17.13-.57,22.82-.7,7.62-.33,15.23-.39,22.82.7,0,0,0,.2,0,.2-7.59,1.09-15.19,1.03-22.82.7-5.68-.13-17.14-.48-22.82-.7,0,0,0-.2,0-.2h0Z"/>
  <path class="cls-4" d="m222.7,119.03c2.43-.3,4.86-.53,7.3-.7,2.49-.34,4.91-.38,7.3.7,0,0,0,.2,0,.2-2.39,1.08-4.81,1.04-7.3.7-2.44-.17-4.87-.4-7.3-.7,0,0,0-.2,0-.2h0Z"/>
  <path class="cls-4" d="m138.12,133.64c32.16-.22,67.17-1.92,99.18,0,0,0,0,.2,0,.2-8.26.57-16.53.72-24.79.9-8.26.13-16.53-.09-24.79-.2-12.35-.13-37.24-.48-49.59-.7,0,0,0-.2,0-.2h0Z"/>
  <path class="cls-4" d="m182.8,150.67c8.04-.22,24.21-.57,32.25-.7,10.76-.33,21.51-.39,32.25.7,0,0,0,.2,0,.2-10.74,1.09-21.48,1.03-32.25.7-8.03-.13-24.22-.48-32.25-.7,0,0,0-.2,0-.2h0Z"/>
</svg>