<?xml version="1.0" encoding="UTF-8"?>
<svg id="Layer_1" data-name="Layer 1" xmlns="http://www.w3.org/2000/svg" xmlns:xlink="http://www.w3.org/1999/xlink" viewBox="0 0 360 240">
  <defs>
    <style>
      .cls-1 {
        fill: url(#linear-gradient);
      }

      .cls-1, .cls-2, .cls-3, .cls-4, .cls-5, .cls-6, .cls-7, .cls-8, .cls-9, .cls-10, .cls-11, .cls-12 {
        stroke-width: 0px;
      }

      .cls-2 {
        fill: url(#New_Gradient_Swatch-2);
      }

      .cls-3 {
        fill: url(#New_Gradient_Swatch_copy);
      }

      .cls-5 {
        fill: url(#New_Gradient_Swatch-4);
      }

      .cls-6, .cls-12 {
        fill: #fff;
      }

      .cls-7 {
        fill: url(#linear-gradient-2);
      }

      .cls-8 {
        fill: url(#linear-gradient-3);
      }

      .cls-9 {
        fill: url(#New_Gradient_Swatch);
      }

      .cls-10 {
        fill: url(#New_Gradient_Swatch-5);
      }

      .cls-11 {
        fill: url(#New_Gradient_Swatch-3);
      }

      .cls-12 {
        opacity: 0;
      }
    </style>
    <linearGradient id="New_Gradient_Swatch" data-name="New Gradient Swatch" x1="159.69" y1="18.34" x2="189.73" y2="18.34" gradientUnits="userSpaceOnUse">
      <stop offset="0" stop-color="#58d3cc"/>
      <stop offset="1" stop-color="#4ab6ff"/>
    </linearGradient>
    <linearGradient id="New_Gradient_Swatch-2" data-name="New Gradient Swatch" x1="148.17" y1="25.32" x2="185.86" y2="25.32" xlink:href="#New_Gradient_Swatch"/>
    <linearGradient id="New_Gradient_Swatch-3" data-name="New Gradient Swatch" x1="166.63" y1="32.37" x2="184.24" y2="32.37" xlink:href="#New_Gradient_Swatch"/>
    <linearGradient id="New_Gradient_Swatch-4" data-name="New Gradient Swatch" x1="189.74" y1="31.18" x2="248.6" y2="31.18" xlink:href="#New_Gradient_Swatch"/>
    <linearGradient id="New_Gradient_Swatch-5" data-name="New Gradient Swatch" x1="244.1" y1="31.61" x2="304.79" y2="31.61" xlink:href="#New_Gradient_Swatch"/>
    <linearGradient id="linear-gradient" x1="127.4" y1="112.82" x2="198.14" y2="235.34" gradientUnits="userSpaceOnUse">
      <stop offset="0" stop-color="#f7ea76"/>
      <stop offset="1" stop-color="#dbd140"/>
    </linearGradient>
    <linearGradient id="New_Gradient_Swatch_copy" data-name="New Gradient Swatch copy" x1="42.91" y1="30.13" x2="113.65" y2="152.65" gradientUnits="userSpaceOnUse">
      <stop offset="0" stop-color="#4087e3"/>
      <stop offset="1" stop-color="#8e41f9"/>
    </linearGradient>
    <linearGradient id="linear-gradient-2" x1="1349.94" y1="755.56" x2="1443.34" y2="675.21" gradientTransform="translate(-536 523.1) scale(.56 -.57)" gradientUnits="userSpaceOnUse">
      <stop offset="0" stop-color="#479be0"/>
      <stop offset=".03" stop-color="#50b0ff"/>
      <stop offset="1" stop-color="#2d85c9"/>
    </linearGradient>
    <linearGradient id="linear-gradient-3" x1="1479.45" y1="626.58" x2="1446.1" y2="673.76" gradientTransform="translate(-536 523.1) scale(.56 -.57)" gradientUnits="userSpaceOnUse">
      <stop offset="0" stop-color="#ffd43b"/>
      <stop offset="1" stop-color="#ffe873"/>
    </linearGradient>
  </defs>
  <rect class="cls-12" width="360" height="240"/>
  <g>
    <path class="cls-9" d="m159.99,19.72c-.31,0-.38-.15-.23-.38l1.6-2.06c.15-.23.53-.38.84-.38h27.22c.31,0,.38.23.23.46l-1.3,1.98c-.15.23-.53.46-.76.46l-27.6-.08Z"/>
    <path class="cls-2" d="m148.48,26.73c-.31,0-.38-.15-.23-.38l1.6-2.06c.15-.23.53-.38.84-.38h34.77c.31,0,.46.23.38.46l-.61,1.83c-.08.31-.38.46-.69.46l-36.07.08Z"/>
    <path class="cls-11" d="m166.93,33.75c-.31,0-.38-.23-.23-.46l1.07-1.91c.15-.23.46-.46.76-.46h15.25c.31,0,.46.23.46.53l-.15,1.83c0,.31-.31.53-.53.53l-16.62-.08Z"/>
    <g id="CXHf1q">
      <g>
        <path class="cls-5" d="m246.08,18.34c-4.8,1.22-8.08,2.14-12.81,3.36-1.14.31-1.22.38-2.21-.76-1.14-1.3-1.98-2.14-3.58-2.9-4.8-2.36-9.46-1.68-13.8,1.14-5.19,3.36-7.85,8.31-7.78,14.49.08,6.1,4.27,11.13,10.29,11.97,5.19.69,9.53-1.14,12.96-5.03.69-.84,1.3-1.75,2.06-2.82h-14.72c-1.6,0-1.98-.99-1.45-2.29.99-2.36,2.82-6.33,3.89-8.31.23-.46.76-1.22,1.91-1.22h27.76c-.15,2.06-.15,4.12-.46,6.18-.84,5.49-2.9,10.52-6.25,14.95-5.49,7.24-12.66,11.74-21.73,12.96-7.47.99-14.41-.46-20.51-5.03-5.64-4.27-8.85-9.91-9.68-16.93-.99-8.31,1.45-15.78,6.48-22.34,5.41-7.09,12.58-11.59,21.35-13.19,7.17-1.3,14.03-.46,20.21,3.74,4.04,2.67,6.94,6.33,8.85,10.75.46.69.15,1.07-.76,1.3Z"/>
        <path class="cls-10" d="m271.32,60.51c-6.94-.15-13.27-2.14-18.61-6.71-4.5-3.89-7.32-8.85-8.24-14.72-1.37-8.62.99-16.24,6.18-23.03,5.57-7.32,12.28-11.13,21.35-12.73,7.78-1.37,15.1-.61,21.73,3.89,6.02,4.12,9.76,9.68,10.75,17,1.3,10.29-1.68,18.68-8.77,25.85-5.03,5.11-11.21,8.31-18.3,9.76-2.06.38-4.12.46-6.1.69Zm18.15-30.81c-.08-.99-.08-1.75-.23-2.52-1.37-7.55-8.31-11.82-15.56-10.14-7.09,1.6-11.67,6.1-13.34,13.27-1.37,5.95,1.53,11.97,7.02,14.41,4.19,1.83,8.39,1.6,12.43-.46,6.02-3.13,9.3-8.01,9.68-14.56Z"/>
      </g>
    </g>
  </g>
  <g>
    <rect class="cls-6" x="99.85" y="111.16" width="125.84" height="125.84" rx="10" ry="10"/>
    <path class="cls-4" d="m99.78,227c.02-28.27-.53-63.04-.57-91.15-.02-5.08-.05-10.1.02-15.22.13-2.7,1.34-5.32,3.31-7.16,1.95-1.86,4.63-2.93,7.32-2.92,20.26.09,40.51.34,60.77.36,10.13.06,20.26,0,30.38-.03,5.07,0,10.11-.06,15.21-.03,2.62.11,5.18,1.27,6.99,3.18,1.83,1.89,2.89,4.51,2.89,7.14l.29,60.77.08,30.38c0,5.08.04,10.09-.02,15.23-.12,2.73-1.35,5.39-3.34,7.26-1.97,1.89-4.69,2.97-7.42,2.96-20.26,0-40.51-.07-60.77-.28l-30.38-.29-15.2-.1c-5.22-.18-9.67-4.88-9.56-10.1h0Zm.15,0c-.07,5.11,4.3,9.71,9.42,9.84,5.05.03,10.12,0,15.19-.05l30.38-.29c20.26-.21,40.51-.28,60.77-.28,2.34,0,4.66-.93,6.34-2.55,1.7-1.61,2.74-3.87,2.84-6.21l.03-15.15.08-30.38.29-60.77c.01-2.43-.94-4.85-2.62-6.62-1.67-1.78-4.03-2.88-6.47-3-5.03-.07-10.12-.05-15.17-.08-10.13-.04-20.26-.09-30.38-.03-20.26.02-40.51.27-60.77.36-2.38,0-4.73.95-6.44,2.6-1.72,1.63-2.78,3.94-2.88,6.3l-.03,15.16c-.11,28.06-.52,62.94-.57,91.15h0Z"/>
  </g>
  <rect class="cls-1" x="108.84" y="120.15" width="107.86" height="107.86" rx="8" ry="8"/>
  <g>
    <path class="cls-6" d="m132.21,203.32l6.54-4.86c1.58,2.93,3.76,4.25,5.93,4.25,3.44,0,5.3-1.76,5.3-7.43v-27.59h9.62v28.39c0,8.19-4.25,14.94-13.65,14.94-6.51,0-10.79-2.54-13.74-7.7Z"/>
    <path class="cls-6" d="m166.67,204.86l5.52-6.6c3.03,2.63,6.95,4.45,10.45,4.45,4.02,0,5.98-1.58,5.98-4.11,0-2.68-2.42-3.54-6.14-5.07l-5.53-2.36c-4.41-1.79-8.59-5.42-8.59-11.6,0-7.05,6.3-12.68,15.16-12.68,4.9,0,10.02,1.93,13.69,5.58l-4.86,6.06c-2.8-2.15-5.47-3.33-8.83-3.33s-5.43,1.38-5.43,3.82c0,2.61,2.78,3.56,6.5,5.04l5.42,2.2c5.2,2.1,8.44,5.56,8.44,11.57,0,7.07-5.89,13.19-16.03,13.19-5.54,0-11.42-2.1-15.76-6.15Z"/>
  </g>
  <g>
    <rect class="cls-6" x="15.36" y="28.47" width="125.84" height="125.84" rx="10" ry="10"/>
    <path class="cls-4" d="m131.2,154.38c-28.27-.02-63.04.53-91.15.57-5.08.02-10.1.05-15.22-.02-2.7-.13-5.32-1.34-7.16-3.31-1.86-1.95-2.93-4.63-2.92-7.32.09-20.26.34-40.51.36-60.77.06-10.13,0-20.26-.03-30.38,0-5.07-.06-10.11-.03-15.21.11-2.62,1.27-5.18,3.18-6.99,1.89-1.83,4.51-2.89,7.14-2.89l60.77-.29,30.38-.08c5.08,0,10.09-.04,15.23.02,2.73.12,5.39,1.35,7.26,3.34,1.89,1.97,2.97,4.69,2.96,7.42,0,20.26-.07,40.51-.28,60.77l-.29,30.38-.1,15.2c-.18,5.22-4.88,9.67-10.1,9.56h0Zm0-.15c5.11.07,9.71-4.3,9.84-9.42.03-5.05,0-10.12-.05-15.19l-.29-30.38c-.21-20.26-.28-40.51-.28-60.77,0-2.34-.93-4.66-2.55-6.34-1.61-1.7-3.87-2.74-6.21-2.84l-15.15-.03-30.38-.08-60.77-.29c-2.43-.01-4.85.94-6.62,2.62-1.78,1.67-2.88,4.03-3,6.47-.07,5.03-.05,10.12-.08,15.17-.04,10.13-.09,20.26-.03,30.38.02,20.26.27,40.51.36,60.77,0,2.38.95,4.73,2.6,6.44,1.63,1.72,3.94,2.78,6.3,2.88l15.16.03c28.06.11,62.94.52,91.15.57h0Z"/>
  </g>
  <rect class="cls-3" x="24.35" y="37.46" width="107.86" height="107.86" rx="8" ry="8"/>
  <g>
    <path class="cls-6" d="m67.01,135.32v-36.12h-11.9v-8.44h33.14v8.44h-11.89v36.12h-9.35Z"/>
    <path class="cls-6" d="m93.16,132.67v-9.57c4.54,2.6,9.25,4.65,14.44,4.65,4,0,6.11-1.95,6.11-4.87,0-3.46-3.19-4.7-8.65-6.38-5.41-1.73-12.17-5.24-12.17-13.84,0-8.11,6.49-12.81,15.3-12.81,5.57,0,10,1.35,13.08,2.49v9.52c-4.22-2.22-8.98-3.62-12.98-3.62-3.79,0-5.95,1.51-5.95,4.27,0,3.3,3.13,4.6,8.59,6.27,5.41,1.73,12.27,4.87,12.27,13.9,0,8.54-7.57,13.52-15.41,13.52-5.84,0-10.6-1.62-14.65-3.51Z"/>
  </g>
  <g>
    <rect class="cls-6" x="209.51" y="75.21" width="125.84" height="125.84" rx="10" ry="10"/>
    <path class="cls-4" d="m209.43,191.05c.02-28.27-.53-63.04-.57-91.15-.02-5.08-.05-10.1.02-15.22.13-2.7,1.34-5.32,3.31-7.16,1.95-1.86,4.63-2.93,7.32-2.92,20.26.09,40.51.34,60.77.36,10.13.06,20.26,0,30.38-.03,5.07,0,10.11-.06,15.21-.03,2.62.11,5.18,1.27,6.99,3.18,1.83,1.89,2.89,4.51,2.89,7.14l.29,60.77.08,30.38c0,5.08.04,10.09-.02,15.23-.12,2.73-1.35,5.39-3.34,7.26-1.97,1.89-4.69,2.97-7.42,2.96-20.26,0-40.51-.07-60.77-.28l-30.38-.29-15.2-.1c-5.22-.18-9.67-4.88-9.56-10.1h0Zm.15,0c-.07,5.11,4.3,9.71,9.42,9.84,5.05.03,10.12,0,15.19-.05l30.38-.29c20.26-.21,40.51-.28,60.77-.28,2.34,0,4.66-.93,6.34-2.55,1.7-1.61,2.74-3.87,2.84-6.21l.03-15.15.08-30.38.29-60.77c.01-2.43-.94-4.85-2.62-6.62-1.67-1.78-4.03-2.88-6.47-3-5.03-.07-10.12-.05-15.17-.08-10.13-.04-20.26-.09-30.38-.03-20.26.02-40.51.27-60.77.36-2.38,0-4.73.95-6.44,2.6-1.72,1.63-2.78,3.94-2.88,6.3l-.03,15.16c-.11,28.06-.52,62.94-.57,91.15h0Z"/>
  </g>
  <g>
    <path id="path1948" class="cls-7" d="m272.78,91.22c-3.93.02-7.68.35-10.98.94-9.72,1.72-11.49,5.31-11.49,11.94v8.75h22.97v2.92h-31.59c-6.68,0-12.52,4.01-14.35,11.65-2.11,8.75-2.2,14.21,0,23.35,1.63,6.8,5.53,11.65,12.21,11.65h7.9v-10.49c0-7.58,6.56-14.27,14.35-14.27h22.94c6.39,0,11.49-5.26,11.49-11.67v-21.87c0-6.23-5.25-10.9-11.49-11.94-3.95-.66-8.04-.96-11.97-.94Zm-12.42,7.04c2.37,0,4.31,1.97,4.31,4.39,0,2.41-1.94,4.36-4.31,4.36-2.38,0-4.31-1.95-4.31-4.36s1.93-4.39,4.31-4.39Z"/>
    <path id="path1950" class="cls-8" d="m299.1,115.77v10.2c0,7.91-6.7,14.56-14.35,14.56h-22.94c-6.28,0-11.49,5.38-11.49,11.67v21.87c0,6.23,5.41,9.89,11.49,11.67,7.27,2.14,14.24,2.52,22.94,0,5.78-1.67,11.49-5.04,11.49-11.67v-8.75h-22.94v-2.92h34.43c6.68,0,9.16-4.66,11.49-11.65,2.4-7.2,2.3-14.12,0-23.35-1.65-6.65-4.8-11.65-11.49-11.65h-8.62Zm-12.9,55.39c2.38,0,4.31,1.95,4.31,4.36s-1.93,4.39-4.31,4.39-4.31-1.97-4.31-4.39,1.94-4.36,4.31-4.36Z"/>
  </g>
</svg>