<?xml version="1.0" encoding="UTF-8"?>
<svg id="Layer_1" data-name="Layer 1" xmlns="http://www.w3.org/2000/svg" xmlns:xlink="http://www.w3.org/1999/xlink" viewBox="0 0 360 240">
  <defs>
    <style>
      .cls-1 {
        fill: url(#linear-gradient);
      }

      .cls-1, .cls-2, .cls-3, .cls-4, .cls-5, .cls-6, .cls-7, .cls-8, .cls-9, .cls-10, .cls-11 {
        stroke-width: 0px;
      }

      .cls-2 {
        fill: url(#New_Gradient_Swatch_copy-3);
      }

      .cls-3 {
        fill: url(#New_Gradient_Swatch_copy);
      }

      .cls-12 {
        clip-path: url(#clippath-2);
      }

      .cls-13 {
        clip-path: url(#clippath-6);
      }

      .cls-5, .cls-14 {
        fill: none;
      }

      .cls-15 {
        clip-path: url(#clippath-7);
      }

      .cls-16 {
        clip-path: url(#clippath-1);
      }

      .cls-17 {
        clip-path: url(#clippath-4);
      }

      .cls-6, .cls-11 {
        fill: #fff;
      }

      .cls-7 {
        fill: url(#linear-gradient-2);
      }

      .cls-8 {
        fill: url(#New_Gradient_Swatch_copy-2);
      }

      .cls-9 {
        fill: url(#linear-gradient-3);
      }

      .cls-18 {
        clip-path: url(#clippath);
      }

      .cls-19 {
        clip-path: url(#clippath-3);
      }

      .cls-20 {
        clip-path: url(#clippath-5);
      }

      .cls-10 {
        fill: url(#linear-gradient-4);
      }

      .cls-11 {
        opacity: 0;
      }

      .cls-14 {
        stroke: #fff;
        stroke-miterlimit: 10;
        stroke-width: 1.69px;
      }
    </style>
    <clipPath id="clippath">
      <polygon class="cls-5" points="24.79 67.94 53.4 80.54 53.4 112.41 24.79 98.61 24.79 67.94"/>
    </clipPath>
    <clipPath id="clippath-1">
      <path class="cls-5" d="m29.41,69.97c-2.56-1.13-4.62.25-4.62,3.08v17.89c0,2.82,2.06,6.1,4.62,7.32l5.34,2.56,5.79-25.95-11.13-4.9Z"/>
    </clipPath>
    <linearGradient id="linear-gradient" x1="-137.72" y1="-2356.57" x2="-137.13" y2="-2356.57" gradientTransform="translate(3725.28 -63235.15) scale(26.87 -26.87)" gradientUnits="userSpaceOnUse">
      <stop offset="0" stop-color="#58d3cc"/>
      <stop offset="1" stop-color="#4ab6ff"/>
    </linearGradient>
    <clipPath id="clippath-2">
      <path class="cls-5" d="m42.94,78.55l-5.82,26,11.36,5.48c2.71,1.31,4.92,0,4.92-2.94v-18.59c0-2.93-2.21-6.29-4.92-7.5l-5.54-2.46Z"/>
    </clipPath>
    <linearGradient id="linear-gradient-2" x1="-138.05" y1="-2356.73" x2="-137.44" y2="-2356.73" gradientTransform="translate(3746.41 -63231.15) scale(26.87 -26.87)" gradientUnits="userSpaceOnUse">
      <stop offset="0" stop-color="#4087e3"/>
      <stop offset="1" stop-color="#8e41f9"/>
    </linearGradient>
    <clipPath id="clippath-3">
      <polygon class="cls-5" points="24.79 67.94 53.4 80.54 53.4 112.41 24.79 98.61 24.79 67.94"/>
    </clipPath>
    <clipPath id="clippath-4">
      <polygon class="cls-5" points="65.85 80.08 96.95 67.1 96.95 98.99 65.85 111.18 65.85 80.08"/>
    </clipPath>
    <clipPath id="clippath-5">
      <path class="cls-5" d="m70.92,77.96c-2.81,1.17-5.08,4.44-5.08,7.3v18.14c0,2.86,2.27,4.29,5.08,3.18l5.84-2.3,6.3-31.39-12.14,5.07Z"/>
    </clipPath>
    <linearGradient id="linear-gradient-3" x1="-136.19" y1="-2356.75" x2="-135.55" y2="-2356.75" xlink:href="#linear-gradient"/>
    <clipPath id="clippath-6">
      <path class="cls-5" d="m85.67,74.44l-6.32,31.45,12.31-4.82c2.92-1.14,5.29-4.45,5.29-7.39v-18.61c0-2.94-2.37-4.33-5.29-3.12l-5.99,2.49Z"/>
    </clipPath>
    <linearGradient id="linear-gradient-4" x1="-136.47" y1="-2356.49" x2="-135.82" y2="-2356.49" xlink:href="#linear-gradient-2"/>
    <clipPath id="clippath-7">
      <polygon class="cls-5" points="65.85 80.08 96.95 67.1 96.95 98.99 65.85 111.18 65.85 80.08"/>
    </clipPath>
    <linearGradient id="New_Gradient_Swatch_copy" data-name="New Gradient Swatch copy" x1="54.53" y1="33.15" x2="67.3" y2="33.15" gradientUnits="userSpaceOnUse">
      <stop offset="0" stop-color="#4087e3"/>
      <stop offset="1" stop-color="#8e41f9"/>
    </linearGradient>
    <linearGradient id="New_Gradient_Swatch_copy-2" data-name="New Gradient Swatch copy" x1="36.36" y1="33.14" x2="50.91" y2="33.14" xlink:href="#New_Gradient_Swatch_copy"/>
    <linearGradient id="New_Gradient_Swatch_copy-3" data-name="New Gradient Swatch copy" x1="70.85" y1="33.14" x2="83.56" y2="33.14" xlink:href="#New_Gradient_Swatch_copy"/>
  </defs>
  <rect class="cls-11" width="360" height="240"/>
  <g>
    <g id="Ploton_logo">
      <g class="cls-18">
        <g class="cls-16">
          <polygon class="cls-1" points="24.79 67.94 40.54 74.88 40.54 103.59 24.79 96.06 24.79 67.94"/>
        </g>
        <g class="cls-12">
          <polygon class="cls-7" points="37.12 75.97 53.4 83.2 53.4 112.41 37.12 104.56 37.12 75.97"/>
        </g>
        <g class="cls-19">
          <path class="cls-14" d="m44.23,102.41l.91.43c1.01.48,1.82-.02,1.82-1.11v-4.44s2.29-1.41,2.29-1.41l-2.29-3.53v-4.44c0-1.09-.82-2.34-1.82-2.8l-.91-.41"/>
          <path class="cls-14" d="m33.5,77.27l-.88-.39c-.97-.43-1.75.08-1.75,1.15v4.35s-2.18,1.41-2.18,1.41l2.18,3.42v4.35c0,1.07.78,2.3,1.75,2.76l.88.41"/>
        </g>
      </g>
    </g>
    <g id="Ploton_logo-2" data-name="Ploton_logo">
      <g class="cls-17">
        <g class="cls-20">
          <polygon class="cls-9" points="65.85 80.08 83.06 72.89 83.06 101.8 65.85 108.59 65.85 80.08"/>
        </g>
        <g class="cls-13">
          <polygon class="cls-10" points="79.34 77.07 96.95 69.75 96.95 98.99 79.34 105.89 79.34 77.07"/>
        </g>
        <g class="cls-15">
          <path class="cls-14" d="m87.06,97.26l.98-.39c1.09-.43,1.97-1.67,1.97-2.76v-4.46l2.47-3.47-2.47-1.48v-4.46c0-1.09-.88-1.62-1.97-1.17l-.98.4"/>
          <path class="cls-14" d="m75.4,81.64l-.96.4c-1.06.44-1.92,1.67-1.92,2.75v4.4l-2.39,3.41,2.39,1.47v4.4c0,1.08.86,1.61,1.92,1.19l.96-.38"/>
        </g>
      </g>
    </g>
    <polygon class="cls-6" points="17.33 59.97 9.12 69.44 7.37 71.17 12.35 76.14 44.3 89.14 48.43 88.58 59.98 77.93 72.07 88.58 75.8 89.83 111.87 73.65 113.12 69.92 101.97 58.78 60.87 76.14 18.98 58.78 17.33 59.97"/>
    <g>
      <path class="cls-4" d="m61.12,122.17h-2.27c-.07-.06-.13-.15-.21-.18-12.66-5.26-25.31-10.51-37.97-15.77-3.35-1.39-4.31-2.84-4.31-6.51,0-6.34-.02-12.68.02-19.02,0-.89-.25-1.35-1.1-1.68-2.07-.8-4.11-1.69-6.15-2.57-3.96-1.71-4.85-5.86-1.92-9.01,1-1.07,2.03-2.12,3.04-3.18,1.79-1.87,3.57-3.74,5.32-5.57-.11-.23-.13-.34-.19-.4-2.71-2.84-5.43-5.67-8.13-8.53-3.02-3.19-2.12-7.36,1.95-9.08,3.83-1.62,7.65-3.26,11.5-4.83.88-.36,1.19-.81,1.18-1.78-.05-4.4-.04-8.8-.02-13.2.03-4.74,3-7.72,7.72-7.72,20.24,0,40.49,0,60.73,0,4.81,0,7.76,2.96,7.78,7.8.02,4.4.03,8.8-.02,13.2,0,.91.31,1.33,1.13,1.66,3.68,1.5,7.31,3.11,10.99,4.59,1.75.7,3.13,1.72,3.99,3.41v3.97c-.83,1.02-1.61,2.08-2.51,3.04-2.41,2.58-4.87,5.11-7.38,7.74.95,1,1.84,1.9,2.69,2.84,2.41,2.65,4.8,5.3,7.2,7.96v3.97c-.89,1.74-2.32,2.78-4.13,3.45-1.77.66-3.46,1.52-5.24,2.17-.97.35-1.25.86-1.24,1.86.04,6.29.02,12.59.02,18.88,0,3.68-.94,5.11-4.3,6.52-5.54,2.31-11.09,4.6-16.63,6.91-7.19,3-14.37,6.02-21.56,9.04Zm-1.13-72.68c9.97,0,19.95,0,29.92,0,3.29,0,4.59-1.27,4.59-4.51,0-7.9,0-15.79,0-23.69,0-3.2-1.28-4.48-4.46-4.48-20.04,0-40.09,0-60.13,0-3.17,0-4.44,1.28-4.45,4.49,0,7.9,0,15.79,0,23.69,0,3.19,1.3,4.5,4.46,4.5,10.02,0,20.04,0,30.07,0Zm37.12,9.11c-.58-.28-.89-.45-1.21-.6-3.29-1.44-6.57-2.9-9.89-4.28-.84-.35-1.81-.56-2.72-.56-15.52-.03-31.03-.03-46.55,0-.91,0-1.88.21-2.72.55-3.36,1.39-6.69,2.87-10.02,4.33-.31.13-.58.33-.96.56.29.16.4.24.53.3,11.87,5.17,23.74,10.35,35.64,15.47.51.22,1.29.13,1.83-.1,10.24-4.41,20.47-8.87,30.7-13.31,1.71-.75,3.42-1.5,5.39-2.36Zm-35.24,59.15c.46-.14.74-.19.99-.3,11.86-4.94,23.72-9.89,35.58-14.81,1.13-.47,1.54-1.22,1.53-2.41-.03-6.01-.01-12.01-.02-18.02,0-.31-.04-.63-.07-1.08-.59.23-1.07.39-1.54.59-7.01,2.96-14.02,5.9-21.01,8.89-2.61,1.12-4.83.76-6.86-1.26-2.48-2.47-5.03-4.86-7.56-7.28-.28-.27-.6-.49-1.05-.85v36.53Zm-3.77-36.67c-3.06,2.93-5.91,5.62-8.7,8.36-1.96,1.91-4.1,2.28-6.61,1.21-7.04-3.01-14.09-5.96-21.15-8.94-.49-.21-.99-.38-1.62-.62,0,6.45.04,12.64-.03,18.83-.02,1.51.53,2.31,1.91,2.88,11.61,4.79,23.21,9.64,34.81,14.47.41.17.85.29,1.39.47v-36.66Zm-1.43-3.67c-.3-.2-.41-.29-.53-.35-12.21-5.31-24.42-10.62-36.62-15.95-.7-.3-1.09-.16-1.58.36-2.6,2.75-5.23,5.46-7.84,8.19-1.5,1.58-1.27,2.7.71,3.54,3.13,1.33,6.26,2.65,9.39,3.97,7.96,3.36,15.92,6.71,23.88,10.09.88.38,1.71.58,2.49-.17,3.34-3.2,6.68-6.41,10.09-9.68Zm6.57-.09c3.48,3.34,6.76,6.48,10.02,9.63.75.73,1.53.76,2.46.37,11.18-4.74,22.38-9.45,33.56-14.18,1.84-.78,2.06-1.91.69-3.36-2.57-2.71-5.19-5.38-7.73-8.12-.65-.71-1.16-.82-2.05-.43-8.78,3.86-17.59,7.67-26.38,11.49-3.46,1.5-6.91,3.01-10.56,4.6ZM21.86,39.41c-.53.17-.84.25-1.13.37-3.35,1.41-6.71,2.82-10.05,4.24-1.82.78-2.04,1.9-.66,3.36,2.21,2.33,4.44,4.65,6.66,6.97q1.94,2.04,4.53.93c1.82-.79,3.63-1.59,5.67-2.48-3.73-1.67-5.21-4.35-5.03-8.07.08-1.69.01-3.4.01-5.33Zm71.24,13.4c2.72,1.19,5.21,2.31,7.74,3.33.28.11.88-.18,1.15-.45,2.7-2.77,5.38-5.57,8.04-8.38,1.3-1.38,1.07-2.52-.69-3.28-3.29-1.42-6.6-2.8-9.9-4.18-.37-.16-.76-.27-1.32-.46,0,1.9-.07,3.64.01,5.37.17,3.71-1.3,6.39-5.02,8.05Z"/>
      <path class="cls-3" d="m54.54,33.2c0-3.4,0-6.8,0-10.2,0-2.08.5-2.56,2.61-2.57,1.04,0,2.08-.03,3.12.02,3.67.17,6.68,2.82,6.87,6.47.21,4.14.21,8.32,0,12.46-.19,3.64-3.24,6.3-6.89,6.45-1.13.05-2.27.03-3.4.02-1.73-.02-2.3-.58-2.31-2.3-.02-3.45,0-6.9,0-10.34Zm3.7,8.84c3.63.6,5.39-.85,5.39-4.33,0-3.12,0-6.24,0-9.37,0-3.24-2.17-4.9-5.39-4.08v17.78Z"/>
      <path class="cls-8" d="m43.63,45.85c-3.66,0-6.8-2.76-7.2-6.34-.18-1.58.39-2.58,1.56-2.72,1.09-.13,1.81.63,2.05,2.19.26,1.68,1.32,2.85,2.83,3.16,1.51.31,3-.32,3.81-1.59.78-1.21.75-2.83-.08-4.01-.81-1.14-1.95-1.49-3.31-1.59-4.9-.36-8.03-4.91-6.58-9.47,1.03-3.22,4.14-5.28,7.55-5,3.35.27,6.13,2.91,6.57,6.24.14,1.08.12,2.12-1.09,2.64-1.21.52-2.28-.25-2.52-1.82-.35-2.3-2.02-3.71-4.04-3.43-1.85.25-3.17,1.76-3.17,3.6,0,1.84,1.33,3.35,3.17,3.59.7.09,1.42.09,2.11.25,3.62.84,6,4.29,5.55,7.97-.45,3.59-3.57,6.34-7.22,6.34Z"/>
      <path class="cls-2" d="m74.81,27.76c1.72-2.06,3.43-4.13,5.16-6.19,1.01-1.2,2.01-1.44,2.91-.74.95.74.92,1.83-.13,3.09-2.53,3.05-5.07,6.1-7.69,9.23,2.47,2.97,4.91,5.89,7.35,8.82,1.33,1.6,1.49,2.6.54,3.43-.98.86-2.01.51-3.38-1.14-1.59-1.92-3.19-3.83-5.09-5.67,0,1.62,0,3.25,0,4.87-.01,1.56-.64,2.37-1.8,2.37-1.15,0-1.84-.83-1.84-2.36-.01-6.9-.01-13.8,0-20.7,0-1.51.72-2.35,1.88-2.32,1.12.03,1.74.81,1.76,2.27.02,1.64,0,3.28,0,4.92.1.04.21.07.31.11Z"/>
    </g>
  </g>
  <g>
    <path class="cls-4" d="m325.42,146.47c0,11.78.04,23.55-.03,35.33-.02,2.86.7,5.28,2.63,7.48,2.65,3.03,5.01,6.31,7.63,9.36,1.8,2.09,3.84,3.97,5.76,5.96,1.66,1.72,3.27,3.48,4.95,5.18.83.84.85,1.79,0,2.38-2.87,2.02-5.42,4.74-9.28,4.88-4.15.15-8.29.24-12.44.38-6.62.23-13.24.57-19.86.69-5.82.1-11.65-.01-17.48-.08-15.55-.16-31.1-.37-46.66-.52-7.5-.07-15.01.1-22.51-.05-10.6-.22-21.2-.65-31.8-.96-2.6-.07-5.2.08-7.8-.01-1.14-.04-2.3-.32-3.39-.68-1.59-.51-3.14-1.17-4.68-1.8-.45-.19-.9-.46-1.27-.79-1.04-.94-1.04-1.34-.12-2.4,5.34-6.14,10.7-12.25,15.99-18.42,1.61-1.87,3.04-3.9,4.45-5.93.35-.5.43-1.27.41-1.91-.1-3.73-.31-7.45-.39-11.18-.36-16.72-.67-33.45-1.02-50.17-.09-4.4-.3-8.79-.46-13.19-.02-.5-.01-1.01-.02-1.51-.13-4.6,1.33-6.59,6.63-6.88,7.06-.39,14.16-.24,21.24-.35,8.88-.14,17.77-.36,26.65-.47,5.82-.07,11.65.03,17.47-.02,7.59-.06,15.17-.25,22.76-.29,11.7-.07,23.39-.06,35.09-.08.38,0,.75.05,1.13.06,2.58.07,4.32,1.27,4.88,3.85.38,1.71.81,3.45.87,5.19.46,12.31.82,24.63,1.22,36.94-.19,0-.38,0-.58.01Zm-2.52-10.99c-.11-.08-.21-.16-.32-.25-.76,1.1-1.52,2.2-2.27,3.3-.09-.06-.18-.11-.27-.17.94-1.55,1.89-3.09,2.83-4.64-.12-.07-.23-.15-.35-.22-.67.96-1.34,1.93-2,2.89-.07-.04-.14-.08-.21-.12.84-1.42,1.67-2.83,2.51-4.25-.11-.07-.23-.14-.34-.21-.64.83-1.27,1.65-1.91,2.48,1.1-2.41,3-4.36,3.7-6.94-.11-.06-.21-.12-.32-.19-1.1,1.81-2.2,3.61-3.29,5.42-.08-.05-.17-.1-.25-.15l3.79-6.91c-.11-.07-.23-.14-.34-.2-1.15,1.85-2.3,3.69-3.44,5.54-.09-.06-.19-.13-.28-.19,1.33-2.32,2.66-4.63,3.99-6.95-.11-.06-.23-.13-.34-.19-1.14,1.76-2.29,3.52-3.43,5.29-.09-.05-.17-.1-.26-.16,1.15-2.43,3.02-4.51,3.98-7.03-.13-.07-.26-.13-.38-.2-1.05,1.68-2.1,3.35-3.15,5.03-.08-.04-.16-.09-.24-.13,1.23-2.23,2.46-4.47,3.7-6.7-.11-.06-.23-.12-.34-.18-.92,1.47-1.85,2.95-2.77,4.42.69-2.4,2.46-4.26,3.13-6.62-.13-.07-.25-.15-.38-.22-1.15,1.77-2.3,3.54-3.45,5.31-.09-.06-.18-.12-.26-.18,1.32-2.17,2.64-4.34,3.96-6.51-.09-.05-.18-.1-.27-.16-1.08,1.66-2.17,3.33-3.25,4.99-.08-.06-.16-.11-.25-.17l3.65-6.26c-.1-.06-.21-.13-.31-.19-1,1.47-2,2.94-3,4.41-.1-.07-.19-.14-.29-.2,1.21-1.89,2.43-3.78,3.64-5.67-.13-.08-.27-.17-.4-.25-.87,1.26-1.75,2.53-2.62,3.79-.09-.06-.18-.12-.28-.18,1.07-1.71,2.15-3.41,3.22-5.12l-.3-.18c-.8,1.19-1.61,2.38-2.41,3.57l-.25-.18c.89-1.46,1.78-2.92,2.67-4.38-.08-.06-.16-.12-.24-.18l-2.89,4.05c.41-1.15,1-2.19,1.7-3.15,1.4-1.9,1.45-3.9.69-6.05-.78-2.18-3.18-2.87-4.91-1.34-.46.41-.91.84-1.37,1.26-.06-.06-.12-.13-.18-.19.5-.6,1.01-1.19,1.51-1.79-.12-.13-.25-.25-.37-.38-.95.92-1.9,1.84-2.85,2.76-.07-.06-.14-.12-.2-.17.56-.75,1.11-1.51,1.67-2.26-.18-.16-.37-.33-.55-.49-.78.95-1.57,1.9-2.35,2.85-.06-.06-.12-.13-.18-.19.56-.73,1.11-1.45,1.67-2.18-1.73.11-2.34,1.66-3.67,2.3.59-.76,1.19-1.52,2-2.56-2.1.19-2.63,1.86-3.91,2.61.53-.76,1.05-1.52,1.75-2.53-2.22.3-2.73,2.28-4.27,3.01.71-.91,1.42-1.81,2.29-2.91-2.34-.02-2.77,2.21-4.38,2.8.68-.86,1.36-1.72,2.24-2.85-2.58.09-2.99,2.52-4.84,3.49.91-1.22,1.67-2.23,2.58-3.46-2.87-.16-3.22,2.77-5.21,3.57.94-1.2,1.81-2.31,2.82-3.6-2.59-.33-2.88,2.18-4.71,3,.79-1.12,1.42-2.02,2.05-2.91-.12-.1-.24-.2-.35-.3-.98,1.03-1.95,2.06-2.93,3.09-.06-.05-.11-.11-.17-.16.59-.87,1.18-1.74,1.92-2.84-2.16.22-2.53,2.3-4.05,2.94.61-.88,1.22-1.77,1.98-2.86-2.71-.1-2.83,2.64-4.71,3.48.77-1.2,1.44-2.25,2.16-3.37-1.31-.31-2.2-.1-2.9.92-.55.79-1.25,1.47-1.89,2.2l-.23-.18c.67-.96,1.33-1.92,2-2.87-1.79.27-2.1,2.12-3.57,2.78.61-.95,1.23-1.9,1.84-2.85-.08-.09-.17-.18-.25-.26-1.82.48-2.27,2.66-3.91,3.41.73-1.04,1.45-2.08,2.18-3.12-.1-.09-.21-.19-.31-.28-1.73.58-2.24,2.53-3.76,3.43.71-1.05,1.42-2.11,2.12-3.16-2.33,0-2.59,2.27-4.13,3.16.65-1.06,1.31-2.12,2.14-3.48-2.8.34-3.16,3-5.14,4.25.97-1.41,1.77-2.57,2.58-3.74l-.32-.29c-2.39.6-2.85,3.31-4.73,4.51.97-1.41,1.95-2.82,3.09-4.48-.79,0-1.32,0-1.85,0-5.16.07-10.31.18-15.47.22-8.97.06-17.94.11-26.92.1-1.54,0-2.67.47-3.49,1.76-.26.41-.66.73-1,1.1-.06-.06-.13-.12-.19-.18.53-.79,1.06-1.57,1.6-2.36-.1-.08-.2-.16-.3-.23-.97,1.11-1.93,2.22-2.9,3.33-.04-.04-.08-.08-.12-.12.66-.99,1.31-1.99,1.97-2.98-.1-.09-.19-.18-.29-.27-1.83.57-2.27,2.71-3.79,3.66.72-1.08,1.44-2.17,2.16-3.25-.15-.14-.3-.27-.45-.41-1.26,1.37-2.52,2.75-3.78,4.12-.05-.04-.1-.08-.15-.12.98-1.24,1.96-2.48,2.94-3.72-.1-.1-.2-.19-.3-.29-2.05.76-2.69,3.11-4.5,4.18.96-1.29,1.92-2.57,2.87-3.86-.09-.09-.18-.18-.26-.27-1.73.3-2.28,2.12-3.63,2.98.62-.92,1.24-1.84,1.85-2.76l-.32-.25c-.77.84-1.54,1.67-2.31,2.51-.05-.04-.09-.08-.14-.13.43-.68.86-1.37,1.42-2.25-1.88-.01-1.97,1.84-3.28,2.49.5-.87.9-1.56,1.29-2.25-.11-.1-.22-.2-.33-.29-1.77.62-2.24,2.71-3.76,3.65.7-1.06,1.39-2.12,2.09-3.18-.08-.05-.16-.11-.24-.16-1.04,1.38-2.07,2.75-3.11,4.13-.08-.06-.16-.12-.24-.19.82-1.28,1.64-2.56,2.49-3.9-1.17-.34-1.87,0-2.49.78-.85,1.09-1.8,2.11-2.7,3.16-.07-.06-.14-.11-.21-.17.93-1.24,1.86-2.48,2.79-3.72-.1-.09-.2-.18-.3-.28-2.22.44-2.55,2.99-4.34,3.99.85-1.24,1.7-2.47,2.55-3.71-.1-.09-.21-.18-.31-.27-1.93.38-2.29,2.6-3.91,3.41.76-1.05,1.51-2.11,2.27-3.16-.09-.09-.19-.18-.28-.27-2.01.46-2.33,2.86-4.19,3.98.94-1.4,1.71-2.55,2.57-3.82-2.73-.34-2.85,2.3-4.58,3.39.74-1.24,1.35-2.26,1.95-3.27-.14-.1-.27-.21-.41-.31-.99,1.13-1.98,2.26-2.97,3.4-.06-.05-.12-.1-.19-.14.62-.95,1.24-1.9,1.96-3-.5-.04-.77-.09-1.05-.09-2.26.02-4.52.07-6.78.08-4.91.03-6.24,1.44-6.13,6.36.15,6.37.23,12.74.34,19.11.01.83,0,1.66,0,2.61,1.21-.56,1.43.07,1.48.91.05,1,.12,2.01.11,3.01,0,.3-.26.59-.4.88-.21-.29-.56-.56-.6-.87-.13-1.08-.15-2.18-.21-3.26-.28.71-.3,1.42-.28,2.12.48,17.06.96,34.11,1.47,51.16,0,.33.39.91.65.93,1.37.14,2.76.19,4.13.17,5.53-.08,11.06-.35,16.59-.26,11.15.17,22.3.7,33.45.77,11.53.07,23.06-.25,34.59-.37,7.8-.08,15.59-.07,23.39-.21,5.36-.09,10.73-.42,16.09-.51,1.35-.02,2.21-.35,2.75-1.6.3-.69.79-1.31,1.19-1.95l.43.27c-.31.52-.63,1.04-.94,1.56-.3.5-.6,1.01-1.08,1.82,1.98-1.08,2.52-2.86,1.98-5.95-1.08,1.67-2.05,3.18-3.02,4.69-.09-.06-.18-.12-.27-.18,1.2-2.02,2.4-4.05,3.6-6.07-.13-.07-.26-.15-.39-.22-1.22,1.97-2.44,3.93-3.65,5.9-.1-.06-.2-.12-.29-.18.1-.21.18-.43.29-.63,1.13-1.91,2.3-3.8,3.39-5.74.29-.51.35-1.14.52-1.71-.1-.02-.2-.05-.3-.07-1.51,2.31-3.02,4.62-4.53,6.93-.09-.06-.19-.11-.28-.17.27-.49.51-1,.81-1.48,1.27-2.07,2.6-4.11,3.81-6.21.33-.58.35-1.34.51-2.02-.12-.04-.24-.07-.36-.11-.93,1.57-1.85,3.13-2.78,4.7.58-2.63,2.72-4.59,2.99-7.3-.1-.05-.21-.1-.31-.15-.9,1.51-1.8,3.01-2.7,4.52-.09-.06-.18-.12-.27-.18.9-2.32,2.76-4.2,3.27-6.7-.1-.06-.19-.11-.29-.17-.87,1.38-1.74,2.77-2.62,4.15.8-2.37,2.52-4.29,2.61-6.95-.88,1.41-1.76,2.82-2.64,4.24-.09-.06-.18-.12-.26-.19,1.07-2,2.15-4,3.22-6-.08-.05-.17-.09-.25-.14-.8,1.28-1.6,2.57-2.4,3.85.45-2.37,2.5-4.05,2.65-6.51-.1-.05-.2-.1-.3-.15-.77,1.24-1.53,2.48-2.3,3.72-.08-.05-.17-.09-.25-.14.97-1.88,1.95-3.76,2.92-5.64-.11-.05-.22-.11-.34-.16-.69,1.22-1.39,2.44-2.08,3.66-.09-.05-.18-.1-.27-.15.51-1.09,1.01-2.18,1.53-3.26q1.17-2.42.72-3.48c-.88,1.55-1.73,3.05-2.59,4.55-.09-.06-.19-.12-.28-.18,1.1-2.15,2.19-4.29,3.29-6.44-.13-.07-.26-.14-.38-.2l-2.42,3.57c-.09-.06-.18-.12-.27-.17,1.1-1.82,2.28-3.6,2.91-5.64-.1-.05-.2-.1-.3-.15-.71,1.25-1.42,2.49-2.13,3.74-.1-.06-.2-.12-.29-.18.98-2.05,1.96-4.09,2.94-6.14-.14-.06-.27-.13-.41-.19-.94,1.68-1.88,3.36-2.82,5.04-.1-.06-.21-.11-.31-.17,1.21-2.37,2.42-4.74,3.63-7.11-.11-.06-.21-.12-.32-.19-.96,1.56-1.92,3.12-2.88,4.68l-.21-.15c1.27-2.41,2.55-4.83,3.82-7.24-.14-.07-.28-.15-.41-.22-1.1,1.83-2.2,3.66-3.31,5.49-.1-.05-.2-.11-.3-.16,1.39-2.52,2.88-5,4.03-7.63-.14-.07-.28-.15-.42-.22-1.2,1.97-2.4,3.94-3.6,5.92-.12-.07-.24-.14-.35-.21,1.28-2.13,2.57-4.25,3.83-6.38.23-.38.37-.82.55-1.23-.13-.05-.25-.11-.38-.16-1.42,2.08-2.84,4.15-4.26,6.23l-.24-.17c1.64-2.6,3.28-5.21,4.92-7.81-.1-.06-.19-.11-.29-.17-1.16,1.65-2.32,3.3-3.49,4.95-.09-.06-.17-.12-.26-.18.77-1.21,1.53-2.42,2.3-3.63Zm-109.12,52.55c.16-1.14-.63-1.05-1.41-1.06-2.77-.03-5.53-.12-8.3-.13-4.19-.02-8.38.02-12.56-.02-1.1-.01-1.79.48-2.4,1.31-1.11,1.53-2.19,3.08-3.41,4.51-4.51,5.24-9.08,10.43-13.62,15.65-.72.82-1.44,1.64-2.12,2.49-.87,1.09-.68,1.56.73,1.76.87.13,1.75.21,2.62.22,4.02.05,8.05.02,12.07.11,8.51.18,17.01.52,25.52.6,7.87.08,15.75-.13,23.62-.14,15.8-.02,31.6-.03,47.4.04,6.33.03,12.65.4,18.98.35,8.25-.07,16.51-.37,24.76-.64,5.78-.19,11.55-.5,17.33-.77.49-.02,1.01-.13,1.46-.32,1.04-.44,1.19-.95.45-1.81-.87-1.02-1.79-2-2.78-2.9-6.03-5.47-10.95-11.9-15.79-18.38-1.21-1.61-2.44-2.29-4.37-2.22-6.87.23-13.74.37-20.62.55-.28,0-.55.09-.9.14.37,1.26-.16,1.38-1.15,1.09-.63-.18-1.32-.24-1.99-.25-5.11-.05-10.23-.11-15.34-.1-13.45.02-26.89.82-40.35.14-7.02-.36-14.07-.15-21.11-.19-2.21-.01-4.42,0-6.72,0Zm84.58-.3c.02-.16.03-.31.05-.47h-82.71c0,.1,0,.21,0,.31,27.56.05,55.11.1,82.67.16Zm-23.28,28.76c-1.01-1.7-1.6-1.99-3.08-1.48,1.01,1.62,1.55,1.88,3.08,1.48Zm-.19-1.52c1.02,1.62,1.49,1.85,2.75,1.42-.76-.74-1.27-1.8-2.75-1.42Zm-2.55,1.52c-.99-.83-1.47-2.1-2.95-1.6.9,1.39,1.53,1.77,2.95,1.6Zm-24.64-1.35c.73,1.22,1.5,1.53,2.75,1.1-.65-1.06-1.47-1.6-2.75-1.1Zm17.34,1.65l.27-.4c-.89-1.31-1.56-1.71-2.94-1.42,1.05.71,1.86,1.26,2.68,1.82Zm-26.24-1.96c.58,1.43,1.27,1.66,2.58.86-.86-.29-1.72-.57-2.58-.86Zm52.47.83c.99,1.33,1.3,1.44,2.51.91-.93-1.25-1.15-1.34-2.51-.91Zm14.79-.37c.89.75,1.4,1.75,2.93,1.38-1.01-.66-1.34-1.93-2.93-1.38Zm-55.56-.19c.62,1.15,1.29,1.46,2.5,1.13-.71-.74-1.29-1.58-2.5-1.13Zm8.33-.36c-.08.14-.16.29-.25.43.74.46,1.48.91,2.21,1.37.08-.13.16-.26.24-.38-.59-.71-1.02-1.67-2.2-1.42Zm6.33.04c-.07.13-.13.26-.2.38.81.52,1.62,1.04,2.43,1.57.09-.14.17-.27.26-.41-.81-.55-1.2-1.73-2.49-1.54Zm4.29,2.01c.11-.18.22-.36.32-.54-.9-.33-1.22-1.62-2.38-1.52-.07.11-.15.23-.22.34.76.57,1.52,1.14,2.28,1.71Zm-10.62-.58c-.7-.71-1.09-1.62-2.43-1.34.71.8,1.08,1.74,2.43,1.34Zm-13.67.38c.09-.13.17-.26.26-.39-.38-.83-.82-1.53-2.28-.83.8.48,1.41.85,2.02,1.22Zm-9.09-.26c.09-.2.19-.4.28-.6l-2.09-.87-.25.59c.69.29,1.37.59,2.06.88Zm-58.51-.87c.09-.2.19-.39.28-.59-.71-.32-1.43-.63-2.14-.95-.08.17-.16.35-.24.52l2.1,1.02Zm34.89-.94c-.08.13-.15.26-.23.38.44.61.83,1.3,2.24.85-.85-.52-1.43-.88-2.01-1.24Zm5.35,1.75c.11-.17.22-.34.33-.51-.63-.41-1.27-.82-1.9-1.23-.11.17-.22.34-.33.51l1.9,1.23Zm44.9.3c.11-.16.21-.33.32-.49-.63-.5-1.26-1-1.89-1.49l-.34.45c.64.51,1.27,1.02,1.91,1.53Zm-15.32.02c.11-.19.22-.39.32-.58-.62-.39-1.23-.77-1.85-1.16-.12.2-.24.39-.35.59.63.38,1.25.77,1.88,1.15Zm-13.62-.83c-.59-.31-1.19-.62-1.78-.92-.06.12-.12.24-.19.37.4.73.92,1.19,1.97.56Zm51.73-.46c-.11.2-.22.39-.33.59.62.33,1.24.67,1.86,1l.29-.52-1.82-1.08Zm-107.34-1.48c-.1.18-.21.35-.31.53.6.37,1.2.73,1.79,1.1l.32-.54c-.6-.36-1.2-.72-1.8-1.09Zm42.04.7c.52,1.51.81,1.7,1.97,1.39-.74-.52-1.36-.96-1.97-1.39Zm3.49,1.84c.07-.11.14-.21.22-.32-.86-1.28-1.16-1.44-2.03-1.02.64.47,1.23.9,1.81,1.33Zm29.43-1.66c-.12.15-.23.31-.35.46.62.48,1.24.95,1.86,1.43.11-.14.21-.28.32-.43-.61-.49-1.22-.98-1.83-1.47Z"/>
    <path class="cls-4" d="m256.11,108.36c17.44,0,34.87.01,52.31-.01,2.39,0,4.78-.16,7.16-.31,1.77-.11,2.21.2,2.29,1.94.57,12.35,1.17,24.7,1.03,37.07-.11,9.22.09,18.44.16,27.67,0,.63.07,1.26.14,1.88.15,1.33-.2,1.8-1.5,1.85-5.31.23-10.62.53-15.94.65-7.04.16-14.08.25-21.12.23-16.72-.05-33.45-.14-50.17-.29-6.49-.06-12.98-.39-19.47-.44-4.44-.04-8.88.2-13.32.3-1.97.04-2.23-.29-2.33-2.22-.32-6.28-.88-12.55-.97-18.83-.11-8.17.18-16.34.22-24.51.04-7.12-.01-14.25-.07-21.37-.02-2.9.59-3.46,3.51-3.42,9.47.13,18.94.2,28.41.24,9.89.04,19.78,0,29.67,0,0-.14,0-.28,0-.43Zm-59.36,64.69c-.13,0-.26-.02-.39-.02-1.16-13.31-.26-26.69-1.04-40.01-.1.15-.15.31-.16.47-.14,6.75-.5,13.5-.34,20.24.18,7.7.85,15.39,1.27,23.09.08,1.4,1.01,1.34,1.94,1.34,8,.04,15.98-.39,24,.13,8.02.52,16.09.45,24.13.49,13.25.06,26.49-.13,39.74.02,10.32.12,20.6-.62,30.9-1.07,1.31-.06,1.68-.62,1.66-1.88-.29-20.03.25-40.07-.9-60.09-.11-1.84-.32-3.67-.42-5.51-.07-1.28-.75-1.61-1.9-1.55-2.05.1-4.1.18-6.16.2-14,.09-27.99.17-41.99.24-6.45.03-12.9-.03-19.36.01-7.25.04-14.5.21-21.75.22-9.3,0-18.61-.1-27.91-.13-.66,0-1.35.1-1.97.3-.76.25-1.17,1.74-.71,2.22.25.26.61.58.62.88.1,3.31.17,6.62.18,9.93.02,6.08-.06,12.15,0,18.23.09,9.51.25,19.03.39,28.54.02,1.25.1,2.49.16,3.73Zm-1.4-47.07c.06,0,.12,0,.18,0v-10.62c-.06,0-.12,0-.18,0v10.62Z"/>
    <path class="cls-4" d="m290.41,185.38c-.41.02-.91.12-1.39.05-.31-.04-.57-.34-.86-.52.25-.28.49-.77.77-.79,1.07-.09,2.16-.1,3.22.01.3.03.54.6.81.93-.32.15-.64.38-.97.41-.49.05-.99-.05-1.58-.1Z"/>
    <path class="cls-4" d="m223.79,185.18c-.59,0-1.19.09-1.75-.04-.29-.06-.5-.49-.74-.75.28-.17.56-.47.85-.49,1.08-.05,2.17-.05,3.24.02.34.02.65.34.98.52-.32.24-.6.6-.95.68-.52.12-1.08.03-1.62.03,0,0,0,.02,0,.03Z"/>
    <path class="cls-4" d="m257.68,105.32c-.41.24-.89.75-1.21.67-.44-.11-.76-.68-1.13-1.06.34-.29.69-.83,1.01-.81.46.03.89.46,1.34.72,0,.16,0,.32,0,.48Z"/>
    <path class="cls-4" d="m257.72,189.83c11.32.13,22.63.42,33.95.34,9.47-.07,18.94-.58,28.4-.85.5-.01,1.18.37,1.48.78,1.94,2.57,3.8,5.2,5.66,7.82.31.44.49.98.73,1.47-.57.26-1.14.72-1.72.75-4.94.23-9.87.48-14.81.53-4.61.05-9.22-.21-13.83-.19-9.89.03-19.79.26-29.68.22-16.81-.07-33.62-.34-50.43-.42-9.39-.05-18.78.14-28.17.16-.93,0-1.86-.41-2.79-.63.49-.79.92-1.62,1.49-2.35,1.91-2.44,3.86-4.85,5.84-7.24.31-.37.84-.79,1.27-.8,6.2-.05,12.41-.14,18.6-.02,11.65.22,23.3.57,34.95.84,3.02.07,6.04.01,9.05.01v-.44Zm-35.93,9.35c13.01,0,25.81.66,38.69.33-.12-1.31-.33-2.08-1.63-2.08-5.15.02-10.3.02-15.45-.04-6.2-.07-12.39-.16-18.59-.31-2.01-.05-2-.15-3.02,2.1Zm50.05-2.32c-.72-.77-.75-1.97-2.05-1.74-.88.16-1.81.03-2.71.03-.15,1.82-.02,1.96,1.68,1.94,4.35-.06,8.7-.13,13.05-.18,1.52-.02,3.04,0,4.67,0-.28-1.01-.4-1.79-1.41-1.79-1.08,0-2.16,0-3.23,0-.09.58-.16.97-.28,1.73-1.12-2.7-3.02-1.21-4.56-1.66-.04.58-.06.95-.09,1.43-.5-.53-.86-1.26-1.3-1.32-1.22-.17-2.47-.06-3.78-.06v1.63Zm-10.89.85c.07,1.7.15,1.78,1.68,1.77,3.27,0,6.54,0,9.81,0,.44,0,.87-.05,1.31-.08.08-.13.16-.26.24-.39-.44-.49-.85-1.35-1.34-1.4-1.73-.17-3.49-.07-5.21-.07-.11.7-.17,1.11-.23,1.52-.5-.51-.88-1.25-1.32-1.29-1.61-.15-3.24-.06-4.94-.06Zm25.94-2.72l-.34.55c.41.46.81,1.3,1.24,1.31,3.35.1,6.7.04,10.05.02.1,0,.21-.12.3-.18-.32-1.47-2.86-2.19-5.08-1.47.05.42.1.84.17,1.44-.73-.66-1.24-1.51-1.86-1.6-1.46-.22-2.98-.07-4.48-.07Zm-46.84-.65c3.14,0,6.05.03,8.95-.02.63-.01,1.03-1.27.53-1.68-.3-.25-.85-.27-1.29-.28-1.32-.02-3.07-.85-3.11,1.78-.61-2.04-1.12-2.28-3.75-2.02-1.26.13-.9,1.16-1.34,2.22Zm-32.12,2.36c-1.71,0-3.28,0-4.85,0-1.86,0-2.33.45-2.57,2.53,1.59,0,3.17-.03,4.75,0,1.87.05,2.19-.19,2.67-2.54Zm-15.6-3.36c2.69.12,5.22.26,7.75.35,1.47.05,1.63-.15,1.67-2.03-2.37,0-4.74.11-7.1-.04-1.29-.08-1.77.53-2.32,1.72Zm109.73,6.22c.07-.12.14-.24.21-.36-1.51-2.67-2.99-5.37-4.58-8-.24-.39-.99-.46-1.51-.68l-.34.4c1.5,2.68,2.96,5.39,4.55,8.01.24.4,1.1.43,1.67.63Zm-94-.44h6.86c.24-.66.48-1.35.8-2.23-1.94,0-3.69,0-5.44,0-1.65,0-1.98.32-2.22,2.23Zm-13.2-2.19c-1.33-.11-2.57-.27-3.82-.31-1.69-.06-2.52.59-3.29,2.51,1.42.06,2.77.16,4.13.17,2.24.01,2.24,0,2.98-2.37Zm17.53-2.64c-1.99,0-3.91.09-5.81-.03-1.34-.08-1.91.47-2.09,2.03,1.94,0,3.8,0,5.66,0,1.67,0,1.8-.11,2.25-2Zm-8.26-.12c-1.97,0-3.88,0-5.79,0-1.31,0-1.77.49-1.87,2,1.96,0,3.93-.07,5.88.03,1.25.06,1.79-.4,1.78-2.03Zm5.25-2.34c-1.79,0-3.53.06-5.26-.02-1.35-.06-1.83.67-2.06,2.05,1.75,0,3.41-.09,5.06.03,1.48.1,2.01-.65,2.26-2.06Zm8.11.04c-2.04,0-3.97,0-5.89,0-1.41,0-1.79.31-2.1,1.86,2.12,0,4.24-.05,6.36.02,1.23.04,1.63-.56,1.63-1.88Zm91.78,5.05c-.07.15-.15.3-.22.45.54.61,1.03,1.66,1.63,1.73,1.85.23,3.74.08,5.62.08.07-.16.14-.31.22-.47-.71-.6-1.37-1.59-2.16-1.71-1.66-.27-3.38-.08-5.08-.08Zm-.09,2.22c.05-.15.11-.3.16-.45-.66-.52-1.27-1.39-1.98-1.48-1.74-.22-3.53-.07-5.4-.07.29,1.25.88,2.09,1.92,2.14,1.76.09,3.54-.08,5.31-.13Zm-83.11-4.66c-1.83-.08-3.45-.18-5.08-.21-1.21-.02-1.86.71-2.26,1.9,2.25.11,4.4.22,6.56.32.25-.65.49-1.25.79-2.01Zm87.82-.57c-.06.23-.12.46-.19.69.68.54,1.29,1.41,2.04,1.55,1.28.25,2.66.06,3.99.02.22,0,.44-.2,1.16-.54-.9-.71-1.49-1.55-2.19-1.65-1.58-.22-3.21-.07-4.82-.07Zm-92.22,3.1c-.19-.06-.31-.12-.42-.13-.96-.01-1.91-.02-2.87-.02-2.07,0-2.29.19-2.74,2.3,1.16,0,2.32.02,3.49,0,1.89-.04,1.94-.09,2.55-2.15Zm85.73-2.58c-.07.13-.14.26-.21.38.56.54,1.1,1.48,1.7,1.53,1.71.14,3.44-.09,5.17-.18.06-.13.11-.25.17-.38-.58-.54-1.12-1.48-1.74-1.53-1.67-.15-3.38.09-5.07.17Zm-112.55,4.72c.07.04.14.13.21.13.96,0,1.92-.02,2.88,0,1.7.04,2.38-.65,2.27-2.58-.86,0-1.73,0-2.6,0-1.88.01-2.39.47-2.75,2.45Zm17.57-2.92c1.51,0,2.91-.01,4.32,0,1.38.01,1.86-.47,1.87-2.04-1.2,0-2.41,0-3.61,0-1.76,0-1.96.14-2.57,2.04Zm13.53.36c1.18.09,2.25.18,3.33.26,1.67.12,2-.18,2.24-2.1-.9-.07-1.8-.13-2.7-.2q-2.06-.16-2.87,2.05Zm-35.66-.79s.05.08.07.08c1.11.12,2.23.24,3.34.34,1.71.16,2.15-.19,2.47-1.96-3.44-.9-4.98-.5-5.89,1.53Zm41.36,1.11c1.26,0,2.37,0,3.49,0,1.58,0,1.88-.35,1.81-2.16-.9,0-1.8.04-2.7,0-1.61-.08-2.1.26-2.59,2.17Zm75.54-.64c.05-.12.11-.24.16-.36-.38-.47-.73-1.32-1.14-1.35-1.87-.15-3.76-.06-5.64-.06-.07.15-.14.3-.2.45.53.44,1.03,1.2,1.6,1.26,1.73.17,3.48.06,5.22.06Zm-27.63,1.11c-.1.16-.2.32-.3.48.45.5.87,1.38,1.37,1.43,1.63.18,3.3.07,5.14.07-.34-1.08-.38-1.96-1.46-1.98-1.58-.03-3.17,0-4.75,0Zm42.7,1.45c.06-.11.13-.23.19-.34-.63-.55-1.2-1.46-1.91-1.59-1.39-.25-2.86-.07-4.29-.07-.07.16-.13.32-.2.48.71.6,1.36,1.58,2.16,1.71,1.3.23,2.7-.09,4.06-.18Zm-93.72-6.68c-1.5,0-2.91.09-4.31-.03-1.25-.11-1.82.41-2.12,1.87,1.65,0,3.18-.05,4.71.02,1.1.05,1.64-.4,1.72-1.86Zm47.76.35c-.03,2.16.08,2.28,1.93,2.27.58,0,1.18.07,1.74-.05.4-.09,1.08-.58,1.04-.66-.21-.55-.53-1.43-.92-1.49-1.24-.19-2.53-.07-3.79-.07Zm-26.02,1.89c1.48,0,2.89,0,4.3,0,.57,0,1.12-.05,1.08-.85-.04-.76-.37-1.15-1.17-1.09-.87.06-1.75.15-2.62.1-1.53-.09-1.67.01-1.59,1.85Zm40.22-1.69c.4.69.65,1.61.98,1.63,1.8.14,3.61.07,5.42.07.07-.14.14-.29.21-.43-.48-.42-.93-1.16-1.44-1.21-1.6-.16-3.24-.06-5.16-.06Zm-56.22-.45c-1.24,0-2.41.06-3.57-.02-1.23-.08-1.75.49-1.85,1.63.14.09.24.2.35.21,1,.06,2,.13,3,.16,1.72.05,1.83-.07,2.06-1.98Zm.21,1.94c1.3,0,2.51.01,3.72,0,1.56-.02,1.76-.26,1.53-2.07-.96,0-1.96,0-2.95,0-1.71.02-1.9.19-2.3,2.07Zm44.79,5.28c-.41-1.9-.57-2.04-2.22-2.01-.62.01-1.26-.06-1.87.05-.35.06-.66.39-.99.6.29.45.54,1.26.87,1.3,1.38.15,2.78.06,4.21.06Zm-41.95-2.56c.98,0,1.85,0,2.72,0,1.58-.01,1.83-.3,1.69-1.95-3.1-.82-3.9-.5-4.41,1.95Zm34.9-4.65c.09-.2.18-.4.26-.6-.37-.43-.71-1.18-1.13-1.23-1.46-.15-2.95-.06-4.42-.06-.08.16-.16.31-.24.47.35.47.67,1.31,1.07,1.36,1.47.16,2.97.07,4.46.07Zm-12.29,4.64s0,.02,0,.03c.5.03,1.01.15,1.49.06.35-.07.88-.39.92-.67.09-.55-.01-1.2-.86-1.22-1-.02-1.99-.04-2.99-.1-.69-.04-.96.26-1,.94-.04.72.26.98.94.96.5-.02,1,0,1.5,0Zm15.76-2.16c.13-.13.26-.27.38-.4-.42-.62-.75-1.67-1.28-1.79-1.04-.23-2.2.07-3.3.14.06,1.98.09,2.01,1.82,2.04.79.01,1.58,0,2.37,0Zm-9.75-.22c.16-1.25-.11-1.94-1.4-1.88-.87.04-1.75-.1-2.62-.03-.32.03-.88.47-.85.65.07.44.39,1.18.66,1.21,1.39.12,2.8.06,4.22.06Zm24.47-.07c-.16-1.31-.65-2.06-2.02-1.9-.45.05-.92-.04-1.38,0-.51.03-1.32-.35-1.32.61,0,.79.24,1.52,1.3,1.46,1.08-.07,2.17-.11,3.42-.17Zm20.61-2.39c-1.04-1.64-3.89-2.11-6.66-1.25.74.51,1.24,1.15,1.8,1.2,1.52.15,3.06.05,4.86.05Zm-52.72.41c-.45,0-.87-.1-1.2.03-.37.15-.86.46-.94.79-.14.61.08,1.13.94,1.1.79-.03,1.59.06,2.38.11.9.06,1.09-.39.91-1.17-.31-1.39-1.45-.56-2.1-.86Zm-11.42,2.57c-.12-.06-.2-.12-.27-.12-.79,0-1.59.03-2.38.01-1.76-.03-1.85.05-1.95,1.93,1.04-.05,2.08-.17,3.1-.12,1.25.07,1.85-.32,1.5-1.71Zm57.92-3.18c-.66-.55-1.14-1.29-1.65-1.32-1.55-.09-3.12.09-4.73.17.49,1.27,3.58,1.84,6.39,1.15Zm-33.92,2.68c.11-.11.22-.22.33-.33-.38-.49-.69-1.29-1.17-1.41-.9-.22-1.91-.11-2.85,0-.24.03-.59.54-.59.84,0,.3.35.85.58.86,1.23.09,2.47.04,3.71.04Zm24.62,4.66c-.64-2.04-1.1-2.11-5.06-1.47.42.55.73,1.35,1.13,1.4,1.29.17,2.61.06,3.93.06Zm-45.62-2.51s0-.01,0-.02c.46,0,.95.1,1.37-.03.33-.1.58-.48.87-.74-.28-.31-.53-.83-.85-.89-.9-.15-1.84-.21-2.74-.09-.34.05-.66.66-.85,1.07-.04.08.5.57.83.66.43.12.91.03,1.37.03Zm56.05-4.18c.88,1.47,3.99,1.78,6.54.81-2.15-1.5-4.3-.45-6.54-.81Zm-22.43,2.29s.03-.09.04-.14c.21,0,.42.04.62,0,.38-.09,1.04-.17,1.06-.34.06-.41-.03-1.1-.3-1.26-.6-.35-1.33-.51-2.03-.59-.43-.05-1.24.14-1.26.31-.07.49.02,1.18.34,1.5.34.34,1.01.36,1.54.52Zm22.31-.92c-.64-1.32-3.75-1.76-6.59-.99.55.41.92.93,1.32.95,1.7.09,3.41.04,5.27.04Zm-111.7-3.3c.02.25.05.49.07.74,1.64,0,3.29.07,4.93-.04.45-.03.87-.61,1.3-.94-.08-.15-.16-.29-.23-.44-2.02.25-4.13-.2-6.06.68Zm122.74.86c-.61-1.35-3.33-1.66-6.09-.67.64.42,1.11.98,1.58.98,1.48,0,2.97-.19,4.51-.32Zm1.41,1.92c.04-.13.08-.27.12-.4-.43-.32-.86-.9-1.3-.91-1.52-.03-3.04.14-4.55.23l-.13.36c.35.3.69.84,1.05.85,1.6.04,3.21-.08,4.81-.14Zm-63.63,3.35s0,.03,0,.04c.54,0,1.11.1,1.6-.04.27-.08.59-.56.59-.87,0-.3-.33-.84-.56-.86-.94-.09-1.91-.12-2.85.02-.28.04-.58.66-.67,1.06-.03.15.46.52.77.62.34.11.74.03,1.11.03Zm-49.61-5.28c1.32,0,2.6-.02,3.87,0,1.02.02,1.38-.49,1.36-1.43-3.68-.35-4.77-.08-5.23,1.42Zm12.71,2.3c1.05.05,2.01.22,2.93.1.46-.06.91-.61,1.26-1.02.11-.13-.04-.69-.22-.81-1.24-.78-3.42.11-3.97,1.73Zm67.97,4.02c.41.57.68,1.3,1.03,1.34,1.17.15,2.37.06,3.61.06-.61-1.79-1.68-2.13-4.64-1.4Zm-18.91-.74c-.35-.72-.5-1.58-.86-1.68-.84-.23-1.81-.19-2.67,0-.22.05-.24,1.05-.37,1.69h3.9Zm53.34-2.96c.89,2.14,2.12,2.58,4.22,1.6-.8-1.75-1.41-1.99-4.22-1.6Zm-53.67-1.93c-.21-1.75-1.83-2.26-4.34-1.19.38.44.67,1.09,1.03,1.14,1.08.14,2.2.05,3.31.05Zm55.65,4.67c1.26,2.24,1.91,2.53,4.22,1.93-1.35-2.1-1.94-2.38-4.22-1.93Zm-44.83-4.7c-.62-1.65-2.07-2.03-4.83-1.37.41.53.69,1.27,1.07,1.32,1.18.16,2.39.06,3.76.06Zm-72.71-2.02c-3.08-.36-3.78-.27-3.97,1.26,3.44.24,4.1.23,3.97-1.26Zm94.9,9.12c-.46-1.55-1.86-2.08-3.76-1.51.38,1.73,1.04,2,3.76,1.51Zm-17.09-8.49c.32,1.28,2.42,1.76,4.75,1.06-.44-.41-.77-.98-1.15-1.02-1.18-.12-2.38-.04-3.6-.04Zm-49.6.92c1.49,0,2.73.03,3.96-.03.23-.01.47-.37.63-.62.04-.07-.19-.45-.29-.45-1.25.02-2.5.06-3.74.17-.17.02-.31.48-.57.93Zm29,.25c-.24-1.29-2.18-1.72-4.01-.88.33,1.03,2.17,1.44,4.01.88Zm59.47-.68c-.51-1.3-1.93-1.61-4-.87.7,1.26,2.09,1.56,4,.87Zm-64.21.79c.08-.13.17-.25.25-.38-.27-.29-.52-.8-.82-.83-.99-.1-1.99-.05-2.98.01-.18.01-.52.42-.48.56.06.24.36.6.57.61,1.15.06,2.31.03,3.46.03Zm-38.36-.62c3.7.56,3.99.5,4.36-.82-2.32-.61-3.94-.34-4.36.82Zm9.22-.09c.09.15.18.31.26.46,1.12,0,2.24.05,3.35-.04.3-.02.56-.47.84-.73-.28-.16-.55-.43-.85-.46-.74-.07-1.52-.13-2.24,0-.48.08-.91.5-1.36.76Zm49.42-.44c.47.52.74,1.1,1.06,1.13,1.13.12,2.29.05,3.51.05-.46-1.51-.97-1.63-4.57-1.18Zm41.26,1.28c.76,1.37,2.41,1.7,4.18.99-1.05-1.74-2.62-.91-4.18-.99Zm-104.45-.77c2.45.54,3.82.21,3.97-.97-2.82-.64-3.59-.46-3.97.97Zm81.42.53c-.2-1.31-.75-1.27-3.82-.83.34,1.24,1.99,1.6,3.82.83Zm-68.11-1.14c-2.06-.74-3.48-.44-3.85.81,2.79.54,3.6.37,3.85-.81Zm10.46.42c.09.15.18.29.27.44.33.02.66.05.99.05.84,0,1.68.03,2.51-.02.24-.01.46-.24.69-.37-.22-.19-.43-.51-.67-.54-.91-.12-1.84-.22-2.75-.18-.36.01-.7.4-1.05.61Zm12.48.83s0,.02,0,.03c.33,0,.68.06.99-.02.35-.08.68-.28,1.01-.42-.32-.25-.63-.68-.96-.71-.95-.08-1.91-.02-2.86.05-.22.02-.42.28-.64.43.2.17.37.45.59.49.61.1,1.24.1,1.86.15Zm37.05-.98c.37,1.23,1.37,1.47,3.66.94-.51-1.17-1.32-1.38-3.66-.94Zm-73.82-.88c-2.12-.55-3.13-.09-2.82,1.28,2.77.14,2.82.12,2.82-1.28Zm31.48,1.57s0,.05,0,.08c.54,0,1.09.04,1.63-.02.18-.02.34-.27.52-.42-.13-.14-.25-.39-.4-.4-1.08-.09-2.17-.16-3.26-.17-.18,0-.36.35-.54.54.18.13.35.35.55.38.5.05,1,.02,1.5.02Z"/>
    <path class="cls-4" d="m220.26,201.94c.82,0,1.47,0,2.13,0,7.96,0,15.92,0,23.88-.02,5.61-.01,11.23-.03,16.84-.11.77-.01,1.02.22,1.14.93.36,2.1.76,4.19,1.2,6.27.23,1.06-.42.97-1.08.96-3.81-.07-7.63-.23-11.44-.19-9.51.09-19.03.27-28.54.41-2.35.03-4.69.05-7.04.03-1.5-.01-1.68-.4-.9-1.72,1.29-2.21,2.57-4.42,3.81-6.55Zm-3.61,7.5h48c-.34-2.03-.7-3.83-.92-5.64-.12-.98-.48-1.34-1.5-1.34-7.42,0-14.84-.08-22.26-.1-4.69-.01-9.39,0-14.08.06-1.63.02-3.25.19-4.88.33-.26.02-.61.19-.74.4-1.21,2.04-2.37,4.1-3.63,6.29Z"/>
    <path class="cls-4" d="m315.52,202.01c-3.73,2.78-7.45,5.57-11.18,8.35-.07-.09-.13-.18-.2-.27,3.72-2.81,7.44-5.61,11.16-8.42l.22.33Z"/>
    <path class="cls-4" d="m329.38,201.72c-3.22,2.48-6.43,4.96-9.65,7.45-.07-.09-.14-.17-.2-.26,3.2-2.5,6.4-4.99,9.59-7.49.09.1.17.2.26.3Z"/>
    <path class="cls-4" d="m317.28,208.52c3.17-2.66,6.34-5.32,9.51-7.98.09.1.17.21.26.31-3.19,2.65-6.38,5.3-9.56,7.94-.07-.09-.14-.18-.21-.27Z"/>
    <path class="cls-4" d="m320.4,201.39c-3.08,2.45-6.16,4.9-9.23,7.35-.07-.09-.14-.18-.22-.27,3.07-2.46,6.13-4.92,9.2-7.39.08.1.16.21.25.31Z"/>
    <path class="cls-4" d="m325.27,200.87c-2.76,2.22-5.51,4.44-8.27,6.66-.07-.08-.14-.17-.21-.25,2.73-2.24,5.46-4.47,8.19-6.71.09.1.19.2.28.31Z"/>
    <path class="cls-4" d="m331.09,203.13c-2.58,1.98-5.15,3.96-7.73,5.94,2.3-2.36,4.73-4.54,7.73-5.94Z"/>
    <path class="cls-4" d="m333.3,203.75c-2.45,1.72-4.89,3.44-7.34,5.16,2.16-2.13,4.41-4.13,7.34-5.16Z"/>
    <path class="cls-4" d="m310.74,207.18c2.36-1.98,4.73-3.96,7.09-5.93.1.12.19.24.29.36-2.42,1.9-4.84,3.81-7.26,5.71-.04-.05-.08-.09-.12-.14Z"/>
    <path class="cls-4" d="m334.84,204.31c-1.92,1.34-3.83,2.68-5.75,4.02,1.51-1.93,3.54-3.14,5.75-4.02Z"/>
    <path class="cls-4" d="m197.35,203.72c-1.58,1.7-3.16,3.4-4.73,5.1-.09-.08-.18-.17-.27-.25,1.56-1.72,3.12-3.44,4.68-5.15.11.1.21.21.32.31Z"/>
    <path class="cls-4" d="m305.94,206.1c2.03-1.54,4.06-3.08,6.09-4.61l.24.32c-2.04,1.51-4.07,3.03-6.11,4.54-.07-.08-.15-.16-.22-.24Z"/>
    <path class="cls-4" d="m274.85,207.95c1.56-1.77,3.13-3.55,4.69-5.32.11.1.23.2.34.3-1.59,1.74-3.18,3.49-4.76,5.23-.09-.07-.18-.14-.26-.21Z"/>
    <path class="cls-4" d="m198.73,204.27c-.88.99-2.52,2.83-4.16,4.67,1.63-1.87,2.92-4.07,4.16-4.67Z"/>
    <path class="cls-4" d="m202.86,203.79c-1.48,1.58-2.97,3.16-4.45,4.74-.1-.09-.19-.18-.29-.27,1.48-1.58,2.97-3.16,4.45-4.74.1.09.2.18.29.28Z"/>
    <path class="cls-4" d="m276.72,207.68c1.42-1.55,2.84-3.09,4.26-4.64.11.1.23.21.34.31-1.44,1.52-2.89,3.04-4.33,4.56-.09-.08-.18-.16-.27-.24Z"/>
    <path class="cls-4" d="m200.54,204.02c-1.6,1.63-3.19,3.26-4.79,4.9-.01,0-.02-.02-.03-.03,1.57-1.66,3.14-3.31,4.71-4.97.04.03.07.06.11.1Z"/>
    <path class="cls-4" d="m187.58,206.67c1.44-1.5,2.88-2.99,4.32-4.49.03.04.07.07.1.11-1.44,1.49-2.88,2.98-4.31,4.47-.04-.03-.07-.06-.11-.08Z"/>
    <path class="cls-4" d="m204.09,203.76c-1.13,1.2-2.27,2.4-3.4,3.6-.09-.09-.19-.18-.28-.27,1.13-1.21,2.25-2.42,3.38-3.63.1.1.21.19.31.29Z"/>
    <path class="cls-4" d="m279.43,206.73c1.2-1.25,2.41-2.5,3.61-3.75l.32.31c-1.37,1.08-2.74,2.16-4.11,3.24.06.07.12.14.18.21Z"/>
    <path class="cls-4" d="m336.21,205.02c-1.76,1.05-3.35,2-4.93,2.95.62-1.14,3.16-2.72,4.93-2.95Z"/>
    <path class="cls-4" d="m192.48,206.44c1.19-1.33,2.38-2.67,3.57-4,.09.09.18.17.26.26l-3.95,3.63s.08.07.12.11Z"/>
    <path class="cls-4" d="m186.38,206.38c.89-1.06,2.17-2.58,3.45-4.11.14.15.29.29.43.44-1.44,1.37-2.89,2.73-3.88,3.67Z"/>
    <path class="cls-4" d="m281.3,206.27c1.07-1.17,2.13-2.34,3.2-3.51.1.09.2.18.3.27-1.06,1.17-2.12,2.34-3.17,3.51-.11-.09-.21-.19-.32-.28Z"/>
    <path class="cls-4" d="m185.49,202.7c-1.21,1.08-2.43,2.16-3.64,3.25.08.08.15.17.23.25l3.77-3.14c-.12-.12-.24-.24-.36-.36Z"/>
    <path class="cls-4" d="m187.7,202.39c-1.33,1.42-2.66,2.85-3.53,3.78.86-.94,2.17-2.38,3.49-3.82l.04.05Z"/>
    <path class="cls-4" d="m193.2,202.82c-.9.92-2.04,2.08-3.19,3.24-.04-.04-.07-.07-.11-.11,1.19-1.13,2.38-2.26,3.29-3.13Z"/>
    <path class="cls-4" d="m183.88,202.13c-1.06,1.23-2.13,2.46-3.19,3.69-.03-.04-.06-.08-.1-.12,1.17-1.12,2.34-2.24,3.52-3.36-.08-.07-.15-.14-.23-.21Z"/>
    <path class="cls-4" d="m310.87,207.32c-1.36,1.15-2.72,2.3-4.08,3.45-.08-.1-.16-.19-.25-.29,1.4-1.1,2.8-2.19,4.2-3.29.04.05.08.09.12.14Z"/>
    <path class="cls-4" d="m202.91,206.16c1.11-1.09,2.21-2.18,3.32-3.27.04.04.08.08.13.12-1.22.97-2.44,1.94-3.65,2.91.07.08.14.16.21.24Z"/>
    <path class="cls-4" d="m288.66,203c-.99.86-1.98,1.72-2.98,2.58-.07-.08-.14-.16-.22-.23.97-.9,1.94-1.8,2.91-2.7.1.12.19.24.29.35Z"/>
    <path class="cls-4" d="m287.1,202.79c-1.07.89-2.15,1.78-3.22,2.67.03.03.06.07.08.1.97-1,1.93-1.99,2.9-2.99.08.07.16.15.23.22Z"/>
    <path class="cls-4" d="m205.51,205.19c.73-.8,1.45-1.6,2.18-2.4.11.1.21.19.32.29-.73.79-1.46,1.59-2.18,2.38-.1-.09-.21-.18-.31-.26Z"/>
    <path class="cls-4" d="m315.97,109.4c-1.3.89-54.92,1.21-56.06.41,18.63-.13,37.3-.27,56.06-.41Z"/>
    <path class="cls-4" d="m317.73,131.08v45.89c-.84-.96-1.07-41.27,0-45.89Z"/>
    <path class="cls-4" d="m210.25,157.07c2.67-3.58,5.35-7.16,7.99-10.76,1.11-1.52,2.16-3.09,3.21-4.66,2.75-4.12,5.73-8.03,9.24-11.56,2.12-2.13,3.9-4.6,5.85-6.9.32-.38.71-.7,1.07-1.05.08.08.15.15.23.23-1.48,1.84-2.79,3.86-4.46,5.5-6.12,6.01-10.84,13.07-15.71,20.05-2.24,3.22-4.76,6.24-7.15,9.36-.09-.07-.17-.14-.26-.21Z"/>
    <path class="cls-4" d="m222.8,117.97c-6.83,8.52-13.65,17.03-20.48,25.55-.09-.07-.17-.14-.26-.21,6.81-8.53,13.07-17.51,20.74-25.34Z"/>
    <path class="cls-4" d="m315.76,131.18c-7.59,8.66-12.68,19.14-20.33,27.74,7.17-8.97,12.41-19.33,20.33-27.74Z"/>
    <path class="cls-4" d="m315.43,142.95c-5.85,7.54-11.69,15.08-17.54,22.62,5.36-7.91,11.07-15.56,17.54-22.62Z"/>
    <path class="cls-4" d="m229.5,120.7c-3.77,5.16-7.54,10.31-11.31,15.47-.1-.07-.19-.14-.29-.21,3.72-5.2,7.43-10.4,11.15-15.6.15.11.3.23.44.34Z"/>
    <path class="cls-4" d="m313.51,129.1c-4.43,5.4-8.86,10.79-13.3,16.19-.08-.06-.16-.13-.24-.19,4.38-5.43,8.76-10.87,13.13-16.3.14.1.27.21.41.31Z"/>
    <path class="cls-4" d="m231.23,142.6c-2.91,3.72-5.82,7.43-8.73,11.15-.09-.07-.18-.14-.27-.21,2.85-3.76,5.69-7.52,8.54-11.29.15.12.3.23.45.35Z"/>
    <path class="cls-4" d="m300.53,139.2c2.5-3.29,5.01-6.59,7.51-9.88.15.12.31.24.46.37-2.57,3.26-5.13,6.51-7.7,9.77-.09-.08-.18-.17-.27-.25Z"/>
    <path class="cls-4" d="m220.36,115.66c-2.92,3.32-5.83,6.65-8.75,9.97-.1-.09-.2-.17-.29-.26,2.88-3.36,5.76-6.71,8.64-10.07.14.12.27.24.41.36Z"/>
    <path class="cls-4" d="m237.77,206.01c1.44-.68,11.6-.68,14.58,0h-14.58Z"/>
    <path class="cls-4" d="m250.31,207.16c3.78-.44,7.53.35,11.29.46h-11.3c0-.15,0-.3,0-.46Z"/>
    <path class="cls-4" d="m256.32,204.29c-3.83.2-7.67.4-11.5.59,0-.16-.02-.32-.02-.47,3.83-.18,7.67-.36,11.5-.53,0,.14.01.28.02.41Z"/>
    <path class="cls-4" d="m255.38,205.69c1.3-.06,2.59-.13,3.89-.19,0,.08.01.17.02.25-1.29.12-2.59.24-3.88.36-.01-.14-.02-.28-.03-.42Z"/>
  </g>
  <g>
    <polygon class="cls-6" points="125.56 59.97 144.69 60.96 165.37 66.19 180.3 73.65 196.18 85.42 204.52 95.14 208.06 98.78 215.64 91.25 215.16 100.43 215.16 109.83 216.12 115.91 215.51 117.82 207.65 115.37 191.49 113.46 189.01 113.46 197.71 104.76 189.01 97.29 169.1 86.1 154.06 81.14 142.96 81.14 128.05 82.36 126.68 73.07 125.56 59.97"/>
    <path class="cls-4" d="m189.13,108.88c-16.33-14.33-34.85-20.92-56.63-16-.53.12-1.56-.34-1.78-.81-1.34-2.9-2.69-5.82-3.7-8.85-.76-2.28-1.26-4.71-1.46-7.11-.47-5.66-.69-11.34-1-16.81,1.15.05,1.86.15,2.56.1.92-.06,1.82-.32,2.74-.37,13.56-.7,26.51,1.89,38.9,7.32,13.07,5.73,23.85,14.62,33.69,24.77,1.95,2.01,3.74,4.18,5.62,6.29.2-.21.31-.32.42-.44,2.14-2.38,4.27-4.79,6.45-7.13.31-.34.92-.41,1.38-.6.18.47.41.93.53,1.42.06.24-.06.53-.09.8-.69,7.04-1.54,14.13-.13,21.12.72,3.55.52,6.38-1.97,9.08-.73.8-1.26,1.06-2.3.95-4.42-.47-8.85-1.02-13.29-1.19-4.33-.16-8.71-.16-12.91,1.3-.57.2-1.23.12-1.84.17.02-.66-.15-1.4.09-1.97,1.53-3.74,3.4-7.28,6.4-10.3-.57-.6-1.08-1.22-1.68-1.75Zm-56.89-23.28c1.13-.9,2.21-1.86,3.31-2.8-.08-.14-.16-.27-.24-.41-.95.63-1.91,1.27-2.86,1.9.38-.5.75-1,1.14-1.52q-1.28.08-3.64,3.44c.37,0,.66,0,.95,0,.45-.2.97-.32,1.34-.62Zm10.78-5.78c11.7-.26,22.54,3.08,32.87,8.28,8.18,4.11,15.53,9.37,21.83,16.05.22.23.45.51.73.64,1.45.63.77,1.22,0,1.82-2.23,1.73-4.47,3.46-6.7,5.2-.33.26-.63.57-.93,1.06,8.22-.31,16.15,1.45,24.33,3.04-1.71-7.75-.94-15.33-.24-23.36-1.46,1.64-2.6,2.98-3.8,4.26-3.26,3.5-3.6,3.57-6.75-.06-5.99-6.89-12.72-12.95-20-18.43-15.46-11.64-32.99-16.98-52.23-17.09-.92,0-1.85,0-2.77-.03-.86-.02-1.72-.07-2.69-.11.62,6.64,1.23,13.16,1.83,19.51,4.89-.27,9.7-.67,14.52-.78Zm2.75,2.79c-.03-.11-.06-.22-.1-.33-.57.13-1.28.08-1.68.42-2.97,2.5-5.87,5.07-8.8,7.62.06.09.13.17.19.26,3.46-2.65,6.92-5.31,10.39-7.96Zm15.56,2.47c-.05-.16-.09-.32-.14-.48-.65.14-1.39.12-1.94.44-2.16,1.25-4.25,2.61-6.37,3.93.09.18.17.36.26.54,2.86-1.2,5.43-3.01,8.18-4.43Zm-8.32-1.87c-.02-.1-.03-.2-.05-.3-.49.05-1.1-.08-1.45.17-2.64,1.82-5.22,3.72-7.82,5.59.08.12.16.23.24.35,3.03-1.93,6.06-3.87,9.09-5.8Zm-14.15-.37c-2.06,2.07-4.04,4.22-5.86,6.55,2.54-2.25,5.08-4.5,7.63-6.75-.06-.13-.11-.26-.17-.38-.54.19-1.24.22-1.6.59Zm7.66,5.96c.46-.04,1.02.07,1.37-.15,2.59-1.65,5.13-3.36,7.69-5.06-3.44.82-5.93,3.48-9.06,5.21Zm48.41,14.31c-2.23-.21-3.9,1.12-5.66,2.24,2.43.77,3.8-1.4,5.66-2.24Zm-30.34-11.27c2.71-.33,4.89-1.9,7.27-2.99-.1-.24-.2-.49-.3-.73-2.53.77-4.52,2.76-6.98,3.72Zm2.62-4.88c-.1-.18-.19-.36-.29-.55-2.65.59-4.6,2.54-6.85,3.88.07.13.13.25.2.38,2.31-1.24,4.63-2.48,6.94-3.72Zm27.67,27.67c-3.15.92-5.37,3.16-7.42,5.62,2.47-1.87,4.95-3.75,7.42-5.62Zm2.52,4.94c2.81-.39,4.62-2.8,7.1-3.89-2.76.5-4.72,2.6-7.1,3.89Zm-42.55-30.36c.1.19.19.38.29.57,2.62-1.43,5.24-2.86,7.86-4.29-.1-.19-.21-.39-.31-.58-2.61,1.43-5.22,2.87-7.84,4.3Zm-4.31-.52c.1.18.21.36.31.53,2.65-1.61,5.3-3.22,7.94-4.83-.1-.14-.19-.27-.29-.41-2.65,1.57-5.31,3.13-7.96,4.7Zm36.74,8.72c-1.39-1.56-2.26-.1-3.22.25-1.11.4-2.16.96-3.24,1.45l.13.56c2.07-.74,4.13-1.47,6.34-2.26Zm-9.6.17c2.43.04,4.23-1.76,6.42-2.43-2.45-.09-4.38,1.31-6.42,2.43Zm8.26,4.92c.97.91,1.89.6,5.78-1.81l-.18-.5c-1.84.76-3.68,1.52-5.6,2.31Zm-19.28-10.19c.07.17.15.33.22.5,2.24-1.06,4.48-2.12,6.72-3.18-.06-.19-.12-.37-.18-.56-2.49.56-4.35,2.51-6.76,3.24Zm4.89,1.96c.07.16.14.33.22.49,2.19-.94,4.37-1.88,6.56-2.83-.11-.23-.21-.46-.32-.69-2.15,1.01-4.3,2.02-6.46,3.03Zm-28.61-11.64c-.11-.14-.23-.28-.34-.43-2.4.79-3.59,3.11-5.49,4.53.11.1.22.21.33.31l5.5-4.42Zm-1.74,4.74c.06.09.12.18.18.27,2.29-1.65,4.58-3.3,6.87-4.95-.13-.19-.25-.38-.38-.57-2.22,1.75-4.45,3.5-6.67,5.26Zm53.74,32.16c.06.1.11.2.17.3,2.44-1.46,4.88-2.93,7.32-4.39-.09-.15-.18-.3-.26-.45-2.41,1.51-4.82,3.03-7.23,4.54Zm-15.55-21.3l.24.56c1.85-.87,3.69-1.74,5.54-2.61-.07-.15-.13-.3-.2-.45-1.86.83-3.73,1.67-5.59,2.5Zm-4.34-2.34l.19.45c2.07-.89,4.14-1.78,6.21-2.66-.06-.15-.13-.3-.19-.45-2.07.89-4.14,1.77-6.21,2.66Zm22.02,9.46l-.23-.46c-1.68.83-3.36,1.66-5.04,2.48.1.2.19.4.29.6,1.66-.87,3.32-1.75,4.98-2.62Zm3.1,14.02c.07.13.14.25.21.38,2.02-1.16,4.04-2.32,6.07-3.48-.07-.13-.14-.25-.21-.38-2.02,1.16-4.04,2.32-6.07,3.48Zm-9.55-19.5c-.05-.14-.11-.29-.16-.43-2.08.14-3.68,1.61-5.41,2.63,1.86-.73,3.71-1.47,5.57-2.2Zm-2.42-1.71c-.07-.16-.13-.31-.2-.47-1.84.85-3.67,1.69-5.51,2.54.06.15.12.3.18.44,2.01-.44,3.56-1.97,5.52-2.51Zm-43.53-11.8c.07.1.14.21.21.31,1.82-1.25,3.64-2.49,5.47-3.74-.09-.16-.19-.32-.28-.48-1.8,1.3-3.59,2.61-5.39,3.91Zm31.83,10.19c.07.17.13.34.2.51,1.98-.86,3.95-1.72,5.93-2.58-.05-.12-.09-.23-.14-.35-2,.81-3.99,1.61-5.99,2.42Zm16.66,5.18q-1.14-.57-4.95,1.89c1.59-.61,3.19-1.21,4.95-1.89Zm-17.32-7.57c1.43-.39,2.86-.77,4.68-1.27-2.26-1.35-3.26.72-4.68,1.27Zm29.58,25.5c.08.14.17.29.25.43,1.6-.98,3.2-1.96,4.8-2.94-.08-.14-.17-.28-.25-.42-1.6.98-3.2,1.96-4.8,2.94Zm-36.49-32.2c-1.21-.36-2.72.32-4.92,2.29,1.58-.74,3.17-1.47,4.92-2.29Zm-11.53-3.41c-.1-.16-.19-.33-.29-.49-1.8,1.13-3.6,2.26-5.4,3.4.07.1.14.21.22.31,1.83-1.07,3.65-2.14,5.48-3.21Zm2.02,4.19c.06.1.12.21.17.31,1.6-.87,3.19-1.73,4.79-2.6-.08-.14-.16-.29-.24-.43-1.57.91-3.15,1.81-4.72,2.72Z"/>
  </g>
</svg>