<?xml version="1.0" encoding="UTF-8"?>
<svg id="Layer_1" data-name="Layer 1" xmlns="http://www.w3.org/2000/svg" xmlns:xlink="http://www.w3.org/1999/xlink" viewBox="0 0 256 256">
  <defs>
    <style>
      .cls-1 {
        fill: url(#New_Gradient_Swatch);
        opacity: 0;
        stroke: url(#New_Gradient_Swatch-2);
        stroke-miterlimit: 10;
      }

      .cls-2 {
        stroke-width: 0px;
      }
    </style>
    <linearGradient id="New_Gradient_Swatch" data-name="New Gradient Swatch" x1="0" y1="128" x2="256" y2="128" gradientUnits="userSpaceOnUse">
      <stop offset="0" stop-color="#58d3cc"/>
      <stop offset="1" stop-color="#4ab6ff"/>
    </linearGradient>
    <linearGradient id="New_Gradient_Swatch-2" data-name="New Gradient Swatch" x1="-.5" x2="256.5" xlink:href="#New_Gradient_Swatch"/>
  </defs>
  <rect class="cls-1" width="256" height="256"/>
  <g>
    <path class="cls-2" d="m104,122.67h-26.67c-1.47,0-2.67-1.19-2.67-2.67v-21.33c0-1.47,1.19-2.67,2.67-2.67h26.67c1.47,0,2.67,1.19,2.67,2.67v21.33c0,1.47-1.19,2.67-2.67,2.67Zm-24-5.33h21.33v-16h-21.33v16Z"/>
    <path class="cls-2" d="m141.33,144h-26.67c-1.47,0-2.67-1.19-2.67-2.67v-26.67c0-1.47,1.19-2.67,2.67-2.67h26.67c1.47,0,2.67,1.19,2.67,2.67v26.67c0,1.47-1.19,2.67-2.67,2.67Zm-24-5.33h21.33v-21.33h-21.33v21.33Z"/>
    <path class="cls-2" d="m85.33,138.67h21.33v5.33h-21.33v-5.33Z"/>
    <path class="cls-2" d="m85.33,149.33h21.33v5.33h-21.33v-5.33Z"/>
    <path class="cls-2" d="m85.33,160h21.33v5.33h-21.33v-5.33Z"/>
    <path class="cls-2" d="m122.67,149.33h21.33v5.33h-21.33v-5.33Z"/>
    <path class="cls-2" d="m122.67,160h21.33v5.33h-21.33v-5.33Z"/>
    <path class="cls-2" d="m149.33,149.33h32v5.33h-32v-5.33Z"/>
    <path class="cls-2" d="m149.33,160h32v5.33h-32v-5.33Z"/>
    <path class="cls-2" d="m112,149.33h5.33v5.33h-5.33v-5.33Z"/>
    <path class="cls-2" d="m112,160h5.33v5.33h-5.33v-5.33Z"/>
    <path class="cls-2" d="m154.67,96c-.71,0-1.39-.28-1.89-.78l-8-8c-1.04-1.04-1.04-2.73,0-3.77l8-8c1.06-1.02,2.75-.99,3.77.07,1,1.03,1,2.67,0,3.71l-6.11,6.11,6.11,6.11c1.04,1.04,1.04,2.73,0,3.77-.5.5-1.18.78-1.88.78Z"/>
    <path class="cls-2" d="m176,96c-1.47,0-2.67-1.19-2.67-2.67,0-.71.28-1.38.78-1.88l6.11-6.11-6.11-6.11c-1.02-1.06-.99-2.75.07-3.77,1.03-1,2.67-1,3.71,0l8,8c1.04,1.04,1.04,2.73,0,3.77l-8,8c-.5.5-1.18.78-1.89.78h0Z"/>
    <path class="cls-2" d="m162.67,98.67c-.22,0-.44-.03-.65-.08-1.43-.36-2.3-1.81-1.94-3.23l5.33-21.33c.37-1.43,1.82-2.28,3.25-1.92,1.41.36,2.27,1.79,1.92,3.21l-5.33,21.33c-.3,1.19-1.36,2.02-2.58,2.02h0Z"/>
    <path class="cls-2" d="m85.33,128h21.33v5.33h-21.33v-5.33Z"/>
    <path class="cls-2" d="m74.67,128h5.33v5.33h-5.33v-5.33Z"/>
    <path class="cls-2" d="m74.67,138.67h5.33v5.33h-5.33v-5.33Z"/>
    <path class="cls-2" d="m74.67,149.33h5.33v5.33h-5.33v-5.33Z"/>
    <path class="cls-2" d="m74.67,160h5.33v5.33h-5.33v-5.33Z"/>
    <path class="cls-2" d="m205.33,181.33h-2.67v-80.29c7.21-7.36,7.09-19.16-.26-26.37-3.49-3.42-8.18-5.34-13.07-5.33-.89,0-1.78.06-2.67.19v-.19c0-11.78-9.55-21.33-21.33-21.33s-21.33,9.55-21.33,21.33v.19c-.88-.13-1.77-.2-2.67-.19-4.88,0-9.56,1.91-13.04,5.33h-61.63c-7.36,0-13.32,5.97-13.33,13.33v93.33h-2.67c-1.47,0-2.67,1.19-2.67,2.67v10.67c0,7.36,5.97,13.32,13.33,13.33h133.33c7.36,0,13.32-5.97,13.33-13.33v-10.67c0-1.47-1.19-2.67-2.67-2.67Zm-59.27-105.78c1.37.54,2.92-.13,3.46-1.5.19-.48.24-1.01.13-1.52-.21-1.05-.32-2.13-.32-3.2,0-8.84,7.16-16,16-16s16,7.16,16,16c0,1.07-.11,2.15-.32,3.2-.29,1.44.64,2.85,2.09,3.14.5.1,1.03.06,1.51-.13,1.51-.58,3.11-.88,4.73-.87,7.36,0,13.33,5.98,13.33,13.34,0,7.36-5.97,13.32-13.33,13.33h-48c-7.36,0-13.33-5.97-13.33-13.33s5.97-13.33,13.33-13.33c1.62,0,3.22.3,4.73.88Zm-23.18,15.12c1.32,9.18,9.18,15.99,18.45,16h45.33v64h-117.33v-80h53.55Zm-64.21-2.67c0-4.42,3.58-8,8-8h57.83c-.8,1.69-1.35,3.48-1.61,5.33h-56.21c-1.47,0-2.67,1.19-2.67,2.67v85.33c0,1.47,1.19,2.67,2.67,2.67h122.67c1.47,0,2.67-1.19,2.67-2.67v-66.88c1.85-.27,3.65-.81,5.33-1.61v76.49H58.67v-93.33Zm82.67,98.67v2.67c0,1.47-1.19,2.67-2.67,2.67h-21.33c-1.47,0-2.67-1.19-2.67-2.67v-2.67h26.67Zm61.33,8c0,4.42-3.58,8-8,8H61.33c-4.42,0-8-3.58-8-8v-8h56v2.67c0,4.42,3.58,8,8,8h21.33c4.42,0,8-3.58,8-8h0v-2.67h56v8Z"/>
    <path class="cls-2" d="m178.67,144h-26.67c-1.47,0-2.67-1.19-2.67-2.67v-26.67c0-1.47,1.19-2.67,2.67-2.67h26.67c1.47,0,2.67,1.19,2.67,2.67v26.67c0,1.47-1.19,2.67-2.67,2.67Zm-24-5.33h21.33v-21.33h-21.33v21.33Z"/>
  </g>
</svg>