<?xml version="1.0" encoding="UTF-8"?>
<svg id="Layer_1" data-name="Layer 1" xmlns="http://www.w3.org/2000/svg" xmlns:xlink="http://www.w3.org/1999/xlink" viewBox="0 0 256 256">
  <defs>
    <style>
      .cls-1 {
        fill: url(#New_Gradient_Swatch);
        opacity: 0;
        stroke: url(#New_Gradient_Swatch-2);
        stroke-miterlimit: 10;
      }

      .cls-2 {
        stroke-width: 0px;
      }
    </style>
    <linearGradient id="New_Gradient_Swatch" data-name="New Gradient Swatch" x1="0" y1="128" x2="256" y2="128" gradientUnits="userSpaceOnUse">
      <stop offset="0" stop-color="#58d3cc"/>
      <stop offset="1" stop-color="#4ab6ff"/>
    </linearGradient>
    <linearGradient id="New_Gradient_Swatch-2" data-name="New Gradient Swatch" x1="-.5" x2="256.5" xlink:href="#New_Gradient_Swatch"/>
  </defs>
  <rect class="cls-1" width="256" height="256"/>
  <g>
    <path class="cls-2" d="m160.78,75.55v17.42c0,.77-.4,1.47-1.04,1.82-1.21.67-2.56-.58-2.65-.66-.91-.9-2.39-.9-3.3,0-.92.91-.92,2.4-.01,3.32,1,1.01,2.94,2.25,5.19,2.25.97,0,2-.23,3.04-.81,2.13-1.18,3.45-3.45,3.45-5.92v-17.42c0-1.29-1.05-2.34-2.34-2.34s-2.34,1.05-2.34,2.34Z"/>
    <path class="cls-2" d="m180.57,95.04c-2.22,0-4.35-.9-5.71-2.4-.87-.96-2.35-1.03-3.31-.16-.96.87-1.03,2.35-.16,3.31,2.24,2.47,5.67,3.94,9.19,3.94,4.35,0,8-2.76,8.68-6.57.51-2.85-.8-6.58-6.01-8.5-2.68-.99-5.17-2.07-5.88-2.38-.53-.41-.78-1.04-.68-1.72.06-.44.38-1.51,1.93-1.98,3.2-.96,6.12,1.37,6.19,1.42.99.82,2.46.69,3.29-.29.83-.99.71-2.47-.29-3.3-.2-.16-4.87-4.02-10.55-2.31-2.83.85-4.83,3.08-5.22,5.8-.37,2.55.74,5.01,2.89,6.41.1.07.21.13.33.18.12.06,3.06,1.36,6.36,2.58,1.01.37,3.34,1.44,3.01,3.28-.24,1.33-1.82,2.7-4.06,2.7h0Z"/>
    <path class="cls-2" d="m96.35,113.99c-1.29,0-2.34,1.05-2.34,2.34v21.24c0,1.3,1.05,2.34,2.34,2.34s2.34-1.05,2.34-2.34v-8.64h10.01v8.64c0,1.3,1.05,2.34,2.34,2.34s2.34-1.05,2.34-2.34v-21.24c0-1.29-1.05-2.34-2.34-2.34s-2.34,1.05-2.34,2.34v7.91h-10.01v-7.91c0-1.29-1.05-2.34-2.34-2.34h0Z"/>
    <path class="cls-2" d="m77.85,137.57v-6.89c1.27,0,2.74-.01,3.57-.01,4.66,0,8.45-3.74,8.45-8.34s-3.79-8.34-8.45-8.34h-5.91c-1.26-.03-2.37,1.09-2.34,2.34v21.24c0,1.3,1.05,2.34,2.34,2.34s2.34-1.05,2.34-2.34h0Zm3.57-18.89c2.04,0,3.77,1.67,3.77,3.65s-1.72,3.65-3.77,3.65c-.82,0-2.28,0-3.54.01,0-1.3-.02-5.95-.02-7.31h3.56Z"/>
    <path class="cls-2" d="m124.3,137.57v-6.89c1.27,0,2.74-.01,3.57-.01,4.66,0,8.45-3.74,8.45-8.34s-3.79-8.34-8.45-8.34h-5.91c-1.26-.03-2.37,1.09-2.34,2.34v21.24c0,1.3,1.05,2.34,2.34,2.34s2.34-1.05,2.34-2.34Zm3.57-18.89c2.04,0,3.77,1.67,3.77,3.65s-1.72,3.65-3.77,3.65c-.82,0-2.28,0-3.54.01,0-1.3-.02-5.95-.02-7.31h3.56Z"/>
    <path class="cls-2" d="m172.5,133.96h-13.26c.46-2.3.7-4.64.7-7.01s-.23-4.63-.67-6.85c4.11,1.59,8.51,2.42,12.94,2.42,6.24,0,12.39-1.63,17.78-4.73,1.12-.64,1.51-2.08.87-3.2s-2.08-1.51-3.2-.87c-4.68,2.68-10.01,4.1-15.44,4.1-5.04,0-10.05-1.23-14.47-3.57-.06-.03-.12-.06-.18-.09-2.86-7.39-8.12-13.59-14.83-17.64-1.04-3.14-1.56-6.42-1.56-9.76,0-17.12,13.93-31.05,31.05-31.05s31.05,13.93,31.05,31.05c0,7.49-2.7,14.72-7.61,20.36-.85.98-.75,2.46.23,3.31.44.39.99.57,1.54.57.66,0,1.31-.27,1.77-.81,5.65-6.5,8.76-14.82,8.76-23.44,0-19.71-16.03-35.74-35.74-35.74s-35.74,16.03-35.74,35.74c0,2.38.23,4.73.69,7.03-3.95-1.52-8.25-2.36-12.73-2.36h-40.94c-6.54,0-12.93,1.79-18.48,5.19-1.1.67-1.45,2.12-.78,3.22.68,1.1,2.12,1.45,3.22.78,4.82-2.94,10.36-4.5,16.04-4.5h40.94c16.99,0,30.81,13.82,30.81,30.81,0,2.37-.27,4.72-.8,7.01h-5.44c-15.48,0-28.67,9.96-33.52,23.8h-31.98c-16.99,0-30.81-13.82-30.81-30.81,0-7.2,2.54-14.21,7.15-19.73.83-.99.7-2.47-.3-3.3-.99-.83-2.47-.7-3.3.3-5.31,6.36-8.23,14.44-8.23,22.74,0,19.57,15.93,35.5,35.5,35.5h30.7c-.46,2.27-.7,4.61-.7,7.01,0,19.57,15.93,35.5,35.5,35.5h1.79c1.3,0,2.34-1.05,2.34-2.34s-1.05-2.34-2.34-2.34h-1.79c-16.99,0-30.81-13.82-30.81-30.81s13.82-30.81,30.81-30.81h23.5c16.99,0,30.81,13.82,30.81,30.81s-13.82,30.81-30.81,30.81h-10c-1.3,0-2.34,1.05-2.34,2.34s1.05,2.34,2.34,2.34h10c19.57,0,35.5-15.93,35.5-35.5s-15.93-35.5-35.5-35.5h0Z"/>
    <path class="cls-2" d="m162.5,174.75c-1.3,0-2.34,1.05-2.34,2.34s1.05,2.34,2.34,2.34h4.18l-2.15,10.35c-.26,1.27.55,2.51,1.82,2.77.16.03.32.05.48.05,1.09,0,2.06-.76,2.29-1.87l2.35-11.3h4.54l-2.15,10.35c-.26,1.27.55,2.51,1.82,2.77.16.03.32.05.48.05,1.09,0,2.06-.76,2.29-1.87l2.35-11.3h5.19c1.3,0,2.34-1.05,2.34-2.34s-1.05-2.34-2.34-2.34h-4.22l1.87-9.01h5.18c1.3,0,2.34-1.05,2.34-2.34s-1.05-2.34-2.34-2.34h-4.2l2.1-10.13c.26-1.27-.55-2.51-1.82-2.77-1.27-.26-2.51.55-2.77,1.82l-2.3,11.08h-4.54l2.1-10.13c.26-1.27-.55-2.51-1.82-2.77-1.27-.26-2.51.55-2.77,1.82l-2.3,11.08h-5.17c-1.3,0-2.34,1.05-2.34,2.34s1.05,2.34,2.34,2.34h4.19l-1.87,9.01h-5.15Zm11.81-9.01h4.54l-1.87,9.01h-4.54l1.87-9.01Z"/>
    <path class="cls-2" d="m155.04,176.19c-.99-.83-2.47-.7-3.3.29-.19.23-.41.45-.63.65-1.13,1.01-2.57,1.52-4.28,1.52-4.57,0-8.29-3.72-8.29-8.29s3.72-8.29,8.29-8.29c1.66,0,3.26.49,4.63,1.41,1.07.73,2.53.44,3.26-.63.72-1.07.44-2.53-.63-3.26-2.15-1.45-4.66-2.22-7.26-2.22-7.16,0-12.98,5.82-12.98,12.98s5.82,12.98,12.98,12.98c2.85,0,5.41-.94,7.39-2.7.39-.35.76-.73,1.1-1.13.83-.99.7-2.47-.29-3.3h0Z"/>
  </g>
</svg>