<?xml version="1.0" encoding="UTF-8"?>
<svg id="Layer_1" data-name="Layer 1" xmlns="http://www.w3.org/2000/svg" xmlns:xlink="http://www.w3.org/1999/xlink" viewBox="0 0 256 256">
  <defs>
    <style>
      .cls-1 {
        fill: url(#New_Gradient_Swatch-2);
      }

      .cls-1, .cls-2, .cls-3, .cls-4, .cls-5, .cls-6, .cls-7, .cls-8, .cls-9 {
        stroke-width: 0px;
      }

      .cls-2 {
        fill: url(#New_Gradient_Swatch-4);
      }

      .cls-3 {
        fill: url(#New_Gradient_Swatch-8);
      }

      .cls-4 {
        fill: url(#New_Gradient_Swatch-7);
      }

      .cls-5 {
        fill: url(#New_Gradient_Swatch-6);
      }

      .cls-6 {
        fill: url(#New_Gradient_Swatch);
      }

      .cls-7 {
        fill: url(#New_Gradient_Swatch-5);
      }

      .cls-8 {
        fill: url(#New_Gradient_Swatch-3);
      }

      .cls-9 {
        fill: #fff;
        opacity: 0;
      }
    </style>
    <linearGradient id="New_Gradient_Swatch" data-name="New Gradient Swatch" x1="159.38" y1="76.07" x2="174.83" y2="76.07" gradientUnits="userSpaceOnUse">
      <stop offset="0" stop-color="#58d3cc"/>
      <stop offset="1" stop-color="#4ab6ff"/>
    </linearGradient>
    <linearGradient id="New_Gradient_Swatch-2" data-name="New Gradient Swatch" x1="181.47" y1="76.37" x2="204.69" y2="76.37" xlink:href="#New_Gradient_Swatch"/>
    <linearGradient id="New_Gradient_Swatch-3" data-name="New Gradient Swatch" x1="85.51" y1="126.69" x2="109.74" y2="126.69" xlink:href="#New_Gradient_Swatch"/>
    <linearGradient id="New_Gradient_Swatch-4" data-name="New Gradient Swatch" x1="59.46" y1="126.69" x2="80.35" y2="126.69" xlink:href="#New_Gradient_Swatch"/>
    <linearGradient id="New_Gradient_Swatch-5" data-name="New Gradient Swatch" x1="117.51" y1="126.69" x2="138.41" y2="126.69" xlink:href="#New_Gradient_Swatch"/>
    <linearGradient id="New_Gradient_Swatch-6" data-name="New Gradient Swatch" x1="28" y1="128" x2="228" y2="128" xlink:href="#New_Gradient_Swatch"/>
    <linearGradient id="New_Gradient_Swatch-7" data-name="New Gradient Swatch" x1="168.2" y1="180.95" x2="206.96" y2="180.95" xlink:href="#New_Gradient_Swatch"/>
    <linearGradient id="New_Gradient_Swatch-8" data-name="New Gradient Swatch" x1="135.33" y1="180.95" x2="162.85" y2="180.95" xlink:href="#New_Gradient_Swatch"/>
  </defs>
  <rect class="cls-9" width="256" height="256"/>
  <g>
    <path class="cls-6" d="m168.97,62.44v21.77c0,.96-.5,1.83-1.29,2.28-1.52.84-3.2-.73-3.31-.83-1.14-1.13-2.98-1.13-4.13,0-1.15,1.14-1.15,3-.01,4.14,1.25,1.26,3.67,2.81,6.49,2.81,1.21,0,2.5-.29,3.8-1.01,2.66-1.48,4.31-4.31,4.31-7.4v-21.77c0-1.62-1.31-2.93-2.93-2.93s-2.93,1.31-2.93,2.93Z"/>
    <path class="cls-1" d="m193.72,86.8c-2.77,0-5.44-1.12-7.14-3-1.09-1.2-2.94-1.29-4.14-.2-1.2,1.09-1.29,2.94-.2,4.14,2.79,3.08,7.09,4.92,11.49,4.92,5.43,0,9.99-3.45,10.84-8.21.64-3.56-1-8.23-7.51-10.63-3.35-1.24-6.46-2.58-7.35-2.97-.66-.51-.97-1.3-.85-2.15.08-.55.47-1.89,2.41-2.48,4-1.2,7.66,1.71,7.74,1.78,1.24,1.03,3.08.87,4.12-.37,1.04-1.24.88-3.09-.36-4.13-.25-.21-6.09-5.03-13.18-2.89-3.54,1.06-6.04,3.85-6.53,7.26-.46,3.19.92,6.26,3.61,8.01.13.08.27.16.41.22.15.07,3.82,1.7,7.96,3.23,1.27.47,4.18,1.8,3.77,4.1-.3,1.66-2.27,3.38-5.07,3.38h0Z"/>
    <path class="cls-8" d="m88.44,110.49c-1.62,0-2.93,1.31-2.93,2.93v26.55c0,1.62,1.31,2.93,2.93,2.93s2.93-1.31,2.93-2.93v-10.8h12.51v10.8c0,1.62,1.31,2.93,2.93,2.93s2.93-1.31,2.93-2.93v-26.55c0-1.62-1.31-2.93-2.93-2.93s-2.93,1.31-2.93,2.93v9.89h-12.51v-9.89c0-1.62-1.31-2.93-2.93-2.93h0Z"/>
    <path class="cls-2" d="m65.32,139.96v-8.62c1.58,0,3.43-.02,4.46-.02,5.83,0,10.57-4.68,10.57-10.42s-4.74-10.42-10.57-10.42h-7.39c-1.57-.03-2.96,1.36-2.93,2.93v26.55c0,1.62,1.31,2.93,2.93,2.93s2.93-1.31,2.93-2.93h0Zm4.46-23.62c2.55,0,4.71,2.09,4.71,4.56s-2.16,4.56-4.71,4.56c-1.02,0-2.85,0-4.43.02,0-1.63-.02-7.44-.03-9.14h4.45Z"/>
    <path class="cls-7" d="m123.38,139.96v-8.62c1.58,0,3.43-.02,4.46-.02,5.83,0,10.57-4.68,10.57-10.42s-4.74-10.42-10.57-10.42h-7.39c-1.57-.03-2.96,1.36-2.93,2.93v26.55c0,1.62,1.31,2.93,2.93,2.93s2.93-1.31,2.93-2.93Zm4.46-23.62c2.55,0,4.71,2.09,4.71,4.56s-2.16,4.56-4.71,4.56c-1.02,0-2.85,0-4.43.02,0-1.63-.02-7.44-.03-9.14h4.45Z"/>
    <path class="cls-5" d="m183.62,135.45h-16.57c.57-2.87.87-5.81.87-8.76s-.29-5.79-.83-8.57c5.13,1.99,10.64,3.03,16.18,3.03,7.8,0,15.49-2.04,22.22-5.91,1.4-.81,1.89-2.6,1.08-4s-2.6-1.89-4-1.08c-5.84,3.36-12.52,5.13-19.3,5.13-6.3,0-12.56-1.54-18.09-4.46-.07-.04-.15-.07-.23-.11-3.58-9.24-10.16-16.99-18.54-22.05-1.3-3.92-1.96-8.02-1.96-12.19,0-21.4,17.41-38.81,38.81-38.81s38.81,17.41,38.81,38.81c0,9.36-3.38,18.4-9.51,25.45-1.06,1.22-.93,3.07.29,4.13.55.48,1.24.72,1.92.72.82,0,1.63-.34,2.21-1.01,7.06-8.12,10.95-18.52,10.95-29.3,0-24.63-20.04-44.68-44.68-44.68s-44.68,20.04-44.68,44.68c0,2.97.29,5.91.87,8.79-4.94-1.91-10.31-2.95-15.91-2.95h-51.17c-8.17,0-16.16,2.24-23.11,6.48-1.38.84-1.82,2.65-.97,4.03.84,1.38,2.65,1.82,4.03.97,6.02-3.68,12.95-5.62,20.05-5.62h51.17c21.24,0,38.51,17.28,38.51,38.51,0,2.96-.34,5.9-1.01,8.76h-6.8c-19.35,0-35.84,12.45-41.9,29.75h-39.98c-21.24,0-38.51-17.28-38.51-38.51,0-9,3.17-17.76,8.93-24.66,1.04-1.24.87-3.09-.37-4.13-1.24-1.04-3.09-.87-4.13.37-6.64,7.95-10.29,18.05-10.29,28.42,0,24.47,19.91,44.38,44.38,44.38h38.37c-.57,2.83-.87,5.76-.87,8.76,0,24.47,19.91,44.38,44.38,44.38h2.23c1.62,0,2.93-1.31,2.93-2.93s-1.31-2.93-2.93-2.93h-2.23c-21.24,0-38.51-17.28-38.51-38.51s17.28-38.51,38.51-38.51h29.37c21.24,0,38.51,17.28,38.51,38.51s-17.28,38.51-38.51,38.51h-12.5c-1.62,0-2.93,1.31-2.93,2.93s1.31,2.93,2.93,2.93h12.5c24.47,0,44.38-19.91,44.38-44.38s-19.91-44.38-44.38-44.38h0Z"/>
    <path class="cls-4" d="m171.13,186.44c-1.62,0-2.93,1.31-2.93,2.93s1.31,2.93,2.93,2.93h5.22l-2.69,12.93c-.33,1.58.69,3.14,2.27,3.47.2.04.4.06.6.06,1.36,0,2.58-.95,2.87-2.33l2.94-14.12h5.67l-2.69,12.93c-.33,1.58.69,3.14,2.27,3.47.2.04.4.06.6.06,1.36,0,2.58-.95,2.87-2.33l2.94-14.12h6.49c1.62,0,2.93-1.31,2.93-2.93s-1.31-2.93-2.93-2.93h-5.27l2.34-11.26h6.47c1.62,0,2.93-1.31,2.93-2.93s-1.31-2.93-2.93-2.93h-5.25l2.63-12.66c.33-1.58-.69-3.14-2.27-3.47-1.59-.33-3.14.69-3.47,2.27l-2.88,13.85h-5.67l2.63-12.66c.33-1.58-.69-3.14-2.27-3.47-1.58-.33-3.14.69-3.47,2.27l-2.88,13.85h-6.46c-1.62,0-2.93,1.31-2.93,2.93s1.31,2.93,2.93,2.93h5.24l-2.34,11.26h-6.44Zm14.77-11.26h5.67l-2.34,11.26h-5.67l2.34-11.26Z"/>
    <path class="cls-3" d="m161.81,188.24c-1.24-1.04-3.09-.88-4.13.36-.24.29-.51.56-.78.81-1.41,1.26-3.21,1.9-5.35,1.9-5.71,0-10.36-4.65-10.36-10.36s4.65-10.36,10.36-10.36c2.08,0,4.08.61,5.79,1.77,1.34.91,3.16.55,4.07-.79.91-1.34.55-3.16-.79-4.07-2.68-1.81-5.82-2.77-9.07-2.77-8.94,0-16.22,7.28-16.22,16.22s7.28,16.22,16.22,16.22c3.56,0,6.76-1.17,9.24-3.38.49-.43.95-.91,1.38-1.42,1.04-1.24.88-3.09-.36-4.13h0Z"/>
  </g>
</svg>