<svg width="916" height="773" viewBox="0 0 916 773" fill="none" xmlns="http://www.w3.org/2000/svg">
<path d="M512.381 540.448C515.455 544.322 527.18 550.322 549.49 543.33C571.799 536.338 580.743 525.413 582.426 520.824" stroke="black" stroke-width="5" stroke-linecap="round"/>
<path d="M492.399 531.479C490.276 535.138 490.291 542.15 507.33 540.926L512.381 540.448L521.164 539.615" stroke="black" stroke-width="5" stroke-linecap="round"/>
<path d="M493.939 517.984C489.84 518.494 482.431 521.174 485.592 527.817C486.547 529.821 489.07 530.947 492.399 531.479C500.104 532.709 512.12 530.755 518.968 529.128" stroke="black" stroke-width="5" stroke-linecap="round"/>
<path d="M575.639 495.505C569.176 489.405 555.681 477.125 543.561 476.251C540.487 476.105 533.899 474.896 532.143 471.225C529.947 466.637 519.846 471.662 526.653 480.839C533.46 490.016 541.804 486.957 536.973 494.823C533.109 501.116 509.746 504 498.547 504.656C494.595 504.729 487.261 506.71 489.544 514.051C490.11 515.869 491.71 517.135 493.939 517.984C500.712 520.565 513.291 519.299 520.285 517.984" stroke="black" stroke-width="5" stroke-linecap="round"/>
<path d="M546.47 290.741C538.25 240.914 547.572 212.88 570.612 195.711C567.89 263.314 615.446 295.364 633.424 306.665L618.014 321.048L595.782 337.485C582.94 344.677 554.279 342.109 546.47 290.741Z" fill="black"/>
<path d="M580.451 530.113C569.911 569.167 560.214 624.076 580.451 770" stroke="black" stroke-width="5" stroke-linecap="round"/>
<path d="M611.192 398.35C619.646 378.168 637.821 342.451 656.983 366.669C676.144 390.887 677.413 442.703 688.684 419.47L709.818 363.853" stroke="black" stroke-width="5" stroke-linecap="round"/>
<path d="M856.194 309.757C824.434 339.935 792.219 344.307 779.816 345.704C754.508 348.554 712.525 322.588 712.525 294.336C735.459 277.769 752.122 246.631 757.444 233.978C763.421 239.033 771.197 237.109 774.337 235.515C778.374 232.887 786.119 222.996 784.799 204.457C783.479 185.918 770.018 190.895 763.453 195.701L730.651 199.236C732.031 168.584 713.137 158.356 703.518 157.074C711.077 140.094 697.555 132.665 690.44 129.747C680.233 142.256 666.857 147.296 661.201 149.64C603.633 164.7 568.495 144.081 552.276 118.348C534.671 92.3709 537.52 31.3702 587.327 16.5203C603.613 10.2532 642.223 5.11479 666.375 34.6972C737.472 8.56951 771.121 83.3461 780.352 110.5L791.021 135.258C883.672 154.967 891.827 242.599 875.553 280.977C868.174 298.378 867.203 299.3 856.683 309.294L856.194 309.757Z" fill="black"/>
<path d="M646.309 329.688C630.386 330.715 568.557 358.546 579.345 491.59" stroke="black" stroke-width="5" stroke-linecap="round"/>
<path d="M686.376 329.685C757.777 317.87 777.95 375.241 785.84 401.693C800.264 447.335 785.84 545.523 585.745 516.068C574.208 514.37 568.558 498.866 591.157 484.009C614.793 468.472 639.958 458.712 670.27 452.548" stroke="black" stroke-width="5" stroke-linecap="round"/>
<path d="M581.416 528.24C600.8 547.04 666.657 574.957 775.018 536.227C777.315 531.314 778.51 499.787 775.018 489.626" stroke="black" stroke-width="5" stroke-linecap="round"/>
<path d="M730.671 199.745C726.96 220.867 708.741 234.832 690.424 231.614C672.106 228.397 659.737 209.058 663.448 187.936C667.158 166.815 685.378 152.849 703.695 156.067C722.012 159.285 734.381 178.623 730.671 199.745Z" stroke="black" stroke-width="5"/>
<path d="M641.066 196.878C637.356 218 619.136 231.965 600.819 228.747C582.502 225.529 570.133 206.191 573.843 185.069C577.554 163.947 595.773 149.982 614.09 153.2C632.407 156.417 644.777 175.756 641.066 196.878Z" stroke="black" stroke-width="5"/>
<path d="M641.63 188.944L663.861 190.319" stroke="black" stroke-width="5" stroke-linecap="round"/>
<path d="M654.066 210.604C647.551 227.337 634.228 241.302 648.957 251.899" stroke="black" stroke-width="5" stroke-linecap="round"/>
<path d="M633.513 273.992C637.974 278.923 650.418 285.825 664.504 273.992" stroke="black" stroke-width="5" stroke-linecap="round"/>
<circle cx="601.353" cy="205.904" r="9.24616" transform="rotate(9.96339 601.353 205.904)" fill="black"/>
<circle cx="687.65" cy="203.849" r="9.24616" transform="rotate(9.96339 687.65 203.849)" fill="black"/>
<path d="M771.736 208.391C772.867 211.45 773.963 218.508 769.299 222.265" stroke="black" stroke-width="5" stroke-linecap="round"/>
<path d="M582.905 147.537C569.637 172.858 557.703 234.724 610.688 288.084C663.674 341.444 720.475 291.398 742.252 259.706L757.654 233.091C764.051 238.744 778.08 243.83 783.022 218.954C787.964 194.077 778.213 190.696 772.719 192.114C769.741 192.783 763.215 195.737 760.935 202.201" stroke="black" stroke-width="5" stroke-linecap="round"/>
<path d="M730.601 198.304L766.993 194.685" stroke="black" stroke-width="5" stroke-linecap="round"/>
<path d="M697.871 180.824C703.617 181.642 715.058 186.244 714.86 198.101" stroke="black" stroke-width="5" stroke-linecap="round"/>
<path d="M588.402 185.459C592.786 183.532 603.505 181.235 611.311 187.461" stroke="black" stroke-width="5" stroke-linecap="round"/>
<path d="M693.38 328.55V304.096" stroke="black" stroke-width="5" stroke-linecap="round"/>
<path d="M639.958 309.098V330.808" stroke="black" stroke-width="5" stroke-linecap="round"/>
<path d="M594.76 696.6C626.09 704.013 703.201 714.393 760.999 696.6" stroke="black" stroke-width="5" stroke-linecap="round"/>
<path d="M594.76 629.238C619.31 635.593 682.299 644.49 737.852 629.238" stroke="black" stroke-width="5" stroke-linecap="round"/>
<path d="M690.155 610.174L712.9 754.075" stroke="black" stroke-width="5" stroke-linecap="round"/>
<path d="M617.206 566.963L634.821 750.481" stroke="black" stroke-width="5" stroke-linecap="round"/>
<path d="M314.288 275.725C280.18 300.381 282.268 404.144 287.576 452.943H276.276C259.838 350.208 279.7 296.443 291.686 282.402L314.288 275.725Z" fill="black"/>
<path d="M194.087 310.654C160.042 331.809 162.127 420.834 167.425 462.702H156.145C139.738 374.559 159.563 328.43 171.527 316.384L194.087 310.654Z" fill="black"/>
<path d="M129.364 456.538C123.543 410.479 125.255 327.606 172.513 315.277" stroke="black" stroke-width="5" stroke-linecap="round"/>
<path d="M172.513 315.278L364.114 261.855" stroke="black" stroke-width="5" stroke-linecap="round"/>
<path d="M127.219 464.183L294.732 453.523C295.308 453.486 295.795 453.943 295.795 454.521V471.517C295.795 472.047 295.382 472.485 294.853 472.515L127.34 482.16C126.766 482.193 126.282 481.737 126.282 481.162V465.181C126.282 464.653 126.692 464.216 127.219 464.183Z" stroke="black" stroke-width="5" stroke-linecap="round"/>
<path d="M246.482 476.057V546.944" stroke="black" stroke-width="5" stroke-linecap="round"/>
<path d="M280.385 474.516V523.315" stroke="black" stroke-width="5" stroke-linecap="round"/>
<path d="M536.702 501.154C514.13 517.071 365.984 475.816 296.822 453.969L438.083 459.619C485.396 465.471 559.273 485.237 536.702 501.154Z" fill="black" stroke="black" stroke-width="5" stroke-linecap="round"/>
<path d="M295.795 470.92C328.918 488.264 404.751 520.333 483.801 525.49" stroke="black" stroke-width="5" stroke-linecap="round"/>
<path d="M315.829 449.86C307.952 381.713 310.178 248.705 382.093 261.855C397.161 264.423 429.351 281.272 437.57 328.119" stroke="black" stroke-width="5" stroke-linecap="round"/>
<path d="M436.944 324.83C427.831 280.479 396.803 264.362 382.093 261.855C344.005 254.89 325.465 288.923 317.621 332.604C317.279 334.508 318.828 336.212 320.757 336.08L434.243 328.346C436.021 328.224 437.303 326.575 436.944 324.83Z" fill="black"/>
<path d="M437.394 458.2L378.497 395.646" stroke="black" stroke-width="5" stroke-linecap="round"/>
<path d="M459.996 329.266L378.497 395.645L351.182 417.949C350.048 418.875 348.411 418.847 347.309 417.883L314.112 388.852" stroke="black" stroke-width="5" stroke-linecap="round"/>
<path d="M458.333 328.307L321.707 337.25C320.616 337.321 319.648 337.961 319.235 338.974C309.818 362.013 312.364 419.329 315.07 447.986C315.208 449.44 316.38 450.569 317.837 450.671L436.023 458.962C437.264 459.049 438.428 458.372 438.935 457.236C449.007 434.68 466.142 381.308 461.487 330.976C461.339 329.377 459.936 328.202 458.333 328.307Z" stroke="black" stroke-width="5" stroke-linecap="round"/>
<path d="M456.062 404.142C475.608 404.142 477.034 402.724 496.616 399.435C498.095 399.186 499.527 400.066 500.063 401.467C506.683 418.757 530.169 447.627 543.901 423.148C547.839 416.128 551.812 395.923 536.196 371.267C520.918 347.144 505.706 358.095 499.603 367.079C499.339 367.467 499.184 367.914 499.144 368.383C498.489 375.989 499.353 388.7 504.966 399.005C508.161 404.869 512.893 409.954 519.758 412.875C539.072 421.094 539.278 399.005 533.113 387.191C530.031 380.513 524.381 374.349 516.162 380.513C509.484 386.677 515.135 393.355 518.731 397.978" stroke="black" stroke-width="5" stroke-linecap="round"/>
<path d="M529.518 432.518L446.302 440.614" stroke="black" stroke-width="5" stroke-linecap="round"/>
<path d="M461.712 367.672C480.718 367.672 480.205 367.672 511.539 357.398" stroke="black" stroke-width="5" stroke-linecap="round"/>
<path d="M518.73 397.979L504.966 399.006" stroke="black" stroke-width="5" stroke-linecap="round"/>
<path d="M3 691.379C30.247 696.967 17.4706 734.473 37.4407 744.453C61.2761 756.367 69.4836 689.292 66.3821 660.823C65.4933 648.34 50.9561 642.787 48.995 660.823C46.9119 679.98 70.6868 754.268 97.934 725.602L116.127 704.556C121.182 698.328 131.147 689.676 139.569 704.556C147.99 719.436 161.408 714.518 167.065 710.2L184.841 697.272" stroke="black" stroke-width="5" stroke-linecap="round"/>
<path d="M171.891 640.065L314.204 615.958C315.191 615.791 315.784 617.017 315.04 617.687L248.665 677.463C248.591 677.53 248.514 677.583 248.422 677.621C242.658 680.001 219.91 670.98 208.194 665.706C207.633 665.454 206.978 665.76 206.811 666.352C203.996 676.288 200.542 685.512 198.862 689.638C198.685 690.073 198.203 690.327 197.844 690.025C194.421 687.148 193.995 668.399 194.246 658.054C194.259 657.541 193.883 657.105 193.377 657.015C184.669 655.469 172.667 647.686 167.605 643.863" stroke="black" stroke-width="5" stroke-linecap="round"/>
<path d="M207.672 665.723C222.585 658.654 260.312 640.95 291.915 626.684" stroke="black" stroke-width="5" stroke-linecap="round"/>
<path d="M198.426 690.379L226.164 673.941" stroke="black" stroke-width="5" stroke-linecap="round"/>
<path d="M204.59 651.34L242.602 639.012" stroke="black" stroke-width="5" stroke-linecap="round"/>
<path d="M603.487 359.572C587.22 362.654 560.852 371.387 543.9 384.742" stroke="black" stroke-width="5" stroke-linecap="round"/>
<path d="M579.344 433.543C570.783 433.714 551.297 432.516 541.846 426.352" stroke="black" stroke-width="5" stroke-linecap="round"/>
</svg>
