<?xml version="1.0" encoding="UTF-8"?>
<svg id="Layer_1" data-name="Layer 1" xmlns="http://www.w3.org/2000/svg" viewBox="0 0 96 68">
  <defs>
    <style>
      .cls-1 {
        opacity: .5;
      }

      .cls-1, .cls-2, .cls-3, .cls-4 {
        stroke-width: 0px;
      }

      .cls-1, .cls-3, .cls-4 {
        fill: #fff;
      }

      .cls-2 {
        fill: none;
      }

      .cls-4 {
        opacity: 0;
      }
    </style>
  </defs>
  <rect class="cls-4" width="96" height="68"/>
  <path class="cls-3" d="m46,1h-18c-2.21,0-4,1.79-4,4v18c0,2.21,1.79,4,4,4h18c2.21,0,4-1.79,4-4V5c0-2.21-1.79-4-4-4Zm-6.5,5h-1c-.55,0-1,.45-1,1v4.91l-2.09,2.09,2.09,2.09v4.91c0,.55.45,1,1,1h1v2h-1c-1.65,0-3-1.35-3-3v-4.09l-2.91-2.91,2.91-2.91v-4.09c0-1.65,1.35-3,3-3h1v2Z"/>
  <path class="cls-1" d="m68,7h-18c-2.21,0-4,1.79-4,4v18c0,2.21,1.79,4,4,4h18c2.21,0,4-1.79,4-4V11c0-2.21-1.79-4-4-4Zm-8,15.91v4.09c0,1.65-1.35,3-3,3h-1v-2h1c.55,0,1-.45,1-1v-4.91l2.09-2.09-2.09-2.09v-4.91c0-.55-.45-1-1-1h-1v-2h1c1.65,0,3,1.35,3,3v4.09l2.91,2.91-2.91,2.91Z"/>
  <rect class="cls-2" x="24" y="1" width="48" height="32"/>
  <rect class="cls-2" x="24" y="1" width="48" height="32"/>
  <g>
    <path class="cls-3" d="m20.25,51.76c-.49.88-1.23,1.58-2.24,2.12-1.01.54-2.25.81-3.74.81h-2.76v6.55h-4.45v-18.25h7.2c1.46,0,2.69.25,3.69.75s1.76,1.2,2.26,2.08c.5.88.75,1.9.75,3.04,0,1.06-.24,2.02-.73,2.9Zm-4.42-1.21c.42-.4.62-.96.62-1.69s-.21-1.29-.62-1.69c-.42-.4-1.05-.6-1.9-.6h-2.42v4.58h2.42c.85,0,1.48-.2,1.9-.6Z"/>
    <path class="cls-3" d="m27.73,42v19.24h-4.45v-19.24h4.45Z"/>
    <path class="cls-3" d="m33.73,60.54c-1.14-.61-2.03-1.47-2.68-2.6-.65-1.13-.98-2.44-.98-3.95s.33-2.8.99-3.94c.66-1.13,1.56-2.01,2.7-2.61,1.14-.61,2.43-.91,3.85-.91s2.7.3,3.85.91c1.14.61,2.04,1.48,2.7,2.61.66,1.14.99,2.45.99,3.94s-.33,2.8-1,3.94c-.67,1.14-1.58,2.01-2.73,2.61-1.15.61-2.44.91-3.86.91s-2.7-.3-3.83-.91Zm6.01-3.87c.6-.62.9-1.52.9-2.68s-.29-2.05-.87-2.68c-.58-.62-1.3-.94-2.15-.94s-1.59.31-2.16.92c-.57.62-.86,1.51-.86,2.69s.28,2.05.85,2.68c.56.62,1.27.94,2.12.94s1.57-.31,2.17-.94Z"/>
    <path class="cls-3" d="m55.61,57.47v3.77h-2.26c-1.61,0-2.87-.39-3.77-1.18-.9-.79-1.35-2.08-1.35-3.86v-5.77h-1.77v-3.69h1.77v-3.54h4.45v3.54h2.91v3.69h-2.91v5.82c0,.43.1.75.31.94.21.19.55.29,1.04.29h1.59Z"/>
    <path class="cls-3" d="m60.84,60.54c-1.13-.61-2.03-1.47-2.68-2.6-.65-1.13-.97-2.44-.97-3.95s.33-2.8.99-3.94c.66-1.13,1.56-2.01,2.7-2.61,1.14-.61,2.43-.91,3.85-.91s2.7.3,3.85.91c1.14.61,2.04,1.48,2.7,2.61.66,1.14.99,2.45.99,3.94s-.33,2.8-1,3.94c-.67,1.14-1.58,2.01-2.73,2.61-1.15.61-2.44.91-3.86.91s-2.7-.3-3.83-.91Zm6.01-3.87c.6-.62.9-1.52.9-2.68s-.29-2.05-.87-2.68-1.3-.94-2.14-.94-1.59.31-2.16.92-.86,1.51-.86,2.69.28,2.05.85,2.68c.56.62,1.27.94,2.12.94s1.57-.31,2.17-.94Z"/>
    <path class="cls-3" d="m87.55,48.23c1.01,1.1,1.52,2.61,1.52,4.54v8.48h-4.42v-7.88c0-.97-.25-1.72-.75-2.26-.5-.54-1.18-.81-2.03-.81s-1.53.27-2.03.81c-.5.54-.75,1.29-.75,2.26v7.88h-4.45v-14.51h4.45v1.92c.45-.64,1.06-1.15,1.82-1.52.76-.37,1.62-.56,2.57-.56,1.7,0,3.05.55,4.07,1.65Z"/>
  </g>
</svg>