<?xml version="1.0" encoding="UTF-8"?>
<svg id="Layer_1" data-name="Layer 1" xmlns="http://www.w3.org/2000/svg" xmlns:xlink="http://www.w3.org/1999/xlink" viewBox="0 0 194 54">
  <defs>
    <style>
      .cls-1 {
        fill: url(#linear-gradient);
      }

      .cls-1, .cls-2, .cls-3, .cls-4, .cls-5 {
        stroke-width: 0px;
      }

      .cls-6 {
        clip-path: url(#clippath-2);
      }

      .cls-3, .cls-7 {
        fill: none;
      }

      .cls-7 {
        stroke: #fff;
        stroke-miterlimit: 10;
        stroke-width: 3px;
      }

      .cls-8 {
        clip-path: url(#clippath-1);
      }

      .cls-4 {
        fill: url(#linear-gradient-2);
      }

      .cls-9 {
        clip-path: url(#clippath);
      }

      .cls-10 {
        clip-path: url(#clippath-3);
      }

      .cls-5 {
        fill: #fff;
        opacity: 0;
      }
    </style>
    <clipPath id="clippath">
      <rect class="cls-3" x="3" y="3" width="48" height="48"/>
    </clipPath>
    <clipPath id="clippath-1">
      <path class="cls-3" d="m11,3C6.58,3,3,6.58,3,11v28c0,4.42,3.58,8,8,8h9.13L29.87,3H11Z"/>
    </clipPath>
    <linearGradient id="linear-gradient" x1="-409.07" y1="-151.26" x2="-408.07" y2="-151.26" gradientTransform="translate(10994.75 -4039.28) scale(26.87 -26.87)" gradientUnits="userSpaceOnUse">
      <stop offset="0" stop-color="#58d3cc"/>
      <stop offset="1" stop-color="#4ab6ff"/>
    </linearGradient>
    <clipPath id="clippath-2">
      <path class="cls-3" d="m33.87,7l-9.74,44h18.87c4.42,0,8-3.58,8-8V15c0-4.42-3.58-8-8-8h-9.13Z"/>
    </clipPath>
    <linearGradient id="linear-gradient-2" x1="-409.07" y1="-151.26" x2="-408.07" y2="-151.26" gradientTransform="translate(11015.88 -4035.28) scale(26.87 -26.87)" gradientUnits="userSpaceOnUse">
      <stop offset="0" stop-color="#4087e3"/>
      <stop offset="1" stop-color="#8e41f9"/>
    </linearGradient>
    <clipPath id="clippath-3">
      <rect class="cls-3" x="3" y="3" width="48" height="48"/>
    </clipPath>
  </defs>
  <rect class="cls-5" width="194" height="54"/>
  <g>
    <path class="cls-2" d="m87.74,26.78c-.65,1.17-1.65,2.12-3,2.84-1.35.72-3.02,1.08-5.02,1.08h-3.69v8.78h-5.96V15.01h9.66c1.95,0,3.6.34,4.95,1.01s2.36,1.6,3.03,2.79c.67,1.18,1.01,2.54,1.01,4.08,0,1.42-.33,2.71-.98,3.89Zm-5.93-1.62c.56-.53.84-1.29.84-2.26s-.28-1.73-.84-2.27c-.56-.53-1.41-.8-2.54-.8h-3.24v6.13h3.24c1.14,0,1.99-.27,2.54-.8Z"/>
    <path class="cls-2" d="m97.77,13.69v25.79h-5.96V13.69h5.96Z"/>
    <path class="cls-2" d="m105.81,38.54c-1.52-.81-2.72-1.98-3.59-3.49-.87-1.51-1.31-3.28-1.31-5.3s.44-3.76,1.32-5.28c.88-1.52,2.09-2.69,3.63-3.5,1.53-.81,3.25-1.22,5.16-1.22s3.63.41,5.16,1.22c1.53.81,2.74,1.98,3.62,3.5.88,1.52,1.32,3.28,1.32,5.28s-.45,3.76-1.34,5.28c-.89,1.52-2.12,2.69-3.66,3.5-1.55.81-3.27,1.22-5.18,1.22s-3.62-.41-5.14-1.22Zm8.05-5.19c.8-.84,1.2-2.03,1.2-3.59s-.39-2.75-1.17-3.59c-.78-.84-1.74-1.25-2.88-1.25s-2.13.41-2.89,1.24c-.77.82-1.15,2.03-1.15,3.61s.38,2.75,1.13,3.59c.75.84,1.7,1.25,2.84,1.25s2.11-.42,2.91-1.25Z"/>
    <path class="cls-2" d="m135.14,34.43v5.05h-3.03c-2.16,0-3.85-.53-5.05-1.59-1.21-1.06-1.81-2.78-1.81-5.18v-7.74h-2.37v-4.95h2.37v-4.74h5.96v4.74h3.9v4.95h-3.9v7.81c0,.58.14,1,.42,1.25.28.26.74.38,1.39.38h2.13Z"/>
    <path class="cls-2" d="m142.16,38.54c-1.52-.81-2.72-1.98-3.59-3.49-.87-1.51-1.31-3.28-1.31-5.3s.44-3.76,1.32-5.28c.88-1.52,2.09-2.69,3.63-3.5,1.53-.81,3.25-1.22,5.16-1.22s3.63.41,5.16,1.22c1.53.81,2.74,1.98,3.63,3.5.88,1.52,1.32,3.28,1.32,5.28s-.45,3.76-1.34,5.28c-.9,1.52-2.12,2.69-3.66,3.5-1.55.81-3.27,1.22-5.18,1.22s-3.62-.41-5.14-1.22Zm8.05-5.19c.8-.84,1.2-2.03,1.2-3.59s-.39-2.75-1.17-3.59-1.74-1.25-2.88-1.25-2.13.41-2.89,1.24-1.15,2.03-1.15,3.61.38,2.75,1.13,3.59c.75.84,1.7,1.25,2.84,1.25s2.11-.42,2.91-1.25Z"/>
    <path class="cls-2" d="m177.96,22.04c1.36,1.48,2.04,3.5,2.04,6.08v11.36h-5.93v-10.56c0-1.3-.34-2.31-1.01-3.03-.67-.72-1.58-1.08-2.72-1.08s-2.04.36-2.72,1.08c-.67.72-1.01,1.73-1.01,3.03v10.56h-5.96v-19.45h5.96v2.58c.6-.86,1.42-1.54,2.44-2.04,1.02-.5,2.17-.75,3.45-.75,2.28,0,4.1.74,5.45,2.21Z"/>
  </g>
  <g id="Ploton_logo">
    <g class="cls-9">
      <g class="cls-8">
        <rect class="cls-1" x="3" y="3" width="26.87" height="44"/>
      </g>
      <g class="cls-6">
        <rect class="cls-4" x="24.13" y="7" width="26.87" height="44"/>
      </g>
      <g class="cls-10">
        <path class="cls-7" d="m36,42.5h1.5c1.66,0,3-1.34,3-3v-6.75l3.75-3.75-3.75-3.75v-6.75c0-1.66-1.34-3-3-3h-1.5"/>
        <path class="cls-7" d="m18,11.5h-1.5c-1.66,0-3,1.34-3,3v6.75l-3.75,3.75,3.75,3.75v6.75c0,1.66,1.34,3,3,3h1.5"/>
      </g>
    </g>
  </g>
</svg>