<?xml version="1.0" encoding="UTF-8"?>
<svg id="Layer_1" data-name="Layer 1" xmlns="http://www.w3.org/2000/svg" xmlns:xlink="http://www.w3.org/1999/xlink" viewBox="0 0 72 72">
  <defs>
    <style>
      .cls-1 {
        fill: url(#New_Gradient_Swatch-2);
      }

      .cls-1, .cls-2, .cls-3, .cls-4, .cls-5, .cls-6, .cls-7 {
        stroke-width: 0px;
      }

      .cls-2 {
        fill: url(#New_Gradient_Swatch-4);
      }

      .cls-3 {
        fill: url(#New_Gradient_Swatch-6);
      }

      .cls-4 {
        fill: url(#New_Gradient_Swatch);
      }

      .cls-5 {
        fill: url(#New_Gradient_Swatch-5);
      }

      .cls-6 {
        fill: url(#New_Gradient_Swatch-3);
      }

      .cls-7 {
        fill: #fff;
        opacity: 0;
      }
    </style>
    <linearGradient id="New_Gradient_Swatch" data-name="New Gradient Swatch" x1="8.87" y1="36" x2="63.13" y2="36" gradientUnits="userSpaceOnUse">
      <stop offset="0" stop-color="#58d3cc"/>
      <stop offset="1" stop-color="#4ab6ff"/>
    </linearGradient>
    <linearGradient id="New_Gradient_Swatch-2" data-name="New Gradient Swatch" x1="32.44" y1="33.73" x2="39.71" y2="33.73" xlink:href="#New_Gradient_Swatch"/>
    <linearGradient id="New_Gradient_Swatch-3" data-name="New Gradient Swatch" x1="14.29" y1="33.73" x2="21.58" y2="33.73" xlink:href="#New_Gradient_Swatch"/>
    <linearGradient id="New_Gradient_Swatch-4" data-name="New Gradient Swatch" x1="23.37" y1="33.73" x2="30.65" y2="33.73" xlink:href="#New_Gradient_Swatch"/>
    <linearGradient id="New_Gradient_Swatch-5" data-name="New Gradient Swatch" x1="41.49" y1="33.73" x2="48.78" y2="33.73" xlink:href="#New_Gradient_Swatch"/>
    <linearGradient id="New_Gradient_Swatch-6" data-name="New Gradient Swatch" x1="50.57" y1="33.73" x2="57.85" y2="33.73" xlink:href="#New_Gradient_Swatch"/>
  </defs>
  <rect class="cls-7" width="72" height="72"/>
  <g>
    <path class="cls-4" d="m63.13,44.22c-.51.19-1.02.38-1.68.63,0,.35.01.89,0,1.42-.02.72-.32,1.03-1.04,1.07-.21.01-.42,0-.64,0-9.16,0-18.32,0-27.48,0-1.52,0-1.65-.13-1.65-1.66,0-.33,0-.65,0-1.01h-1.82c0,.55.02,1.06,0,1.57-.03.76-.34,1.09-1.09,1.1-5.31,0-10.62,0-15.94,0-.79,0-1.08-.33-1.1-1.14,0-.49,0-.98,0-1.44-.1-.06-.14-.09-.18-.1-1.58-.11-1.64-.18-1.64-1.78,0-3.19,0-6.38,0-9.56,0-1.03.09-1.09,1.06-1.45.31-.12.64-.51.71-.83.09-.45-.24-.76-.72-.89-.95-.27-1.05-.41-1.05-1.38,0-.97,0-1.94,0-2.9,0-.88.32-1.18,1.2-1.2.12,0,.24,0,.35,0,17.09,0,34.19,0,51.28.01.47,0,.95.18,1.42.27v4.82c-.32.13-.69.21-.95.41-.29.22-.66.57-.66.85,0,.29.39.62.68.84.26.21.62.3.93.45v11.9Zm-1.68-17.68H10.7c0,.36.03.66,0,.96-.07.62.12.99.68,1.37,1.58,1.06,1.49,3.4-.14,4.41-.43.27-.55.54-.55,1.01.02,2.6,0,5.2.01,7.79,0,.23.02.45.04.67h50.71c0-2.97,0-5.9-.02-8.83,0-.2-.27-.45-.47-.59-1.61-1.05-1.79-3.36-.23-4.43.64-.44.8-.88.73-1.55-.03-.25,0-.51,0-.82Zm-1.84,18.13h-27.12v.79h27.12v-.79Zm-32.63,0h-14.43v.8h14.43v-.8Z"/>
    <path class="cls-1" d="m32.44,33.7c0-1.37,0-2.74,0-4.1,0-1,.27-1.29,1.24-1.29,1.6-.01,3.21-.01,4.81,0,.9,0,1.2.3,1.2,1.19.01,2.83.01,5.66,0,8.49,0,.89-.31,1.18-1.21,1.19-1.6.01-3.21.01-4.81,0-.94,0-1.23-.29-1.24-1.23-.01-1.42,0-2.83,0-4.25Zm1.86-3.56v7.18h3.54v-7.18h-3.54Z"/>
    <path class="cls-6" d="m21.57,33.8c0,1.37,0,2.74,0,4.1,0,.98-.29,1.26-1.28,1.26-1.58,0-3.16,0-4.74,0-.93,0-1.25-.31-1.25-1.23-.01-2.81-.01-5.61,0-8.42,0-.92.32-1.22,1.25-1.23,1.58-.01,3.16,0,4.74,0,.99,0,1.27.28,1.28,1.26.01,1.42,0,2.83,0,4.25Zm-1.85,3.53v-7.16h-3.56v7.16h3.56Z"/>
    <path class="cls-2" d="m23.37,33.66c0-1.34,0-2.69,0-4.03,0-1.07.27-1.33,1.35-1.33,1.56,0,3.11,0,4.67,0,.93,0,1.24.31,1.25,1.23.01,2.81.01,5.61,0,8.42,0,.92-.32,1.22-1.25,1.22-1.6,0-3.21.01-4.81,0-.89,0-1.19-.3-1.2-1.19-.02-1.44,0-2.88,0-4.32Zm5.43-3.5h-3.56v7.15h3.56v-7.15Z"/>
    <path class="cls-5" d="m48.77,33.74c0,1.37,0,2.74,0,4.1,0,1.05-.27,1.32-1.29,1.33-1.58,0-3.16,0-4.74,0-.93,0-1.24-.31-1.24-1.23-.01-2.81-.01-5.61,0-8.42,0-.89.31-1.21,1.19-1.22,1.63-.01,3.25-.01,4.88,0,.89,0,1.19.3,1.2,1.2.02,1.42,0,2.83,0,4.25Zm-1.85,3.59v-7.16h-3.56v7.16h3.56Z"/>
    <path class="cls-3" d="m50.57,33.74c0-1.39,0-2.78,0-4.18,0-.98.29-1.26,1.27-1.27,1.58,0,3.16,0,4.74,0,.96,0,1.26.31,1.26,1.29,0,2.76,0,5.52,0,8.28,0,1.01-.3,1.3-1.31,1.31-1.56,0-3.11,0-4.67,0-1.02,0-1.28-.28-1.29-1.32,0-1.37,0-2.74,0-4.1Zm1.87-3.59v7.16h3.54v-7.16h-3.54Z"/>
  </g>
</svg>