<?xml version="1.0" encoding="UTF-8"?>
<svg id="Layer_1" data-name="Layer 1" xmlns="http://www.w3.org/2000/svg" xmlns:xlink="http://www.w3.org/1999/xlink" viewBox="0 0 256 256">
  <defs>
    <style>
      .cls-1 {
        fill: url(#New_Gradient_Swatch-2);
      }

      .cls-1, .cls-2, .cls-3, .cls-4, .cls-5 {
        stroke-width: 0px;
      }

      .cls-2 {
        fill: url(#New_Gradient_Swatch-4);
      }

      .cls-3 {
        fill: url(#New_Gradient_Swatch);
      }

      .cls-4 {
        fill: url(#New_Gradient_Swatch-3);
      }

      .cls-5 {
        fill: #fff;
        opacity: 0;
      }
    </style>
    <linearGradient id="New_Gradient_Swatch" data-name="New Gradient Swatch" x1="28" y1="128" x2="228" y2="128" gradientUnits="userSpaceOnUse">
      <stop offset="0" stop-color="#58d3cc"/>
      <stop offset="1" stop-color="#4ab6ff"/>
    </linearGradient>
    <linearGradient id="New_Gradient_Swatch-2" data-name="New Gradient Swatch" x1="84.67" y1="64.67" x2="111.33" y2="64.67" xlink:href="#New_Gradient_Swatch"/>
    <linearGradient id="New_Gradient_Swatch-3" data-name="New Gradient Swatch" x1="118" y1="64.67" x2="141.33" y2="64.67" xlink:href="#New_Gradient_Swatch"/>
    <linearGradient id="New_Gradient_Swatch-4" data-name="New Gradient Swatch" x1="148" y1="64.67" x2="171.34" y2="64.67" xlink:href="#New_Gradient_Swatch"/>
  </defs>
  <rect class="cls-5" width="256" height="256"/>
  <g>
    <path class="cls-3" d="m209.28,111.33l15.89-16.59c3.8-3.84,3.77-10.04-.07-13.84-.87-.87-1.9-1.56-3.04-2.04l-24.06-10.14v-27.39c0-7.36-5.97-13.33-13.33-13.33h-113.33c-7.36,0-13.33,5.97-13.33,13.33v27.39l-24.07,10.14c-4.97,2.13-7.27,7.88-5.14,12.85.48,1.11,1.16,2.13,2,2.99l15.92,16.63-15.9,16.58c-3.8,3.85-3.76,10.05.09,13.85.87.86,1.9,1.55,3.03,2.03l14.06,5.93v39.27c.01,3.92,2.38,7.45,6,8.95l70.16,29.22c1.21.55,2.53.84,3.86.83,1.26,0,2.52-.27,3.67-.79l70.3-29.26c3.62-1.5,5.99-5.03,6-8.95v-39.27l14.06-5.93c4.98-2.13,7.28-7.89,5.15-12.86-.48-1.11-1.15-2.13-2-2.99l-15.93-16.61Zm-81.28,29.7l-68.31-29.7,23-10h90.61l23,10-68.3,29.7Zm91.46-56.03c.94.39,1.62,1.24,1.81,2.24.21,1.04-.12,2.11-.88,2.85l-16.53,17.26-15.33-6.67c5.6-1.69,9.44-6.84,9.47-12.69v-12.04l21.46,9.04ZM71.34,34.67h113.33c3.68,0,6.67,2.98,6.67,6.67v46.66c0,3.68-2.98,6.67-6.67,6.67h-113.33c-3.68,0-6.67-2.98-6.67-6.67v-46.66c0-3.68,2.98-6.67,6.67-6.67Zm-36.61,52.57c.19-1,.86-1.84,1.8-2.24l21.47-9.05v12.04c.02,5.85,3.86,11,9.45,12.69l-15.33,6.67-16.55-17.3c-.74-.74-1.05-1.79-.84-2.81Zm0,48.17c-.21-1.04.11-2.11.87-2.86l16.54-17.22,69.94,30.41-18.82,18.05c-.84.87-2.13,1.13-3.25.67l-63.46-26.79c-.94-.4-1.62-1.24-1.81-2.25h0Zm21.86,56.39c-1.15-.45-1.91-1.57-1.92-2.81v-36.46l42.73,18.03c1.19.51,2.47.77,3.77.77,2.54,0,4.98-1.01,6.76-2.82l16.73-16.04v67.66l-68.08-28.34Zm144.74-2.81c0,1.24-.76,2.34-1.91,2.8l-68.09,28.35v-67.66l16.67,16c2.76,2.82,6.96,3.66,10.59,2.11l42.74-18.06v36.46Zm19.94-53.59c-.19,1-.87,1.85-1.81,2.24l-63.46,26.79c-1.15.47-2.47.18-3.32-.72l-18.76-18,69.94-30.38,16.56,17.27c.73.74,1.05,1.79.84,2.81h0Z"/>
    <path class="cls-1" d="m98,81.34c-3.68,0-6.67-2.98-6.67-6.67,0-1.84-1.49-3.33-3.33-3.33s-3.33,1.49-3.33,3.33c0,7.36,5.97,13.33,13.33,13.33s13.33-5.97,13.33-13.33-5.97-13.33-13.33-13.33c-3.68,0-6.67-2.98-6.67-6.67s2.98-6.67,6.67-6.67,6.67,2.98,6.67,6.67c0,1.84,1.49,3.33,3.33,3.33s3.33-1.49,3.33-3.33c0-7.36-5.97-13.33-13.33-13.33s-13.33,5.97-13.33,13.33,5.97,13.33,13.33,13.33c3.68,0,6.67,2.98,6.67,6.67s-2.98,6.67-6.67,6.67Z"/>
    <path class="cls-4" d="m121.33,88h6.67c7.36,0,13.33-5.97,13.33-13.33v-20c0-7.36-5.97-13.33-13.33-13.33h-6.67c-1.84,0-3.33,1.49-3.33,3.33v40c0,1.84,1.49,3.33,3.33,3.33Zm3.33-40h3.33c3.68,0,6.67,2.98,6.67,6.67v20c0,3.68-2.98,6.67-6.67,6.67h-3.33v-33.33Z"/>
    <path class="cls-2" d="m151.33,88c1.84,0,3.33-1.49,3.33-3.33v-10.79l10.77,12.93c1.18,1.42,3.28,1.61,4.7.43,1.42-1.18,1.61-3.28.43-4.7l-14.9-17.86,14.89-17.86c1.18-1.42.99-3.52-.43-4.7-1.42-1.18-3.52-.99-4.7.43l-10.76,12.93v-10.79c0-1.84-1.49-3.33-3.33-3.33s-3.33,1.49-3.33,3.33v40c0,1.84,1.49,3.33,3.33,3.33Z"/>
  </g>
</svg>