<?xml version="1.0" encoding="UTF-8"?>
<svg id="Layer_1" data-name="Layer 1" xmlns="http://www.w3.org/2000/svg" viewBox="0 0 256 256">
  <defs>
    <style>
      .cls-1 {
        fill: #666;
      }

      .cls-1, .cls-2 {
        stroke-width: 0px;
      }

      .cls-2 {
        fill: #fff;
        opacity: 0;
      }
    </style>
  </defs>
  <rect class="cls-2" width="256" height="256"/>
  <g>
    <path class="cls-1" d="m193.02,114.67l12.71-13.27c3.04-3.07,3.02-8.03-.06-11.07-.7-.69-1.52-1.25-2.43-1.63l-19.25-8.11v-21.91c0-5.89-4.78-10.67-10.67-10.67h-90.66c-5.89,0-10.67,4.78-10.67,10.67v21.91l-19.26,8.11c-3.97,1.7-5.82,6.31-4.11,10.28.38.89.93,1.7,1.6,2.39l12.74,13.3-12.72,13.26c-3.04,3.08-3.01,8.04.08,11.08.7.69,1.52,1.24,2.42,1.63l11.24,4.75v31.42c.01,3.14,1.9,5.96,4.8,7.16l56.13,23.37c.97.44,2.02.67,3.09.67,1.01,0,2.01-.22,2.93-.63l56.24-23.4c2.9-1.2,4.79-4.02,4.8-7.16v-31.42l11.24-4.74c3.98-1.7,5.83-6.31,4.12-10.29-.38-.89-.92-1.7-1.6-2.39l-12.74-13.28Zm-65.02,23.76l-54.65-23.76,18.4-8h72.49l18.4,8-54.64,23.76Zm73.17-44.82c.75.31,1.3.99,1.45,1.79.17.83-.1,1.69-.7,2.28l-13.22,13.81-12.27-5.33c4.48-1.35,7.55-5.47,7.57-10.15v-9.63l17.17,7.23Zm-118.5-40.26h90.66c2.95,0,5.33,2.39,5.33,5.33v37.33c0,2.95-2.39,5.33-5.33,5.33h-90.66c-2.95,0-5.33-2.39-5.33-5.33v-37.33c0-2.95,2.39-5.33,5.33-5.33Zm-29.28,42.06c.15-.8.69-1.47,1.44-1.79l17.18-7.24v9.63c.02,4.68,3.08,8.8,7.56,10.15l-12.27,5.33-13.24-13.84c-.59-.59-.84-1.43-.67-2.25Zm0,38.53c-.17-.83.09-1.69.69-2.29l13.23-13.78,55.96,24.33-15.06,14.44c-.68.69-1.71.91-2.6.53l-50.77-21.43c-.76-.32-1.3-1-1.45-1.8h0Zm17.49,45.11c-.92-.36-1.53-1.25-1.54-2.25v-29.17l34.19,14.43c.95.41,1.98.62,3.01.62,2.03,0,3.98-.81,5.41-2.26l13.39-12.83v54.13l-54.46-22.67Zm115.79-2.25c0,.99-.61,1.87-1.53,2.24l-54.47,22.68v-54.13l13.33,12.8c2.21,2.26,5.57,2.93,8.47,1.69l34.19-14.44v29.17Zm15.95-42.87c-.15.8-.69,1.48-1.45,1.79l-50.77,21.43c-.92.37-1.97.14-2.65-.58l-15-14.4,55.95-24.3,13.25,13.82c.59.59.84,1.43.67,2.25h0Z"/>
    <path class="cls-1" d="m104,90.67c-2.95,0-5.33-2.39-5.33-5.33,0-1.47-1.19-2.67-2.67-2.67s-2.67,1.19-2.67,2.67c0,5.89,4.78,10.67,10.67,10.67s10.67-4.78,10.67-10.67-4.78-10.67-10.67-10.67c-2.95,0-5.33-2.39-5.33-5.33s2.39-5.33,5.33-5.33,5.33,2.39,5.33,5.33c0,1.47,1.19,2.67,2.67,2.67s2.67-1.19,2.67-2.67c0-5.89-4.78-10.67-10.67-10.67s-10.67,4.78-10.67,10.67,4.78,10.67,10.67,10.67c2.95,0,5.33,2.39,5.33,5.33s-2.39,5.33-5.33,5.33Z"/>
    <path class="cls-1" d="m122.67,96h5.33c5.89,0,10.67-4.78,10.67-10.67v-16c0-5.89-4.78-10.67-10.67-10.67h-5.33c-1.47,0-2.67,1.19-2.67,2.67v32c0,1.47,1.19,2.67,2.67,2.67Zm2.67-32h2.67c2.95,0,5.33,2.39,5.33,5.33v16c0,2.95-2.39,5.33-5.33,5.33h-2.67v-26.67Z"/>
    <path class="cls-1" d="m146.67,96c1.47,0,2.67-1.19,2.67-2.67v-8.63l8.62,10.34c.94,1.13,2.63,1.29,3.76.34,1.13-.94,1.29-2.63.34-3.76l-11.92-14.29,11.91-14.29c.94-1.13.79-2.82-.34-3.76-1.13-.94-2.82-.79-3.76.34l-8.61,10.34v-8.63c0-1.47-1.19-2.67-2.67-2.67s-2.67,1.19-2.67,2.67v32c0,1.47,1.19,2.67,2.67,2.67Z"/>
  </g>
</svg>