<?xml version="1.0" encoding="UTF-8"?>
<svg id="Layer_1" data-name="Layer 1" xmlns="http://www.w3.org/2000/svg" viewBox="0 0 380 380">
  <defs>
    <style>
      .cls-1 {
        fill: #f2d041;
      }

      .cls-1, .cls-2, .cls-3, .cls-4, .cls-5, .cls-6, .cls-7, .cls-8, .cls-9, .cls-10, .cls-11, .cls-12, .cls-13, .cls-14, .cls-15, .cls-16, .cls-17, .cls-18, .cls-19, .cls-20, .cls-21, .cls-22, .cls-23, .cls-24, .cls-25, .cls-26, .cls-27, .cls-28, .cls-29, .cls-30, .cls-31, .cls-32, .cls-33, .cls-34 {
        stroke-width: 0px;
      }

      .cls-2 {
        fill: #fcce34;
      }

      .cls-3 {
        fill: #dcdcdc;
      }

      .cls-4 {
        fill: #eec524;
      }

      .cls-5 {
        fill: #fece34;
      }

      .cls-6 {
        fill: #505050;
      }

      .cls-7 {
        fill: #e6e6e6;
      }

      .cls-8 {
        fill: #f3cf42;
      }

      .cls-9 {
        fill: #f5f5f5;
      }

      .cls-10 {
        fill: #525254;
      }

      .cls-11 {
        fill: #4f4f50;
      }

      .cls-12 {
        fill: #ccc;
      }

      .cls-13 {
        fill: #efd050;
      }

      .cls-14 {
        fill: #f7eeaf;
      }

      .cls-15 {
        fill: #fbfbf3;
      }

      .cls-16 {
        fill: #f6ca28;
      }

      .cls-17 {
        fill: #4b4b4b;
      }

      .cls-18 {
        fill: #cbd5dd;
      }

      .cls-19 {
        fill: #272727;
      }

      .cls-20 {
        fill: #f0d86c;
      }

      .cls-21 {
        fill: #f8f6f6;
      }

      .cls-22 {
        fill: #464646;
      }

      .cls-23 {
        fill: #5d5d5e;
      }

      .cls-24 {
        fill: #424242;
      }

      .cls-25 {
        fill: #eed251;
      }

      .cls-26 {
        fill: #385963;
      }

      .cls-27 {
        fill: #eed664;
      }

      .cls-28 {
        fill: #8f8f8f;
      }

      .cls-29 {
        fill: #fbfbf4;
      }

      .cls-30 {
        fill: #f6ca24;
      }

      .cls-31 {
        fill: #f2f2f2;
      }

      .cls-32 {
        fill: #fff;
        opacity: 0;
      }

      .cls-33 {
        fill: #f5cc35;
      }

      .cls-34 {
        fill: #5b5b5b;
      }
    </style>
  </defs>
  <rect class="cls-32" width="380" height="380"/>
  <g>
    <path class="cls-31" d="m148.46,268.36c-10.31-2.85-20.2-6.86-28.65-13.42-10.06-7.79-19.41-16.12-25.92-27.68-5.36-9.51-9.6-19.22-12.03-29.68-5.04-21.68-3.31-42.81,7.24-62.67,8.46-15.95,21.01-28.03,36.15-37.88,8.95-5.82,18.44-9.96,28.63-12.27,24.39-5.52,47.38-1.22,68.53,11.93,13.49,8.38,24.76,18.89,32.95,33.03,11.31,19.52,14.92,39.97,11.1,61.92-1.3,7.48-3.06,14.95-6.9,21.61-2.32,4.03-2.58,7.74.05,11.6,4.52,7.06,8.19,14.54,11.06,22.41-.39,1.29-1.27,2.04-2.57,2.32-1.67-.02-2.71-1.12-3.32-2.42-4.45-9.37-9.64-18.37-13.8-27.89-1.19-2.73-1.04-5.26.22-7.91,4.09-8.66,7-17.6,7.86-27.29.84-9.49.29-18.73-2.24-27.87-3.4-12.27-8.91-23.48-17.36-33.07-9.19-10.43-20.25-18.22-33.06-23.79-11.51-5.01-23.4-7.31-35.83-6.73-11.82.55-22.98,3.7-33.54,9.15-10.93,5.64-20.55,12.92-28.38,22.35-7.6,9.15-13.71,19.11-16.62,30.95-2.23,9.08-3.28,18.13-2.68,27.41.86,13.15,4.37,25.55,10.76,37.09,8.28,14.94,19.96,26.36,35.15,34.23,16.55,8.57,33.97,10.58,52.11,7.12,2.89-.55,5.3-.44,7.69,1.48,6.4,5.13,13.28,9.68,18.71,15.96,2.27,2.63,6.57,3.48,6.87,7.85-.4,1.22-1.26,1.93-2.49,2.22-1.66.07-2.49-1.24-3.59-2.13-6.25-5.09-12.25-10.49-18.94-15.03-2.31-1.56-4.66-2-7.37-1.29-11.82,3.1-23.7,2.02-35.58.37-1.67-.23-2.81-1.35-4.24-1.97Z"/>
    <path class="cls-21" d="m148.46,268.36c13.56,2.5,27.13,4,40.71.22,3.58-1,6.05.82,8.57,2.74,6.93,5.29,13.99,10.43,20.05,16.76-.38,2.45-2.71,3.22-4.12,4.77-.33.27-.66.54-.99.82-6.12-4.37-11.48-10-19.27-11.64-2.99-.63-5.83-.89-8.72.7-3.55,1.94-2.54,5.41-3.24,8.32-1.15-1.65-2.8-2.49-4.73-2.74-10.72-1.38-21.19-4.24-31.97-5.32-4.06-.41-8.31,1.02-12.2-1.17h0c-7.79-1.11-15.42-3.06-23.28-4.03-14.11-1.74-28.07-4.58-42.11-6.9-5.68-.94-11.38-1.74-17.06-2.7-9.21-1.55-18.33-3.81-27.79-3.84-2.39,0-5.02-1.04-7.13-3.09,3.91-3.15,7.86-.31,11.61-.18,8.15.28,16.28,1.37,24.42,2.09,10.44.92,20.92,1.1,31.29,3.23,7.14,1.47,14.62.89,21.93,1.4,6.89.48,13.7,1.64,20.61,1.97,4.8.23,9.74-.61,14.42,1.17-.04.58.04-.17.03.41-.02,1.16-.98,2.81.56,3.3,2.12.66,1.34-1.92,2.31-2.67,1.29-1,2.68-.78,4.05-.27,1.08.41,2.28,1.03,3.12-.09,1.09-1.43-.56-2.23-1.1-3.28Z"/>
    <path class="cls-9" d="m270.22,247.37c-4.18-7.21-7.66-14.74-10.62-22.52,1.97,2.85,3.39,2.89,4.28-.76,1.38-5.67,3.34-11.11,3.02-17.22-.25-4.63.78-9.49,2.08-14.01,2.71-9.45,2.1-19.38,4.7-28.82,2.95-10.68,2.63-21.96,5.82-32.65.89-3,.93-6.49-.13-9.72-.32-1.86-1.04-3.63-1.26-5.52,2.4.34,3.54-.46,3.93-3.11,1.99-13.52,4.79-26.9,6.36-40.5,1.1-9.56,3.12-19.02,4.76-28.53.09-.51.44-.97.73-1.57,1.68,1.09,1.53,2.61,1.35,3.95-1.87,13.67-2.52,27.43-3.56,41.17-.38,4.95-1.42,9.96-2.19,14.94-.15,1-.66,2.19-.3,2.98,3.52,7.87-1.71,15.04-1.67,22.6.06,10.69-2.92,21.13-2.56,31.84.29.84-2.28.59-.74,1.91.89,1.04,1.44,2.11.85,3.55-3.63,8.94-1.9,18.5-3.15,27.72-.77,5.66-1.08,11.37-1.63,17.06-.7,7.31-1.44,14.62-2.11,21.93-.15,1.67-.7,3.87,1.28,4.57,2.5.89,2.34-1.79,3.19-3.11.45-.7,1.25-1.18,1.89-1.76-1.01,8.08-.47,16.02,2.22,23.75-3.15.87-4.52-1.77-4.78-3.62-.54-3.89-3.21-5.12-6.04-6.51-2.23-.31-3.41,2.47-5.71,1.94Z"/>
    <path class="cls-30" d="m298.87,196.99c1.41,1.03,2.51,1.86,3.64,2.66,1.9,1.35,3.78,2.62,5.99.42.6-.6,1.58-.91,2.35-.26.24.2.17,1.29-.09,1.48-4.88,3.36-.91,7.02-.34,10.56-1.18-.04-1.96-.72-2.59-1.49-2.02-2.5-4.22-3.34-6.98-1.11-.71.57-1.64.68-2.29,0-.22-.23-.02-1.34.31-1.55,4.22-2.72,2.57-5.65.44-8.67-.3-.42-.24-1.09-.43-2.04Z"/>
    <path class="cls-16" d="m27.94,220.56c4.7-3.22.69-6.24-.81-10.74,4.38,3.6,8.05,6.74,12.95,2.7-4.28,4.09-3.08,8.26-.21,13.55-3.36-2.03-4.55-4.69-7.23-5-1.56-.18-3.44,2.59-4.7-.5Z"/>
    <path class="cls-27" d="m156.3,304.06c-1.21,2.21-1.04,4.15-.23,6.28-2.49.52-4.55-2.11-6.92-.11.52-2.37,2.1-4.25.54-6.99,2.48.59,4.24,2.58,6.61.82Z"/>
    <path class="cls-13" d="m262.75,55.59c-2.22,2.17-.83,4.27-.18,6.87-2.38-1.69-4.46-2.18-7.77-.55,2.12-2.89,2.81-5,1.09-7.93,2.59,1.18,4.11,3.48,6.85,1.61Z"/>
    <path class="cls-25" d="m99.67,74.5c2.43-2.81,2.28-4.78.23-7.56,2.95,1.38,4.92,2.3,8.03,1.63-2.18,2.36-1.6,4.38-.63,7.68-2.42-2.71-4.34-3.06-7.64-1.74Z"/>
    <path class="cls-34" d="m96.82,79.41c2.99,3.85,5.98,7.69,8.96,11.54-4.39-2.67-7.03-6.82-10.01-10.69.35-.28.69-.56,1.04-.85Z"/>
    <path class="cls-8" d="m181.65,67.89c1.93-1.34,3.32-.89,4.27.25,1.25,1.52.62,2.95-.9,3.96-1.46.98-2.9.54-3.68-.8-.72-1.25-.77-2.77.31-3.42Z"/>
    <path class="cls-23" d="m284.21,161.84c-.61-.2-1.23-.39-1.84-.59.52-1.1,1.89-.56,2.58-1.33,4.77-.68,9.55-1.35,14.32-2.03-4.68,2.82-10.03,2.71-15.06,3.94Z"/>
    <path class="cls-4" d="m59.04,168.1c-1.28,1.97-1.75,3.8-.67,6.02-1.99-1.73-3.94-1.43-6.85.17,1.95-2.71,2.7-4.62.77-7.38,2.66,1.3,4.34,3.26,6.76,1.2Z"/>
    <path class="cls-1" d="m278.11,116.15c2.02,1.47,2.64,3.27,1.26,5.52-2.08.9-3.86.34-4.47-1.76-.72-2.47,1.55-3,3.22-3.76Z"/>
    <path class="cls-33" d="m142.38,271.99c.69,1.67,1.11,3.35-.89,4.39-1.1.57-2.16.34-3-.77-1.49-1.98-.75-3.41.98-4.66.97.35,1.94.69,2.91,1.04Z"/>
    <path class="cls-6" d="m55.35,130.66c5.63,1.23,11.01,3.11,15.88,6.25-5.63-1.23-10.97-3.21-15.88-6.25Z"/>
    <path class="cls-22" d="m154.96,51.48c1.94,5.25,2.57,10.72,2.59,16.3-1.69-5.29-2.7-10.7-2.59-16.3Z"/>
    <path class="cls-3" d="m102.71,284.59c.8,1.34.82,2.77-.24,3.93-1.1,1.2-2.34.83-3.32-.32-.98-1.14-1.06-2.36.07-3.44,1.05-1,2.23-1.25,3.49-.17Z"/>
    <path class="cls-17" d="m132.56,281.83c-.03,5.2-3.18,9.18-5.16,13.63,1.1-4.78,2.01-9.64,5.16-13.63h0Z"/>
    <path class="cls-11" d="m220.29,59.33c-.8,4.77-2.63,9.17-5.09,13.33.68-4.81,2.64-9.15,5.09-13.33Z"/>
    <path class="cls-10" d="m272.62,98.82c-3.57,3.81-7.38,7.33-12.19,9.65,3.7-3.65,7.42-7.28,12.19-9.65Z"/>
    <path class="cls-24" d="m51.99,194.91c4.19-.94,8.44-1.5,12.79-1.38-4.15,1.68-8.57,2.09-12.94,2.73-.66-.53-.74-1,.15-1.36Z"/>
    <path class="cls-19" d="m86.76,246.48c-3.24,3.9-7.25,6.84-11.67,9.28,3.52-3.55,7.31-6.77,11.67-9.28Z"/>
    <path class="cls-20" d="m27.94,220.56c1.4,1.69,3.18-.15,4.7.5-1.82,1.88-4.35,1.62-6.6,2.41-.57-1.96,1.01-2.2,1.9-2.91Z"/>
    <path class="cls-28" d="m51.99,194.91l-.15,1.36c-1.61.43-3.22.94-5.11-.03,1.73-1.11,3.43-1.46,5.26-1.32Z"/>
    <path class="cls-7" d="m239.25,327.49c-1.36-.78-1.66-3.41-4.37-2.02-.74.38-2.2-1.32-1.65-3.39.81-3.05-2.97-6.43-6.11-5.84-.58-.9-1.16-1.8-1.74-2.7.2-3.22-2.04-5.2-3.76-7.45-2.85-4.24-5.27-8.78-8.95-12.41-.11-.18-.11-.37,0-.55,4.25-3.85,8.36-7.88,12.85-11.44,12.11-9.61,24.32-19.11,36.63-28.46,4.56-3.46,9.45-6.48,14.26-9.6,1.52.55,1.67,3.46,4.42,2.19,1.16-.54,2.5,1.54,2.11,2.48-1.7,4.13,1.87,5.22,3.79,7.27.75,1.91,1.5,3.83,2.25,5.74-6.95,6.05-13.51,12.52-20.31,18.74-10.94,10.02-21.35,20.61-32.49,30.42-.65.57-1.31,1.13-1.93,1.73-1.5,1.46-1.63,2.99-.2,4.54,1.63,1.77,2.84.43,3.98-.68,5.58-5.43,11.15-10.86,16.85-16.16,9.08-8.43,18.04-16.98,27.36-25.14,3.23-2.83,6.64-5.55,7.86-10.02,1.67.14,2.1,1.32,2.48,2.54l2.04,2.84c-2.76,6-8.35,9.39-12.86,13.74-13.28,12.79-26.86,25.26-40.25,37.93-1.85,1.75-.42,4.28-2.28,5.71Z"/>
    <path class="cls-31" d="m239.25,327.49c-1.88-3.83.28-5.68,3.06-8.14,8.04-7.13,15.56-14.83,23.38-22.22,7.51-7.09,15.09-14.12,22.75-21.06,2.13-1.93,3.58-4.56,6.21-5.96,2.72,3,5.44,6.01,8.16,9.01-1.98,2.09-5.24,2.86-6.2,6-1.16,1.27-2.39,2.46-3.77,3.52-13.69,10.52-27.21,21.25-40.96,31.7-1.26.96-2.55,1.86-3.96,2.59-3.75-.14-5,4.51-8.66,4.54Z"/>
    <path class="cls-31" d="m292.61,267.28c-.57-.64-1.14-1.28-1.78-1.98.15,4.44-3.37,6.67-5.9,8.81-11.94,10.12-22.87,21.33-34.62,31.64-4.39,3.86-8.25,8.33-12.35,12.53-1.26,1.29-2.67,2.77-4.14.47-1.23-1.93-4.94-3.83-1.74-6.41,3.6-2.91,6.72-6.27,10.14-9.33,8.43-7.54,16.47-15.51,24.73-23.24,6.5-6.07,13.13-12,19.63-18.06.84-.78,1.62-.19,2.4-.4,1.32,1.92,3.21,3.5,3.61,5.97Z"/>
    <path class="cls-18" d="m221.62,306.08c4.16,2.88,5.19,4.92,3.76,7.45-1.87-2.17-3.17-4.63-3.76-7.45Z"/>
    <path class="cls-7" d="m220.49,285.93c-8.63-8.5-17.77-16.4-27.37-23.79-1.52-1.17-3.13-.82-4.51-.41-11.64,3.43-23.5,2.61-34.92.18-14.62-3.11-27.43-10.47-38.48-20.79-8.89-8.31-15.59-18.2-20.2-29.25-4.51-10.81-6.81-22.21-7.03-34.15-.21-11.61,2.18-22.58,6.23-33.12,2.34-6.09,6.21-11.65,10.3-17.01,5.47-7.15,11.7-13.31,18.86-18.66,19.4-14.51,41.1-20.45,65.02-16.38,11.21,1.9,21.57,6.33,31.38,12.57,10.27,6.54,19.12,14.24,25.93,24.18,4.77,6.96,8.4,14.48,10.95,22.7,2.27,7.32,3.7,14.59,3.94,22.18.4,12.86-2.09,25.15-7.81,36.63-1.66,3.33-1.95,6.01-.29,9.21,5.06,9.77,10.02,19.59,15.01,29.39-2.16,2.96-5.48,4.55-8.16,6.89-3.87-2-4.81-6.16-6.5-9.53-6.15-12.22-12.68-24.24-18.95-36.39-3.29-6.38-6.49-12.82-9.68-19.26-3.22-6.51-6.38-13.1-10.82-19.02,1.7,5.51,5.39,10.33,5.52,16.32.12,4.09.27,8.14-3.73,10.87-3.76,2.57-6.67,1.86-8-2.49-1.74-5.73-4-11.07-8.13-15.55-2.05-2.23-4.2-3.81-7.11-2.07-2.91,1.75-1.88,4.39-1.04,6.93,2.08,6.26,7.06,9.63,12.48,12.45,6.13,3.19,7.45,6.18,5.35,13.31-1.43,4.86-6.98,8.53-12.09,7.91-1.28-.16-2.55-.53-3.83-.7-4.62-.62-7.58-2.73-8.33-7.77-.75-5.08-3.38-9.45-6.62-13.39-2.49-3.03-5.64-3.65-7.89-1.77-2.22,1.87-2.09,4.46.06,7.66,2.89,4.31,6.81,7.38,11.22,9.92,2.37,1.37,4.57,2.86,3.79,6.03-.83,3.42-3.59,4.16-6.68,4.35-3.38.2-5.96-2.04-9.03-2.78-4.21-1.1-6.31-5.28-10.45-7.57.17,2.27,1.53,2.92,2.49,3.77,18.07,15.91,35.93,32.04,54,47.95,4.32,3.81,8.61,7.65,12.83,11.58.75.69,1.53,1.38,1.06,2.58-2.93,2.09-5.35,4.87-8.76,6.28Z"/>
    <path class="cls-26" d="m220.49,285.93c2.84-2.2,5.68-4.41,8.52-6.61.44-1.38,1.19-2.55,2.39-3.39,7.78-6.31,15.68-12.47,23.73-18.44,1.11-.99,2.45-1.37,3.9-1.48,2.82-2.2,5.64-4.4,8.46-6.6.91-.68,1.82-1.36,2.73-2.03,2.28-.9,3.54-3.48,6.21-3.75-21.25,16.5-42.5,33-63.75,49.5.93-2.46,3.73-3.03,5.11-5.04.9-.72,1.8-1.44,2.7-2.16Z"/>
    <path class="cls-31" d="m296.17,294.27c-2.8,18.04-27.25,34.57-44.11,29.8-1.96-1.86-.57-3.18.9-4.11,10.05-6.36,19.76-13.24,29.72-19.74,2.4-1.57,4.73-3.25,7.11-4.83,1.93-1.28,3.94-2.49,6.37-1.12Z"/>
    <path class="cls-7" d="m296.17,294.27c-6.5.91-10.68,5.98-15.87,9.14-9.05,5.5-17.38,12.16-26.68,17.31-1.45.8-2.1,1.73-1.56,3.35-1.52.13-2.84-.47-4.15-1.12-.09-1.62,1.28-2.15,2.26-2.91,14.34-11.17,28.69-22.31,43.05-33.44.98-.76,1.84-1.95,3.38-1.46.49,3.08.67,6.14-.43,9.14Z"/>
    <path class="cls-31" d="m278.44,253.09c1.18-1.17,2.48-3.1,4.02-.19,1.04,1.96,4.34,3.22.9,6.32-10.75,9.7-21.38,19.53-31.69,29.72-6.72,6.65-14.03,12.71-20.64,19.51-1.13,1.16-2.77,3.34-4.57.79-1.27-1.8-4.48-3.2-1.18-6.34,3.84-3.66,7.63-7.36,11.53-10.96,8.1-7.5,16.31-14.87,24.09-22.72,5.55-5.6,11.6-10.7,17.54-16.13Z"/>
    <path class="cls-31" d="m245.09,269.08c9.34-7.26,18.67-14.54,28.05-21.74,1.09-.84,2.31-2.93,3.94-1.06,1.7,1.95-.65,2.69-1.66,3.64-6.64,6.31-13.39,12.52-20.02,18.84-7.35,7.01-14.59,14.15-21.94,21.16-3.43,3.26-7.03,6.34-10.52,9.54-1.74,1.6-3.2,1.7-4.56-.44-.62-.97-1.32-1.92-2.13-2.73-2.24-2.22-1.56-3.71.77-5.48,9.42-7.15,18.72-14.47,28.06-21.73Z"/>
    <path class="cls-12" d="m106.72,213.58c-5.13-8.98-8.36-18.81-8.81-29.44-.18-4.27-.39-8.53-.23-12.84.48-12.85,5.33-23.87,13.13-33.77,1.85-2.34,4.59-3.91,7.6-3.09,1.86.51,3.51,2.5,3.15,4.68-.56,3.37-.52,6.84-1.82,10.1-2.69,6.76-5.33,13.55-7.81,20.39-3.17,8.74-2.52,17.82-1.88,26.83.36,5.12,1.33,10.19,1.9,15.29.19,1.75,1.27,4.21-.86,5.07-2.23.9-2.65-2.06-4.36-3.24Z"/>
    <path class="cls-12" d="m240.45,140.78c11.11,14.73,13.75,31.43,11,49.21-.33,2.14-.5,6.3-3.72,5.86-2.67-.36-2.43-4.03-2.58-6.61-.57-9.66.06-19.41-2.75-28.91-1.67-5.63-5.03-10.45-6.9-15.94-.82-2.41-1.91-4.73-2.74-7.14-.37-1.08-.51-2.31.9-2.96,1.23-.57,1.92.27,2.54,1.04,1.46,1.78,2.84,3.63,4.26,5.45Z"/>
    <path class="cls-29" d="m259.03,256.01c-.81,1.07-1.83,1.87-3.07,2.38-1.91-.39-2.85-1.84-3.64-3.41-9.09-18.16-18.33-36.24-27.98-54.12-1.03-1.91-1.7-3.98-2.53-5.97-.86-2.2-1.06-4.81-3.62-6-1.34-4.99-2.65-9.98-5.9-14.19-.5-.64-.53-1.63-.81-2.45-.34-1-.59-1.92.65-2.56,1.38-.72,2.23-.04,2.83,1.05,1.6,2.9,3.19,5.81,4.68,8.76,4.82,9.6,9.48,19.28,14.42,28.81,5.96,11.49,12.17,22.84,18.21,34.28,2.34,4.42,4.51,8.93,6.76,13.41Z"/>
    <path class="cls-15" d="m232.19,276.88c-1.06.81-2.12,1.62-3.19,2.43-12.05-10.63-24.12-21.23-36.13-31.9-11.45-10.17-22.86-20.41-34.25-30.65-1.17-1.05-3.44-2-1.7-4.05,1.68-1.97,3.49,0,4.42.95,2.63,2.66,5.48,4.96,8.53,7.06,3.31,1.56,5.17,4.92,8.34,6.65,11.51,9.53,22.25,19.94,33.59,29.66,5.88,5.04,11.4,10.48,17.49,15.28,1.49,1.17,2.84,2.47,2.9,4.57Z"/>
    <path class="cls-14" d="m177,227.62c-3.4-1.24-4.91-4.43-7.13-6.89,2.07-.6,3.45,1.12,5.12,1.72,1.74.62,3.36.63,5.03.49,2.23-.19,3.7-1.54,4.28-3.69.67-2.48-1.41-3.37-2.93-4.13-5.26-2.62-9.44-6.36-12.77-11.17-2.26-3.26-2.28-6.73.31-8.83,3.03-2.46,6.08-1.63,8.58.72,4.99,4.69,7.55,10.83,8.7,17.4.45,2.55,1.52,3.31,3.63,3.91,5.33,1.53,10.58,3.19,15.36-1.43,2.52-2.43,4.24-10.43,2.7-13.35-.7-1.33-2.09-1.42-3.25-1.93-6.84-3.06-12.73-7.07-15.19-14.69-1-3.09-1.38-6.06,1.89-7.93,3.12-1.79,5.79-.53,8.01,1.96,3.86,4.34,6.82,9.16,8.41,14.83.59,2.09.31,5.63,3.82,5.13,3.28-.46,5.55-2.69,6.21-6.26.28-1.53-.78-3.15.41-4.57,4.47-1.17,3,2.84,4.05,4.65-.69.27-1.69-.63-1.67-.43.52,5.13-3.27,7.16-6.81,8.94-2.28,1.14-2.77,2.53-2.63,4.73.36,5.85-2,10.19-7.09,13.27-4.33,2.63-8.7,1.26-12.99.53-2.38-.41-3.81-.45-5.36,1.84-2.35,3.46-5.95,4.15-9.71,2.85.73.45,1.42,1.13,1.03,2.34Z"/>
    <path class="cls-12" d="m229.83,124.19c1.55,1.8,2.18,3.55-.23,5.34-2.26,1.67-4.18,1.37-5.99-.6-2.11-2.3-.75-4.48.82-5.99,1.95-1.87,3.93-.82,5.4,1.25Z"/>
    <path class="cls-5" d="m177,227.62c-.53-.84-1.06-1.67-1.86-2.94,5.3.76,9.47-.12,11.29-5.51.69-2.04,1.87-.34,2.74-.14,4.46.99,8.99,2.66,13.44.67,5.79-2.6,7.97-7.47,7.41-13.69-.21-2.35-.83-4.08,3.09-4.88,4.01-.83,7.76-4.07,6.16-10.62,1.61,1.66,2.29,2.35,2.96,3.05,6.11,11.88,12.1,23.82,18.38,35.61,5.17,9.71,9.56,19.84,15.34,29.23-7.92,6.17-15.84,12.33-23.76,18.5-8.77-7.81-17.54-15.61-26.3-23.42-9.64-8.61-19.26-17.23-28.9-25.85Z"/>
    <path class="cls-2" d="m207.29,199.65c-7.53-3.28-13.71-6.97-16.28-14.83-.7-2.16-.8-4.05,1.17-5.39,2.28-1.55,4.14-.24,5.68,1.41,4.79,5.15,7.55,11.34,9.43,18.81Z"/>
    <path class="cls-2" d="m184.31,214.29c-6.46-2.63-11.01-6.53-14.51-11.76-1.36-2.03-1.87-3.97.07-5.76,1.82-1.68,3.69-1.68,5.71.09,5.11,4.48,7.54,10.23,8.73,17.43Z"/>
  </g>
</svg>