<?xml version="1.0" encoding="UTF-8"?>
<svg id="Layer_1" data-name="Layer 1" xmlns="http://www.w3.org/2000/svg" xmlns:xlink="http://www.w3.org/1999/xlink" viewBox="0 0 260 260">
  <defs>
    <style>
      .cls-1 {
        fill: url(#New_Gradient_Swatch-2);
      }

      .cls-1, .cls-2, .cls-3, .cls-4, .cls-5, .cls-6, .cls-7, .cls-8 {
        stroke-width: 0px;
      }

      .cls-2 {
        fill: url(#New_Gradient_Swatch_copy);
      }

      .cls-3 {
        fill: #e6e6e6;
      }

      .cls-4 {
        opacity: .5;
      }

      .cls-4, .cls-6, .cls-9 {
        fill: #fff;
      }

      .cls-5 {
        fill: #ccc;
      }

      .cls-10 {
        fill: none;
        stroke: gray;
        stroke-miterlimit: 10;
      }

      .cls-7 {
        fill: url(#New_Gradient_Swatch);
      }

      .cls-9 {
        font-family: Poppins-Bold, Poppins;
        font-size: 14.65px;
        font-weight: 700;
      }

      .cls-8 {
        fill: #f2f2f2;
      }
    </style>
    <linearGradient id="New_Gradient_Swatch" data-name="New Gradient Swatch" x1="21.7" y1="95.17" x2="97.55" y2="95.17" gradientUnits="userSpaceOnUse">
      <stop offset="0" stop-color="#58d3cc"/>
      <stop offset="1" stop-color="#4ab6ff"/>
    </linearGradient>
    <linearGradient id="New_Gradient_Swatch_copy" data-name="New Gradient Swatch copy" x1="94.42" y1="157.43" x2="170.27" y2="157.43" gradientUnits="userSpaceOnUse">
      <stop offset="0" stop-color="#4087e3"/>
      <stop offset="1" stop-color="#8e41f9"/>
    </linearGradient>
    <linearGradient id="New_Gradient_Swatch-2" data-name="New Gradient Swatch" x1="187.53" y1="162.4" x2="240.89" y2="162.4" xlink:href="#New_Gradient_Swatch"/>
  </defs>
  <rect class="cls-4" width="260" height="260"/>
  <g>
    <path class="cls-7" d="m54.29,57.25c3.56,0,7.11,0,10.67,0,.52.96,1.15,1.89,1.53,2.9.41,1.1.72,2.27.85,3.44.33,2.75,1.37,4.84,4.38,5.37.05,0,.09.04.13.06.83.54,1.56.51,2.42-.07,1.72-1.15,3.55-2.14,5.32-3.21,1.19-.72,2.24-.58,3.21.39,1.96,1.96,3.91,3.91,5.86,5.87.97.98,1.08,2.04.34,3.22-.73,1.17-1.31,2.46-2.16,3.54-1.45,1.85-1.92,3.66-.44,5.69.2.27.18.7.39.95.41.47.85,1.09,1.39,1.25,2.13.63,4.32,1.03,6.44,1.69,1.03.32,1.94,1,2.9,1.52v10.67c-.96.52-1.89,1.14-2.9,1.52-1.05.4-2.17.72-3.29.82-2.97.29-4.98,1.56-5.69,4.65-.19.84-.29,1.44.18,2.17,1.06,1.66,2.06,3.36,3.06,5.06.93,1.58.83,2.33-.48,3.66-1.77,1.79-3.54,3.57-5.33,5.34-1.41,1.4-2.16,1.47-3.92.42-1.69-1.01-3.37-2.05-5.08-3.03-.34-.2-.86-.39-1.19-.27-1.39.5-2.76,1.07-4.07,1.73-.35.18-.59.74-.7,1.18-.57,2.14-1.01,4.32-1.66,6.44-.32,1.02-1,1.94-1.52,2.9h-10.67c-.52-.96-1.15-1.89-1.52-2.9-.44-1.2-.77-2.46-.92-3.73-.31-2.62-1.34-4.53-4.17-5.02-.28-.05-.53-.34-.8-.36-.53-.03-1.17-.12-1.6.11-1.82.99-3.57,2.09-5.35,3.16-1.23.74-2.32.62-3.34-.41-1.87-1.89-3.75-3.79-5.66-5.65-1.14-1.11-1.22-2.26-.39-3.58,1.02-1.63,1.95-3.32,2.99-4.93.49-.76.51-1.37.07-2.15-.48-.86-.7-1.85-1.19-2.7-.3-.52-.84-1.08-1.38-1.24-2.12-.63-4.32-1.03-6.44-1.68-1.03-.32-1.94-1-2.9-1.52,0-3.56,0-7.11,0-10.67.96-.52,1.88-1.15,2.9-1.52,1.2-.44,2.46-.79,3.72-.92,2.73-.28,4.56-1.5,5.06-4.31.11-.6.13-1.35-.14-1.85-1.11-2.03-2.33-4-3.53-5.98-.75-1.23-.63-2.32.39-3.34,1.92-1.91,3.84-3.83,5.75-5.75,1.01-1.02,2.1-1.15,3.33-.4,1.89,1.16,3.8,2.29,5.71,3.41.36.21.88.53,1.18.42,1.52-.56,3.02-1.2,4.47-1.92.3-.15.47-.7.58-1.1.56-2.14,1-4.32,1.65-6.44.32-1.03,1-1.94,1.52-2.9Z"/>
    <path class="cls-2" d="m127.01,119.5c3.56,0,7.11,0,10.67,0,.52.96,1.15,1.89,1.53,2.9.41,1.1.72,2.27.85,3.44.33,2.75,1.37,4.84,4.38,5.37.05,0,.09.04.13.06.83.54,1.56.51,2.42-.07,1.72-1.15,3.55-2.14,5.32-3.21,1.19-.72,2.24-.58,3.21.39,1.96,1.96,3.91,3.91,5.86,5.87.97.98,1.08,2.04.34,3.22-.73,1.17-1.31,2.46-2.16,3.54-1.45,1.85-1.92,3.66-.44,5.69.2.27.18.7.39.95.41.47.85,1.09,1.39,1.25,2.13.63,4.32,1.03,6.44,1.69,1.03.32,1.94,1,2.9,1.52v10.67c-.96.52-1.89,1.14-2.9,1.52-1.05.4-2.17.72-3.29.82-2.97.29-4.98,1.56-5.69,4.65-.19.84-.29,1.44.18,2.17,1.06,1.66,2.06,3.36,3.06,5.06.93,1.58.83,2.33-.48,3.66-1.77,1.79-3.54,3.57-5.33,5.34-1.41,1.4-2.16,1.47-3.92.42-1.69-1.01-3.37-2.05-5.08-3.03-.34-.2-.86-.39-1.19-.27-1.39.5-2.76,1.07-4.07,1.73-.35.18-.59.74-.7,1.18-.57,2.14-1.01,4.32-1.66,6.44-.32,1.02-1,1.94-1.52,2.9h-10.67c-.52-.96-1.15-1.89-1.52-2.9-.44-1.2-.77-2.46-.92-3.73-.31-2.62-1.34-4.53-4.17-5.02-.28-.05-.53-.34-.8-.36-.53-.03-1.17-.12-1.6.11-1.82.99-3.57,2.09-5.35,3.16-1.23.74-2.32.62-3.34-.41-1.87-1.89-3.75-3.79-5.66-5.65-1.14-1.11-1.22-2.26-.39-3.58,1.02-1.63,1.95-3.32,2.99-4.93.49-.76.51-1.37.07-2.15-.48-.86-.7-1.85-1.19-2.7-.3-.52-.84-1.08-1.38-1.24-2.12-.63-4.32-1.03-6.44-1.68-1.03-.32-1.94-1-2.9-1.52,0-3.56,0-7.11,0-10.67.96-.52,1.88-1.15,2.9-1.52,1.2-.44,2.46-.79,3.72-.92,2.73-.28,4.56-1.5,5.06-4.31.11-.6.13-1.35-.14-1.85-1.11-2.03-2.33-4-3.53-5.98-.75-1.23-.63-2.32.39-3.34,1.92-1.91,3.84-3.83,5.75-5.75,1.01-1.02,2.1-1.15,3.33-.4,1.89,1.16,3.8,2.29,5.71,3.41.36.21.88.53,1.18.42,1.52-.56,3.02-1.2,4.47-1.92.3-.15.47-.7.58-1.1.56-2.14,1-4.32,1.65-6.44.32-1.03,1-1.94,1.52-2.9Z"/>
    <path class="cls-3" d="m38.87,151.93c2.5,0,5,0,7.5,0,.37.68.81,1.33,1.08,2.04.29.77.5,1.6.6,2.42.23,1.94.97,3.4,3.08,3.78.03,0,.06.03.09.04.58.38,1.09.36,1.71-.05,1.21-.81,2.5-1.5,3.74-2.26.83-.51,1.58-.41,2.26.27,1.38,1.38,2.75,2.75,4.13,4.13.68.69.76,1.44.24,2.26-.51.83-.92,1.73-1.52,2.49-1.02,1.3-1.35,2.57-.31,4,.14.19.13.5.28.67.29.33.6.76.98.88,1.5.45,3.04.73,4.53,1.19.72.22,1.36.7,2.04,1.07v7.5c-.68.36-1.33.8-2.04,1.07-.74.28-1.53.5-2.31.58-2.09.2-3.5,1.09-4.01,3.27-.14.59-.2,1.01.13,1.53.75,1.17,1.45,2.36,2.15,3.56.65,1.11.58,1.64-.34,2.58-1.24,1.26-2.49,2.51-3.75,3.75-.99.98-1.52,1.04-2.76.3-1.19-.71-2.37-1.44-3.57-2.13-.24-.14-.61-.28-.84-.19-.97.35-1.94.75-2.86,1.22-.24.12-.41.52-.49.83-.4,1.51-.71,3.04-1.17,4.53-.22.72-.7,1.36-1.07,2.04h-7.5c-.36-.68-.81-1.33-1.07-2.04-.31-.84-.54-1.73-.65-2.62-.22-1.84-.94-3.19-2.94-3.53-.2-.03-.37-.24-.56-.25-.38-.02-.82-.09-1.12.08-1.28.7-2.51,1.47-3.76,2.22-.86.52-1.63.44-2.35-.29-1.32-1.33-2.64-2.66-3.98-3.97-.8-.78-.86-1.59-.27-2.52.72-1.14,1.37-2.34,2.11-3.47.35-.53.36-.96.05-1.52-.33-.6-.49-1.3-.84-1.9-.21-.36-.59-.76-.97-.87-1.49-.44-3.04-.73-4.53-1.19-.72-.22-1.36-.7-2.04-1.07,0-2.5,0-5,0-7.5.68-.36,1.32-.81,2.04-1.07.84-.31,1.73-.56,2.62-.65,1.92-.2,3.21-1.06,3.56-3.03.07-.42.09-.95-.1-1.3-.78-1.43-1.64-2.81-2.49-4.21-.53-.87-.44-1.63.27-2.35,1.35-1.34,2.7-2.69,4.05-4.05.71-.72,1.48-.81,2.34-.28,1.33.81,2.67,1.61,4.02,2.4.26.15.62.38.83.3,1.07-.39,2.12-.85,3.15-1.35.21-.1.33-.5.41-.78.4-1.51.71-3.04,1.16-4.53.22-.72.7-1.36,1.07-2.04Zm3.78,15.75c-6.03-.02-10.93,4.85-10.96,10.9-.02,6.03,4.85,10.93,10.9,10.96,6.03.02,10.93-4.85,10.96-10.9.02-6.03-4.85-10.93-10.9-10.96Z"/>
    <path class="cls-3" d="m183.78,61.96c2.5,0,5,0,7.5,0,.37.68.81,1.33,1.08,2.04.29.77.5,1.6.6,2.42.23,1.94.97,3.4,3.08,3.78.03,0,.06.03.09.04.58.38,1.09.36,1.71-.05,1.21-.81,2.5-1.5,3.74-2.26.83-.51,1.58-.41,2.26.27,1.38,1.38,2.75,2.75,4.13,4.13.68.69.76,1.44.24,2.26-.51.83-.92,1.73-1.52,2.49-1.02,1.3-1.35,2.57-.31,4,.14.19.13.5.28.67.29.33.6.76.98.88,1.5.45,3.04.73,4.53,1.19.72.22,1.36.7,2.04,1.07v7.5c-.68.36-1.33.8-2.04,1.07-.74.28-1.53.5-2.31.58-2.09.2-3.5,1.09-4.01,3.27-.14.59-.2,1.01.13,1.53.75,1.17,1.45,2.36,2.15,3.56.65,1.11.58,1.64-.34,2.58-1.24,1.26-2.49,2.51-3.75,3.75-.99.98-1.52,1.04-2.76.3-1.19-.71-2.37-1.44-3.57-2.13-.24-.14-.61-.28-.84-.19-.97.35-1.94.75-2.86,1.22-.24.12-.41.52-.49.83-.4,1.51-.71,3.04-1.17,4.53-.22.72-.7,1.36-1.07,2.04h-7.5c-.36-.68-.81-1.33-1.07-2.04-.31-.84-.54-1.73-.65-2.62-.22-1.84-.94-3.19-2.94-3.53-.2-.03-.37-.24-.56-.25-.38-.02-.82-.09-1.12.08-1.28.7-2.51,1.47-3.76,2.22-.86.52-1.63.44-2.35-.29-1.32-1.33-2.64-2.66-3.98-3.97-.8-.78-.86-1.59-.27-2.52.72-1.14,1.37-2.34,2.11-3.47.35-.53.36-.96.05-1.52-.33-.6-.49-1.3-.84-1.9-.21-.36-.59-.76-.97-.87-1.49-.44-3.04-.73-4.53-1.19-.72-.22-1.36-.7-2.04-1.07,0-2.5,0-5,0-7.5.68-.36,1.32-.81,2.04-1.07.84-.31,1.73-.56,2.62-.65,1.92-.2,3.21-1.06,3.56-3.03.07-.42.09-.95-.1-1.3-.78-1.43-1.64-2.81-2.49-4.21-.53-.87-.44-1.63.27-2.35,1.35-1.34,2.7-2.69,4.05-4.05.71-.72,1.48-.81,2.34-.28,1.33.81,2.67,1.61,4.02,2.4.26.15.62.38.83.3,1.07-.39,2.12-.85,3.15-1.35.21-.1.33-.5.41-.78.4-1.51.71-3.04,1.16-4.53.22-.72.7-1.36,1.07-2.04Zm3.78,15.75c-6.03-.02-10.93,4.85-10.96,10.9-.02,6.03,4.85,10.93,10.9,10.96,6.03.02,10.93-4.85,10.96-10.9.02-6.03-4.85-10.93-10.9-10.96Z"/>
    <path class="cls-1" d="m210.46,135.72c2.5,0,5,0,7.5,0,.37.68.81,1.33,1.08,2.04.29.77.5,1.6.6,2.42.23,1.94.97,3.4,3.08,3.78.03,0,.06.03.09.04.58.38,1.09.36,1.71-.05,1.21-.81,2.5-1.5,3.74-2.26.83-.51,1.58-.41,2.26.27,1.38,1.38,2.75,2.75,4.13,4.13.68.69.76,1.44.24,2.26-.51.83-.92,1.73-1.52,2.49-1.02,1.3-1.35,2.57-.31,4,.14.19.13.5.28.67.29.33.6.76.98.88,1.5.45,3.04.73,4.53,1.19.72.22,1.36.7,2.04,1.07v7.5c-.68.36-1.33.8-2.04,1.07-.74.28-1.53.5-2.31.58-2.09.2-3.5,1.09-4.01,3.27-.14.59-.2,1.01.13,1.53.75,1.17,1.45,2.36,2.15,3.56.65,1.11.58,1.64-.34,2.58-1.24,1.26-2.49,2.51-3.75,3.75-.99.98-1.52,1.04-2.76.3-1.19-.71-2.37-1.44-3.57-2.13-.24-.14-.61-.28-.84-.19-.97.35-1.94.75-2.86,1.22-.24.12-.41.52-.49.83-.4,1.51-.71,3.04-1.17,4.53-.22.72-.7,1.36-1.07,2.04h-7.5c-.36-.68-.81-1.33-1.07-2.04-.31-.84-.54-1.73-.65-2.62-.22-1.84-.94-3.19-2.94-3.53-.2-.03-.37-.24-.56-.25-.38-.02-.82-.09-1.12.08-1.28.7-2.51,1.47-3.76,2.22-.86.52-1.63.44-2.35-.29-1.32-1.33-2.64-2.66-3.98-3.97-.8-.78-.86-1.59-.27-2.52.72-1.14,1.37-2.34,2.11-3.47.35-.53.36-.96.05-1.52-.33-.6-.49-1.3-.84-1.9-.21-.36-.59-.76-.97-.87-1.49-.44-3.04-.73-4.53-1.19-.72-.22-1.36-.7-2.04-1.07,0-2.5,0-5,0-7.5.68-.36,1.32-.81,2.04-1.07.84-.31,1.73-.56,2.62-.65,1.92-.2,3.21-1.06,3.56-3.03.07-.42.09-.95-.1-1.3-.78-1.43-1.64-2.81-2.49-4.21-.53-.87-.44-1.63.27-2.35,1.35-1.34,2.7-2.69,4.05-4.05.71-.72,1.48-.81,2.34-.28,1.33.81,2.67,1.61,4.02,2.4.26.15.62.38.83.3,1.07-.39,2.12-.85,3.15-1.35.21-.1.33-.5.41-.78.4-1.51.71-3.04,1.16-4.53.22-.72.7-1.36,1.07-2.04Zm3.78,15.75c-6.03-.02-10.93,4.85-10.96,10.9-.02,6.03,4.85,10.93,10.9,10.96,6.03.02,10.93-4.85,10.96-10.9.02-6.03-4.85-10.93-10.9-10.96Z"/>
    <path class="cls-8" d="m133.02,50.45c1.64,0,3.29,0,4.93,0,.24.45.53.87.71,1.34.19.51.33,1.05.39,1.59.15,1.27.63,2.24,2.02,2.48.02,0,.04.02.06.03.38.25.72.23,1.12-.03.8-.53,1.64-.99,2.46-1.49.55-.33,1.04-.27,1.49.18.9.9,1.81,1.81,2.71,2.71.45.45.5.94.16,1.49-.34.54-.61,1.14-1,1.63-.67.85-.89,1.69-.21,2.63.09.12.08.33.18.44.19.22.39.5.64.58.98.29,2,.48,2.98.78.47.15.9.46,1.34.7v4.93c-.44.24-.87.53-1.34.7-.49.19-1,.33-1.52.38-1.37.13-2.3.72-2.63,2.15-.09.39-.13.66.08,1,.49.77.95,1.55,1.41,2.34.43.73.38,1.08-.22,1.69-.82.83-1.64,1.65-2.46,2.47-.65.65-1,.68-1.81.2-.78-.47-1.56-.95-2.35-1.4-.16-.09-.4-.18-.55-.13-.64.23-1.27.49-1.88.8-.16.08-.27.34-.32.54-.26.99-.47,2-.77,2.97-.15.47-.46.89-.7,1.34h-4.93c-.24-.45-.53-.87-.7-1.34-.2-.55-.36-1.14-.43-1.72-.14-1.21-.62-2.1-1.93-2.32-.13-.02-.24-.16-.37-.16-.25-.02-.54-.06-.74.05-.84.46-1.65.97-2.47,1.46-.57.34-1.07.29-1.54-.19-.87-.88-1.73-1.75-2.61-2.61-.53-.51-.56-1.04-.18-1.65.47-.75.9-1.53,1.38-2.28.23-.35.24-.63.03-1-.22-.4-.32-.86-.55-1.25-.14-.24-.39-.5-.64-.57-.98-.29-2-.48-2.97-.78-.47-.15-.9-.46-1.34-.7,0-1.64,0-3.29,0-4.93.44-.24.87-.53,1.34-.7.55-.2,1.14-.37,1.72-.43,1.26-.13,2.11-.7,2.34-1.99.05-.28.06-.62-.06-.86-.51-.94-1.08-1.85-1.63-2.76-.35-.57-.29-1.07.18-1.54.89-.88,1.77-1.77,2.66-2.66.47-.47.97-.53,1.54-.18.87.53,1.75,1.06,2.64,1.58.17.1.41.25.55.2.7-.26,1.39-.56,2.07-.89.14-.07.22-.33.27-.51.26-.99.46-2,.76-2.98.15-.47.46-.89.7-1.34Zm2.48,10.35c-3.96-.02-7.18,3.19-7.2,7.16-.02,3.96,3.19,7.18,7.16,7.2,3.96.02,7.18-3.19,7.2-7.16.02-3.96-3.19-7.18-7.16-7.2Z"/>
    <circle class="cls-10" cx="59.63" cy="94.13" r="48.13"/>
    <circle class="cls-10" cx="132.34" cy="157.43" r="48.13"/>
    <circle class="cls-10" cx="213.95" cy="162.13" r="35.05"/>
    <text class="cls-9" transform="translate(39.71 100)"><tspan x="0" y="0">C R M</tspan></text>
    <g>
      <path class="cls-6" d="m134.57,170.41c.58-.77,1.11-1.49,1.65-2.21.07-.1.16-.18.24-.27,3.81,1.82,6.74,1.41,8.83-1.2,1.86-2.32,1.86-5.63,0-7.95-1.15-1.43-2.66-2.21-4.49-2.38-1.85-.17-3.4.58-4.94,1.58-.95-1.39-1.89-2.73-2.79-4.1-.31-.47-.63-.71-1.23-.77-1.75-.18-2.93-1.9-2.64-3.69.29-1.73,2.02-2.89,3.78-2.55,1.73.34,2.9,2.11,2.43,3.84-.16.6.04.95.29,1.43.64,1.24,1.33,1.62,2.88,1.27,5.31-1.21,10.59,2.76,11.22,8.18.64,5.53-3.5,10.46-8.99,10.71-2.27.1-4.32-.51-6.24-1.89Z"/>
      <path class="cls-6" d="m126.12,157.35c-4.26-3.99-3.96-9.25-1.81-12.55,2.35-3.6,6.82-5.21,10.93-3.9,3.92,1.24,6.76,5.1,6.62,9.05h-3.08c-.85-4.06-2.67-5.98-5.98-6.3-2.66-.26-5.31,1.37-6.36,3.93-.73,1.78-.63,3.54.19,5.28.82,1.72,2.37,2.62,4,3.52-1.04,1.52-2.02,2.99-3.03,4.43-.24.35-.33.65-.2,1.09.51,1.77-.56,3.57-2.33,3.96-1.76.39-3.48-.7-3.83-2.45-.36-1.79.8-3.55,2.62-3.77.63-.08.97-.34,1.27-.83.3-.49.64-.95.98-1.46Z"/>
      <path class="cls-6" d="m117.57,156.09c.73.77,1.43,1.51,2.14,2.25-2.03,2.74-2.29,5.38-.73,7.83,1.41,2.21,4.02,3.41,6.58,2.81,4.06-.95,5.4-3.86,5.16-7.78.32-.02.56-.04.81-.04,1.39,0,2.79-.02,4.18,0,.99.02,1.83-.04,2.65-.88,1.2-1.23,3.28-.91,4.39.42,1.1,1.33.95,3.3-.35,4.44-1.31,1.14-3.29,1.06-4.43-.26-.37-.43-.73-.57-1.27-.55-.94.03-1.89,0-2.82,0-1.37,4.97-4.45,7.87-9.7,7.93-3.9.05-7.37-2.48-8.75-6.12-1.33-3.5-.46-7.69,2.14-10.08Z"/>
    </g>
    <g>
      <path class="cls-5" d="m163.47,213.46c.31-.57.8-.85,1.42-1,1.31-.33,2.6-.74,3.92-1.06.5-.12.7-.37.79-.85.19-1.04.43-2.07.65-3.14,1.76.37,3.49.66,5.17,1.11,1.44.39,2.82.44,4.21-.14.32-.13.67-.2,1-.28.77-.18,1.47.14,1.6.91.15.87.64,1.1,1.42,1.24,1.81.32,3.6.75,5.45,1.14-.25,1.21-.5,2.4-.75,3.58-.12.59-.25,1.19-.38,1.78-.19.83-.79,1.22-1.63,1.06-.54-.1-1.08-.23-1.72-.36.15.54.28,1.01.4,1.48.28,1.04-.05,1.64-1.08,1.92-5.23,1.45-10.46,2.91-15.69,4.36-1.11.31-1.67-.02-1.98-1.12-.87-3.13-1.73-6.25-2.6-9.38-.05-.18-.13-.36-.19-.53,0-.24,0-.49,0-.73Zm18.94.07c-5.59,1.55-11.13,3.09-16.69,4.64.55,1.98,1.08,3.88,1.6,5.79.1.35.3.35.59.26,5.23-1.46,10.46-2.91,15.7-4.35.43-.12.5-.3.38-.71-.43-1.47-.83-2.94-1.24-4.41-.11-.4-.22-.79-.34-1.22Zm-17.32,2.37c5.58-1.55,11.12-3.09,16.69-4.63-.15-.57-.33-1.08-.43-1.6-.1-.54-.35-.59-.84-.46-3.35.95-6.72,1.87-10.08,2.81-1.82.51-3.64,1.02-5.46,1.52-.3.08-.52.16-.39.56.19.57.33,1.16.51,1.8Zm22.34-2.82c.07-.54-.12-.75-.47-.83-.56-.12-1.11-.24-1.67-.36-.4-.08-.68.06-.77.48-.12.57-.25,1.15-.36,1.73-.07.37.08.61.44.7.59.14,1.18.26,1.77.38.36.07.62-.08.7-.44.14-.61.26-1.22.36-1.67Z"/>
      <path class="cls-5" d="m190.15,206.79c-.12.57-.24,1.14-.37,1.78-6.26-1.32-12.51-2.65-18.82-3.98.12-.73.2-1.44.36-2.12.17-.68.84-1,1.63-.84,2.79.59,5.57,1.18,8.35,1.77,2.48.52,4.95,1.07,7.44,1.57.64.13,1.13.4,1.42,1v.83Z"/>
      <path class="cls-5" d="m168.36,223.03c-.14-.14-.39-.28-.46-.48-.21-.59-.35-1.2-.51-1.8-.09-.34.04-.59.37-.7.61-.19,1.23-.36,1.85-.52.34-.09.58.07.68.4.18.6.37,1.19.48,1.81.04.2-.11.57-.26.63-.66.25-1.35.42-2.15.65Z"/>
    </g>
  </g>
</svg>