<?xml version="1.0" encoding="UTF-8"?>
<svg id="Layer_1" data-name="Layer 1" xmlns="http://www.w3.org/2000/svg" xmlns:xlink="http://www.w3.org/1999/xlink" viewBox="0 0 800 600">
  <defs>
    <style>
      .cls-1 {
        fill: #fd715b;
      }

      .cls-1, .cls-2, .cls-3, .cls-4, .cls-5, .cls-6, .cls-7, .cls-8, .cls-9, .cls-10, .cls-11, .cls-12, .cls-13, .cls-14, .cls-15, .cls-16, .cls-17, .cls-18, .cls-19, .cls-20, .cls-21, .cls-22, .cls-23, .cls-24, .cls-25, .cls-26, .cls-27, .cls-28, .cls-29, .cls-30, .cls-31, .cls-32, .cls-33, .cls-34, .cls-35, .cls-36, .cls-37, .cls-38, .cls-39, .cls-40, .cls-41, .cls-42, .cls-43, .cls-44, .cls-45, .cls-46, .cls-47, .cls-48, .cls-49, .cls-50, .cls-51, .cls-52, .cls-53, .cls-54, .cls-55, .cls-56, .cls-57, .cls-58, .cls-59, .cls-60, .cls-61, .cls-62, .cls-63, .cls-64, .cls-65, .cls-66, .cls-67, .cls-68, .cls-69, .cls-70, .cls-71, .cls-72, .cls-73, .cls-74, .cls-75, .cls-76, .cls-77, .cls-78, .cls-79, .cls-80, .cls-81, .cls-82, .cls-83, .cls-84, .cls-85, .cls-86, .cls-87, .cls-88, .cls-89, .cls-90, .cls-91, .cls-92, .cls-93, .cls-94, .cls-95, .cls-96, .cls-97, .cls-98, .cls-99, .cls-100, .cls-101, .cls-102, .cls-103, .cls-104, .cls-105, .cls-106, .cls-107, .cls-108, .cls-109, .cls-110, .cls-111, .cls-112, .cls-113, .cls-114, .cls-115, .cls-116, .cls-117, .cls-118, .cls-119, .cls-120, .cls-121, .cls-122, .cls-123, .cls-124, .cls-125, .cls-126, .cls-127, .cls-128, .cls-129 {
        stroke-width: 0px;
      }

      .cls-2 {
        fill: #999;
      }

      .cls-3 {
        fill: #a3a3a3;
      }

      .cls-4 {
        fill: #1e2c32;
      }

      .cls-5 {
        fill: #908f90;
      }

      .cls-6 {
        fill: #9d9b9e;
      }

      .cls-7 {
        fill: #43484a;
      }

      .cls-8 {
        fill: #9c9b9a;
      }

      .cls-9 {
        fill: url(#New_Gradient_Swatch_copy-3);
      }

      .cls-10 {
        fill: #606060;
      }

      .cls-11 {
        fill: #b2b2b2;
      }

      .cls-12 {
        fill: url(#New_Gradient_Swatch-2);
      }

      .cls-13 {
        fill: #676769;
      }

      .cls-14 {
        fill: #875149;
      }

      .cls-15 {
        fill: #5d4445;
      }

      .cls-16 {
        fill: #9c9b9c;
      }

      .cls-17 {
        fill: #9b9c9d;
      }

      .cls-18 {
        fill: url(#New_Gradient_Swatch_copy);
      }

      .cls-19 {
        fill: #1c1d20;
      }

      .cls-20 {
        fill: #a1a5a7;
      }

      .cls-21 {
        fill: #dfdedc;
      }

      .cls-22 {
        fill: #cb4f40;
      }

      .cls-23 {
        fill: #949494;
      }

      .cls-24 {
        fill: #78423d;
      }

      .cls-25 {
        fill: #060809;
      }

      .cls-26 {
        fill: #cb4e3f;
      }

      .cls-27 {
        fill: url(#New_Gradient_Swatch_copy-5);
      }

      .cls-28 {
        fill: #e1dfe2;
      }

      .cls-29 {
        fill: url(#New_Gradient_Swatch-13);
      }

      .cls-30 {
        fill: #727272;
      }

      .cls-31 {
        fill: #262727;
      }

      .cls-32 {
        fill: #7e6b6b;
      }

      .cls-33 {
        fill: #5b5a5b;
      }

      .cls-35 {
        fill: #6d6a6a;
      }

      .cls-36 {
        fill: #a19ea0;
      }

      .cls-130 {
        fill: #fff;
      }

      .cls-130, .cls-131, .cls-132, .cls-133 {
        stroke-miterlimit: 10;
        stroke-width: 4px;
      }

      .cls-130, .cls-132, .cls-133 {
        stroke: #b3b3b3;
      }

      .cls-37 {
        fill: #e0e0e0;
      }

      .cls-38 {
        fill: #9c9c9c;
      }

      .cls-39 {
        fill: #1c2c30;
      }

      .cls-40 {
        fill: #fb715c;
      }

      .cls-41 {
        fill: #ded6d0;
      }

      .cls-42 {
        fill: #b2b2b4;
      }

      .cls-43 {
        fill: #232b2e;
      }

      .cls-44 {
        fill: #dfdfdf;
      }

      .cls-45 {
        fill: #ce4f3d;
      }

      .cls-46 {
        fill: #9b9c9e;
      }

      .cls-47 {
        fill: url(#New_Gradient_Swatch-14);
      }

      .cls-48 {
        fill: #9b9b9c;
      }

      .cls-49 {
        fill: #9b9c9c;
      }

      .cls-50 {
        fill: #605f5f;
      }

      .cls-51 {
        fill: #1a2e35;
      }

      .cls-52 {
        fill: #243c45;
      }

      .cls-53 {
        fill: #646365;
      }

      .cls-54 {
        fill: #858686;
      }

      .cls-55 {
        fill: #6e6c6b;
      }

      .cls-56 {
        fill: #67696c;
      }

      .cls-57 {
        fill: url(#New_Gradient_Swatch-4);
      }

      .cls-131 {
        stroke: #999;
      }

      .cls-131, .cls-132, .cls-133 {
        fill: none;
      }

      .cls-58 {
        fill: url(#New_Gradient_Swatch-8);
      }

      .cls-59 {
        fill: #0c0c0c;
      }

      .cls-60 {
        fill: #88574e;
      }

      .cls-61 {
        fill: #f8725c;
      }

      .cls-62 {
        fill: #203d45;
      }

      .cls-63 {
        fill: #9f9f9f;
      }

      .cls-64 {
        fill: #9d9d9d;
      }

      .cls-65 {
        fill: url(#New_Gradient_Swatch_copy-2);
      }

      .cls-66 {
        fill: url(#New_Gradient_Swatch-7);
      }

      .cls-67 {
        fill: #b0b0b0;
      }

      .cls-68 {
        fill: url(#New_Gradient_Swatch_copy-4);
      }

      .cls-69 {
        fill: #8b3221;
      }

      .cls-70 {
        fill: #b45443;
      }

      .cls-71 {
        fill: #1e2524;
      }

      .cls-72 {
        fill: #5a5a5c;
      }

      .cls-73 {
        fill: #cc4d3e;
      }

      .cls-74 {
        fill: url(#New_Gradient_Swatch_copy-6);
      }

      .cls-75 {
        fill: url(#New_Gradient_Swatch_copy-7);
      }

      .cls-76 {
        fill: url(#New_Gradient_Swatch-15);
      }

      .cls-77 {
        fill: #1c2d33;
      }

      .cls-78 {
        fill: #5c5c5c;
      }

      .cls-79 {
        fill: #223d42;
      }

      .cls-80 {
        fill: #cb4e3d;
      }

      .cls-81 {
        fill: url(#New_Gradient_Swatch_copy-8);
      }

      .cls-82 {
        fill: url(#New_Gradient_Swatch-11);
      }

      .cls-83 {
        fill: #a6a7a8;
      }

      .cls-84 {
        fill: #a8a6a7;
      }

      .cls-85 {
        fill: #bdbbbc;
      }

      .cls-86 {
        fill: #4f4f4f;
      }

      .cls-87 {
        fill: url(#New_Gradient_Swatch-6);
      }

      .cls-88 {
        fill: #a6a6a6;
      }

      .cls-89 {
        fill: #a37b71;
      }

      .cls-90 {
        fill: url(#New_Gradient_Swatch);
      }

      .cls-91 {
        fill: #243c44;
      }

      .cls-92 {
        fill: #37393b;
      }

      .cls-93 {
        fill: #8a898c;
      }

      .cls-94 {
        fill: #5d3d39;
      }

      .cls-95 {
        fill: #838383;
      }

      .cls-96 {
        fill: #c07460;
      }

      .cls-97 {
        fill: #302b28;
      }

      .cls-134 {
        font-family: Arial-BoldMT, Arial;
        font-size: 24px;
        font-weight: 700;
      }

      .cls-98 {
        fill: #7b5042;
      }

      .cls-99 {
        fill: #cd4d3c;
      }

      .cls-100 {
        fill: #212d30;
      }

      .cls-135 {
        letter-spacing: -.02em;
      }

      .cls-101 {
        fill: #3e3e3e;
      }

      .cls-102 {
        fill: #c5d0d6;
      }

      .cls-103 {
        fill: #c44e42;
      }

      .cls-133 {
        stroke-dasharray: 0 0 4.02 4.02;
      }

      .cls-104 {
        fill: #c9c7c8;
      }

      .cls-105 {
        fill: url(#New_Gradient_Swatch-10);
      }

      .cls-106 {
        fill: #ca4f3e;
      }

      .cls-107 {
        fill: #894333;
      }

      .cls-108 {
        fill: #212121;
      }

      .cls-109 {
        fill: #272d2e;
      }

      .cls-110 {
        fill: #555455;
      }

      .cls-111 {
        fill: url(#New_Gradient_Swatch-5);
      }

      .cls-112 {
        fill: url(#New_Gradient_Swatch-3);
      }

      .cls-113 {
        fill: #cb4e3e;
      }

      .cls-114 {
        fill: #1f2d31;
      }

      .cls-115 {
        fill: url(#New_Gradient_Swatch-12);
      }

      .cls-136 {
        font-family: ArialMT, Arial;
        font-size: 16px;
      }

      .cls-137 {
        letter-spacing: -.06em;
      }

      .cls-116 {
        fill: #af6a5e;
      }

      .cls-117 {
        fill: #adaeae;
      }

      .cls-118 {
        fill: #e0dfe0;
      }

      .cls-119 {
        fill: #555;
      }

      .cls-120 {
        fill: #959595;
      }

      .cls-121 {
        fill: #7c4135;
      }

      .cls-122 {
        fill: #ca4f3f;
      }

      .cls-123 {
        fill: url(#New_Gradient_Swatch-9);
      }

      .cls-124 {
        fill: #9a9a9b;
      }

      .cls-125 {
        fill: #1a2525;
      }

      .cls-126 {
        fill: #1c2e2e;
      }

      .cls-127 {
        fill: #929292;
      }

      .cls-128 {
        fill: #111;
      }

      .cls-129 {
        fill: #adadad;
      }
    </style>
    <linearGradient id="New_Gradient_Swatch" data-name="New Gradient Swatch" x1="538" y1="146.5" x2="657" y2="146.5" gradientUnits="userSpaceOnUse">
      <stop offset="0" stop-color="#58d3cc"/>
      <stop offset="1" stop-color="#4ab6ff"/>
    </linearGradient>
    <linearGradient id="New_Gradient_Swatch-2" data-name="New Gradient Swatch" x1="659" y1="350.5" x2="778" y2="350.5" xlink:href="#New_Gradient_Swatch"/>
    <linearGradient id="New_Gradient_Swatch-3" data-name="New Gradient Swatch" x1="313" y1="84.5" x2="432" y2="84.5" xlink:href="#New_Gradient_Swatch"/>
    <linearGradient id="New_Gradient_Swatch-4" data-name="New Gradient Swatch" x1="100" y1="196.5" x2="219" y2="196.5" xlink:href="#New_Gradient_Swatch"/>
    <linearGradient id="New_Gradient_Swatch-5" data-name="New Gradient Swatch" x1="62" y1="393.5" x2="181" y2="393.5" xlink:href="#New_Gradient_Swatch"/>
    <linearGradient id="New_Gradient_Swatch_copy" data-name="New Gradient Swatch copy" x1="418.53" y1="387.94" x2="477.37" y2="387.94" gradientUnits="userSpaceOnUse">
      <stop offset="0" stop-color="#4087e3"/>
      <stop offset="1" stop-color="#8e41f9"/>
    </linearGradient>
    <linearGradient id="New_Gradient_Swatch-6" data-name="New Gradient Swatch" x1="340.75" y1="351.8" x2="385.37" y2="351.8" xlink:href="#New_Gradient_Swatch"/>
    <linearGradient id="New_Gradient_Swatch_copy-2" data-name="New Gradient Swatch copy" x1="378.52" y1="388.3" x2="442.37" y2="388.3" xlink:href="#New_Gradient_Swatch_copy"/>
    <linearGradient id="New_Gradient_Swatch_copy-3" data-name="New Gradient Swatch copy" x1="336.13" y1="400.37" x2="375.84" y2="400.37" xlink:href="#New_Gradient_Swatch_copy"/>
    <linearGradient id="New_Gradient_Swatch-7" data-name="New Gradient Swatch" x1="440.04" y1="382.59" x2="456.78" y2="382.59" xlink:href="#New_Gradient_Swatch"/>
    <linearGradient id="New_Gradient_Swatch_copy-4" data-name="New Gradient Swatch copy" x1="375.43" y1="446.73" x2="414.73" y2="446.73" xlink:href="#New_Gradient_Swatch_copy"/>
    <linearGradient id="New_Gradient_Swatch-8" data-name="New Gradient Swatch" x1="461.57" y1="435.97" x2="490.61" y2="435.97" xlink:href="#New_Gradient_Swatch"/>
    <linearGradient id="New_Gradient_Swatch_copy-5" data-name="New Gradient Swatch copy" x1="392.84" y1="335.47" x2="413.14" y2="335.47" xlink:href="#New_Gradient_Swatch_copy"/>
    <linearGradient id="New_Gradient_Swatch-9" data-name="New Gradient Swatch" x1="464.65" y1="404.86" x2="479.55" y2="404.86" xlink:href="#New_Gradient_Swatch"/>
    <linearGradient id="New_Gradient_Swatch_copy-6" data-name="New Gradient Swatch copy" x1="420.17" y1="345.79" x2="457.9" y2="345.79" xlink:href="#New_Gradient_Swatch_copy"/>
    <linearGradient id="New_Gradient_Swatch-10" data-name="New Gradient Swatch" x1="456.49" y1="382.46" x2="471.22" y2="382.46" xlink:href="#New_Gradient_Swatch"/>
    <linearGradient id="New_Gradient_Swatch_copy-7" data-name="New Gradient Swatch copy" x1="362.71" y1="447.48" x2="378.34" y2="447.48" xlink:href="#New_Gradient_Swatch_copy"/>
    <linearGradient id="New_Gradient_Swatch-11" data-name="New Gradient Swatch" x1="441.32" y1="379.76" x2="448.02" y2="379.76" xlink:href="#New_Gradient_Swatch"/>
    <linearGradient id="New_Gradient_Swatch-12" data-name="New Gradient Swatch" x1="373.87" y1="419.49" x2="461.21" y2="419.49" xlink:href="#New_Gradient_Swatch"/>
    <linearGradient id="New_Gradient_Swatch-13" data-name="New Gradient Swatch" x1="422.04" y1="385.34" x2="436.16" y2="385.34" xlink:href="#New_Gradient_Swatch"/>
    <linearGradient id="New_Gradient_Swatch-14" data-name="New Gradient Swatch" x1="342.67" y1="420.13" x2="381" y2="420.13" xlink:href="#New_Gradient_Swatch"/>
    <linearGradient id="New_Gradient_Swatch_copy-8" data-name="New Gradient Swatch copy" x1="399.08" y1="452.72" x2="442.4" y2="452.72" xlink:href="#New_Gradient_Swatch_copy"/>
    <linearGradient id="New_Gradient_Swatch-15" data-name="New Gradient Swatch" x1="357.92" y1="382.88" x2="372.92" y2="382.88" xlink:href="#New_Gradient_Swatch"/>
  </defs>
  <circle class="cls-90" cx="597.5" cy="146.5" r="59.5"/>
  <circle class="cls-12" cx="718.5" cy="350.5" r="59.5"/>
  <circle class="cls-112" cx="372.5" cy="84.5" r="59.5"/>
  <circle class="cls-57" cx="159.5" cy="196.5" r="59.5"/>
  <circle class="cls-111" cx="121.5" cy="393.5" r="59.5"/>
  <g>
    <path class="cls-51" d="m412.96,346.24c-.28,1-.03,1.49,1.1,1.82,1.93.56,3.25,2.06,4.21,3.76,1.06,1.88,2.7,2.88,4.58,3.64.4.16.99.14,1.06.69.07.59-.44.92-.85,1.25-1.21.97-1.21.96-.15,2.15.46.52,1.21.98.82,1.81-.38.81-1.21.53-1.93.51.1.5.46.8.72,1.15.48.67-.01.64-.45.68-.64.65-1.37.49-2.19.2.61,1.37.28,2.81.59,4.18.15.67.23,1.18,1.1,1,.32-.07.68,0,.96.25.09.16.09.33,0,.49-1.45.15-1.81,1.04-1.6,2.33.03.18-.04.37-.11.54-.42.67-1.15.67-1.8.8-.94.18-1.54.59-1.81,1.59-.34,1.26-1.32,1.46-2.34.56-1.86-1.64-2.99-3.79-4.05-5.97-1.77-3.63-3.04-7.42-3.61-11.43-.08-.54-.33-.9-.79-1.16-.96-.54-1.97-1.06-3.05-1.19-1.8-.21-3.63-.26-5.43.04-2.08.34-3.58,1.54-4.54,3.41-.61,1.18-1.16,2.38-1.79,3.55-.52.97-.67.98-1.34.15-.52-.65-.96-.41-1.42.04-1.32,1.3-2.62,2.63-3.94,3.93-.34.33-.75.97-1.17.68-.56-.38,0-.95.22-1.39.34-.72.79-1.39.92-2.19.06-.4.19-.91-.28-1.11-.43-.19-.63.29-.89.55-2.31,2.37-3.96,5.14-5.09,8.24-.19.53-.46,1.04-.74,1.53-.23.41-.49.78-1.04.75-.77-.22-1.15-.79-1.35-1.51,0-.4-.23-.45-.59-.45-2.47-.06-2.94-.55-2.89-2.92-1.26-.1-2.65.23-3.62-.96-.91-1.02-.8-1.87.33-2.58.56-.35,1.19-.46,1.81-.62,2.04-.53,3.87-1.47,5.57-2.87-.66-.29-1.26-.49-1.8-.8-1.33-.75-2.18-1.86-2.28-3.43-.03-.4-.08-.87.35-1.13.44-.27.82,0,1.14.25,1.63,1.26,3.29,1.08,4.97.13.61-.34,1.07-.79,1.44-1.4.75-1.22,1.5-2.45,2.36-3.6,4.11-5.47,9.78-7.67,16.43-7.33,3.02.15,5.37,1.85,6.98,4.59.69-.97,1-2.01,1.36-3.02,1.54.64,3.01.18,4.48-.29.36-.11.69-.3,1.06-.39.46-.11.53.13.4.5Z"/>
    <path class="cls-18" d="m464.04,348.22c5.63,4.35,9.31,10.04,11.42,16.78,2.24,7.16,2.43,14.42,1,21.75-.08.41-.22.81-.11,1.23,0,1.8-.66,3.45-1.22,5.11-.63,1.85-1.31,3.7-2.44,5.32-2.29,3.95-4.98,7.61-8.8,10.2-2.33,1.58-4.73,3.1-7.25,4.4-1.61.83-3.25,1.6-4.85,2.44-5.9,3.01-11.81,6-17.73,8.97-2.06,1.03-4.18,1.96-6.2,3.08-.37.21-.77.31-1.2.28-2.34-.38-4.62-.96-6.88-1.65-.46-.14-.95-.27-1.25-.71-.03-.83.71-.9,1.2-1.15,8.11-4.06,16.21-8.12,24.32-12.18.88-.44,1.76-.87,2.63-1.32,4.02-2.01,8.15-3.83,11.78-6.54,3.45-2.57,6.55-5.48,8.74-9.24,1.01-1.74,1.75-3.6,2.17-5.57.62-1.75.97-3.56,1.2-5.4.11-.93.2-1.88.65-2.74.8-8.6-.87-16.57-6.08-23.61-2.1-2.84-4.77-5.05-7.78-6.88-.33-.2-.82-.26-.92-.77.4-.43.99-.2,1.45-.41.46-.07.91-.14,1.37-.21,1.37.13,2.52-.56,3.74-.99.33-.12.62-.48,1.03-.19Z"/>
    <path class="cls-87" d="m352.33,376.62c-3.23-3.47-6.08-7.22-8.11-11.54-3.49-7.43-4.74-15.14-1.9-23,2.64-7.29,7.56-12.61,15.36-14.4,6.42-1.47,12.79-.67,18.93,1.7,1.27.49,2.53,1,3.72,1.65.75.41,1.05.2,1.35-.46.25-.54.59-1.05.96-1.69.56,1.03.71,2.07,1.02,3.04.56,1.76,1.05,3.55,1.59,5.32.12.38.29.73-.28.88-2.84.76-5.67,1.52-8.64,2.32.15-.82.61-1.33.91-1.9.22-.42.24-.63-.24-.86-5.66-2.75-11.56-4.02-17.81-2.67-4.15.9-6.82,3.77-8.8,7.29-2.72,4.86-2.58,10.01-1.1,15.19,1.69,5.9,5.14,10.72,9.5,14.95-.02.35-.29.53-.54.66-1.78.91-3.36,2.1-4.98,3.26-.27.19-.56.39-.93.27Z"/>
    <path class="cls-65" d="m422.46,369.8c0-.15,0-.3,0-.45-.47-1.45.06-2.87.06-4.31,0-.64.38-.8.86-.93,3.7.2,7.04,1.53,10.18,3.37,3.69,2.16,6.48,5.12,7.76,9.32.88,1.04.85,2.34.99,3.57.12,1.07.05,2.16.01,3.24-.19,5.51-2.34,10.26-5.68,14.54-1.97,2.52-4.33,4.64-6.91,6.52-.27.18-.56.34-.81.55-1.33,1.06-2.79,1.93-4.29,2.7-1.16.6-2.04,1.37-2.6,2.53-.13.27-.31.51-.52.73-.49.23-.94.57-1.48.68-.15-.11-.19-.27-.16-.44.14-.56.66-.9.88-1.57-6.09,2.68-12.34,3.14-18.74,2.12-2.95-.76-5.78-1.86-8.5-3.23-.47-.19-.93-.42-1.42-.57-.96-.43-1.93-.84-2.89-1.26-1.84-.82-3.71-1.21-5.69-.64-1.71-.81-3.12-2.07-4.65-3.15-.24-.17-.36-.48-.32-.81.8-1.39,2.22-1.92,3.6-2.34,3.04-.92,6.04-.64,8.93.69,2.23,1,4.54,1.8,6.7,2.95,1.64.66,3.22,1.47,5.01,1.64.43-.03.82.11,1.21.24,4.6.97,9.04.24,13.38-1.33.57-.2,1.11-.46,1.68-.66,1.75-.72,3.32-1.75,4.92-2.74,4.74-3.13,8.73-6.92,10.83-12.36.29-.74.48-1.5.63-2.28.49-2.34.54-4.68-.05-7.01-.34-2.49-1.98-4.09-3.86-5.49-2.32-1.71-4.92-2.77-7.76-3.28-.48-.09-1-.06-1.3-.55Z"/>
    <path class="cls-9" d="m352.33,376.62c2.11-1.47,4.21-2.95,6.46-4.19,2.94-1.54,5.97-2.86,9.12-3.91.16-.05.3-.19.45-.29,1.31.65,2.67.88,4.17.45-.33,1.02-.62,1.96.29,2.73.93.79,1.93.47,2.95.18.23.35-.17.62-.12.95-.69.62-1.59.66-2.41.89-3.17.87-6.27,1.96-9.25,3.36-2.4,1.24-4.8,2.47-6.92,4.17-4.65,3.38-8.48,7.52-11.2,12.59-2.76,5.13-4.06,10.61-3.37,16.48.2,1.76.41,3.52.87,5.23.86,3.23,1.79,6.44,3.23,9.48.11.24.21.48.23.75-.03,1.13-.54,2.15-.73,3.25-.15.93-.27,1.87-.36,2.81-.03.37.08.89-.53.96-7.7-10.23-11.08-21.5-7.89-34.19,2.01-7.99,6.65-14.4,12.77-19.8.74-.65,1.49-1.27,2.24-1.91Z"/>
    <path class="cls-66" d="m447.91,375.44c.67-.07.96-.36.86-1.1-.34-2.51-.84-4.99-1.42-7.46-.16-.68-.55-.81-1.16-.66-.99.24-1.98.44-3.1.69.14-1,.62-1.77.95-2.57,1.11-2.65,2.26-5.28,3.37-7.93.19-.46.35-.67.77-.26,2.69,2.59,5.37,5.19,8.14,7.86-.28.13-.43.23-.59.27-1.8.47-1.82.48-1.39,2.2.65,2.57,1.21,5.16,1.3,7.81.03.92.7.7,1.14.93-.47.54-.61,1.16-.59,1.87.03,1.62.08,3.24-.23,4.84-.22,2.98-.89,5.88-1.55,8.79-1.41,6.24-4.13,11.96-7.02,17.61-.19.37-.35.76-.77.94-2.29-.47-4.52-1.12-6.52-2.4-.2-.53.12-.95.32-1.39,1.53-3.36,3.38-6.58,4.65-10.07,1.57-4.3,2.75-8.7,3.28-13.27.25-1.83.09-3.67.12-5.5,0-.5-.36-.81-.56-1.2Z"/>
    <path class="cls-68" d="m375.44,462.06c.11-3.56,1.2-6.82,2.92-9.9-.23-.45.16-.69.36-.99.65-.98,1.34-1.92,2.08-2.83,3.11-3.39,6.75-6.14,10.59-8.62,4.86-3.13,9.88-5.98,15.05-8.57.22-.09.44-.14.68-.1,2.49.95,5.09,1.62,7.6,2.52.13.64-.43.7-.79.89-2.03,1.09-4.09,2.12-6.12,3.21-6.48,3.43-12.91,6.93-18.58,11.63-3.51,2.92-6.39,6.32-7.36,10.97-.26.64-.08,1.39-.49,2-1.9.24-3.81.06-5.71.09-.17,0-.25-.14-.22-.31Z"/>
    <path class="cls-58" d="m481.49,423.13c2.35-1.1,4.72-2.19,7.06-3.33.77-.37.73.14.79.58.35,2.73.69,5.47,1.03,8.2.08.63.15,1.26.24,1.98-.83-.08-1.45-.53-2.06-.89-.68-.4-.94-.21-1.31.39-3.01,4.82-6.52,9.25-10.65,13.17-3.66,3.48-7.7,6.43-12.14,8.82-.19.1-.42.14-.63.21-.49-.42-.58-1.04-.75-1.61-.5-1.69-1.3-3.29-1.51-5.07.08-.61.56-.88,1.01-1.13,1.56-.84,3.01-1.86,4.42-2.93.48-.09.91.17,1.37.21,1.24.18,2.48.4,3.73.14,1.94-.2,3.78-.67,5.33-1.92.41-.35.76-.79,1.26-1.03.62-.23,1-.73,1.42-1.21,1.19-1.47,2.08-3.08,2.56-4.92.19-.75.12-1.48.14-2.22.07-1.31-.36-2.56-.45-3.85.07-.65-.16-1.23-.4-1.83-.22-.56-.76-1.06-.46-1.76Z"/>
    <path class="cls-27" d="m412.96,346.24c-.08-.16-.01-.37-.4-.18-1.35.65-2.8.95-4.31,1.06-.62.05-.97-.2-1.23-.69.7-6.65-2.53-11.99-8.72-14.54-.66-.27-1-.25-1.28.46-.33.83-.78,1.62-1.28,2.64-1-2.8-1.92-5.4-2.85-7.98-.11-.31-.03-.49.3-.59,2.61-.85,5.21-1.71,7.8-2.56.06.13.09.17.09.19-.2.75-1.11,1.46-.76,2.11.28.54,1.28.68,1.94,1.04,7,3.88,11.04,9.58,10.89,17.83,0,.41-.12.82-.18,1.22Z"/>
    <path class="cls-123" d="m477.73,390.93c1.65,4.27,2.09,8.7,1.68,13.23-.45,4.96-2.27,9.42-4.95,13.57-.09.1-.19.16-.32.19-2.3-.39-4.59-.57-6.88.12-.78.24-1.49.72-2.34.75-.65-.58.06-.86.32-1.14,1.61-1.71,3.06-3.54,4.22-5.58.37-.66.74-1.32,1.01-2.03,1.32-2.85,1.71-5.91,1.99-8.99.11-.37.31-.68.56-.96,2.18-2.41,3.7-5.17,4.32-8.39.06-.29.08-.61.39-.77Z"/>
    <path class="cls-74" d="m457.9,349.61c-.44.28-.95.34-1.45.41-3.93.1-7.52-.96-10.72-3.25-.29-.21-.61-.27-.95-.31-4.7-.5-9.27.09-13.73,1.65-.73.26-.8.58-.57,1.23.35.98.63,1.98,1,3.16-3.85-1.23-7.5-2.39-11.29-3.6,2.35-3.26,4.63-6.43,7.07-9.82.36,1.14.67,2.08.94,3.02.14.48.29.66.85.45,3.42-1.28,6.97-1.97,10.63-2.13.27-.01.55.04.52-.37.08-.08.15-.07.22.01,3.81,6.89,9.66,10.04,17.5,9.55Z"/>
    <path class="cls-105" d="m471.22,381.27c-.19,2.73-.73,5.4-1.41,8.04-.03.12-.21.2-.32.3-.51.08-.73-.32-.98-.63-2.87-3.57-6.68-5.51-11.1-6.39-.4-.08-.99.03-.91-.69.61-1.79.37-3.62.35-5.45,0-.4-.18-.82.18-1.17,4.98.52,9.42,2.35,13.36,5.42.27.21.56.38.84.57Z"/>
    <path class="cls-37" d="m359.07,452.08c-.39-.35-.05-.73.03-1.03.45-1.75.33-3.45-.25-5.14-.1-.9-.63-1.57-1.15-2.26h0c-.36-.54-.82-1-1.37-1.36h0c-2.69-2.18-5.64-2.33-8.78-1.18-.24.09-.44.48-.78.2-1.3-2.8-1.52-5.79-1.57-8.8.21-1.31.42-2.62.63-3.92.53-.08.72.35.94.68,2.05,3.01,4.4,5.75,7.2,8.09,4.06,3.38,8.58,5.74,13.94,6.24.44.04,1.03-.17,1.18.54-1.97,1.25-4.17,1.91-6.4,2.47-.08,0-.15,0-.23,0-.89.11-2-.05-2.62.43-.64.49.02,1.61-.1,2.47-.12.89-.19,1.79-.7,2.57Z"/>
    <path class="cls-75" d="m362.71,446.6c.75-.69,1.78-.69,2.65-1.08,1.2-.53,2.44-.98,3.66-1.46.34-.52.85-.68,1.44-.67,2.47.64,4.83,1.59,7.29,2.26.18.05.34.16.44.32.55,1.87-.56,3.42-1.02,5.09-.14.5-.68.38-1.05.5-4.68-1.09-9.11-2.85-13.42-4.96Z"/>
    <path class="cls-37" d="m421.05,315.28c2.77,0,5.01,1.62,5.59,4.01.67,2.77-1.22,5.84-4.02,6.38-.72.14-1.08.35-1.15,1.08-.05.48-.31.94-.34,1.42-.07.98-.38,1.31-1.44,1.02-1.5-.4-1.43-.29-1.19-1.77.2-1.27.55-2.5.76-3.76.12-.75.34-.94,1.11-.75,1.4.33,2.53-.19,3.1-1.25.58-1.08.3-2.44-.62-3.01-1.25-.78-2.65-.57-3.45.5-.23.31-.23.92-.79.82-.7-.12-1.39-.32-2.05-.58-.33-.13-.17-.51-.09-.81.57-2.05,2.32-3.33,4.58-3.32Z"/>
    <path class="cls-37" d="m337.69,366.17c2.38.01,4,1.07,4.43,3.22.53,2.63-.05,4.27-2.23,5.65-.71.45-.97.87-.69,1.64.09.24.09.52.1.78.05,1.31-.86,1.91-2.07,1.38-.27-.12-.39-.33-.42-.62-.15-1.46-.3-2.91-.45-4.37-.06-.62.35-.62.8-.66,1.68-.15,2.45-1.03,2.37-2.65-.04-.84-.88-1.78-1.66-1.88-1.03-.13-2.09.45-2.39,1.31-.36,1.03-1.34,1.5-2.38,1.17-.46-.15-.38-.5-.39-.82-.09-2.16,1.73-4.02,4.07-4.17.3-.02.6,0,.91,0Z"/>
    <path class="cls-77" d="m454.74,332.87c0-.3.02-.61,0-.91-.06-.96-.16-1.8,1.33-1.73,1.04.05,1.78-.99,1.81-1.98.02-.95-.61-1.79-1.53-1.99-1.06-.24-1.96.25-2.39,1.4-.44,1.17-1.36.47-2.02.51-.78.05-.34-.7-.29-1.04.27-1.9,1.61-3.07,3.65-3.26,2.08-.19,4.01.85,4.66,2.51.74,1.9.24,4.35-1.48,5.24-1.41.74-1.62,1.69-1.44,2.97.13.91-.35.97-1.05.92-.66-.04-1.44.2-1.26-.97.08-.56.01-1.13.02-1.7Z"/>
    <path class="cls-82" d="m442.08,383.91c0-2.39-.09-4.78-.76-7.1,1.96-.43,3.89-1.05,5.9-1.28.79,2.19.77,4.48.81,6.76-.06.3-.29.44-.55.5-1.62.35-3.22.76-4.83,1.17-.18.05-.37.02-.55-.05Z"/>
    <path class="cls-64" d="m444.46,437.49c-.56,8.19.35,16.35.29,24.53.1.16.11.32-.03.48-8.2,0-16.39.02-24.59.01-7.02,0-14.05-.02-21.07-.04-.09-.1-.16-.21-.21-.33-.06-.4-.13-.8.3-1.05.58.79,1.39.89,2.3.86,1.17-.04,2.34-.03,3.52,0,.14,0,.28,0,.42,0,4.62-.07,9.24-.06,13.86-.01,6.94-.06,13.87,0,20.81-.03.3,0,.6,0,.9,0q1.89,0,2.12-1.85c.22-1.11.41-2.21.41-3.35-.01-4.14,0-8.29-.01-12.43,0-1.43.45-2.83.15-4.27.02-.84-.07-1.71.45-2.46.11-.09.23-.11.36-.06Z"/>
    <path class="cls-22" d="m477.73,390.93c-.41,3.44-1.96,6.36-4.15,8.98-.29.35-.58.69-.88,1.03-.56-.79-.48-1.65-.25-2.52,1.87-3.27,2.89-6.86,3.9-10.45.66.89,1.07,1.9,1.38,2.95Z"/>
    <path class="cls-100" d="m362.31,350c.05-.7-.38-1.7,1.1-1.7.57,0,.9-.62.88-1.27-.02-.66-.38-1.07-1-1.2-.63-.14-1.21.12-1.38.71-.26.87-.93.62-1.36.5-.67-.19-.21-.77-.1-1.12.34-1.09,1.35-1.67,2.69-1.61,1.3.05,2.24.71,2.58,1.82.37,1.21,0,2.6-1.05,3.19-.7.39-.98.83-.88,1.59.08.58-.05.9-.76.9-.76,0-.76-.41-.73-.94.02-.26,0-.53,0-.87Z"/>
    <path class="cls-80" d="m461.78,445.38c.38,1.96,1.15,3.8,1.76,5.69.12.39.2.8.3,1.2-.75.61-1.67.89-2.5,1.34-.62-2.32-.83-4.71-1.17-7.09-.04-.25.12-.42.27-.59.32-.51.72-.81,1.35-.56Z"/>
    <path class="cls-118" d="m477.74,448.19c1.64.02,2.73.9,2.95,2.15.22,1.25-.41,2.36-1.7,2.82-.57.2-.91.43-.88,1.1.03.68-.45.81-1,.73-.63-.1-.5-.51-.38-.94.11-.36.18-.73.22-1.1.07-.62.19-1.03,1.02-.94.55.06,1.1-.31,1.26-.95.16-.61-.18-1.03-.64-1.33-.59-.39-.99-.01-1.37.39-.39.41-.9.53-1.32.19-.53-.41,0-.85.2-1.18.43-.69,1.15-.92,1.65-.94Z"/>
    <path class="cls-91" d="m423.37,364.12c-.87.36-.57,1.24-.62,1.8-.1,1.14-.24,2.29-.3,3.44q-2.32-.01-2.49-2.44c-.03-.41,0-.83,0-1.24,0-.79-.16-1.52-.98-2.27,1.2.26,2.12.73,3.08.3.27.65.86.34,1.31.42Z"/>
    <path class="cls-62" d="m376.12,451.57c.64-.19.91-.66,1.08-1.26.32-1.14.52-2.37,1.1-3.37.29-.5-.83-.53-.09-.81.64-.42,1.25-.02,1.87.07,1.19.49,1.36.94.82,2.2-.65,1.39-1.78,2.46-2.55,3.77-.74-.2-1.49-.39-2.23-.59Z"/>
    <path class="cls-20" d="m399.03,462.23c.01.08.02.17.03.25-8.4.01-16.8.04-25.19.04-8.97,0-17.93-.04-26.9-.05-.34,0-.67,0-1.01-.19,3.37,0,6.73,0,10.1,0,6.05-.01,12.11-.03,18.16-.04.42,0,.83.02,1.22-.17,1.3.57,2.67.16,4,.23.63.03,1.35.31,1.94-.24.32-.16.66-.13,1-.13,5.01.01,10.02,0,15.03.01.56,0,1.14-.08,1.63.31Z"/>
    <path class="cls-45" d="m457.03,375.29c.25,2.03.35,4.07,0,6.1-.06.36-.09.67-.52.73-.29.22-.57.2-.86,0,.29-2.04.23-4.09.19-6.14-.01-.76.46-.72.94-.76.08.02.17.05.25.07Z"/>
    <path class="cls-99" d="m447.89,382.37c-.47-1.33-.16-2.73-.38-4.1-.15-.89-.54-1.8-.3-2.74.23-.03.46-.07.69-.1.32.12.89-.1.88.47-.03,2.15.27,4.3-.2,6.43-.23.16-.46.19-.7.03Z"/>
    <path class="cls-101" d="m473.09,330.77c-.43-1.82-.71-3.68-1.55-5.38-2.74-5.61-7.15-8.97-13.35-9.9-.25-.04-.5-.15-.75-.23-.07-.04-.09-.08-.07-.12.02-.04.05-.06.07-.06,5.12.34,9.17,2.72,12.33,6.66,2.05,2.55,3.26,5.49,3.54,8.78-.06.09-.07.23-.22.25Z"/>
    <path class="cls-92" d="m464.04,348.22c-1.2.42-2.34,1.02-3.61,1.26-.4.08-.79.28-1.16-.08,3.44-.77,6.45-2.34,8.92-4.87,2.41-2.48,3.93-5.46,4.77-8.82,0,1.45-.45,2.78-1.04,4.04-1.55,3.3-3.86,5.93-7,7.82-.31.19-.71.27-.88.66Z"/>
    <path class="cls-44" d="m417.47,331.73c.18-.53.1-1.56,1.09-1.39.63.11,1.9-.3,1.82.99-.04.65.3,1.84-.75,1.91-1.73.11-2.21-.33-2.16-1.51Z"/>
    <path class="cls-67" d="m444.72,462.5c0-.16.02-.32.03-.48.43.35.93.24,1.42.24,8.92.02,17.84.03,26.75.05.36,0,.76-.13,1.08.18-9.76,0-19.52,0-29.28.01Z"/>
    <path class="cls-37" d="m338.08,380.03c1.39,0,1.73.35,1.64,1.73-.06.98-.89.68-1.48.76-1.08.15-1.21-.46-1.23-1.35-.02-.97.29-1.36,1.08-1.15Z"/>
    <path class="cls-125" d="m456,336.63c1.12-.33,1,.4,1.08,1.17.11,1.07-.48.97-1.19,1.02-.94.07-1.15-.25-1.19-1.17-.04-1.1.49-1.15,1.3-1.02Z"/>
    <path class="cls-127" d="m357.69,356.42c-4.49-3.14-4.91-9.22-2.41-12.37-2.16,4.73-1.47,8.83,2.65,12.15.04.2,0,.33-.24.22Z"/>
    <path class="cls-3" d="m346.78,441.31c3.01-1.56,5.98-1.55,8.89.28.28.18.6.33.68.7-1.56-.82-3.08-1.63-4.94-1.67-2.26-.04-4.19.7-5.97,2.01.09-.8.9-.88,1.35-1.32Z"/>
    <path class="cls-83" d="m357.69,356.42c.08-.07.16-.15.24-.22,3.33,2.07,6.71,2.09,10.38.01-2.07,2.26-7.44,2.78-10.61.21Z"/>
    <path class="cls-78" d="m454.5,315.27c-.91.41-1.91.32-2.85.58-2.57.72-4.91,1.87-6.93,3.63-.18.15-.33.4-.87.31,3.15-2.8,6.54-4.56,10.67-4.7.06.04.08.09.06.12-.02.04-.05.06-.07.06Z"/>
    <path class="cls-23" d="m343.11,451.62c1.59,4.01,4.42,5.71,9.37,5.64.05.05.07.1.04.14-.02.04-.04.06-.06.06-4.66.47-8.23-1.62-9.55-5.6-.11-.22,0-.27.19-.25Z"/>
    <path class="cls-2" d="m343.11,451.62c-.06.08-.13.17-.19.25-1.21-3.24-.49-6.12,1.63-8.73.17-.21.32-.67.79-.4-1.7,1.9-2.82,4.03-2.63,6.68.05.76.23,1.47.41,2.2Z"/>
    <path class="cls-5" d="m364.3,339.83c-3.47-.21-6.34.97-8.57,3.8.41-2.33,4.75-4.3,8.56-4,.06.04.08.09.06.13-.02.05-.03.07-.05.07Z"/>
    <path class="cls-88" d="m441.33,323.4c-.7,1.25-1.33,2.46-1.74,3.75-.41,1.29-.76,2.6-.83,4.09-.49-2.1,1.2-7.27,2.57-7.84Z"/>
    <path class="cls-54" d="m376.2,353.8c-.83,1.15-1.86,1.32-2.62.65-.78-.69-.81-1.74-.06-2.48.84-.83,1.65-.74,2.81.58-1.13-.73-2.01-1.14-2.73-.04-.36.55-.25,1.08.17,1.54.75.81,1.51.46,2.44-.25Z"/>
    <path class="cls-42" d="m352.47,457.47c0-.07,0-.14.02-.21,2.48-.68,4.45-2.06,5.92-4.17-.67,2.02-2.29,3.08-4.09,3.91-.57.26-1.23.32-1.84.47Z"/>
    <path class="cls-93" d="m474.25,417.77c.07-.02.14-.03.21-.04,1.81.74,3.51,1.65,4.93,3.02.32.31.69.58.84,1.03-.04.04-.08.07-.12.11-.04,0-.09.01-.11,0-1.85-1.5-3.85-2.76-6.01-3.76-.04-.21.13-.28.27-.36Z"/>
    <path class="cls-85" d="m368.94,355.73c.72-.96,1.6-1.79,2.14-2.88.52-1.04.84-2.14,1.05-3.57.22,2.4-1.42,5.63-3.19,6.45Z"/>
    <path class="cls-84" d="m364.3,339.83c0-.07-.01-.13-.01-.2,2.55.37,4.6,1.55,6.07,3.7-1.64-1.83-3.7-2.92-6.06-3.5Z"/>
    <path class="cls-117" d="m440.4,340.06c-.07,0-.15,0-.22-.01-1.2-1.86-1.5-3.95-1.52-6.11.21,2.15,1.06,4.11,1.74,6.12Z"/>
    <path class="cls-25" d="m363.01,353.86c-.55.1-.68-.18-.69-.69-.02-.56.21-.67.72-.68.58-.01.77.17.76.76,0,.6-.31.67-.78.62Z"/>
    <path class="cls-86" d="m444.25,352.76c-1.41,1.66-3.14,1.59-4.57-.2-.05-.21.06-.3.25-.32.66.25,1.08.89,1.88.94.83.05,1.4-.47,2.1-.72.19,0,.29.13.35.29Z"/>
    <path class="cls-89" d="m481.49,423.13c.33,1.22,1.37,2.2,1.16,3.6-.26-.03-.4-.22-.47-.43-.49-1.35-1.13-2.61-1.99-3.77-.14-.18-.2-.41-.06-.63.04-.03.07-.07.1-.11.56.32.67,1.05,1.27,1.34Z"/>
    <path class="cls-108" d="m444.25,352.76c-.07-.08-.14-.16-.22-.24-.11-.22-.03-.44.04-.65.33-1.12-.06-1.97-.98-2.63-.24-.17-.53-.29-.69-.56.01-.19.07-.33.3-.23,2.03.61,2.68,2.43,1.55,4.32Z"/>
    <path class="cls-104" d="m370.89,344.1c.95,1.19,1.37,2.55,1.28,4.07-.19-1.43-.8-2.73-1.28-4.07Z"/>
    <path class="cls-119" d="m442.7,348.43c-.08.07-.16.14-.24.21-.81.46-1.78.59-2.5,1.23-.19-.01-.33-.07-.27-.31.78-.97,1.67-1.63,3-1.14Z"/>
    <path class="cls-11" d="m439.7,349.57c.08.07.16.15.24.22,0,.85.05,1.71-.02,2.56-.08.07-.16.14-.24.21-.61-1-.61-2,.02-2.99Z"/>
    <path class="cls-10" d="m441.67,322.8c.3-.98.86-1.72,1.76-2.19-.59.73-1.17,1.46-1.76,2.19Z"/>
    <path class="cls-59" d="m473.09,330.77c.07-.08.14-.17.22-.25.15,1.27.13,2.54-.22,3.81v-3.55Z"/>
    <path class="cls-128" d="m454.5,315.27c.03-.06.03-.12.01-.18.98-.11,1.95-.11,2.93,0-.02.06-.02.12,0,.18-.98,0-1.96,0-2.94,0Z"/>
    <path class="cls-96" d="m397.67,403.87c-2.17-.95-4.35-1.9-6.52-2.85-1.48-1.19-2.44-2.74-3-4.52-.21-.66-.72-1.11-.94-1.74.46-.82-.13-1.54-.29-2.27-.39-1.79-.61-3.62-1.33-5.32-.04-.1-.07-.21-.07-.33.17-1.61-.61-3.09-.63-4.5-.69,1.03-1.51,2.19-1.72,3.64-.78,2.33-1.55,4.67-2.75,6.83-.73.97-1.51,1.9-2.53,2.59-.67.45-.7,1.34-1.33,1.8-.45.18-.81-.04-1.16-.27-2.31-1.5-4.62-3-6.91-4.53-.28-.19-.58-.37-.68-.73.34-1.11,1.16-1.98,1.52-3.08,1.05-2.33,2.22-4.59,3.34-6.87,1.19-2.29,2.43-4.55,3.56-6.87.16-.33.24-.72.61-.91.37,0,.51-.25.64-.54.36-.79.8-1.55,1.09-2.37,1.1-3.09,2.99-5.66,5.18-8.04.24-.26.38-.73.88-.48.41.2.58.54.62,1,.06.85-.37,1.53-.71,2.24-.29.6-.61,1.19-.92,1.78.07.06.15.12.22.17,1.55-1.58,3.09-3.16,4.64-4.73,1.18-1.2,1.77-1.05,2.29.67,1-1.37,1.54-2.91,2.28-4.34,1.25-2.41,3.22-3.66,5.88-3.8,2.66-.14,5.3-.12,7.69,1.36.53.33.77.68.87,1.32.81,5.62,2.77,10.81,5.97,15.52.49.72,1.07,1.38,1.73,1.95.72.61,1.56.45,1.65-.39.16-1.52,1.11-1.92,2.37-2.1.48-.07.94-.26,1.41-.39,1.09-.62,2.03-.12,2.81.53,1.85,1.56,2.26,3.69,2.01,5.98-.23,2.09-1.55,3.29-3.43,3.98-.36.13-.72.25-1.08.35-1.3.38-1.35.54-.49,1.65-.46,2.35.18,4.58.76,6.81.44,2.5.88,5,1.25,7.5.06.51-.06.99-.43,1.35-.94.91-1.73,1.97-2.76,2.78-3.46,1.76-7.2,2.47-11.03,2.6-1.45.05-3.01.05-4.42-.58.26-.42.73-.52,1.13-.71,3.32-1.6,5.13-3.61,6.42-7.17-3.18,2.86-6.61,5.18-10.77,6.21-.99.16-1.95-.2-2.93-.17Z"/>
    <path class="cls-115" d="m418.52,425.21c1.5.91,3.23,1.12,4.87,1.59,1.12.32,2.28.49,3.43.72.77.25,1.53-.07,2.31,0,1.56.14,3.11.27,4.65.57,3.99-.03,7.97.13,11.94-.6,3.81-.7,7.46-1.83,10.94-3.51,1.13-.58,2.21-1.25,3.26-1.95.34-.22.65-.52,1.1-.49.44.49-.08.81-.21,1.21-.05.1-.12.2-.19.29-1.8,2.43-2.19,5.24-2.23,8.16-.08.18-.21.32-.37.43-2.92,1.48-6.04,2.32-9.22,3.02-5.54,1.22-11.16,1.08-16.75.86-3.32-.13-6.65-.74-9.92-1.52-1.65-.41-3.32-.76-4.92-1.37-1.9-.65-3.8-1.29-5.64-2.1-.9-.4-1.78-.58-2.74-.37-.89-1.82-2.82-2.11-4.38-2.88-4.27-2.13-8.39-4.51-12.53-6.86-3.38-1.92-6.75-3.88-10.06-5.91-1.81-1.11-3.75-1.96-5.53-3.1-.6-.38-1.26-.66-1.89-.97-.2-.11-.4-.24-.51-.45-.04-.11-.09-.23-.06-.33.66-2.07,1.45-4.09,2.3-6.1.04-.1.17-.15.27-.2.49-.1.88.19,1.32.32,1.71.97,3.51,1.77,5.21,2.77,1.37.66,2.58,1.57,3.91,2.29,4.26,2.46,8.43,5.07,12.73,7.46,2.91,1.62,5.82,3.23,8.83,4.66.55.26.99.26,1.48-.02,1.04.11,2.09-.11,3.11.17.55.33.61.93.73,1.46.16.69.56,1.1,1.21,1.36,1.18.47,2.43.78,3.55,1.4Z"/>
    <path class="cls-46" d="m433.77,428.36c-2.3-.46-4.67-.28-6.95-.84,1.4-.37,2.6-1.17,3.88-1.8,6.86-3.4,13.7-6.85,20.54-10.28.17-.08.35-.12.53-.18.86.45,1.53,1.06,1.64,2.1-1.44,1.19-3.19,1.85-4.81,2.73-4.63,2.49-9.31,4.89-13.95,7.37-.35.19-1.05.17-.88.92Z"/>
    <path class="cls-29" d="m422.21,384.76c4.53-1.8,8.81-4.16,13.4-5.85.73,2.49.71,4.98.02,7.47-.2.22-.41.44-.69.57-3.43,1.61-6.83,3.3-10.4,4.58-.41.15-.83.41-1.28.09-.49-.55-.43-1.26-.55-1.9-.22-1.21-.42-2.43-.61-3.64-.07-.45-.1-.89.12-1.31Z"/>
    <path class="cls-49" d="m402.01,411.84c1.57-.23,3.1.24,4.65.3,3.54.15,6.99-.25,10.38-1.24,1.47-.43,2.9-1,4.51-1.71-.43,1.08-1.15,1.65-1.6,2.4-.1.43-.25.81-.73.95-2.23.62-4.44,1.34-6.77,1.45-.7-.36-1.38-.58-1.94.24-.12.02-.23.02-.35,0-1.98-.12-3.97.13-5.94-.16-.46-.03-.6-.49-.93-.69-.42-.46-.93-.84-1.25-1.39,0-.05-.02-.1-.03-.15Z"/>
    <path class="cls-121" d="m400.65,403.88c2.48-.97,4.98-1.88,7.13-3.52,1.31-1,2.66-1.94,3.83-3.27-.1,3.3-3.62,7.41-7.79,8.62-.37-.07-.73-.14-1.1-.2-.9-.28-1.74-.63-2.08-1.63Z"/>
    <path class="cls-49" d="m403.3,413.7c-3.71-.77-7.28-1.92-10.41-4.15-.18-.13-.34-.27-.52-.42.27-.53,1.06.07,1.18-.63,2.4,1.07,4.78,2.23,7.35,2.84.43.1.71.39,1.1.51h0c.39.62,1.01,1.03,1.45,1.62,0,.11-.04.19-.15.24Z"/>
    <path class="cls-124" d="m421.32,411.39c-1.48,2.26-2.96,4.51-4.43,6.77-.04.06-.08.12-.13.19q-1.37,2.07-2.68.11c-.08-.08-.12-.17-.13-.28.1-.53.24-1.05.73-1.38.89.24,1.12-.69,1.73-.96.77-.28.98-1.11,1.54-1.59.3-.4.61-.79.88-1.21.05-.09.11-.17.18-.24.39-.31.76-.66,1.17-.96.24-.45.72-.51,1.14-.68.07.05.1.1.08.16-.02.05-.05.08-.07.08Z"/>
    <path class="cls-17" d="m421.32,411.39c0-.08,0-.16,0-.24.77-1.93,2.24-3.09,4.07-3.97,1.21-.58,2.29-1.43,3.43-2.16.94.52.91.85,0,1.55-2.36,1.84-4.8,3.52-7.5,4.81Z"/>
    <path class="cls-52" d="m383.37,406.1c-.15.15-.3.3-.45.46-1.87-.7-3.57-1.71-5.28-2.71.25-.5.51-.98.98-1.32,1.42,1.41,3.27,2.25,4.75,3.57Z"/>
    <path class="cls-21" d="m422.26,399.79c.89-.03,1.17.88,1.85,1.19-1.51,1.09-3.14,1.95-4.83,2.72.61-1.07,1.57-1.84,2.37-2.76.3-.34.66-.63.61-1.15Z"/>
    <path class="cls-41" d="m400.65,403.88c.69.54,1.39,1.08,2.08,1.62-1.39.06-2.56-.66-3.81-1.1-.43-.15-.83-.35-1.25-.53.99-.41,1.99-.02,2.98,0Z"/>
    <path class="cls-72" d="m420.18,411.83c-.35.42-.6.94-1.17,1.14-.17-.37.05-.54.34-.66.2-.23.4-.46.6-.7.07.08.15.15.22.23Z"/>
    <path class="cls-47" d="m346.64,425.56c-1.45-3.06-2.5-6.25-3.38-9.51-.07-.25-.07-.52-.1-.78-.73-3.07-.64-6.09.24-9.14,1.69-5.84,5.53-9.17,11.46-10.24,1.69-.3,3.37-.41,5.06-.08.36.07.77.06,1,.43-.46,1.84-1.08,3.64-1.59,5.48-.13.46-.26.91-.34,1.37-.45.27-.95.2-1.44.2-5.15.07-6.61,2.72-7.26,6.74-.4,2.45.12,4.81.8,7.14,1.97,7.16,6.78,11.97,12.99,15.59,3.53,2.06,7.31,3.44,11.34,4.09,1.56.25,3.15.34,4.73.44.2.06.36.17.45.37.2,1.9.41,3.79.38,5.7-.01.88-.44,1.3-1.33,1.28-.82-.01-1.65,0-2.47,0-2.27-.18-4.51-.56-6.69-1.23-2.68-.37-5.06-1.59-7.45-2.76-.86-.42-1.9-.54-2.5-1.42-.12-.24-.12-.5-.12-.76.01-1.82-1.2-2.62-2.87-1.88-.17.08-.33.17-.52.21-1.21.02-1.87-.99-2.6-1.63-2.68-2.31-5.13-4.87-7.11-7.85-.36-.54-.56-1.15-.7-1.77Z"/>
    <path class="cls-8" d="m360.61,439.08c1.62,1.04,3.41,1.72,5.14,2.52,1.51.7,3.1,1.16,4.68,1.64.13.1.13.22.04.36-.48.16-.97.31-1.45.47-1.21-.2-2.43-.37-3.63-.6-4.49-.87-8.28-3.12-11.72-6.02-2.9-2.45-5.34-5.3-7.41-8.48-.1-.15-.27-.25-.4-.38.26-1.01.53-2.02.79-3.03,1.99,3.59,4.72,6.58,7.81,9.23.78.67,1.5,1.53,2.56,1.84.16.05.3.12.34.31-.32,1.64-.16,2.16.81,2.5.31.11.67.06.94.3.04.66-.5.24-.73.39,1.02.21,1.33-1.06,2.25-1.06Z"/>
    <path class="cls-122" d="m357.92,381.44c-.31-.24-.62-.49-.93-.73,2.12-1.67,4.4-3.07,6.91-4.06.21.15.42.31.64.46.24.41-.03.66-.31.83-1.9,1.11-3.7,2.4-5.66,3.42-.2.11-.42.15-.65.08Z"/>
    <path class="cls-48" d="m422.01,433.66c1.79.38,3.62.53,5.39,1.05.11.03.22.05.33.06,5.17.62,10.38.73,15.55.38,2.55-.17,5.12-.66,7.65-1.32,2.45-.64,4.75-1.63,7.12-2.43.5.86.84,1.74.3,2.71-4.58,1.21-9.1,2.65-13.83,3.21-.41-.65.33-1.27.04-1.92-.02-.15-.23.04-.09-.02.07-.02.1,0,.1.05.09.68-.18,1.31-.34,1.95-.26.18-.56.24-.86.24-3.36,0-6.72.09-10.07-.28-4.09-.45-8.16-1.09-12.2-1.86-.94-.18-1.77-.01-2.6.46-.9.51-1.68,1.3-2.81,1.38-.59-1.05-1.01-2.13-.63-3.37.3-.35.68-.26,1.05-.19.33.06.67.13.99.22,1.67.46,3.31.51,4.9-.31Z"/>
    <path class="cls-35" d="m444.22,437.33c.1-.7.2-1.4.32-2.25.43.87-.06,1.55-.02,2.24-.02.06-.04.12-.07.18-.06,0-.12,0-.17.02l-.09-.07.03-.11Z"/>
    <path class="cls-73" d="m439.69,407.96c.18-.38.36-.75.55-1.13,2.08.88,4.22,1.59,6.36,2.29-.17.53-.34,1.05-.51,1.58-2.21-.45-4.2-1.49-6.27-2.33-.08-.03-.09-.26-.13-.4Z"/>
    <path class="cls-6" d="m407.18,442.51c-2.13.89-3.98,2.28-5.93,3.48-3.67,2.24-7.29,4.54-10.79,7.03-3.23,2.29-5.9,5.14-8.32,8.24-.53-.27-.1-.9-.51-1.19,1.08-4.97,4.28-8.47,8.09-11.52,5.54-4.42,11.7-7.85,17.98-11.07.46.51.35,1.14.27,1.72-.13,1.01-.22,2.03-.51,3.01-.06.13-.15.23-.27.3Z"/>
    <path class="cls-16" d="m406.53,431.34c.03-.37-.28-.38-.51-.48-8.19-3.61-15.72-8.36-22.99-13.54-2.15-1.53-4.27-3.1-6.38-4.69-.37-.28-.91-.43-.98-1.02.1-.37.39-.45.71-.48,2.67,1.32,5.24,2.84,7.8,4.35,4.54,2.68,9.11,5.31,13.69,7.94,3.22,1.85,6.53,3.53,9.91,5.06.66.3,1.3.63.95,1.55-.23.91-1.03.93-1.74,1.09-.16.07-.31.14-.47.21Z"/>
    <path class="cls-6" d="m407.27,442.26c0-1.6.54-3.16.43-4.78,2.35-1.27,4.71-2.54,7.06-3.81.13-.14.28-.15.44-.07.05.06.07.12.06.19-.01.07-.03.1-.05.1-.17,1.16.44,2.22.46,3.35-.01.05-.02.11-.04.16-.78.7-1.71,1.2-2.61,1.72-1.56.89-3.05,1.91-4.63,2.77-.34.19-.66.52-1.13.36Z"/>
    <path class="cls-79" d="m415.17,433.67c-.14,0-.28,0-.41,0-2.68-.55-5.3-1.28-7.76-2.54.52-.46,1.28-.53,1.74-1.09.84-.52,1.62-.38,2.52,0,1.96.83,3.98,1.52,5.98,2.26-.28,1.07-1.26,1.08-2.07,1.36Z"/>
    <path class="cls-43" d="m350.43,449.31c-.05-.56-.14-1.25.94-1.33.48-.04.71-.54.69-1.04-.02-.46-.27-.8-.7-.94-.47-.15-.97-.04-1.17.42-.28.61-.8.85-1.23.51-.48-.38-.11-.98.19-1.4.61-.85,1.53-.92,2.45-.75.94.17,1.55.75,1.72,1.72.17.98-.13,1.82-.96,2.37-.48.31-.84.58-.73,1.22.08.45.01.8-.62.79-.67-.01-.58-.44-.58-.85,0-.19,0-.38,0-.73Z"/>
    <path class="cls-19" d="m351.02,452.56c-.45.06-.59-.14-.59-.58,0-.53.34-.47.68-.49.4-.02.51.16.52.53.02.48-.22.59-.62.53Z"/>
    <path class="cls-129" d="m357.7,443.65c.76.56,1.27,1.25,1.15,2.26-.38-.75-.77-1.5-1.15-2.26Z"/>
    <path class="cls-63" d="m356.34,442.29c.73.19,1.19.64,1.37,1.37-.56-.36-1-.82-1.37-1.37Z"/>
    <path class="cls-116" d="m480.16,437.61c1.63-2.07,2.52-4.46,2.96-7.04.12,2.9-1.05,5.3-2.93,7.41-.1-.12-.11-.24-.02-.37Z"/>
    <path class="cls-53" d="m462.21,438.53c1.75,1.49,3.74,2.53,5.92,3.24.07.05.1.11.07.17-.02.06-.04.08-.07.08-.37-.11-.75-.23-1.12-.34-1.56-.48-2.99-1.2-4.22-2.3-.25-.23-.69-.37-.59-.86Z"/>
    <path class="cls-14" d="m471.47,442.03c2.26-.2,4.27-1.15,6.31-2.04-1.6,1.42-3.5,2.04-5.61,2.11-.24.09-.48.15-.7-.07Z"/>
    <path class="cls-69" d="m471.47,442.03c.23.02.47.04.7.07-1.35.48-2.69.07-4.03-.07,0-.08,0-.17,0-.25,1.11.08,2.23.17,3.34.25Z"/>
    <path class="cls-98" d="m480.16,437.61c0,.12.02.25.02.37-.47.41-.72,1.13-1.5,1.12.49-.5.99-.99,1.48-1.49Z"/>
    <path class="cls-60" d="m463.43,419.98c.15-.74.9-.89,1.34-1.34,2.22-.95,4.51-1.55,6.96-1.34.87.07,1.7.22,2.52.48-.08.08-.17.15-.25.23-3.82-.91-7.32-.16-10.57,1.97Z"/>
    <path class="cls-81" d="m416.97,445.37c5.74-1.19,11.49-1.02,17.25-.13q1.54.24,1.95-1.29c.06-.21.14-.42.26-.79,2,2.26,3.91,4.44,5.83,6.61.28.32.12.44-.19.55-2.67.99-5.35,1.99-8.03,2.99-.06-.2-.11-.27-.1-.33.28-1.8.28-1.78-1.5-2.03-4.41-.62-8.81-.77-13.21.02-.51.09-1.06.1-1.51.43-1.37.81-2.99,1.01-4.4,1.71-2.99,1.48-5.58,3.39-7.24,6.4-.48.87-.4,1.93-1.08,2.7-1.64.02-3.29-.04-4.93.07-1,.07-.67-.77-1-1.15.74-3.83,2.59-7.03,5.47-9.65.61-.56,1.24-1.1,1.85-1.65,1.29-1.45,3.07-2.14,4.75-2.94,1.53-.73,3.17-1.17,4.82-1.58.34-.08.67-.07.99.05Z"/>
    <path class="cls-102" d="m418.12,454.11c.42,2.72.83,5.44,1.25,8.16-4.72.02-9.43.09-14.15-.06.4-1.5,1.53-2.47,2.59-3.47,2.46-2.31,5.44-3.65,8.64-4.55.54-.15,1.1-.29,1.67-.09Z"/>
    <path class="cls-6" d="m418.12,454.11c-2.12.51-4.18,1.13-6.15,2.12-2.81,1.41-4.99,3.44-6.76,5.99,0,0-.11.02-.11.02,0,0-.11-.02-.11-.02.41-3,2.12-5.16,4.4-7.02,2.24-1.83,4.86-2.84,7.54-3.74.24-.08.52-.04.78-.05.13.9.26,1.8.4,2.71Z"/>
    <path class="cls-95" d="m443.38,460c.14-6.73-.43-13.47.48-20.18.4.63.22,1.33.16,1.98-.44,5.11-.09,10.24-.21,15.35-.02.97-.14,1.92-.44,2.84Z"/>
    <path class="cls-76" d="m357.92,381.44c2.03-1.22,4.06-2.44,6.1-3.65.27-.16.51-.33.53-.67,2.69,1.78,5.4,3.5,8.38,4.77-1.12,2.26-2.25,4.52-3.37,6.78-3.89-1.97-7.66-4.12-11.13-6.78-.18-.14-.34-.29-.5-.44Z"/>
    <path class="cls-1" d="m386.54,394.57c-2.19-.31-4.26-1.08-6.35-1.78,1.08-2.22,1.89-4.56,2.75-6.87,1.09-.24,1.99.08,2.7.94,0,.07.02.14.03.21.28.54.41,1.11.45,1.72.09,1.58.19,3.15.54,4.7.08.36.18.75-.12,1.07Z"/>
    <path class="cls-26" d="m423.36,391.57c-.7.28-1.42.51-2.18.55-.33-.06-.5-.23-.54-.6-.22-1.81-.66-3.59-.72-5.43-.02-.52.26-.59.5-.81.6-.17,1.2-.35,1.8-.52.38,2.27.76,4.54,1.15,6.81Z"/>
    <path class="cls-39" d="m402.96,367.74c.91,0,1.82,0,2.73,0,.21,0,.49-.08.59.19.11.27-.13.41-.29.55-1.3,1.18-4.8,1.15-6.08-.05-.15-.14-.42-.26-.29-.54.1-.2.32-.16.5-.16.95,0,1.89,0,2.84,0Z"/>
    <path class="cls-31" d="m395.69,373.66c.29,2.2.02,4.37-.14,6.55-.11,1.47-.32,2.92-.49,4.39-.08.7.23.97.91.93.71-.04,1.41-.32,2.41-.15-1.09.36-1.93.65-2.85.62-.87-.03-1.07-.62-1.01-1.33.16-2.03.32-4.06.53-6.09.17-1.64.43-3.27.64-4.91Z"/>
    <path class="cls-106" d="m386.54,394.57c-.7-2.45-.6-5-.87-7.5.61.12.56.67.64,1.07.38,1.91.77,3.81,1.32,5.68.11.36.49,1.01-.43,1.01-.27.03-.45-.13-.65-.26Z"/>
    <path class="cls-126" d="m390.42,378.84c.57.02,1.08.51,1.06,1.33-.02.82-.6,1.26-1.44,1.25-.86-.01-1.37-.52-1.34-1.33.03-.81.58-1.27,1.73-1.24Z"/>
    <path class="cls-4" d="m402.38,378.26c-.79-.18-1.35-.59-1.23-1.48.11-.86.75-1.26,1.53-1.18.74.08,1.24.57,1.17,1.4-.08.88-.66,1.21-1.47,1.25Z"/>
    <path class="cls-109" d="m405.86,371.21c-1.89-.2-3.55.32-5.08,1.63.42-2.2,3.15-3.04,5.08-1.63Z"/>
    <path class="cls-107" d="m420.39,375.67c.45-.98,1.02-.99,1.66-.62,1.54.89,2.03,3.79.86,5.11-.39.44-.83.76-1.63.3.86-.19,1.48-.44,1.72-1.28.27-.94.07-1.8-.27-2.64-.48-1.15-1.19-1.44-2.34-.87Z"/>
    <path class="cls-97" d="m399.3,389.87c1.35-.68,2.71-1.28,4.35-1.05-1.41.44-2.82.89-4.23,1.33-.04-.09-.08-.19-.12-.28Z"/>
    <path class="cls-55" d="m415.17,433.67c.56-.66,1.57-.61,2.07-1.36,1.59.45,3.18.9,4.77,1.35-1.56,1.59-3.38.91-5.15.59-.55-.1-1.1-.24-1.65-.36-.02-.07-.04-.15-.04-.22Z"/>
    <path class="cls-70" d="m409.76,420.92c-.02-.22-.04-.44-.05-.66.22-1.83,1.21-3.32,2.19-4.81.12-.18.33-.31.58-.17.27.48-.05.87-.23,1.26-.44.91-.91,1.81-1.35,2.72-.52,1.07-.5,1.1.66,1.15.59.03,1.22-.04,1.65.51-.02.08-.03.16-.05.24-1.13-.13-2.29.25-3.39-.25Z"/>
    <path class="cls-24" d="m460.65,422.76c-.85,1.75-1.71,3.48-1.95,5.45-.12.98-.04,1.96-.1,2.93-.07.08-.15.1-.24.05,0,0-.08-.04-.08-.04-.29-2.89.33-5.56,1.89-8.01.11-.18.2-.42.49-.38Z"/>
    <path class="cls-38" d="m374.42,410.15c-.78.69-.79,1.7-1.08,2.6-.42,1.23-.85,2.45-1.27,3.68-.24-.07-.11-.33-.23-.46.67-2.04,1.19-4.13,2.21-6.04.12.07.25.15.37.22Z"/>
    <path class="cls-15" d="m462.23,420.81c-.26.87-.96,1.38-1.58,1.96-.13-.46.38-.65.43-1.04.38-.31.67-.73,1.15-.92Z"/>
    <path class="cls-28" d="m457.9,395.08c-.1-.71-.07-1.47,1.18-1.5.41,0,.63-.48.64-.95.02-.49-.09-.92-.56-1.14-.4-.18-.81-.17-1.16.15-.08.08-.18.15-.24.24-.36.59-.98.98-1.48.5-.54-.53-.07-1.21.39-1.68.81-.82,1.87-.83,2.86-.59.99.24,1.58,1.02,1.74,2.03.17,1.08-.32,1.94-1.17,2.54-.49.34-.95.58-.84,1.29.07.48,0,.89-.68.89-.69,0-.69-.42-.68-.9,0-.23,0-.45,0-.87Z"/>
    <path class="cls-40" d="m413.2,420.93c-.8-.23-1.62-.26-2.44-.21-.75.05-.82-.22-.51-.84.76-1.54,1.67-3,2.22-4.63.05-.03.1-.06.14-.09.3-.05.55.09.64.35.29.88.85,1.68.8,2.66.01.1.02.19.03.29-.29.82-.42,1.71-.88,2.47Z"/>
    <path class="cls-50" d="m459.33,413.92c1.57.06,2.44.68,2.66,1.88.19,1.05-.43,1.94-1.82,2.62-.81,0-1.55-.16-2.18-1.09.71.29,1.14.72,1.76.66.65-.06,1.16-.3,1.51-.83.52-.77.35-1.85-.36-2.45-.8-.68-1.76-.52-2.99.55.15-.91.87-1.03,1.41-1.34Z"/>
    <path class="cls-61" d="m412.47,415.25c-1.16,1.1-1.59,2.62-2.28,3.99-.17.34-.32.68-.48,1.03-.48-.41-.57-1.07-.93-1.55-.06-.09-.08-.2-.07-.31.87-1.51,1.93-2.89,2.95-4.3.14-.11.29-.13.46-.1.11.02.2.08.28.17.21.35.38.7.05,1.08h0Z"/>
    <path class="cls-13" d="m403.3,413.7c.01-.05.03-.1.06-.15-.09-.13-.08-.25.02-.36l.68.69c.86.44,1.42,1.19,1.99,1.93.57.74,1.36,1.28,1.94,2.01,0,.61-.3.62-.69.31-.37-.3-.71-.65-.98-1.06-1.01-1.12-2.02-2.24-3.03-3.37Z"/>
    <path class="cls-36" d="m406.33,417.07c.33.29.65.59.98.88.36.33.59.32.6-.24.03-.04.07-.09.1-.13.8-.19.64.5.81.89-.01.08-.02.16-.04.24-.44.72-.89.76-1.29-.01-.31-.6-1.07-.87-1.16-1.63Z"/>
    <g>
      <path class="cls-102" d="m461.32,453.62c.02,2,.45,3.94.77,5.9.01.07.06.14.07.21q.46,2.32,2.78,2.32c4.68,0,9.36,0,14.05,0,.56,0,1.11.01,1.87.43h-6.86c-.4-.19-.82-.09-1.23-.09-8.91,0-17.82,0-26.73,0-.48,0-.99.13-1.4-.27-.28-.4-.27-.86-.28-1.31-.03-2-.16-4.01-.16-6.01,0-4.88-.38-9.75-.27-14.63.02-.84.06-1.66.27-2.47.03-.13.08-.26.16-.38.24-.28.58-.31.92-.37,3.82-.64,7.55-1.71,11.3-2.67.6-.15,1.21-.48,1.86-.17.73,1.58.56,3.32.9,4.97.46,2.25.57,4.57,1.18,6.79-.08,2.06.52,4.03.77,6.05.07.56.23,1.11.04,1.68Z"/>
      <path class="cls-102" d="m446.09,410.69c.17.3.48.21.74.27-6.57,3.31-13.14,6.61-19.71,9.92-2.86,1.44-5.73,2.89-8.59,4.33-1.64-.15-3.05-.98-4.55-1.55-.52-.2-.38-.77-.51-1.18-.13-.43-.21-.87-.31-1.31-.08-.08-.12-.18-.11-.29.27-.83.42-1.7.93-2.44.41-.17.51.18.69.4.69.86.76.88,1.43-.04,1.15-1.58,2.14-3.26,3.24-4.88.6-.89.97-1.97,1.94-2.59,1.67-1.2,3.56-2.06,5.2-3.32.62-.48,1.24-.98,1.89-1.41.66-.43.83-.9.46-1.58.23-.15.46-.31.68-.46,2.09.37,3.96,1.36,5.96,2,1.43.45,2.82,1.03,4.29,1.33,1.6,1,3.41,1.51,5.14,2.22.41.17.87.25,1.2.58Z"/>
      <path class="cls-102" d="m409.76,420.92c-.08,1.17-.76.51-1.14.31-2.88-1.49-5.77-2.96-8.61-4.54-4.48-2.49-8.9-5.08-13.24-7.81.19-.33.5-.46.85-.49,1.53-.16,3.06-.47,4.61-.4.44.17.88.34,1.32.5.35.72-.42.43-.56.75,2.71,1.97,5.84,3.12,9.13,3.88.41.09.81.17,1.2.34,1.29.95,2.2,2.25,3.2,3.47.23.65.83,1.02,1.18,1.58.36.58.79.02,1.18.1.51.45.71,1.08,1.01,1.66.06.23.05.45-.13.64Z"/>
      <path class="cls-102" d="m363.59,397.31c1.13-1.06,1.83-2.42,2.67-3.69.48-.73.82-1.59,1.68-2,2.7,1.8,5.4,3.6,8.11,5.39.14.09.36.07.54.11,0,.38.32.52.56.63,1.01.46,1.23,1.14.73,2.11-.59,1.13-.86,2.39-1.31,3.57-.8,1.19-1.01,2.62-1.56,3.92-.35.85-.92,1.62-.97,2.59.07.83-.36,1.52-.68,2.22-.58,1.26-.96,2.59-1.37,3.9-.71,3.05-1.92,5.96-2.64,9.01-.18.78-.54,1.49-.77,2.25-.53,1.51-1.03,3.03-1.57,4.7,1.14-.25,1.73-.87,2.21-1.65,1.19-1.92,1.44-4.11,1.77-6.26.37-2.38.69-4.77.78-7.18.01-.18.04-.35.11-.51.41-1.26.75-2.55,1.3-3.77.75-.52,1.57-.88,2.46-1.09,4.57,3.49,9.21,6.87,14.04,9.98,5.06,3.26,10.21,6.35,15.74,8.75,1.02.44,1.02.46,1.1,1.06-6.41,3.41-12.8,6.86-18.68,11.14-2.27,1.65-4.41,3.45-6.32,5.51-.17.18-.28.48-.62.38-.09-.77.33-1.8-.96-1.99.57-1.28.43-1.44-.97-1.54-.66-.05-1.53.43-1.96-.53.94.01,1.88,0,2.81.04.6.03.9-.13.86-.81-.13-2.02-.21-4.05-.31-6.07-.6-.83-.57-1.85-.79-2.79-.97-4.09-2.26-8.07-3.87-11.94-.17-.41-.37-.8-.63-1.16-.12-.11-.16.15-.08.03.03-.05.08-.04.11.03,1.24,2.39,2.08,4.93,2.91,7.48.77,2.37,1.36,4.8,1.9,7.23.07.34.32.71.02,1.08-3.13.17-6.17-.39-9.11-1.35-6.32-2.07-11.76-5.52-16.01-10.72-1.93-2.37-3.08-5.15-4.01-8.03.44-1.3,1.25-2.4,1.96-3.55,2.23-3.59,4.41-7.2,6.85-10.65,1.4-1.49,2.18-3.38,3.36-5.02.19-.27.28-.62.58-.81Z"/>
      <path class="cls-102" d="m399.03,462.23c-5.6.02-11.2.04-16.8.06-.31,0-.6-.05-.85-.24-.03-.67-.01-1.34.25-1.97.37.08.57.84,1.14.05,3.37-4.65,8.02-7.84,12.78-10.87,3.38-2.15,6.76-4.3,10.21-6.34.46-.27,1-1,1.64-.17-.18,2.3-.34,4.59-.79,6.86-.15.68-.65,1.08-1.15,1.5-2.86,2.36-4.85,5.28-5.76,8.9-.11.42-.11.93-.62,1.15-.02.36-.03.73-.05,1.09Z"/>
      <path class="cls-102" d="m444.22,437.33c.02.06.04.12.06.18-.41.72-.19,1.56-.42,2.31.21.79.05,1.6-.08,2.35-.26,1.39-.16,2.78-.18,4.16-.07,4.33.12,8.67-.12,13-.01.22.03.45-.1.66-.11,2.29-.11,2.28-2.49,2.28-7.17,0-14.34,0-21.51,0-.35-.17-.43-.52-.47-.85-.33-2.41-.81-4.8-1.07-7.22,0-.95-.44-1.86-.24-2.83.38-.57,1.02-.61,1.6-.72,4.02-.72,8.05-.67,12.09-.17.45.06.9.11,1.35.16,1.79.2,1.92.36,1.8,2.17,2.34-.83,4.63-1.71,6.91-2.58.34-.13.53-.38.24-.69-1.63-1.82-3.16-3.73-4.86-5.54-1.05,1.85-1.05,1.83-3.12,1.51-5.15-.79-10.31-.96-15.46,0-.4.08-.82.19-1.23.01-.49-.39-.57-.97-.63-1.53-.22-1.8-.5-3.59-.83-5.38-.09-.46-.08-.9.16-1.32,0,0,.05-.04.05-.04,2.55-2.12,5.3-2.34,8.53-1.62,6.57,1.47,13.28,1.9,20.02,1.71Z"/>
      <path class="cls-102" d="m453.32,417.25c1.01,2,2.09,3.97,2.66,6.16.13.49.46.76,1.01.69-3.4,1.84-7.04,2.95-10.84,3.65-4.11.76-8.23.78-12.37.61-.24-.08-.48-.16-.9-.3,6.9-3.65,13.68-7.23,20.45-10.82Z"/>
      <path class="cls-102" d="m419.36,412.3c-.11.22-.23.44-.34.66,0,0,.03,0,.03,0-.33.5-.77.92-1.08,1.43-.58.41-.72,1.24-1.43,1.52-.24.28-.52.54-.72.85-.36.56-.72.54-1.11.06-1.2-.56-1.68-1.77-2.46-2.71h.02c-.08-.03-.12-.08-.1-.13.02-.06.03-.09.06-.09,2.38-.53,4.77-1.06,7.15-1.59Z"/>
      <path class="cls-102" d="m407.91,417.71c-.36.08-.55-.15-.75-.38-1.03-1.15-2.06-2.3-3.09-3.45,1.92,0,3.85.01,5.77.02.22,0,.45-.02.59.22-.27,1.36-1.34,2.19-2.14,3.2-.11.14-.26.26-.38.41v-.03Z"/>
    </g>
    <path class="cls-103" d="m407.91,417.74c.6-1.37,1.75-2.35,2.52-3.61.07,0,.13-.02.19-.04.4-.25.79-.33,1.17.03-.82,1.57-1.91,2.94-2.97,4.35-.5,0-.15-1.04-.91-.73Z"/>
    <path class="cls-32" d="m411.79,414.12c-.39-.01-.78-.02-1.17-.03.65-1.28.75-1.29,1.59-.19.02.07.04.14.05.22-.16,0-.31,0-.47,0Z"/>
    <path class="cls-7" d="m403.39,413.19c0,.12-.02.24-.02.36-.5-.53-1.15-.95-1.36-1.72.6.31.93.9,1.38,1.35Z"/>
    <path class="cls-70" d="m412.23,414.11c.95.79,1.65,1.8,2.46,2.71-.22.45-.43.89-.65,1.34-.3-.73-.64-1.44-.88-2.18-.13-.39-.24-.71-.71-.73-.08-.38-.15-.76-.23-1.14Z"/>
    <path class="cls-33" d="m416.53,415.92c.44-.53.89-1.06,1.33-1.59.1-.09.2-.08.28.02-.38.49-.76,1-1.15,1.48-.1.12-.23.46-.46.09Z"/>
    <path class="cls-110" d="m418.15,414.34c-.09,0-.19-.01-.28-.02.33-.51.61-1.05,1.18-1.36-.04.62-.6.92-.89,1.38Z"/>
    <path class="cls-113" d="m359.74,403.23c-.23-.1-.47-.19-.7-.29-.09-.17-.35-.22-.25-.54.58-1.88,1.12-3.77,1.67-5.66.08-.26.27-.33.49-.4.95.13,1.78.6,2.64.97.03.71-.49,1.15-.82,1.69-.73,1.19-1.48,2.36-2.22,3.55-.2.32-.33.7-.81.69Z"/>
    <path class="cls-120" d="m379.96,437.43c-1.11-5.63-2.72-11.1-5.06-16.35,2.74,5.16,4.27,10.73,5.49,16.4-.14-.02-.28-.04-.42-.06Z"/>
    <path class="cls-94" d="m357.27,436.85c-.09-.07-.18-.15-.26-.22.86-.68,1.8-.94,2.78-.3,1.04.67,1.14,1.66.82,2.75-.66.74-1.35,1.42-2.56,1.09.32-.31.8-.02,1.05-.34.1-.35.41-.52.62-.78.39-.48.51-1,.23-1.57-.31-.6-.81-.83-1.48-.81-.41.01-.78.31-1.2.18Z"/>
    <path class="cls-56" d="m458.36,431.2c.08-.02.16-.03.24-.05.54,1.98.96,4.01,2.29,5.68.42.53.82,1.07,1.23,1.61-.45.15-.59-.26-.79-.48-1.69-1.94-2.73-4.17-2.97-6.75Z"/>
    <path class="cls-38" d="m372.02,416.84c-.09,4.01-.59,7.96-1.65,11.82-.36,1.3-1,2.54-2.22,3.31-.31.2-.66.37-1.01.48-.47.15-.65-.06-.48-.53.56-1.56,1.13-3.11,1.7-4.67.81-1.17,1.03-2.55,1.37-3.88.53-2.08,1.27-4.09,1.88-6.15.06-.19.08-.48.42-.39Z"/>
    <path class="cls-30" d="m372.02,416.84c-1.05,2.31-1.61,4.76-2.27,7.19-.3,1.09-.67,2.16-1.03,3.23-.1.29-.25.58-.37,0,.79-2.62,1.56-5.25,2.36-7.86.35-1.15.75-2.28,1.12-3.42.08.15.15.3.23.46-.02.14-.03.28-.05.41Z"/>
    <path class="cls-102" d="m416.97,445.37c-3.53.8-6.88,2.02-9.86,4.12-.21.15-.47.23-.7.35.17-1.75.29-3.5.52-5.23.09-.7-.05-1.43.25-2.1.03-.08.06-.17.09-.25,2.78-1.66,5.57-3.31,8.35-4.97.48,2.69.72,5.42,1.35,8.08Z"/>
    <path class="cls-114" d="m469.88,430.6c0-.34.03-.68,0-1.02-.07-.67.06-.98.88-1.01.86-.02,1.46-.59,1.49-1.55.02-.79-.35-1.34-1.1-1.51-.83-.19-1.53.09-1.82.95-.32.97-1.11.54-1.61.46-.55-.09-.21-.7-.14-1.06.3-1.36,1.35-2.12,2.93-2.2,1.6-.08,2.98.76,3.43,2.08.49,1.44.06,3.22-1.25,3.9-1.03.54-1.2,1.22-1.07,2.17.1.72-.27.79-.85.76-.51-.02-1.01.06-.9-.73.05-.41,0-.83,0-1.25Z"/>
    <path class="cls-71" d="m470.76,435.05c-.65.14-.9-.06-.9-.79,0-.75.29-.84.92-.84.64,0,.92.1.91.85,0,.76-.3.91-.93.79Z"/>
  </g>
  <g>
    <path class="cls-34" d="m49.18,405.34c.11-.19.26-.37.31-.58,2.98-11.26,9.39-16.64,21.34-17.74.23-.99.47-2.04.73-3.09,3.5-13.91,15.22-24.64,29-26.55,14.78-2.06,28.68,4.59,36.12,17.31.66,1.12,1.28,1.9,2.76,2.12,12.11,1.8,20.44,9.75,22.97,21.77.07.35.27.67.4,1v7.1c-.37,1.34-.7,2.69-1.1,4.02-3.31,11.14-13.46,18.85-25.07,19.06-1.24.02-2.49,0-4.02,0,0,4.22-.15,8.26.03,12.29.34,7.4-1.52,9.45-9.08,9.04-2.65-.14-5.31-.02-8.25-.02.34,1.8.64,3.42.97,5.19.69.05,1.44-.09,1.95.19.73.41,1.29,1.13,1.92,1.72-.63.59-1.19,1.57-1.9,1.69-1.51.27-3.09.09-4.64.09-6.21,0-12.42,0-18.63,0-1.4,0-3.13.23-3.12-1.82.01-1.88,1.65-1.72,2.99-1.75.21,0,.42-.09.79-.18.33-1.6.67-3.24,1.06-5.13-3.79,0-7.4,0-11,0-4.37-.01-6.33-1.99-6.34-6.39-.01-4.87,0-9.74,0-14.9-2.42,0-4.69,0-6.95,0-12.38,0-19.73-5.66-22.93-17.63-.06-.21-.2-.39-.31-.59,0-2.07,0-4.14,0-6.22Zm90.74-24.72c.52,3.67,1.08,7.36,1.56,11.06.17,1.31-.25,2.63-1.76,2.41-.69-.1-1.51-1.38-1.71-2.26-.44-1.93-.36-3.98-.77-5.92-3.35-15.75-17.96-26.67-33.8-25.32-16.22,1.38-28.72,14.48-29.38,30.81-.05,1.31-.05,2.74-1.77,2.77-1.73.03-1.85-1.35-1.81-2.7,0-.2-.11-.4-.2-.72-.45,0-.88-.03-1.31,0-8.56.66-15.63,7.8-16.21,16.38-.59,8.72,5.17,16.89,13.63,18.5,4.14.79,8.48.55,12.97.79,0-4.12,0-7.8,0-11.48.01-4.54,1.94-6.49,6.47-6.49,13.38,0,26.77,0,40.15,0,4.71,0,6.62,1.9,6.63,6.55,0,3.67,0,7.35,0,10.98,13.63,1.85,25.86-8.11,26.6-21.41.66-11.95-9.23-24.08-19.3-23.95Zm-56.98,59.65h46.13c0-.85,0-1.58,0-2.3,0-7.55,0-15.1,0-22.64,0-3.05-.26-3.31-3.29-3.31-11.69,0-23.38,0-35.07,0-1.85,0-3.7,0-5.55,0-1.31,0-2.2.55-2.2,1.92-.03,8.72-.01,17.44-.01,26.33Zm.05,3.78c-.1,1.67-.25,3.36,1.73,3.39,6.67.12,13.34.04,19.81.04v-3.44h-21.54Zm24.56,3.45c6.1,0,12.29,0,18.49,0,2.75,0,3.14-.47,2.86-3.42h-21.35v3.42Zm4.09,3.68h-11.3c-.35,1.73-.68,3.36-1.02,5.06h13.33c-.35-1.74-.66-3.33-1.01-5.06Z"/>
    <path class="cls-34" d="m114.88,388.95c0,3.67,0,7.79,0,11.92,0,1.28-.54,2.39-1.87,2.11-.68-.14-1.27-1.31-1.64-2.13-.25-.55-.05-1.31-.05-1.97,0-3.46,0-6.93,0-9.93-1.24-.35-2.24-.63-3.24-.91.35-1,.44-2.27,1.11-2.97,4.2-4.38,3.61-4.42,7.83,0,.67.7.75,1.97,1.1,2.97-1,.28-2,.56-3.24.91Z"/>
    <path class="cls-34" d="m97.12,395.83c0-3.32,0-7.23,0-11.14,0-1.31-.01-2.76,1.7-2.81,1.88-.05,1.87,1.47,1.87,2.86-.01,3.9,0,7.81,0,11.21,1.26.37,2.26.66,3.26.95-.36,1-.47,2.25-1.14,2.97-3.84,4.1-3.93,4.09-7.69.12-.7-.74-.9-1.96-1.33-2.95,1.01-.37,2.03-.74,3.34-1.22Z"/>
  </g>
  <g>
    <path class="cls-34" d="m585.34,231c-.85-.56-1.78-1.02-2.53-1.69-2.74-2.46-2.83-6.95.15-9.06,1.86-1.32,2.13-2.75,1.97-4.65-.06-.68,0-1.37,0-2.4-1.43,0-2.77,0-4.12,0-3.24,0-6.48.01-9.72,0-4.77-.03-8.59-2.4-10.16-6.45-1.7-4.39-.73-8.24,2.58-11.55.18-.18.35-.39.51-.58-5.02-5.14-5.4-11.08,0-16.7-3.18-2.99-4.71-6.56-3.49-10.95,1.23-4.43,5.13-7.55,9.74-7.57,11.17-.07,22.35-.1,33.52.02,4.4.05,7.62,2.34,9.32,6.4,1.68,4,.87,7.7-1.97,10.96-.35.4-.73.78-1.09,1.16,5.21,6.3,5.22,11.09-.01,16.57.28.33.55.7.85,1.03,3.05,3.31,3.95,7.1,2.2,11.27-1.75,4.14-5.06,6.28-9.55,6.39-4.07.1-8.14.02-12.21.03-.67,0-1.35,0-2.25,0,0,1.75-.06,3.32.04,4.88.03.44.43.96.81,1.24,4.74,3.47,4.38,8.64-.82,11.3-.17.09-.3.26-.45.39h-3.31Zm1.48-38.52c5.31,0,10.62.02,15.93,0,4.22-.02,7.01-2.52,7.01-6.21,0-3.69-2.81-6.19-7.03-6.19-10.48-.02-20.96-.02-31.45,0-4.2,0-7.03,2.54-7.02,6.21,0,3.67,2.84,6.18,7.04,6.19,5.17.02,10.34,0,15.52,0Zm.38-28.97c-5.31,0-10.62-.02-15.93,0-4.19.02-7.02,2.55-7.01,6.22.02,3.66,2.85,6.17,7.06,6.18,10.48.02,20.96.02,31.45,0,4.21,0,7.01-2.53,7-6.22-.01-3.68-2.82-6.16-7.05-6.17-5.17-.02-10.34,0-15.52,0Zm0,33.12c-5.31,0-10.62-.02-15.93,0-4.19.02-7.02,2.56-7.01,6.22.01,3.66,2.84,6.17,7.06,6.18,10.48.02,20.96.02,31.44,0,4.21,0,7.01-2.53,7-6.23-.01-3.68-2.82-6.16-7.05-6.18-5.17-.02-10.34,0-15.52,0Zm.21,25.81c-.32,0-.63.02-.95.03-.5.83-1.43,1.69-1.36,2.46.07.68,1.27,1.75,1.94,1.74.67-.02,1.81-1.15,1.84-1.84.03-.77-.94-1.59-1.48-2.39Z"/>
    <path class="cls-34" d="m534,172.62c.36-1.31.66-2.65,1.09-3.94,2.82-8.55,10.48-14.29,19.52-14.68.48-.02.96-.04,1.31-.06,1.25-3.21,2.19-6.46,3.73-9.41,5.68-10.86,14.69-17.2,26.8-19.15.47-.08.92-.25,1.38-.38,2.48,0,4.97,0,7.45,0,.45.13.9.31,1.36.39,12.99,2.26,22.24,9.35,27.76,21.34.42.9,1.27,1.78,2.15,2.27,7.02,3.96,11.38,9.83,13.02,17.72.09.46.29.9.43,1.34v6.62c-.27.98-.53,1.96-.82,2.94-2.67,9.29-8.64,15.34-17.89,18.12-1.47.44-3.2.94-3.77-1.14-.58-2.11,1.18-2.46,2.67-2.87,13.87-3.85,20.03-19.79,12.3-31.82-2.14-3.33-4.99-5.91-8.6-7.53-1.58-.71-2.45-1.76-3.07-3.35-5.08-12.89-18.39-21.07-32.05-19.79-14.19,1.34-25.69,11.7-28.36,25.55-.66,3.41-.77,3.5-4.37,3.36-8.98-.35-16.57,6.11-17.78,15.13-1.14,8.53,4.59,16.69,13.12,18.74.67.16,1.5.19,1.93.62.52.51,1.02,1.44.9,2.06-.12.61-.96,1.34-1.62,1.53-.73.21-1.64-.04-2.42-.26-8.11-2.28-13.32-7.47-15.54-15.62-.21-.78-.42-1.57-.63-2.35,0-1.79,0-3.59,0-5.38Z"/>
    <path class="cls-34" d="m640,225.62c-1.1.42-2.2,1.18-3.31,1.19-11.51.09-23.02.06-34.54.05-.62,0-1.37.13-1.82-.17-.61-.41-1.38-1.2-1.35-1.78.04-.71.73-1.51,1.36-2,.4-.32,1.19-.18,1.81-.18,11.51,0,23.02-.04,34.54.05,1.11,0,2.21.78,3.31,1.19v1.66Z"/>
    <path class="cls-34" d="m534,223.96c1.1-.42,2.2-1.18,3.31-1.19,11.45-.09,22.89-.06,34.34-.05.62,0,1.4-.14,1.81.18.63.49,1.34,1.3,1.38,2,.03.59-.76,1.37-1.38,1.78-.44.3-1.2.17-1.82.17-11.45,0-22.9.04-34.34-.05-1.11,0-2.21-.78-3.31-1.19,0-.55,0-1.1,0-1.66Z"/>
    <path class="cls-34" d="m579.76,188.03c-2.48,0-4.95,0-7.43,0-1.42,0-2.54-.5-2.55-2.04,0-1.54,1.13-2.09,2.53-2.1,5.02-.01,10.04-.02,15.07,0,1.4,0,2.5.61,2.45,2.17-.05,1.42-1.09,1.96-2.43,1.96-2.55,0-5.09,0-7.64,0Z"/>
    <path class="cls-34" d="m595.67,183.64c.54.81,1.51,1.63,1.48,2.41-.03.67-1.13,1.68-1.9,1.84-1.23.26-2.16-.73-1.95-1.98.14-.82.98-1.51,1.51-2.26.29,0,.58-.01.87-.02Z"/>
    <path class="cls-34" d="m602.07,188.32c-.54-.79-1.53-1.6-1.49-2.36.03-.7,1.16-1.34,1.81-2.01.69.68,1.78,1.28,1.95,2.08.13.62-.87,1.49-1.37,2.25-.3.02-.6.03-.91.05Z"/>
    <path class="cls-34" d="m579.8,167.32c2.41,0,4.82,0,7.22,0,1.43,0,2.75.35,2.78,2.05.04,1.69-1.21,2.11-2.69,2.11-4.88-.01-9.77-.01-14.65,0-1.48,0-2.73-.44-2.68-2.11.04-1.67,1.35-2.04,2.79-2.04,2.41,0,4.82,0,7.22,0Z"/>
    <path class="cls-34" d="m595.63,167.06c.55.8,1.54,1.6,1.52,2.38-.02.67-1.1,1.71-1.87,1.88-1.23.27-2.18-.69-1.99-1.94.12-.82.96-1.53,1.47-2.29.29-.01.58-.02.87-.04Z"/>
    <path class="cls-34" d="m602.94,167.08c.51.81,1.45,1.65,1.4,2.43-.04.68-1.21,1.79-1.87,1.78-.68,0-1.85-1.1-1.9-1.77-.05-.78.9-1.62,1.41-2.44.32,0,.64,0,.95,0Z"/>
    <path class="cls-34" d="m579.79,204.59c-2.48,0-4.95-.01-7.43,0-1.41,0-2.55-.47-2.58-2.01-.03-1.54,1.1-2.12,2.5-2.13,5.02-.02,10.04-.02,15.07,0,1.39,0,2.52.58,2.48,2.14-.05,1.56-1.2,2-2.6,1.99-2.48-.02-4.95,0-7.43,0Z"/>
    <path class="cls-34" d="m597.59,202.98c-.81.52-1.64,1.47-2.42,1.43-.68-.04-1.82-1.19-1.81-1.85,0-.69,1.08-1.88,1.76-1.93.78-.06,1.63.89,2.46,1.4,0,.32,0,.63.01.95Z"/>
    <path class="cls-34" d="m603.04,200.21c.47.84,1.37,1.72,1.29,2.5-.07.67-1.28,1.73-1.94,1.69-.68-.04-1.81-1.17-1.82-1.84-.01-.79.97-1.59,1.52-2.38.31.01.63.03.94.04Z"/>
  </g>
  <g>
    <path class="cls-132" d="m586.61,427.56c0-.67,0-1.33-.01-2"/>
    <path class="cls-133" d="m586.51,421.54c-3.18-97.59-83.29-175.73-181.65-175.73s-179.57,79.21-181.71,177.74"/>
    <path class="cls-132" d="m223.12,425.56c0,.67-.01,1.33-.01,2"/>
  </g>
  <circle class="cls-130" cx="223" cy="433" r="21"/>
  <circle class="cls-130" cx="268.92" cy="307.69" r="21.36"/>
  <circle class="cls-130" cx="404.32" cy="246.36" r="21.36"/>
  <circle class="cls-130" cx="532.54" cy="295.34" r="21.36"/>
  <circle class="cls-130" cx="587.07" cy="433.64" r="21.36"/>
  <text class="cls-134" transform="translate(216.33 442.18)"><tspan x="0" y="0">1</tspan></text>
  <text class="cls-134" transform="translate(262.33 315.18)"><tspan x="0" y="0">2</tspan></text>
  <text class="cls-134" transform="translate(398.33 254.18)"><tspan x="0" y="0">3</tspan></text>
  <text class="cls-134" transform="translate(526.33 303.18)"><tspan x="0" y="0">4</tspan></text>
  <text class="cls-134" transform="translate(580.33 441.18)"><tspan x="0" y="0">5</tspan></text>
  <text class="cls-136" transform="translate(55.97 485.46)"><tspan x="0" y="0">Setup a server</tspan></text>
  <text class="cls-136" transform="translate(293.39 499.46)"><tspan x="0" y="0">Ben is trying to create workflow to </tspan><tspan x="15.12" y="19.2">accomplish the complex task.</tspan></text>
  <text class="cls-136" transform="translate(56 297.46)"><tspan class="cls-135" x="0" y="0">W</tspan><tspan x="14.81" y="0">rite complex codes to </tspan><tspan x="15.4" y="19.2">function the serve</tspan><tspan class="cls-137" x="141.7" y="19.2">r</tspan><tspan x="146.14" y="19.2">.</tspan></text>
  <text class="cls-136" transform="translate(618 467.46)"><tspan class="cls-135" x="0" y="0">W</tspan><tspan x="14.81" y="0">rite complex codes to </tspan><tspan x="15.4" y="19.2">function the serve</tspan><tspan class="cls-137" x="141.7" y="19.2">r</tspan><tspan x="146.14" y="19.2">.</tspan></text>
  <text class="cls-136" transform="translate(360.58 193.46)"><tspan class="cls-135" x="0" y="0">W</tspan><tspan x="14.81" y="0">rite logics.</tspan></text>
  <text class="cls-136" transform="translate(564.58 263.46)"><tspan class="cls-135" x="0" y="0">W</tspan><tspan x="14.81" y="0">rite logics.</tspan></text>
  <polyline class="cls-131" points="273.54 483.54 282 492 273.54 500.46"/>
  <polyline class="cls-132" points="222.67 372.89 233.65 368.13 238.41 379.11"/>
  <polyline class="cls-132" points="323.02 254.92 333.46 260.4 327.91 270.99"/>
  <polyline class="cls-132" points="475.46 250.57 478.91 261.85 467.46 265.34"/>
  <polyline class="cls-132" points="580.34 356.04 575.49 366.79 564.59 361.87"/>
  <g>
    <path class="cls-34" d="m69.75,242.4v-80.84c1.26-3.11,3.56-4.94,6.84-5.56h95.81c3.28.63,5.59,2.44,6.84,5.56v80.41c-.96,2.44-2.22,4.6-4.9,5.52-.27.09-.53.43-.64.72-1.26,3.26-1.39,3.36-4.89,3.36-8.68,0-17.36,0-26.05,0-1.23,0-2.45-.02-1.54,2,1.11,0,2.31.02,3.5,0,2.79-.07,5.3.76,6.23,3.51.95,2.78,1.51,5.81-.8,8.41h-51.33c-2.01-1.48-1.62-3.65-1.55-5.67.14-3.92,2.45-6.14,6.38-6.24,1.39-.03,2.78,0,4.1,0v-5.69c-3.17,0-6.15,0-9.14,0-1.92,0-3.86.13-5.76-.09-.66-.08-1.21-1.05-1.81-1.61.57-.52,1.08-1.16,1.75-1.5.45-.24,1.12-.06,1.69-.06,9.98,0,19.95,0,29.93,0,.76,0,1.52,0,2.41,0,.34-3.28-1.03-7.45,4.42-7.19v-2.56h-58.28c0,1.98-.06,3.83.01,5.67.1,2.68,1.5,4.01,4.18,4.07,1.71.04,3.44-.15,5.12.09.75.11,1.38,1.04,2.06,1.59-.71.53-1.35,1.33-2.14,1.53-1.08.27-2.27,0-3.4.08-4.35.32-7.46-1.34-9.06-5.5Zm100.61-36.66c-2.91,0-5.61.11-8.29-.07-.74-.05-1.42-.97-2.12-1.49.7-.53,1.37-1.48,2.1-1.53,2.7-.18,5.41-.11,8.12-.06,2.37.05,3.45,1.2,3.51,3.62.04,1.64.01,3.28.01,4.92,0,4.55-.03,4.59-4.42,5.95.04.93.09,1.88.13,2.79,3.66.55,4.28,1.28,4.28,4.76,0,2.07,0,4.13,0,6.2,0,.19.16.37.3.69.59-.05,1.19-.09,1.8-.14v-53.21h-102.7v53.17h53.88c0-2.11,0-4.04,0-5.96-.02-4.42.05-4.52,4.28-5.65v-2.9c-3.7-.5-4.28-1.16-4.29-4.83,0-1.92-.03-3.85.01-5.77.06-2.54,1.13-3.63,3.69-3.64,6.63-.03,13.26,0,19.89-.02,1.2,0,2.51.06,2.49,1.61-.02,1.56-1.35,1.56-2.54,1.56-5.99,0-11.97,0-17.96,0-.76,0-1.52.06-2.26.1v7.42h40.1v-7.52Zm5.54-31.05c0-3.37,0-6.63,0-9.88,0-4.29-1.11-5.38-5.47-5.38-30.64,0-61.28,0-91.92,0-.64,0-1.29-.04-1.92.04-1.81.24-3.26,1.26-3.35,3.07-.19,4.02-.06,8.06-.06,12.16h102.72Zm-75.38,87.53h47.75c.38-4.71-.22-5.38-4.63-5.38-7.98,0-15.95,0-23.93,0-5.34,0-10.68-.02-16.02.01-2.2.01-3.09.95-3.16,3.11-.02.71,0,1.41,0,2.25Zm29.68-13.96h40.08v-7.42h-40.08v7.42Zm40.1-17.46v-7.45h-40v7.45h40Zm-59.01,22.67h26.2c.49-1.36.12-1.95-1.28-1.9-1.49.05-2.99.01-4.49,0-3.54,0-3.94-.29-5.09-3.54h-15.34v5.43Zm23.35-33.6h31.24v-3.04h-31.24v3.04Zm31.3,14.41h-31.23v3.03h31.23v-3.03Zm3.45,3.17c5.04-.32,4.19,3.46,4.4,6.91,3.34-3.02,1.68-6.42,2.07-9.52h-6.46v2.62Z"/>
    <path class="cls-34" d="m135.43,191.21c-5.33,0-10.67,0-16,0-1.19,0-2.51-.05-2.49-1.6.02-1.54,1.32-1.58,2.52-1.57,10.6,0,21.19,0,31.79,0,1.19,0,2.48.01,2.47,1.6,0,1.61-1.34,1.57-2.5,1.57-5.26,0-10.52,0-15.79,0Z"/>
    <path class="cls-34" d="m105.59,206c-2.92,0-5.84,0-8.77,0-1.15,0-2.27-.18-2.27-1.63,0-1.45,1.17-1.61,2.29-1.62,5.84-.01,11.69-.06,17.53.06.74.02,1.98.86,2.09,1.49.25,1.35-.93,1.7-2.12,1.69-2.92,0-5.84,0-8.77,0Z"/>
    <path class="cls-34" d="m140.04,198.3c-2.06,0-4.13.13-6.17-.07-.71-.07-1.34-.93-2.01-1.43.67-.58,1.32-1.63,2-1.66,4.26-.16,8.53-.16,12.78,0,.68.02,1.33,1.08,1.99,1.65-.66.5-1.29,1.38-1.99,1.44-2.19.19-4.4.07-6.6.07Z"/>
    <path class="cls-34" d="m80.32,189.86c1.56,1.43,2.86,2.38,3.82,3.59.48.61.35,1.69.49,2.56-.87-.08-1.99.15-2.56-.3-1.6-1.29-2.98-2.85-4.44-4.32-.9-.91-.98-1.87-.06-2.81,1.5-1.52,2.94-3.12,4.58-4.48.52-.43,1.59-.2,2.41-.27-.06.82.2,1.9-.23,2.4-1.1,1.28-2.5,2.29-4.02,3.63Z"/>
    <path class="cls-34" d="m96.53,209.52c2.06,0,4.13-.14,6.16.07.77.08,1.95.84,2.08,1.47.29,1.38-.93,1.71-2.08,1.71-4.18.01-8.37.08-12.55-.07-.71-.03-1.38-1.02-2.07-1.56.69-.54,1.34-1.47,2.08-1.54,2.11-.21,4.25-.07,6.37-.08Z"/>
    <path class="cls-34" d="m98.71,189.96c-1.66-1.49-3.01-2.47-4.03-3.71-.43-.52-.19-1.59-.26-2.42.82.07,1.89-.17,2.4.26,1.63,1.35,3.06,2.95,4.57,4.46.93.93.92,1.86,0,2.79-1.51,1.51-2.94,3.11-4.57,4.46-.52.43-1.58.19-2.4.26.07-.82-.17-1.9.26-2.42,1.03-1.24,2.38-2.22,4.03-3.69Z"/>
    <path class="cls-34" d="m115.85,219.42c-2.13,0-4.27.13-6.38-.07-.76-.07-1.44-.94-2.15-1.45.67-.55,1.33-1.55,2.02-1.57,4.39-.14,8.8-.14,13.19,0,.66.02,1.3.95,1.95,1.45-.68.55-1.32,1.49-2.05,1.56-2.18.21-4.39.08-6.59.08Z"/>
    <path class="cls-34" d="m112.45,198.3c-1.7,0-3.42.16-5.1-.07-.77-.1-1.44-.96-2.15-1.48.67-.56,1.32-1.58,2.02-1.61,3.54-.16,7.09-.15,10.63,0,.67.03,1.3.97,1.94,1.49-.67.56-1.3,1.5-2.03,1.6-1.74.24-3.53.08-5.31.08Z"/>
    <path class="cls-34" d="m84.8,205.99c-1.63,0-3.29.17-4.88-.07-.75-.11-1.39-1.01-2.07-1.56.63-.53,1.24-1.5,1.89-1.53,3.4-.15,6.81-.14,10.21,0,.6.03,1.16.95,1.74,1.45-.59.57-1.13,1.53-1.78,1.62-1.67.23-3.39.08-5.1.08h0Z"/>
    <path class="cls-34" d="m93.27,185.02c-.14.4-.26.81-.41,1.2-1.17,2.98-2.26,6-3.57,8.91-.28.63-1.35.9-2.06,1.33-.29-.82-1-1.79-.79-2.45,1.06-3.17,2.3-6.28,3.64-9.34.26-.59,1.23-1.08,1.94-1.18.6-.08,1.28.49,1.92.78-.22.25-.45.49-.67.74Z"/>
    <path class="cls-34" d="m97.98,219.42c-1.63,0-3.28.17-4.88-.07-.74-.11-1.37-1.01-2.04-1.55.64-.51,1.26-1.43,1.92-1.46,3.32-.15,6.66-.15,9.99,0,.66.03,1.29.95,1.93,1.46-.68.54-1.3,1.45-2.04,1.56-1.59.24-3.25.07-4.88.07Z"/>
    <path class="cls-34" d="m160.74,211.2c-1.64,0-3.3.15-4.9-.07-.71-.1-1.31-.95-1.96-1.46.61-.55,1.2-1.53,1.84-1.56,3.41-.16,6.84-.16,10.25,0,.64.03,1.23,1.01,1.84,1.56-.65.51-1.25,1.38-1.95,1.47-1.68.22-3.41.07-5.12.07Z"/>
    <path class="cls-34" d="m83.53,216.26c1.28,0,2.6-.18,3.83.07.7.15,1.24,1.02,1.85,1.56-.58.5-1.14,1.4-1.75,1.44-2.63.16-5.27.16-7.9,0-.6-.04-1.15-.94-1.73-1.45.61-.54,1.16-1.41,1.86-1.56,1.23-.26,2.55-.07,3.83-.07Z"/>
    <path class="cls-34" d="m138.16,211.18c-1.28,0-2.59.18-3.82-.08-.62-.13-1.07-1.04-1.6-1.59.53-.49,1.03-1.36,1.58-1.39,2.55-.15,5.12-.17,7.66,0,.56.04,1.06,1.03,1.58,1.59-.52.49-.99,1.29-1.58,1.4-1.24.22-2.55.07-3.82.06Z"/>
    <path class="cls-34" d="m119.69,209.52c.78,0,1.65-.22,2.32.06.71.3,1.23,1.06,1.83,1.62-.58.52-1.1,1.4-1.74,1.48-1.6.21-3.27.21-4.88,0-.63-.08-1.14-.97-1.71-1.5.61-.55,1.14-1.3,1.85-1.59.67-.27,1.54-.06,2.32-.06Z"/>
    <path class="cls-34" d="m109.62,188.09c.92,0,1.89-.19,2.73.07.58.18,1.35.98,1.35,1.5,0,.5-.84,1.39-1.37,1.44-1.89.18-3.81.18-5.7,0-.52-.05-1.34-.97-1.32-1.48.02-.52.79-1.31,1.38-1.47.92-.25,1.96-.07,2.95-.07,0,0,0,0,0,0Z"/>
    <path class="cls-34" d="m125.87,198.29c-.71,0-1.5.2-2.1-.06-.67-.28-1.18-.98-1.75-1.49.54-.55,1.03-1.47,1.64-1.57,1.45-.24,2.99-.24,4.44-.02.63.1,1.15.97,1.72,1.49-.61.55-1.13,1.28-1.84,1.6-.59.27-1.39.05-2.1.05Z"/>
    <path class="cls-34" d="m81.76,209.52c.64,0,1.38-.2,1.89.05.71.35,1.26,1.04,1.88,1.59-.56.53-1.07,1.4-1.71,1.51-1.38.23-2.85.23-4.23,0-.64-.1-1.17-.95-1.74-1.46.59-.56,1.1-1.31,1.81-1.64.58-.27,1.39-.06,2.1-.06Z"/>
    <path class="cls-34" d="m110.61,212.95c-.86-.23-1.89-.22-2.38-.73-.38-.4-.1-1.44-.11-2.2,1.62,0,3.25-.05,4.87.07.07,0,.34,1.71-.03,2.1-.48.52-1.52.52-2.35.76Z"/>
    <path class="cls-34" d="m148.78,208c1.3.07,2.87-.09,2.64,1.86-.19,1.55-1.59,1.33-2.71,1.34-1.13,0-2.56.19-2.72-1.33-.22-2.09,1.52-1.77,2.79-1.87Z"/>
    <path class="cls-34" d="m81.65,162.4c2.52.04,4.59,2.12,4.61,4.65.02,2.59-2.19,4.77-4.77,4.73-2.61-.05-4.66-2.25-4.57-4.88.09-2.55,2.17-4.53,4.73-4.49Zm1.52,5.19c.2-.38.4-.75.6-1.13-.64-.26-1.32-.79-1.92-.71-.61.08-1.15.75-1.72,1.16.39.51.73,1.38,1.19,1.45.56.09,1.23-.48,1.85-.77Z"/>
    <path class="cls-34" d="m88.89,167.03c.02-2.56,2.04-4.6,4.58-4.64,2.6-.04,4.78,2.12,4.76,4.71-.02,2.5-2.12,4.62-4.62,4.66-2.59.04-4.74-2.11-4.73-4.73Zm6.71.21c-.91-.76-1.46-1.56-1.88-1.49-.59.09-1.09.81-1.64,1.25.43.48.83,1.32,1.3,1.36.56.06,1.19-.57,2.21-1.13Z"/>
    <path class="cls-34" d="m105.62,162.4c2.53.05,4.58,2.14,4.59,4.67,0,2.59-2.21,4.77-4.78,4.7-2.61-.06-4.65-2.26-4.55-4.9.1-2.55,2.19-4.52,4.75-4.47Zm2.04,4.61c-1.08-.66-1.67-1.3-2.23-1.27-.48.02-1.35.93-1.27,1.24.15.58.83,1.33,1.37,1.4.5.07,1.1-.67,2.14-1.38Z"/>
    <path class="cls-34" d="m160.86,246.16c-1.7,0-3.42.15-5.09-.07-.69-.09-1.27-.99-1.89-1.53.61-.55,1.21-1.54,1.84-1.57,3.39-.16,6.8-.16,10.2,0,.65.03,1.26.99,1.88,1.53-.61.55-1.17,1.48-1.84,1.57-1.67.23-3.39.08-5.09.08Z"/>
    <path class="cls-34" d="m137.9,246.15c-1.14,0-2.32.18-3.4-.07-.67-.15-1.18-.97-1.76-1.49.54-.55,1.06-1.54,1.64-1.58,2.55-.17,5.12-.15,7.66,0,.54.03,1.52,1.07,1.43,1.43-.16.65-.91,1.49-1.54,1.61-1.3.25-2.69.07-4.04.07,0,0,0,0,0,.01Z"/>
    <path class="cls-34" d="m148.74,246.18c-.43-.02-.98.12-1.25-.09-.6-.46-1.51-1.12-1.49-1.67.06-1.53,1.39-1.53,2.56-1.51,1.19.02,2.67-.24,2.83,1.44.05.54-.82,1.25-1.4,1.74-.26.22-.82.08-1.25.1Z"/>
    <path class="cls-34" d="m161.03,225.46c1.63,0,3.28-.15,4.88.07.69.1,1.27.99,1.9,1.51-.61.55-1.2,1.53-1.83,1.56-3.39.16-6.8.16-10.19,0-.65-.03-1.27-.98-1.9-1.51.61-.54,1.18-1.47,1.85-1.56,1.74-.22,3.53-.07,5.3-.07,0,0,0,0,0,0Z"/>
    <path class="cls-34" d="m138.31,228.67c-1.28,0-2.59.17-3.83-.07-.65-.13-1.17-.96-1.75-1.48.55-.55,1.07-1.53,1.65-1.56,2.55-.17,5.12-.15,7.67,0,.54.03,1.51,1.08,1.42,1.43-.17.65-.91,1.46-1.54,1.6-1.15.26-2.4.07-3.61.08Z"/>
    <path class="cls-34" d="m148.6,228.73c-.52-.06-1.35.08-1.58-.23-.46-.61-.99-1.61-.78-2.2.44-1.22,4.26-1.25,4.97-.11.66,1.06.29,1.94-.86,2.36-.51.19-1.12.12-1.74.18Z"/>
  </g>
  <g>
    <path class="cls-34" d="m464.84,21.42c.39,1.01,1.11,2.03,1.11,3.04.06,35.39.06,70.77.02,106.16,0,5.54-3.78,9.47-9.27,9.79-2.88.17-5.79.21-8.66-.03-.91-.08-1.74-1.23-2.6-1.88.86-.66,1.67-1.77,2.6-1.88,2.33-.27,4.72-.08,7.08-.1,4.86-.02,6.98-2.17,6.99-7.1.02-7.88,0-15.77,0-23.65,0-25.31,0-50.63,0-75.94,0-.93,0-1.86,0-3.68-4.29,4.28-7.89,2.16-11.57.13-.68-.37-1.77-.13-2.64.01-.58.1-1.14.46-1.64.81-2.88,2.02-5.75,2.22-8.65.05-2.04-1.53-4.09-1.61-6.18-.04-2.86,2.13-5.76,2.17-8.64.02-2.07-1.55-4-1.31-6.21-.03-3.25,1.88-3.33,1.73-9.64-.12,0,1.01,0,1.95,0,2.88,0,15.15,0,30.31,0,45.46,0,.79.17,1.68-.15,2.33-.33.67-1.22,1.58-1.75,1.52-.74-.09-1.62-.88-1.97-1.6-.35-.71-.14-1.71-.14-2.59,0-7.25,0-14.49,0-21.88h-15.35c3.86,3.97,3.83,8.58,3.82,13.27-.06,20.76-.03,41.52-.02,62.28,0,.79-.04,1.58.03,2.36.31,3.26,2.83,5.57,5.93,5.49,3.12-.09,5.52-2.47,5.56-5.81.07-7.18.03-14.36.03-21.55,0-6.92,0-13.84,0-20.76,0-1.56-.26-3.55,2.06-3.49,2.29.06,1.94,2.07,1.94,3.6.01,13.66.06,27.33-.04,40.99-.02,2.21-.66,4.42-1.07,6.91.59.03,1.49.1,2.39.11,9.28,0,18.57,0,27.85,0,.61,0,1.34-.2,1.81.06.82.44,1.5,1.17,2.23,1.77-.73.7-1.4,1.93-2.2,2.01-2.51.27-5.07.1-7.61.12-.78,0-1.55.07-2.67.13,0,1.94.04,3.75,0,5.56-.15,5.7-4.16,9.72-9.86,9.77-7.44.06-14.89,0-22.34.03-1.49,0-3.05-.08-3.02-2.01.02-1.94,1.65-1.95,3.1-1.95,6.83,0,13.66,0,20.5,0,5.84,0,7.74-1.89,7.75-7.67,0-1.13,0-2.25,0-3.67-1.08-.08-1.99-.19-2.91-.2-7.18-.02-14.37,0-21.55-.01-8.16,0-11.35-3.06-11.83-11.29-.01-.25-.12-.49-.26-1.07-2.55,0-5.15,0-7.75,0-1.5,0-3-.14-2.92-2.1.07-1.81,1.56-1.84,2.92-1.85,2.6-.01,5.19,0,7.9,0v-3.93c-2.55,0-5.14,0-7.72,0-1.45,0-3.05.03-3.1-1.93-.05-1.99,1.56-2.02,3.01-2.02,2.53-.01,5.06,0,7.76,0v-3.93c-2.57,0-5.16,0-7.75,0-1.47,0-3.04-.05-3.01-2.01.02-1.99,1.67-1.93,3.09-1.94,2.52-.02,5.04,0,7.7,0v-3.93c-2.67,0-5.27,0-7.86,0-1.5,0-3-.13-2.93-2.1.07-1.81,1.56-1.85,2.91-1.85,2.6-.01,5.19,0,7.91,0v-3.93c-2.55,0-5.13,0-7.71,0-1.45,0-3.05.03-3.11-1.92-.06-1.99,1.55-2.02,3-2.03,2.53-.01,5.06,0,7.76,0v-3.93c-2.56,0-5.15,0-7.74,0-1.47,0-3.04-.04-3.02-2.01.02-1.99,1.66-1.94,3.08-1.94,2.52-.02,5.04,0,7.71,0v-3.93c-2.66,0-5.26,0-7.86,0-1.5,0-3-.13-2.93-2.09.06-1.81,1.55-1.85,2.91-1.86,2.6-.01,5.19,0,7.91,0v-3.93c-2.54,0-5.12,0-7.71,0-1.45,0-3.05.04-3.11-1.92-.06-1.99,1.54-2.03,3-2.04,2.53-.01,5.06,0,7.77,0v-3.93c-2.56,0-5.15,0-7.74,0-1.47,0-3.04-.04-3.03-2,.01-1.99,1.65-1.94,3.08-1.95,2.43-.02,4.87,0,7.61,0-.53-3.66-2.4-5.9-5.33-7.24-3.61-1.66-7.04-1.08-10.06,1.44-2.54,2.12-3.29,4.98-3.29,8.22.05,18.66.03,37.31,0,55.97,0,1.65.62,4.1-1.9,4.15-2.78.05-2.06-2.53-2.07-4.23-.04-11.47-.02-22.95-.02-34.42,0-.94,0-1.88,0-2.96h-11.39c-.06.8-.15,1.56-.16,2.31,0,20.23,0,40.47,0,60.7,0,.61-.02,1.23.07,1.84.44,3.12,2.94,5.24,5.99,5.11,3.06-.13,5.38-2.4,5.46-5.61.1-4.46.03-8.93.04-13.4,0-.7-.21-1.54.11-2.07.43-.72,1.27-1.66,1.92-1.65.65,0,1.85,1.06,1.85,1.66.03,5.94-.1,11.89-.3,17.83-.03.98-.64,1.95-1.11,3.28,5.19,0,10.16,0,15.12,0,.96,0,2.04-.23,2.86.11.8.34,1.36,1.28,2.02,1.96-.72.63-1.38,1.71-2.15,1.79-2.34.24-4.72.09-7.09.09-6.13,0-12.26.03-18.39,0-6.2-.03-10.25-3.99-10.26-10.16-.04-21.55,0-43.1-.05-64.64,0-2.38.85-3.33,3.22-3.28,3.93.09,7.87.03,12.06.03.07-.9.18-1.64.18-2.39.02-4.12-.02-8.23.02-12.35.08-8.42,5.56-14.03,13.97-14.14,7.09-.1,14.19-.02,21.28-.03.94,0,1.87,0,3.11,0,0-4.58,0-8.85,0-13.12,0-3.68-.07-7.36.05-11.04.04-1.15.59-2.29.91-3.43.7,0,1.4,0,2.1,0,1.58.88,3.13,1.84,4.76,2.6.72.34,1.77.63,2.4.35,1.88-.83,3.64-1.95,5.45-2.95.7,0,1.4,0,2.1,0,5.62,3.82,7.58,3.82,12.61,0h2.1c5.78,3.8,7.86,3.8,12.61,0h2.1c3.86,2.95,7.82,4.13,12.06.7.33-.27.72-.47,1.08-.7.53,0,1.05,0,1.58,0Z"/>
    <path class="cls-34" d="m434.47,40.87c4.81,0,9.63,0,14.44,0,1.5,0,3,.14,2.92,2.1-.07,1.8-1.55,1.86-2.91,1.86-9.63,0-19.26,0-28.89,0-1.5,0-3.16-.23-2.85-2.09.13-.76,1.83-1.74,2.84-1.78,4.81-.19,9.63-.08,14.44-.08Z"/>
    <path class="cls-34" d="m426.72,65.16c-3.06,0-6.14.14-9.18-.08-.93-.07-2.41-1.03-2.56-1.78-.33-1.73,1.15-2.03,2.6-2.02,6.04.01,12.08-.07,18.11.09.92.02,2.46,1.03,2.58,1.77.28,1.66-1.17,2.05-2.63,2.04-2.98-.02-5.95,0-8.93,0Z"/>
    <path class="cls-34" d="m426.65,77.04c3.06,0,6.14-.15,9.18.09.9.07,1.72,1.22,2.58,1.88-.88.64-1.75,1.8-2.66,1.83-6.12.16-12.25.16-18.37,0-.86-.02-1.69-1.24-2.54-1.9.87-.63,1.71-1.74,2.62-1.81,3.05-.23,6.12-.09,9.18-.09Z"/>
    <path class="cls-34" d="m426.74,96.7c-3.06,0-6.13,0-9.19,0-1.45,0-2.92-.35-2.57-2.06.16-.75,1.66-1.72,2.58-1.75,6.03-.16,12.08-.16,18.11,0,.92.02,2.47,1.01,2.6,1.75.3,1.66-1.14,2.07-2.6,2.06-2.98-.02-5.95,0-8.93,0Z"/>
    <path class="cls-34" d="m426.47,108.58c3.15,0,6.31-.13,9.45.08.86.06,1.65,1.12,2.48,1.72-.82.69-1.63,1.97-2.47,1.99-6.21.17-12.43.17-18.64,0-.83-.02-1.63-1.29-2.44-1.98.81-.6,1.59-1.67,2.44-1.72,3.05-.21,6.12-.08,9.18-.08Z"/>
    <path class="cls-34" d="m426.49,128.23c-3.06,0-6.14.15-9.18-.1-.86-.07-1.64-1.28-2.45-1.97.81-.6,1.61-1.71,2.43-1.73,6.21-.15,12.43-.15,18.64,0,.84.02,1.65,1.12,2.48,1.72-.82.7-1.6,1.92-2.47,1.99-3.13.24-6.29.1-9.44.1Z"/>
    <path class="cls-34" d="m434.36,52.7c-2.44,0-4.9.18-7.31-.1-.91-.1-1.69-1.27-2.53-1.95.88-.63,1.75-1.78,2.65-1.81,4.96-.18,9.93-.18,14.89,0,.91.03,2.41,1.08,2.53,1.83.25,1.64-1.2,2.05-2.65,2.04-2.53,0-5.05,0-7.58,0Z"/>
    <path class="cls-34" d="m396.15,148.08c-1.49,0-3.02.22-4.45-.09-.79-.17-1.4-1.2-2.08-1.85.67-.66,1.31-1.83,2.03-1.88,2.96-.22,5.95-.22,8.91,0,.74.05,1.4,1.2,2.1,1.85-.77.66-1.45,1.68-2.33,1.9-1.32.32-2.78.08-4.18.08,0,0,0,0,0,0Z"/>
    <path class="cls-34" d="m421.34,73.02c-1.49,0-3.02.22-4.44-.09-.78-.17-1.38-1.21-2.06-1.85.69-.64,1.34-1.77,2.07-1.82,2.96-.21,5.95-.21,8.91,0,.74.05,1.39,1.2,2.09,1.84-.7.64-1.32,1.67-2.12,1.84-1.42.3-2.96.08-4.44.08Z"/>
    <path class="cls-34" d="m421.26,88.8c-1.4,0-2.86.25-4.18-.08-.85-.21-1.49-1.27-2.23-1.95.71-.61,1.39-1.69,2.14-1.75,2.87-.21,5.78-.23,8.64.01.8.07,1.5,1.25,2.25,1.93-.72.61-1.37,1.59-2.19,1.76-1.43.29-2.96.08-4.44.08Z"/>
    <path class="cls-34" d="m421.28,104.57c-1.4,0-2.86.24-4.18-.09-.86-.21-1.51-1.26-2.26-1.93.71-.62,1.38-1.72,2.12-1.77,2.87-.21,5.78-.23,8.64,0,.81.07,1.52,1.24,2.28,1.91-.8.63-1.53,1.59-2.43,1.8-1.33.31-2.78.08-4.18.08Z"/>
    <path class="cls-34" d="m421.47,116.49c1.49,0,3.01-.19,4.44.08.74.14,1.32,1.1,1.97,1.69-.64.69-1.25,1.92-1.93,1.97-3.04.22-6.12.22-9.17,0-.69-.05-1.61-1.19-1.8-1.97-.1-.43,1.07-1.56,1.78-1.68,1.53-.26,3.13-.08,4.71-.08Z"/>
    <path class="cls-34" d="m434.5,36.85c-1.31,0-2.66.19-3.91-.08-.64-.14-1.6-1.15-1.54-1.67.09-.73.93-1.91,1.54-1.96,2.6-.22,5.24-.21,7.85-.02.6.04,1.61,1.17,1.55,1.69-.08.73-.89,1.78-1.58,1.96-1.23.32-2.6.09-3.91.09Z"/>
    <path class="cls-34" d="m410.95,148.07c-.87,0-1.85.24-2.6-.07-.75-.31-1.88-1.29-1.78-1.74.17-.78,1.08-1.85,1.83-1.98,1.7-.3,3.51-.3,5.22-.03.8.13,1.46,1.16,2.19,1.78-.74.69-1.38,1.59-2.26,1.99-.72.33-1.72.07-2.59.07v-.02Z"/>
    <path class="cls-34" d="m450.28,61.31c.7,0,1.53-.24,2.06.06.73.41,1.72,1.22,1.71,1.85-.01.64-.99,1.58-1.73,1.81-1.04.32-2.33.37-3.36.05-.96-.3-1.73-1.23-2.58-1.89.86-.64,1.69-1.34,2.61-1.89.32-.19.86-.03,1.29-.03,0,.01,0,.03,0,.04Z"/>
    <path class="cls-34" d="m450.28,69.2c.7,0,1.53-.24,2.06.06.73.41,1.72,1.22,1.71,1.85-.01.64-.99,1.58-1.73,1.81-1.04.32-2.33.37-3.36.05-.96-.3-1.73-1.23-2.58-1.89.86-.64,1.69-1.34,2.61-1.89.32-.19.86-.03,1.29-.03,0,.01,0,.03,0,.04Z"/>
    <path class="cls-34" d="m450.1,80.87c-.7,0-1.52.23-2.06-.06-.67-.35-1.6-1.2-1.53-1.72.09-.72.9-1.74,1.58-1.92,1.23-.32,2.65-.33,3.89-.04.82.19,1.47,1.14,2.19,1.75-.75.68-1.42,1.48-2.27,1.99-.45.27-1.19.05-1.81.05,0-.02,0-.03,0-.05Z"/>
    <path class="cls-34" d="m450.43,84.95c.61,0,1.35-.21,1.81.05.74.42,1.3,1.16,1.93,1.77-.66.67-1.22,1.69-2.01,1.93-1.12.34-2.48.32-3.62.02-.82-.22-1.44-1.15-2.15-1.77.74-.67,1.4-1.47,2.24-1.97.45-.27,1.19-.05,1.81-.05,0,0,0,.01,0,.02Z"/>
    <path class="cls-34" d="m450.32,92.82c.52,0,1.17-.2,1.55.04.84.53,1.55,1.28,2.31,1.94-.8.63-1.52,1.49-2.42,1.82-.85.31-2,.33-2.83,0-.95-.37-1.7-1.27-2.54-1.94.87-.63,1.72-1.31,2.64-1.85.33-.19.86-.03,1.29-.03h0Z"/>
    <path class="cls-34" d="m450.1,104.52c-.7,0-1.52.23-2.06-.06-.67-.35-1.6-1.2-1.53-1.72.09-.72.9-1.74,1.58-1.92,1.23-.32,2.65-.33,3.89-.04.82.19,1.47,1.14,2.19,1.75-.75.68-1.42,1.48-2.27,1.99-.45.27-1.19.05-1.81.05,0-.02,0-.03,0-.05Z"/>
    <path class="cls-34" d="m450.32,108.59c.52,0,1.17-.2,1.55.04.84.53,1.55,1.28,2.31,1.94-.8.63-1.52,1.49-2.42,1.82-.85.31-2,.33-2.83,0-.95-.37-1.7-1.27-2.54-1.94.87-.63,1.72-1.31,2.64-1.85.33-.19.86-.03,1.29-.03h0Z"/>
    <path class="cls-34" d="m450.07,120.38c-.7-.03-1.52.15-2.06-.15-.66-.37-1.58-1.22-1.51-1.74.1-.72.92-1.72,1.61-1.9,1.23-.32,2.65-.33,3.89-.04.82.2,1.46,1.15,2.17,1.77-.76.67-1.44,1.46-2.29,1.97-.45.27-1.19.05-1.81.05v.04Z"/>
    <path class="cls-34" d="m450.07,128.26c-.7-.03-1.52.15-2.06-.15-.66-.37-1.58-1.22-1.51-1.73.1-.72.92-1.72,1.61-1.9,1.23-.32,2.65-.33,3.89-.04.82.2,1.45,1.15,2.17,1.77-.76.67-1.44,1.46-2.29,1.97-.45.27-1.19.05-1.81.05,0,.01,0,.03,0,.04Z"/>
  </g>
  <g>
    <path class="cls-34" d="m700.04,397.68c0,5.83,0,11.54,0,17.25,0,4.49-1.79,6.28-6.28,6.28-4.58,0-9.15,0-13.88,0-.06.72-.12,1.32-.17,1.92-.25,2.77-2.17,4.79-4.96,4.81-9.1.07-18.2.07-27.3,0-2.87-.02-4.87-2.12-4.97-5-.08-2.33-.09-4.66,0-6.98.11-2.78,2.09-4.86,4.86-4.88,9.17-.07,18.34-.09,27.51,0,3.16.03,4.64,2.14,4.97,6.72,2.11,0,4.27,0,6.42,0,2.68,0,5.36-.02,8.04,0,1.42.01,2.33-.47,2.35-2.03,0-.71,0-1.41,0-2.12,0-5.28,0-10.57,0-16.17-3.4,0-6.68,0-9.97,0-5.24,0-6.69-1.33-7.08-6.77-1.06,0-2.15,0-3.25,0-3.88,0-7.76.04-11.64-.02-3.24-.05-5.25-2.08-5.31-5.32-.05-2.66-.01-5.32-.01-8.21-3.79,0-7.37.01-10.95,0-4.06-.02-5.96-1.91-5.99-5.94-.01-1.83-.03-3.67,0-5.5.06-3.47,2.07-5.46,5.58-5.49,3.67-.03,7.33,0,11.35,0,0-.83,0-1.57,0-2.3,0-5.22-.02-10.44,0-15.66.02-3.77,1.98-5.72,5.76-5.74,4.78-.02,9.56,0,14.43,0,.1-1.09.09-2,.29-2.87.54-2.41,2.56-3.89,5.34-3.9,7.48-.03,14.96.03,22.43-.06,1.01-.01,2.14-.48,2.98-1.07,1.68-1.19,3.4-1.75,5.35-.97,1.89.75,3.08.17,3.92-1.61,1.09-2.32,3.05-3.1,5.53-3.1,2.47,0,4.47.73,5.55,3.06.89,1.92,2.15,2.34,4.1,1.61,2.44-.91,4.34.16,6.05,1.89,1.67,1.7,2.55,3.6,1.67,5.92-.76,1.99-.17,3.18,1.7,4.06,2.32,1.1,3.01,3.13,2.99,5.6-.02,2.4-.76,4.33-2.98,5.39-1.86.88-2.43,2.04-1.73,4.06,1.02,2.93-.55,6.22-3.83,7.53-1.59.64-1.67,1.49-1.67,2.84.03,14.25.04,28.5-.02,42.75,0,1.34-.38,2.78-.96,4-2.08,4.39-4.35,8.7-6.48,13.07-.9,1.85-2.14,3.18-4.31,3.21-2.28.03-3.54-1.36-4.48-3.28-2.13-4.37-4.4-8.67-6.48-13.07-.57-1.22-.87-2.66-.93-4.01-.13-3.24-.04-6.49-.04-9.91h-13.54Zm-37.25-37.44c4.12,0,7.92-.05,11.72.02,3.04.05,5.07,2.03,5.18,5.01.08,2.32.09,4.66,0,6.98-.11,2.78-2.09,4.73-4.86,4.9-1.19.07-2.4.02-3.6.03-2.79,0-5.57,0-8.45,0,0,2.87.02,5.41,0,7.94-.02,1.64.84,2.24,2.39,2.22,3.6-.03,7.19,0,10.79,0,1.23,0,2.46,0,3.65,0,.37-5.37,1.86-6.77,6.88-6.77,8.25,0,16.5,0,24.75,0,.74,0,1.48,0,2.23,0v-17.73c-4.89-2.06-5.98-4.19-5.14-9.18.14-.82-.49-2-1.13-2.68-1.29-1.37-2.83-2.51-4.88-4.28-4.96,0-10.87.01-16.79,0-3.73-.01-5.62-1.83-5.81-5.48-.02-.39-.1-.78-.16-1.28-5,0-9.85,0-14.71,0-1.26,0-2.03.6-2.04,1.9-.02,6.05,0,12.1,0,18.41Zm54.31-1.75c2.5.27,4.55,1.09,5.56,3.43.56,1.31,1.44,1.72,2.8,1.73,1.38,0,2.16-.5,2.79-1.75,1.43-2.86,4.22-3.99,7.28-2.92,1.39.49,2.46.19,3.11-.92.5-.84.92-2.06.7-2.94-.78-3.16.15-5.88,3-7.32,1.24-.62,1.78-1.39,1.77-2.78,0-1.36-.44-2.18-1.71-2.82-2.9-1.45-4.05-4.22-2.98-7.25.48-1.37.27-2.45-.86-3.12-.85-.5-2.06-.97-2.93-.75-3.29.81-5.76-.19-7.53-3.08-.48-.78-1.63-1.33-2.58-1.59-1.27-.34-2.19.26-2.83,1.57-1.49,3.01-4.14,3.91-7.45,3.09-.87-.21-2.24.19-2.87.81-.63.63-1.04,1.99-.83,2.86.81,3.32-.08,5.98-3.07,7.46-1.29.64-1.94,1.54-1.59,2.82.26.95.8,2.11,1.58,2.59,2.9,1.79,3.91,4.25,3.1,7.52-.22.88.23,2.08.73,2.93.66,1.12,1.78,1.51,3.11.87.55-.27,1.21-.33,1.71-.46Zm-3.57,25.47c-9.63,0-19.06,0-28.48,0-1.29,0-1.93.72-1.93,2,0,1.69-.01,3.38,0,5.07,0,2.78.28,3.06,3.01,3.06,8.46,0,16.91,0,25.37,0,.67,0,1.34,0,2.05,0v-10.15Zm-52.52-10.18c4.29,0,8.59-.03,12.88.01,1.67.02,2.49-.66,2.44-2.38-.05-1.83-.04-3.66,0-5.49.03-1.59-.7-2.31-2.29-2.31-8.66.02-17.31.02-25.97,0-1.63,0-2.26.81-2.23,2.37.04,1.76.06,3.52,0,5.28-.07,1.8.71,2.55,2.51,2.53,4.22-.05,8.45-.02,12.67-.02Zm.07,40.66c-4.29,0-8.59.02-12.88,0-1.56-.01-2.38.61-2.36,2.24.03,1.9.02,3.8,0,5.7-.02,1.48.66,2.22,2.16,2.22,8.73,0,17.45,0,26.18,0,1.51,0,2.16-.76,2.15-2.23-.02-1.69,0-3.38,0-5.07-.02-2.48-.35-2.84-2.79-2.85-4.15-.01-8.3,0-12.46,0Zm46.42-81.29c-7.5,0-14.96,0-22.42,0-1.42,0-1.98.83-1.97,2.18.02,1.9.03,3.8,0,5.71-.03,1.62.77,2.27,2.34,2.26,5.56-.02,11.13.02,16.69-.05.55,0,1.16-.49,1.61-.9,1.11-1.01,2.05-2.23,3.24-3.12,1.16-.87,1.74-1.77,1.32-3.2-.26-.87-.49-1.76-.8-2.89Zm12.86,74.46c0-4.06,0-7.92,0-11.78,0-9.87,0-19.73,0-29.6,0-2.82-1-4.01-3.21-4.01v45.39h3.22Zm13.43-45.52c-2.43.37-3.26,1.48-3.26,4.32,0,13.11,0,26.22,0,39.33,0,.61.08,1.22.12,1.81h3.14v-45.46Zm-6.8,45.46v-40.44h-3.13v40.44h3.13Zm-8.96,3.51c2.21,4.42,4.25,8.57,6.36,12.68.58,1.12,1.51,1.11,2.09,0,2.12-4.11,4.15-8.26,6.36-12.68h-14.81Z"/>
    <path class="cls-34" d="m737.29,345.13c-.06,6.52-5.45,11.78-11.98,11.71-6.51-.07-11.77-5.45-11.71-11.99.06-6.51,5.45-11.78,11.98-11.71,6.52.06,11.77,5.45,11.71,11.99Zm-11.87,8.32c4.67.01,8.49-3.82,8.47-8.49-.02-4.58-3.75-8.36-8.33-8.42-4.67-.06-8.54,3.72-8.58,8.38-.04,4.67,3.77,8.52,8.43,8.53Z"/>
    <path class="cls-34" d="m689.77,390.63h-3.14v-3.17h3.14v3.17Z"/>
    <path class="cls-34" d="m693.3,390.59v-3.09h3.2v3.09h-3.2Z"/>
    <path class="cls-34" d="m700.14,390.6v-3.11h3.15v3.11h-3.15Z"/>
    <path class="cls-34" d="m706.9,390.57v-3.11h3.2v3.11h-3.2Z"/>
    <path class="cls-34" d="m652.49,370.36h-3.09v-3.2h3.09v3.2Z"/>
    <path class="cls-34" d="m659.3,367.17v3.11h-3.2v-3.11h3.2Z"/>
    <path class="cls-34" d="m662.94,367.1h3.11v3.2h-3.11v-3.2Z"/>
    <path class="cls-34" d="m672.82,370.3h-3.11v-3.15h3.11v3.15Z"/>
    <path class="cls-34" d="m652.51,421.12h-3.14v-3.17h3.14v3.17Z"/>
    <path class="cls-34" d="m656.17,417.9h3.09v3.2h-3.09v-3.2Z"/>
    <path class="cls-34" d="m662.94,417.91h3.11v3.2h-3.11v-3.2Z"/>
    <path class="cls-34" d="m672.77,421.16h-3.05v-3.2h3.05v3.2Z"/>
    <path class="cls-34" d="m686.58,339.76v-3.11h3.2v3.11h-3.2Z"/>
    <path class="cls-34" d="m693.35,339.81v-3.14h3.17v3.14h-3.17Z"/>
    <path class="cls-34" d="m700.12,339.75v-3.09h3.2v3.09h-3.2Z"/>
    <path class="cls-34" d="m730.51,345.07c-.04,2.8-2.4,5.07-5.2,5-2.8-.07-5.04-2.45-4.94-5.26.1-2.72,2.37-4.9,5.09-4.89,2.81.01,5.09,2.34,5.05,5.15Zm-2.67-.02c-1.1-.82-1.77-1.7-2.27-1.61-.67.12-1.49.91-1.67,1.58-.11.39.9,1.5,1.44,1.53.65.03,1.33-.75,2.51-1.49Z"/>
  </g>
</svg>