<?xml version="1.0" encoding="UTF-8"?>
<svg id="Layer_1" data-name="Layer 1" xmlns="http://www.w3.org/2000/svg" xmlns:xlink="http://www.w3.org/1999/xlink" viewBox="0 0 260 260">
  <defs>
    <style>
      .cls-1 {
        fill: #fd715b;
      }

      .cls-1, .cls-2, .cls-3, .cls-4, .cls-5, .cls-6, .cls-7, .cls-8, .cls-9, .cls-10, .cls-11, .cls-12, .cls-13, .cls-14, .cls-15, .cls-16, .cls-17, .cls-18, .cls-19, .cls-20, .cls-21, .cls-22, .cls-23, .cls-24, .cls-25, .cls-26, .cls-27, .cls-28, .cls-29, .cls-30, .cls-31, .cls-32, .cls-33, .cls-34, .cls-35, .cls-36, .cls-37, .cls-38, .cls-39, .cls-40, .cls-41, .cls-42, .cls-43, .cls-44, .cls-45, .cls-46, .cls-47, .cls-48, .cls-49, .cls-50, .cls-51, .cls-52, .cls-53, .cls-54, .cls-55, .cls-56, .cls-57, .cls-58, .cls-59, .cls-60, .cls-61, .cls-62, .cls-63, .cls-64, .cls-65, .cls-66, .cls-67, .cls-68, .cls-69, .cls-70, .cls-71, .cls-72, .cls-73, .cls-74, .cls-75, .cls-76, .cls-77, .cls-78, .cls-79, .cls-80, .cls-81, .cls-82, .cls-83, .cls-84, .cls-85, .cls-86, .cls-87, .cls-88, .cls-89, .cls-90, .cls-91, .cls-92, .cls-93, .cls-94, .cls-95, .cls-96, .cls-97, .cls-98, .cls-99, .cls-100, .cls-101, .cls-102, .cls-103, .cls-104, .cls-105, .cls-106, .cls-107, .cls-108, .cls-109, .cls-110, .cls-111, .cls-112, .cls-113, .cls-114, .cls-115, .cls-116, .cls-117, .cls-118, .cls-119, .cls-120, .cls-121, .cls-122, .cls-123, .cls-124 {
        stroke-width: 0px;
      }

      .cls-2 {
        fill: #999;
      }

      .cls-3 {
        fill: #a3a3a3;
      }

      .cls-4 {
        fill: #1e2c32;
      }

      .cls-5 {
        fill: #908f90;
      }

      .cls-6 {
        fill: #9d9b9e;
      }

      .cls-7 {
        fill: #43484a;
      }

      .cls-8 {
        fill: #9c9b9a;
      }

      .cls-9 {
        fill: url(#New_Gradient_Swatch_copy-3);
      }

      .cls-10 {
        fill: #606060;
      }

      .cls-11 {
        fill: #b2b2b2;
      }

      .cls-12 {
        fill: url(#New_Gradient_Swatch-2);
      }

      .cls-13 {
        fill: #676769;
      }

      .cls-14 {
        fill: #875149;
      }

      .cls-15 {
        fill: #5d4445;
      }

      .cls-16 {
        fill: #9c9b9c;
      }

      .cls-17 {
        fill: #9b9c9d;
      }

      .cls-18 {
        fill: url(#New_Gradient_Swatch_copy);
      }

      .cls-19 {
        fill: #1c1d20;
      }

      .cls-20 {
        fill: #a1a5a7;
      }

      .cls-21 {
        fill: #dfdedc;
      }

      .cls-22 {
        fill: #cb4f40;
      }

      .cls-23 {
        fill: #949494;
      }

      .cls-24 {
        fill: #78423d;
      }

      .cls-25 {
        fill: #060809;
      }

      .cls-26 {
        fill: #cb4e3f;
      }

      .cls-27 {
        fill: url(#New_Gradient_Swatch_copy-5);
      }

      .cls-28 {
        fill: #e1dfe2;
      }

      .cls-29 {
        fill: #727272;
      }

      .cls-30 {
        fill: #262727;
      }

      .cls-31 {
        fill: #7e6b6b;
      }

      .cls-32 {
        fill: #5b5a5b;
      }

      .cls-33 {
        fill: #6d6a6a;
      }

      .cls-34 {
        fill: #a19ea0;
      }

      .cls-35 {
        fill: #e0e0e0;
      }

      .cls-36 {
        fill: #9c9c9c;
      }

      .cls-37 {
        fill: #1c2c30;
      }

      .cls-38 {
        fill: #fb715c;
      }

      .cls-39 {
        fill: #ded6d0;
      }

      .cls-40 {
        fill: #b2b2b4;
      }

      .cls-41 {
        fill: #232b2e;
      }

      .cls-42 {
        fill: #dfdfdf;
      }

      .cls-43 {
        fill: #ce4f3d;
      }

      .cls-44 {
        fill: #9b9c9e;
      }

      .cls-45 {
        fill: #9b9b9c;
      }

      .cls-46 {
        fill: #9b9c9c;
      }

      .cls-47 {
        fill: #605f5f;
      }

      .cls-48 {
        fill: #1a2e35;
      }

      .cls-49 {
        fill: #243c45;
      }

      .cls-50 {
        fill: #646365;
      }

      .cls-51 {
        fill: #858686;
      }

      .cls-52 {
        fill: #6e6c6b;
      }

      .cls-53 {
        fill: #67696c;
      }

      .cls-54 {
        fill: url(#New_Gradient_Swatch-4);
      }

      .cls-55 {
        fill: url(#New_Gradient_Swatch-8);
      }

      .cls-56 {
        fill: #0c0c0c;
      }

      .cls-57 {
        fill: #88574e;
      }

      .cls-58 {
        fill: #f8725c;
      }

      .cls-59 {
        fill: #203d45;
      }

      .cls-60 {
        fill: #9f9f9f;
      }

      .cls-61 {
        fill: #9d9d9d;
      }

      .cls-62 {
        fill: url(#New_Gradient_Swatch_copy-2);
      }

      .cls-63 {
        fill: url(#New_Gradient_Swatch-7);
      }

      .cls-64 {
        fill: #b0b0b0;
      }

      .cls-65 {
        fill: url(#New_Gradient_Swatch_copy-4);
      }

      .cls-66 {
        fill: #8b3221;
      }

      .cls-67 {
        fill: #b45443;
      }

      .cls-68 {
        fill: #1e2524;
      }

      .cls-69 {
        fill: #5a5a5c;
      }

      .cls-70 {
        fill: #cc4d3e;
      }

      .cls-71 {
        fill: url(#New_Gradient_Swatch_copy-6);
      }

      .cls-72 {
        fill: url(#New_Gradient_Swatch_copy-7);
      }

      .cls-73 {
        fill: #1c2d33;
      }

      .cls-74 {
        fill: #5c5c5c;
      }

      .cls-75 {
        fill: #223d42;
      }

      .cls-76 {
        fill: #cb4e3d;
      }

      .cls-77 {
        fill: url(#New_Gradient_Swatch_copy-8);
      }

      .cls-78 {
        fill: #a6a7a8;
      }

      .cls-79 {
        fill: #a8a6a7;
      }

      .cls-80 {
        fill: #bdbbbc;
      }

      .cls-81 {
        fill: #4f4f4f;
      }

      .cls-82 {
        fill: url(#New_Gradient_Swatch-6);
      }

      .cls-83 {
        fill: #a6a6a6;
      }

      .cls-84 {
        fill: #a37b71;
      }

      .cls-85 {
        fill: url(#New_Gradient_Swatch);
      }

      .cls-86 {
        fill: #243c44;
      }

      .cls-87 {
        fill: #37393b;
      }

      .cls-88 {
        fill: #8a898c;
      }

      .cls-89 {
        fill: #5d3d39;
      }

      .cls-90 {
        fill: #838383;
      }

      .cls-91 {
        fill: #c07460;
      }

      .cls-92 {
        fill: #302b28;
      }

      .cls-93 {
        fill: #7b5042;
      }

      .cls-94 {
        fill: #cd4d3c;
      }

      .cls-95 {
        fill: #212d30;
      }

      .cls-96 {
        fill: #3e3e3e;
      }

      .cls-97 {
        fill: #c5d0d6;
      }

      .cls-98 {
        fill: #c44e42;
      }

      .cls-99 {
        fill: #c9c7c8;
      }

      .cls-100 {
        fill: url(#New_Gradient_Swatch-10);
      }

      .cls-101 {
        fill: #ca4f3e;
      }

      .cls-102 {
        fill: #894333;
      }

      .cls-103 {
        fill: #212121;
      }

      .cls-104 {
        fill: #272d2e;
      }

      .cls-105 {
        fill: #555455;
      }

      .cls-106 {
        fill: url(#New_Gradient_Swatch-5);
      }

      .cls-107 {
        fill: url(#New_Gradient_Swatch-3);
      }

      .cls-108 {
        fill: #cb4e3e;
      }

      .cls-109 {
        fill: #1f2d31;
      }

      .cls-110 {
        fill: #af6a5e;
      }

      .cls-111 {
        fill: #adaeae;
      }

      .cls-112 {
        fill: #e0dfe0;
      }

      .cls-113 {
        fill: #555;
      }

      .cls-114 {
        fill: #959595;
      }

      .cls-115 {
        fill: #7c4135;
      }

      .cls-116 {
        fill: #fff;
        opacity: 0;
      }

      .cls-117 {
        fill: #ca4f3f;
      }

      .cls-118 {
        fill: url(#New_Gradient_Swatch-9);
      }

      .cls-119 {
        fill: #9a9a9b;
      }

      .cls-120 {
        fill: #1a2525;
      }

      .cls-121 {
        fill: #1c2e2e;
      }

      .cls-122 {
        fill: #929292;
      }

      .cls-123 {
        fill: #111;
      }

      .cls-124 {
        fill: #adadad;
      }
    </style>
    <linearGradient id="New_Gradient_Swatch_copy" data-name="New Gradient Swatch copy" x1="139.72" y1="129.43" x2="231.38" y2="129.43" gradientUnits="userSpaceOnUse">
      <stop offset="0" stop-color="#4087e3"/>
      <stop offset="1" stop-color="#8e41f9"/>
    </linearGradient>
    <linearGradient id="New_Gradient_Swatch" data-name="New Gradient Swatch" x1="18.56" y1="73.12" x2="88.07" y2="73.12" gradientUnits="userSpaceOnUse">
      <stop offset="0" stop-color="#58d3cc"/>
      <stop offset="1" stop-color="#4ab6ff"/>
    </linearGradient>
    <linearGradient id="New_Gradient_Swatch_copy-2" data-name="New Gradient Swatch copy" x1="77.39" y1="129.99" x2="176.86" y2="129.99" xlink:href="#New_Gradient_Swatch_copy"/>
    <linearGradient id="New_Gradient_Swatch_copy-3" data-name="New Gradient Swatch copy" x1="11.35" y1="148.79" x2="73.21" y2="148.79" xlink:href="#New_Gradient_Swatch_copy"/>
    <linearGradient id="New_Gradient_Swatch-2" data-name="New Gradient Swatch" x1="173.22" y1="121.1" x2="199.29" y2="121.1" xlink:href="#New_Gradient_Swatch"/>
    <linearGradient id="New_Gradient_Swatch_copy-4" data-name="New Gradient Swatch copy" x1="72.58" y1="221" x2="133.79" y2="221" xlink:href="#New_Gradient_Swatch_copy"/>
    <linearGradient id="New_Gradient_Swatch-3" data-name="New Gradient Swatch" x1="206.76" y1="204.25" x2="252" y2="204.25" xlink:href="#New_Gradient_Swatch"/>
    <linearGradient id="New_Gradient_Swatch_copy-5" data-name="New Gradient Swatch copy" x1="99.69" y1="47.7" x2="131.32" y2="47.7" xlink:href="#New_Gradient_Swatch_copy"/>
    <linearGradient id="New_Gradient_Swatch-4" data-name="New Gradient Swatch" x1="211.57" y1="155.79" x2="234.77" y2="155.79" xlink:href="#New_Gradient_Swatch"/>
    <linearGradient id="New_Gradient_Swatch_copy-6" data-name="New Gradient Swatch copy" x1="142.28" y1="63.77" x2="201.04" y2="63.77" xlink:href="#New_Gradient_Swatch_copy"/>
    <linearGradient id="New_Gradient_Swatch-5" data-name="New Gradient Swatch" x1="198.85" y1="120.88" x2="221.8" y2="120.88" xlink:href="#New_Gradient_Swatch"/>
    <linearGradient id="New_Gradient_Swatch_copy-7" data-name="New Gradient Swatch copy" x1="52.76" y1="222.18" x2="77.11" y2="222.18" xlink:href="#New_Gradient_Swatch_copy"/>
    <linearGradient id="New_Gradient_Swatch-6" data-name="New Gradient Swatch" x1="175.21" y1="116.68" x2="185.65" y2="116.68" xlink:href="#New_Gradient_Swatch"/>
    <linearGradient id="New_Gradient_Swatch-7" data-name="New Gradient Swatch" x1="70.14" y1="178.57" x2="206.2" y2="178.57" xlink:href="#New_Gradient_Swatch"/>
    <linearGradient id="New_Gradient_Swatch-8" data-name="New Gradient Swatch" x1="145.18" y1="125.38" x2="167.17" y2="125.38" xlink:href="#New_Gradient_Swatch"/>
    <linearGradient id="New_Gradient_Swatch-9" data-name="New Gradient Swatch" x1="21.55" y1="179.57" x2="81.25" y2="179.57" xlink:href="#New_Gradient_Swatch"/>
    <linearGradient id="New_Gradient_Swatch_copy-8" data-name="New Gradient Swatch copy" x1="109.41" y1="230.34" x2="176.9" y2="230.34" xlink:href="#New_Gradient_Swatch_copy"/>
    <linearGradient id="New_Gradient_Swatch-10" data-name="New Gradient Swatch" x1="45.29" y1="121.55" x2="68.67" y2="121.55" xlink:href="#New_Gradient_Swatch"/>
  </defs>
  <rect class="cls-116" width="260" height="260"/>
  <g>
    <path class="cls-48" d="m131.03,64.46c-.44,1.56-.05,2.32,1.72,2.84,3,.88,5.07,3.21,6.55,5.85,1.64,2.92,4.2,4.48,7.14,5.67.63.25,1.55.21,1.65,1.07.1.92-.68,1.44-1.32,1.95-1.88,1.5-1.88,1.49-.24,3.35.71.81,1.89,1.53,1.28,2.82-.6,1.26-1.89.83-3.01.8.15.78.72,1.24,1.11,1.8.75,1.05-.02,1-.7,1.06-1,1.02-2.13.76-3.42.32.96,2.13.44,4.38.92,6.52.23,1.04.36,1.83,1.72,1.55.51-.1,1.06,0,1.49.39.13.26.14.51.01.77-2.26.23-2.83,1.62-2.49,3.64.05.28-.06.57-.17.84-.65,1.05-1.8,1.05-2.81,1.24-1.47.28-2.4.92-2.83,2.48-.53,1.96-2.06,2.28-3.65.88-2.89-2.56-4.66-5.91-6.31-9.3-2.75-5.65-4.74-11.56-5.62-17.81-.12-.84-.51-1.4-1.23-1.81-1.5-.84-3.06-1.65-4.75-1.85-2.81-.33-5.66-.4-8.46.05-3.25.53-5.58,2.4-7.07,5.32-.94,1.83-1.81,3.71-2.79,5.53-.81,1.5-1.05,1.53-2.09.23-.81-1.01-1.5-.63-2.2.07-2.05,2.03-4.08,4.1-6.14,6.12-.53.51-1.16,1.51-1.83,1.06-.87-.59.01-1.48.34-2.16.52-1.12,1.24-2.16,1.44-3.4.1-.62.3-1.41-.44-1.73-.68-.29-.99.45-1.38.85-3.6,3.69-6.17,8.01-7.93,12.83-.3.83-.72,1.62-1.15,2.39-.36.63-.77,1.21-1.62,1.18-1.21-.33-1.79-1.23-2.1-2.36,0-.63-.35-.69-.92-.71-3.84-.1-4.58-.85-4.5-4.55-1.97-.15-4.13.36-5.64-1.5-1.41-1.59-1.24-2.92.51-4.03.86-.54,1.86-.72,2.82-.97,3.18-.82,6.03-2.28,8.68-4.47-1.02-.45-1.96-.77-2.81-1.24-2.07-1.17-3.39-2.89-3.55-5.34-.04-.63-.12-1.35.54-1.76.68-.41,1.28,0,1.78.39,2.54,1.96,5.12,1.68,7.74.2.94-.53,1.67-1.24,2.25-2.18,1.17-1.91,2.34-3.82,3.68-5.6,6.41-8.52,15.23-11.95,25.59-11.42,4.7.24,8.37,2.88,10.87,7.14,1.08-1.52,1.56-3.13,2.12-4.7,2.4,1,4.69.28,6.97-.45.56-.18,1.08-.47,1.65-.61.72-.18.82.19.63.78Z"/>
    <path class="cls-18" d="m210.61,67.55c8.77,6.78,14.5,15.63,17.79,26.14,3.49,11.16,3.78,22.46,1.56,33.89-.12.63-.34,1.26-.17,1.92,0,2.8-1.02,5.38-1.9,7.96-.98,2.88-2.04,5.76-3.8,8.29-3.57,6.16-7.76,11.85-13.72,15.88-3.63,2.46-7.37,4.83-11.29,6.85-2.51,1.29-5.06,2.5-7.56,3.81-9.19,4.69-18.39,9.35-27.61,13.97-3.21,1.61-6.51,3.05-9.66,4.79-.58.32-1.2.49-1.87.43-3.64-.59-7.2-1.49-10.72-2.58-.72-.22-1.47-.42-1.94-1.1-.05-1.29,1.1-1.4,1.87-1.79,12.63-6.33,25.26-12.65,37.89-18.97,1.37-.68,2.74-1.36,4.1-2.06,6.27-3.12,12.69-5.97,18.35-10.18,5.38-4,10.21-8.53,13.62-14.4,1.58-2.71,2.72-5.61,3.38-8.68.97-2.73,1.51-5.54,1.87-8.41.18-1.45.31-2.93,1.01-4.26,1.24-13.39-1.35-25.81-9.47-36.78-3.27-4.42-7.43-7.87-12.11-10.71-.52-.32-1.28-.41-1.43-1.19.62-.68,1.54-.3,2.26-.64.71-.11,1.43-.22,2.14-.33,2.13.2,3.93-.87,5.83-1.54.51-.18.97-.75,1.6-.29Z"/>
    <path class="cls-85" d="m36.59,111.79c-5.04-5.41-9.47-11.25-12.63-17.97-5.44-11.57-7.38-23.58-2.95-35.82,4.11-11.36,11.77-19.64,23.92-22.43,10-2.29,19.92-1.04,29.49,2.64,1.97.76,3.94,1.57,5.8,2.57,1.17.63,1.63.31,2.11-.72.39-.84.91-1.63,1.49-2.64.87,1.61,1.11,3.22,1.59,4.73.87,2.75,1.64,5.53,2.48,8.28.18.59.45,1.13-.44,1.37-4.42,1.18-8.84,2.37-13.46,3.61.24-1.27.95-2.07,1.42-2.96.35-.66.37-.98-.38-1.35-8.82-4.28-18.01-6.26-27.75-4.16-6.47,1.4-10.63,5.87-13.7,11.36-4.24,7.57-4.02,15.6-1.71,23.66,2.63,9.19,8.01,16.7,14.8,23.28-.02.55-.45.83-.84,1.03-2.77,1.42-5.24,3.28-7.76,5.07-.42.3-.88.61-1.45.43Z"/>
    <path class="cls-62" d="m145.83,101.17c0-.23,0-.46,0-.7-.74-2.25.1-4.48.09-6.72,0-1,.6-1.25,1.34-1.45,5.76.32,10.96,2.39,15.86,5.26,5.76,3.37,10.1,7.98,12.09,14.52,1.37,1.61,1.32,3.65,1.54,5.56.19,1.66.08,3.37.02,5.05-.29,8.59-3.65,15.99-8.85,22.65-3.07,3.93-6.75,7.22-10.76,10.16-.42.29-.87.53-1.26.86-2.07,1.65-4.34,3.01-6.68,4.21-1.81.93-3.18,2.13-4.05,3.94-.2.42-.49.8-.82,1.14-.77.35-1.46.88-2.31,1.06-.24-.18-.29-.42-.26-.69.21-.87,1.02-1.4,1.38-2.44-9.49,4.18-19.22,4.9-29.19,3.3-4.6-1.19-9-2.89-13.24-5.03-.73-.3-1.45-.65-2.21-.88-1.49-.67-3.01-1.3-4.5-1.97-2.86-1.27-5.78-1.88-8.87-1-2.67-1.26-4.86-3.22-7.25-4.9-.38-.27-.57-.74-.5-1.26,1.25-2.17,3.45-3,5.61-3.65,4.73-1.43,9.41-1,13.91,1.07,3.47,1.55,7.08,2.8,10.44,4.6,2.55,1.02,5.01,2.29,7.81,2.55.66-.05,1.27.17,1.88.38,7.17,1.51,14.08.37,20.85-2.08.88-.32,1.73-.71,2.62-1.02,2.72-1.12,5.17-2.73,7.67-4.26,7.38-4.88,13.6-10.78,16.87-19.26.45-1.16.75-2.34.98-3.56.77-3.65.84-7.29-.08-10.92-.53-3.89-3.08-6.38-6.02-8.55-3.61-2.67-7.67-4.32-12.08-5.12-.74-.13-1.55-.1-2.03-.86Z"/>
    <path class="cls-9" d="m36.59,111.79c3.28-2.29,6.55-4.59,10.06-6.53,4.58-2.4,9.3-4.46,14.2-6.09.26-.09.47-.29.71-.45,2.04,1.02,4.17,1.37,6.49.7-.52,1.59-.96,3.05.46,4.25,1.45,1.23,3.01.74,4.59.28.35.54-.27.97-.18,1.48-1.07.96-2.48,1.03-3.76,1.38-4.94,1.36-9.76,3.05-14.4,5.23-3.74,1.93-7.47,3.85-10.77,6.5-7.25,5.26-13.2,11.72-17.45,19.61-4.31,7.99-6.32,16.52-5.25,25.68.32,2.75.64,5.48,1.36,8.15,1.34,5.04,2.79,10.04,5.03,14.77.18.37.32.75.36,1.17-.04,1.76-.85,3.36-1.13,5.07-.23,1.46-.43,2.91-.56,4.38-.05.58.13,1.38-.83,1.49-11.99-15.93-17.26-33.49-12.3-53.26,3.12-12.45,10.36-22.43,19.89-30.84,1.15-1.01,2.33-1.98,3.49-2.97Z"/>
    <path class="cls-12" d="m185.48,109.95c1.05-.1,1.5-.57,1.34-1.72-.53-3.91-1.31-7.77-2.2-11.61-.25-1.07-.85-1.25-1.81-1.02-1.54.37-3.09.69-4.84,1.07.22-1.56.96-2.75,1.48-4,1.72-4.13,3.52-8.23,5.24-12.36.3-.71.54-1.04,1.21-.4,4.19,4.04,8.37,8.08,12.68,12.24-.43.2-.67.36-.92.42-2.8.74-2.84.75-2.16,3.43,1.02,4,1.89,8.04,2.03,12.17.05,1.43,1.1,1.08,1.78,1.44-.73.84-.94,1.81-.92,2.92.05,2.52.12,5.04-.35,7.53-.34,4.64-1.39,9.16-2.41,13.69-2.2,9.73-6.44,18.62-10.93,27.43-.29.57-.55,1.18-1.21,1.46-3.57-.74-7.04-1.74-10.15-3.74-.31-.83.18-1.48.49-2.16,2.39-5.24,5.26-10.26,7.24-15.68,2.45-6.7,4.29-13.56,5.11-20.67.4-2.85.14-5.71.18-8.57.01-.78-.56-1.26-.87-1.87Z"/>
    <path class="cls-65" d="m72.59,244.89c.17-5.54,1.88-10.62,4.55-15.43-.35-.7.25-1.08.55-1.54,1.01-1.52,2.09-2.99,3.24-4.41,4.85-5.28,10.51-9.56,16.5-13.42,7.57-4.88,15.39-9.32,23.44-13.35.34-.13.69-.22,1.06-.15,3.89,1.49,7.92,2.52,11.84,3.92.21,1-.67,1.1-1.23,1.39-3.16,1.7-6.38,3.3-9.54,5-10.09,5.34-20.12,10.79-28.94,18.12-5.47,4.55-9.96,9.84-11.46,17.09-.4,1-.12,2.17-.77,3.11-2.96.38-5.93.1-8.9.15-.26,0-.38-.22-.35-.49Z"/>
    <path class="cls-107" d="m237.8,184.24c3.67-1.72,7.35-3.41,11-5.18,1.19-.58,1.13.22,1.22.91.55,4.26,1.08,8.52,1.61,12.78.12.98.24,1.97.37,3.08-1.29-.12-2.26-.82-3.21-1.38-1.06-.63-1.46-.32-2.04.6-4.69,7.51-10.15,14.41-16.58,20.52-5.7,5.42-11.99,10.02-18.92,13.75-.3.16-.65.22-.98.33-.77-.66-.91-1.63-1.17-2.51-.78-2.63-2.02-5.13-2.35-7.9.12-.95.87-1.38,1.58-1.76,2.44-1.32,4.68-2.91,6.89-4.57.75-.14,1.41.27,2.13.33,1.93.29,3.86.62,5.81.21,3.01-.32,5.88-1.04,8.3-3,.64-.55,1.19-1.23,1.97-1.61.96-.36,1.56-1.14,2.21-1.88,1.85-2.29,3.24-4.79,3.99-7.67.3-1.16.19-2.3.21-3.46.1-2.04-.55-3.99-.7-5.99.11-1.02-.25-1.92-.62-2.85-.35-.87-1.18-1.65-.72-2.74Z"/>
    <path class="cls-27" d="m131.03,64.46c-.13-.25-.02-.58-.62-.29-2.1,1.02-4.37,1.47-6.71,1.65-.97.07-1.51-.31-1.92-1.08,1.08-10.36-3.93-18.68-13.59-22.65-1.03-.42-1.56-.39-2,.72-.52,1.3-1.21,2.52-1.99,4.11-1.56-4.37-3-8.4-4.44-12.44-.18-.49-.04-.76.46-.92,4.06-1.32,8.12-2.66,12.15-3.99.1.21.15.26.14.3-.3,1.17-1.73,2.27-1.19,3.29.44.84,2,1.06,3.02,1.63,10.9,6.05,17.2,14.92,16.96,27.78-.01.64-.18,1.27-.28,1.91Z"/>
    <path class="cls-54" d="m231.93,134.09c2.57,6.66,3.26,13.55,2.62,20.61-.7,7.73-3.53,14.68-7.71,21.13-.13.15-.3.25-.5.3-3.58-.61-7.15-.89-10.72.19-1.22.37-2.32,1.13-3.64,1.16-1.02-.91.09-1.34.5-1.77,2.51-2.67,4.76-5.51,6.57-8.7.58-1.02,1.15-2.05,1.57-3.16,2.06-4.44,2.66-9.2,3.09-14,.17-.57.48-1.06.88-1.5,3.4-3.76,5.76-8.06,6.73-13.07.09-.45.12-.94.61-1.2Z"/>
    <path class="cls-71" d="m201.04,69.71c-.69.44-1.48.53-2.26.64-6.13.16-11.71-1.5-16.71-5.07-.45-.32-.94-.42-1.48-.48-7.33-.77-14.44.14-21.39,2.58-1.14.4-1.25.91-.89,1.91.54,1.53.98,3.09,1.55,4.93-6-1.91-11.69-3.73-17.59-5.61,3.66-5.08,7.21-10.02,11.02-15.3.56,1.78,1.04,3.23,1.46,4.71.21.75.45,1.03,1.33.71,5.33-1.99,10.86-3.06,16.55-3.32.41-.02.86.06.81-.58.12-.13.23-.12.34.02,5.93,10.74,15.05,15.65,27.26,14.88Z"/>
    <path class="cls-106" d="m221.8,119.04c-.3,4.25-1.14,8.41-2.2,12.52-.05.19-.32.32-.49.47-.8.13-1.13-.5-1.52-.98-4.48-5.56-10.4-8.59-17.3-9.95-.63-.12-1.54.05-1.43-1.08.94-2.78.57-5.65.54-8.49,0-.62-.27-1.28.28-1.81,7.75.8,14.67,3.66,20.82,8.44.41.32.87.59,1.3.88Z"/>
    <path class="cls-35" d="m47.1,229.34c-.61-.54-.08-1.13.04-1.61.71-2.72.51-5.37-.39-8-.16-1.4-.99-2.45-1.8-3.52h.01c-.56-.85-1.27-1.56-2.14-2.12h0c-4.18-3.39-8.78-3.63-13.67-1.83-.38.14-.69.74-1.22.31-2.02-4.36-2.36-9.01-2.44-13.71.33-2.04.66-4.08.99-6.11.83-.13,1.12.54,1.46,1.05,3.19,4.7,6.86,8.96,11.22,12.6,6.32,5.27,13.37,8.93,21.71,9.72.68.06,1.6-.26,1.84.84-3.07,1.94-6.49,2.98-9.97,3.85-.12,0-.24,0-.35.01-1.39.18-3.11-.08-4.07.66-1,.77.03,2.51-.15,3.84-.19,1.39-.3,2.78-1.08,4.01Z"/>
    <path class="cls-72" d="m52.76,220.81c1.17-1.07,2.77-1.08,4.13-1.68,1.87-.83,3.8-1.52,5.7-2.27.53-.81,1.33-1.05,2.24-1.05,3.84.99,7.53,2.48,11.36,3.52.28.08.53.24.69.51.86,2.92-.87,5.33-1.58,7.93-.22.79-1.06.59-1.64.78-7.29-1.7-14.2-4.44-20.9-7.73Z"/>
    <path class="cls-35" d="m143.64,16.23c4.32.01,7.8,2.52,8.7,6.25,1.04,4.31-1.9,9.1-6.25,9.94-1.12.22-1.67.54-1.8,1.68-.08.75-.48,1.47-.53,2.22-.11,1.52-.59,2.04-2.25,1.59-2.33-.63-2.22-.45-1.85-2.76.32-1.97.86-3.89,1.18-5.85.19-1.17.52-1.46,1.73-1.17,2.18.52,3.95-.29,4.84-1.95.9-1.68.46-3.8-.96-4.68-1.95-1.21-4.14-.88-5.38.78-.36.48-.36,1.44-1.23,1.28-1.09-.19-2.17-.5-3.19-.91-.52-.21-.26-.79-.13-1.26.88-3.19,3.61-5.18,7.13-5.17Z"/>
    <path class="cls-35" d="m13.79,95.51c3.7.02,6.23,1.67,6.9,5.02.82,4.1-.09,6.66-3.47,8.8-1.1.7-1.5,1.35-1.07,2.56.13.38.14.81.15,1.22.07,2.04-1.35,2.98-3.22,2.15-.43-.19-.61-.51-.66-.96-.23-2.27-.46-4.54-.69-6.81-.1-.96.54-.96,1.24-1.02,2.61-.23,3.82-1.61,3.7-4.13-.07-1.3-1.37-2.77-2.58-2.92-1.6-.2-3.26.71-3.73,2.04-.57,1.61-2.09,2.34-3.7,1.83-.72-.23-.59-.78-.61-1.28-.14-3.36,2.69-6.26,6.33-6.49.47-.03.94,0,1.41,0Z"/>
    <path class="cls-73" d="m196.12,43.64c0-.47.02-.94,0-1.41-.09-1.5-.25-2.8,2.07-2.69,1.61.07,2.78-1.54,2.82-3.08.04-1.49-.96-2.79-2.38-3.1-1.65-.37-3.05.38-3.72,2.18-.68,1.83-2.12.74-3.15.8-1.21.07-.53-1.09-.46-1.61.41-2.97,2.51-4.78,5.69-5.08,3.24-.3,6.25,1.32,7.25,3.91,1.15,2.96.37,6.78-2.31,8.17-2.2,1.15-2.53,2.63-2.25,4.63.2,1.42-.55,1.51-1.63,1.44-1.02-.07-2.24.3-1.97-1.5.13-.86.02-1.76.02-2.65Z"/>
    <path class="cls-82" d="m176.4,123.15c0-3.73-.15-7.44-1.19-11.06,3.06-.67,6.06-1.63,9.18-1.99,1.23,3.41,1.21,6.97,1.26,10.53-.1.47-.45.68-.86.77-2.52.55-5.02,1.19-7.53,1.82-.28.07-.58.04-.86-.07Z"/>
    <path class="cls-61" d="m180.1,206.62c-.88,12.75.54,25.48.45,38.22.16.26.17.5-.04.74-12.77,0-25.53.03-38.3.02-10.94,0-21.89-.04-32.83-.06-.14-.15-.25-.32-.33-.52-.1-.62-.21-1.24.47-1.63.9,1.23,2.17,1.38,3.58,1.34,1.82-.06,3.65-.04,5.48,0,.22,0,.43,0,.65,0,7.2-.11,14.4-.09,21.6-.02,10.81-.09,21.61-.02,32.42-.04.47,0,.94,0,1.41,0q2.95,0,3.31-2.89c.34-1.72.64-3.44.64-5.22-.02-6.46,0-12.91-.02-19.37,0-2.22.7-4.42.23-6.65.03-1.31-.11-2.66.71-3.83.17-.14.36-.17.56-.1Z"/>
    <path class="cls-22" d="m231.93,134.09c-.63,5.37-3.05,9.91-6.46,13.99-.45.54-.91,1.07-1.37,1.6-.87-1.23-.75-2.56-.4-3.92,2.92-5.09,4.5-10.68,6.08-16.27,1.02,1.39,1.66,2.96,2.14,4.6Z"/>
    <path class="cls-95" d="m52.14,70.33c.08-1.09-.59-2.65,1.71-2.65.89,0,1.41-.97,1.37-1.98-.04-1.02-.59-1.66-1.55-1.87-.98-.21-1.88.19-2.15,1.1-.4,1.36-1.44.97-2.12.78-1.05-.3-.32-1.2-.15-1.75.52-1.7,2.1-2.59,4.19-2.51,2.03.08,3.49,1.11,4.02,2.83.58,1.89,0,4.06-1.63,4.98-1.1.61-1.53,1.3-1.37,2.48.13.9-.08,1.4-1.19,1.41-1.18,0-1.19-.64-1.14-1.46.02-.41,0-.82,0-1.36Z"/>
    <path class="cls-76" d="m207.08,218.91c.59,3.06,1.8,5.92,2.73,8.87.19.61.31,1.24.46,1.86-1.17.95-2.6,1.39-3.9,2.09-.97-3.62-1.3-7.34-1.82-11.04-.06-.39.19-.66.42-.92.49-.79,1.12-1.27,2.1-.87Z"/>
    <path class="cls-112" d="m231.95,223.28c2.55.03,4.25,1.4,4.59,3.36.34,1.94-.64,3.68-2.65,4.39-.89.32-1.42.68-1.37,1.71.05,1.06-.7,1.26-1.56,1.13-.98-.15-.78-.8-.59-1.47.16-.56.28-1.14.35-1.72.12-.96.3-1.61,1.59-1.46.86.1,1.71-.48,1.96-1.48.24-.94-.28-1.6-1-2.08-.91-.6-1.54-.02-2.13.61-.61.65-1.4.82-2.06.3-.82-.64-.01-1.32.31-1.84.67-1.08,1.79-1.43,2.57-1.46Z"/>
    <path class="cls-86" d="m147.26,92.32c-1.36.56-.88,1.93-.96,2.81-.15,1.78-.38,3.56-.47,5.35q-3.61-.02-3.87-3.8c-.04-.64,0-1.29-.01-1.93,0-1.23-.24-2.37-1.53-3.54,1.87.41,3.3,1.13,4.8.46.43,1.01,1.33.54,2.05.66Z"/>
    <path class="cls-59" d="m73.65,228.54c.99-.29,1.42-1.03,1.69-1.97.5-1.78.81-3.69,1.71-5.26.45-.78-1.29-.82-.15-1.26,1-.66,1.95-.03,2.92.1,1.86.76,2.12,1.47,1.28,3.43-1.01,2.17-2.77,3.84-3.97,5.88-1.16-.31-2.32-.61-3.48-.92Z"/>
    <path class="cls-20" d="m109.34,245.15c.02.13.03.26.05.39-13.08.02-26.16.07-39.25.06-13.97,0-27.93-.05-41.9-.08-.53,0-1.05,0-1.58-.3,5.24,0,10.49,0,15.73,0,9.43-.02,18.86-.05,28.29-.07.65,0,1.3.04,1.9-.27,2.03.89,4.15.25,6.23.35.99.05,2.11.49,3.01-.38.49-.25,1.03-.2,1.55-.2,7.81.02,15.61,0,23.42.02.87,0,1.78-.13,2.54.48Z"/>
    <path class="cls-43" d="m199.68,109.72c.38,3.17.55,6.34,0,9.51-.1.55-.13,1.04-.8,1.13-.45.35-.89.31-1.34,0,.45-3.17.35-6.37.3-9.56-.02-1.18.71-1.12,1.46-1.18.13.04.26.07.39.11Z"/>
    <path class="cls-94" d="m185.45,120.76c-.74-2.07-.24-4.26-.59-6.38-.23-1.39-.84-2.8-.46-4.27.36-.05.72-.1,1.08-.16.5.19,1.39-.15,1.37.74-.05,3.34.42,6.7-.31,10.02-.35.24-.71.3-1.08.05Z"/>
    <path class="cls-96" d="m224.71,40.37c-.67-2.83-1.11-5.72-2.41-8.38-4.28-8.74-11.13-13.97-20.8-15.42-.4-.06-.78-.24-1.16-.36-.11-.06-.15-.12-.11-.18.03-.06.07-.09.11-.09,7.98.53,14.28,4.24,19.2,10.37,3.19,3.98,5.08,8.55,5.52,13.67-.1.15-.12.36-.34.4Z"/>
    <path class="cls-87" d="m210.61,67.55c-1.87.65-3.65,1.59-5.62,1.96-.63.12-1.24.43-1.81-.13,5.36-1.2,10.05-3.65,13.89-7.59,3.76-3.86,6.12-8.5,7.43-13.73,0,2.26-.7,4.32-1.62,6.29-2.42,5.14-6.01,9.24-10.9,12.18-.48.29-1.11.41-1.36,1.02Z"/>
    <path class="cls-42" d="m138.06,41.86c.28-.83.15-2.42,1.7-2.16.98.17,2.96-.46,2.83,1.54-.06,1.01.47,2.86-1.17,2.97-2.7.17-3.45-.52-3.36-2.35Z"/>
    <path class="cls-64" d="m180.52,245.58c.01-.25.03-.49.04-.74.67.54,1.46.37,2.21.37,13.89.02,27.78.04,41.68.07.56,0,1.19-.21,1.68.28-15.2,0-30.4.01-45.61.02Z"/>
    <path class="cls-35" d="m14.4,117.11c2.16,0,2.69.55,2.55,2.7-.1,1.52-1.39,1.06-2.31,1.19-1.69.24-1.89-.71-1.92-2.1-.04-1.5.45-2.11,1.68-1.78Z"/>
    <path class="cls-120" d="m198.08,49.5c1.75-.52,1.56.62,1.69,1.82.17,1.66-.74,1.5-1.86,1.59-1.47.12-1.8-.39-1.85-1.82-.06-1.71.76-1.78,2.02-1.59Z"/>
    <path class="cls-122" d="m44.94,80.32c-7-4.89-7.65-14.36-3.75-19.27-3.37,7.38-2.29,13.75,4.12,18.92.06.32.01.51-.37.34Z"/>
    <path class="cls-3" d="m27.95,212.57c4.69-2.42,9.31-2.41,13.84.43.44.28.93.51,1.05,1.1-2.43-1.27-4.8-2.54-7.7-2.59-3.53-.06-6.53,1.09-9.29,3.12.14-1.25,1.4-1.37,2.1-2.06Z"/>
    <path class="cls-78" d="m44.94,80.32c.12-.11.25-.23.37-.34,5.18,3.22,10.45,3.26,16.16.02-3.23,3.52-11.59,4.33-16.53.33Z"/>
    <path class="cls-74" d="m195.75,16.22c-1.41.63-2.98.49-4.44.9-4.01,1.12-7.64,2.92-10.8,5.65-.28.24-.51.63-1.36.49,4.91-4.37,10.19-7.11,16.62-7.33.1.07.13.13.09.19-.04.06-.07.09-.11.09Z"/>
    <path class="cls-23" d="m22.23,228.63c2.48,6.24,6.89,8.9,14.6,8.79.08.08.1.15.07.22-.03.07-.06.1-.09.1-7.26.73-12.82-2.52-14.88-8.72-.18-.35-.01-.43.3-.39Z"/>
    <path class="cls-2" d="m22.23,228.63c-.1.13-.2.26-.3.39-1.89-5.04-.77-9.53,2.53-13.6.27-.33.51-1.05,1.23-.63-2.65,2.96-4.39,6.27-4.1,10.41.08,1.18.35,2.3.64,3.42Z"/>
    <path class="cls-5" d="m55.23,54.49c-5.4-.33-9.87,1.51-13.35,5.92.64-3.63,7.4-6.7,13.33-6.23.09.07.12.13.09.21-.02.07-.05.11-.08.11Z"/>
    <path class="cls-83" d="m175.23,28.88c-1.09,1.95-2.07,3.83-2.71,5.84-.64,2.01-1.19,4.04-1.29,6.37-.77-3.27,1.87-11.32,4-12.21Z"/>
    <path class="cls-51" d="m73.77,76.25c-1.3,1.79-2.9,2.06-4.09,1.02-1.22-1.07-1.26-2.7-.1-3.86,1.31-1.3,2.56-1.15,4.37.9-1.76-1.13-3.13-1.77-4.25-.06-.57.86-.4,1.69.27,2.41,1.16,1.26,2.35.71,3.8-.4Z"/>
    <path class="cls-40" d="m36.81,237.74c0-.11.01-.21.03-.32,3.86-1.05,6.93-3.21,9.21-6.49-1.05,3.15-3.57,4.79-6.37,6.09-.88.41-1.91.49-2.87.73Z"/>
    <path class="cls-88" d="m226.52,175.9c.11-.02.21-.05.32-.06,2.82,1.15,5.47,2.57,7.68,4.71.5.48,1.07.91,1.31,1.61-.06.06-.12.12-.19.17-.06,0-.14.02-.17,0-2.88-2.34-6-4.3-9.37-5.86-.06-.33.2-.43.42-.56Z"/>
    <path class="cls-80" d="m62.47,79.25c1.13-1.5,2.49-2.79,3.34-4.49.81-1.63,1.31-3.34,1.63-5.56.34,3.73-2.22,8.77-4.97,10.05Z"/>
    <path class="cls-79" d="m55.23,54.49c-.01-.1-.02-.21-.02-.31,3.97.57,7.17,2.41,9.45,5.77-2.55-2.84-5.77-4.54-9.43-5.45Z"/>
    <path class="cls-111" d="m173.78,54.84c-.11,0-.23,0-.34-.02-1.88-2.9-2.34-6.16-2.37-9.52.33,3.35,1.65,6.41,2.71,9.54Z"/>
    <path class="cls-25" d="m53.24,76.34c-.86.15-1.05-.29-1.08-1.08-.03-.87.33-1.05,1.12-1.07.91-.02,1.2.27,1.18,1.18-.01.94-.49,1.05-1.22.96Z"/>
    <path class="cls-81" d="m179.78,74.62c-2.2,2.59-4.88,2.47-7.13-.31-.08-.33.1-.46.39-.5,1.02.38,1.69,1.39,2.93,1.47,1.3.08,2.19-.73,3.26-1.12.3,0,.45.2.54.46Z"/>
    <path class="cls-84" d="m237.8,184.24c.51,1.9,2.13,3.43,1.81,5.6-.4-.05-.62-.34-.74-.67-.76-2.1-1.76-4.07-3.1-5.87-.21-.28-.31-.63-.09-.98.05-.05.1-.11.15-.17.87.5,1.05,1.64,1.97,2.09Z"/>
    <path class="cls-103" d="m179.78,74.62c-.11-.12-.23-.25-.34-.37-.17-.35-.04-.69.06-1.02.51-1.75-.1-3.08-1.53-4.1-.37-.27-.83-.45-1.07-.88.02-.3.1-.51.47-.36,3.16.95,4.18,3.79,2.41,6.74Z"/>
    <path class="cls-99" d="m65.5,61.14c1.47,1.85,2.13,3.97,1.99,6.34-.3-2.23-1.25-4.26-1.99-6.34Z"/>
    <path class="cls-113" d="m177.37,67.89c-.12.11-.25.22-.37.33-1.26.72-2.77.93-3.89,1.92-.3-.02-.52-.11-.42-.48,1.21-1.52,2.61-2.53,4.68-1.77Z"/>
    <path class="cls-11" d="m172.69,69.66c.12.11.25.23.37.34,0,1.33.08,2.66-.03,3.99-.12.11-.25.22-.37.33-.95-1.56-.95-3.11.03-4.66Z"/>
    <path class="cls-10" d="m175.75,27.95c.47-1.52,1.34-2.68,2.74-3.41-.91,1.14-1.83,2.27-2.74,3.41Z"/>
    <path class="cls-56" d="m224.71,40.37c.11-.13.22-.26.34-.4.23,1.98.2,3.95-.34,5.93v-5.54Z"/>
    <path class="cls-123" d="m195.75,16.22c.04-.09.05-.19.02-.28,1.52-.17,3.04-.18,4.56,0-.03.09-.02.18,0,.27-1.53,0-3.06,0-4.58.01Z"/>
    <path class="cls-91" d="m107.22,154.24c-3.39-1.48-6.77-2.96-10.16-4.45-2.3-1.85-3.8-4.27-4.68-7.03-.33-1.03-1.12-1.73-1.47-2.7.71-1.28-.2-2.4-.44-3.54-.6-2.78-.95-5.64-2.07-8.29-.07-.16-.1-.33-.11-.51.27-2.5-.95-4.82-.98-7.01-1.07,1.6-2.35,3.42-2.68,5.67-1.22,3.63-2.42,7.27-4.29,10.64-1.13,1.52-2.35,2.97-3.93,4.03-1.05.7-1.09,2.09-2.08,2.8-.7.28-1.26-.06-1.81-.41-3.6-2.33-7.19-4.68-10.76-7.05-.44-.29-.91-.57-1.05-1.14.53-1.73,1.81-3.08,2.36-4.8,1.63-3.62,3.45-7.15,5.21-10.71,1.85-3.57,3.79-7.09,5.55-10.71.25-.51.37-1.12.95-1.42.57,0,.8-.39,1-.84.56-1.23,1.25-2.42,1.7-3.69,1.71-4.82,4.65-8.82,8.06-12.53.37-.4.59-1.13,1.38-.75.64.31.91.84.96,1.57.09,1.32-.57,2.38-1.1,3.49-.45.94-.96,1.85-1.44,2.77.11.09.23.18.34.27,2.41-2.46,4.82-4.92,7.23-7.37,1.84-1.87,2.75-1.63,3.57,1.04,1.55-2.13,2.4-4.53,3.55-6.76,1.94-3.76,5.01-5.7,9.16-5.92,4.14-.22,8.26-.19,11.98,2.12.82.51,1.21,1.06,1.35,2.06,1.27,8.76,4.31,16.84,9.3,24.18.77,1.13,1.66,2.15,2.7,3.03,1.12.95,2.43.7,2.57-.61.25-2.36,1.73-2.98,3.69-3.27.75-.11,1.47-.4,2.2-.61,1.69-.97,3.16-.18,4.37.83,2.89,2.43,3.52,5.74,3.13,9.31-.36,3.25-2.42,5.12-5.34,6.2-.55.2-1.11.39-1.68.55-2.03.59-2.1.83-.76,2.56-.72,3.66.28,7.13,1.18,10.61.69,3.89,1.37,7.78,1.95,11.69.1.8-.09,1.53-.67,2.1-1.46,1.42-2.7,3.06-4.31,4.33-5.4,2.75-11.22,3.85-17.18,4.05-2.26.08-4.69.08-6.89-.91.41-.65,1.13-.81,1.76-1.11,5.17-2.5,7.99-5.63,10-11.17-4.95,4.46-10.29,8.07-16.78,9.68-1.54.25-3.04-.31-4.57-.26Z"/>
    <path class="cls-63" d="m139.71,187.49c2.33,1.42,5.03,1.74,7.58,2.48,1.74.5,3.56.76,5.34,1.13,1.19.39,2.38-.11,3.61,0,2.43.22,4.85.42,7.25.89,6.21-.04,12.42.2,18.61-.93,5.94-1.09,11.62-2.85,17.04-5.46,1.75-.91,3.43-1.94,5.09-3.03.52-.35,1.01-.81,1.71-.77.69.76-.12,1.27-.32,1.88-.08.16-.18.3-.29.45-2.81,3.78-3.42,8.17-3.48,12.71-.13.28-.32.5-.58.67-4.55,2.3-9.41,3.61-14.37,4.7-8.64,1.9-17.39,1.68-26.1,1.33-5.18-.21-10.36-1.15-15.45-2.37-2.57-.64-5.18-1.18-7.66-2.14-2.96-1.01-5.92-2-8.78-3.27-1.4-.62-2.78-.91-4.28-.58-1.38-2.83-4.4-3.28-6.82-4.49-6.65-3.32-13.07-7.02-19.52-10.69-5.27-2.99-10.51-6.04-15.67-9.21-2.82-1.73-5.84-3.06-8.62-4.83-.94-.59-1.96-1.02-2.95-1.52-.32-.18-.62-.37-.79-.71-.06-.17-.15-.35-.1-.51,1.03-3.23,2.26-6.38,3.58-9.5.06-.15.26-.23.42-.31.77-.16,1.38.29,2.05.51,2.66,1.51,5.47,2.76,8.11,4.31,2.13,1.02,4.02,2.45,6.1,3.56,6.63,3.83,13.13,7.9,19.83,11.62,4.53,2.52,9.07,5.03,13.76,7.26.85.4,1.54.41,2.31-.04,1.61.17,3.25-.17,4.85.27.85.52.94,1.45,1.14,2.28.25,1.07.87,1.71,1.88,2.12,1.84.74,3.78,1.21,5.53,2.19Z"/>
    <path class="cls-44" d="m163.46,192.4c-3.58-.71-7.27-.43-10.83-1.31,2.18-.57,4.05-1.83,6.04-2.81,10.69-5.3,21.34-10.68,32-16.02.26-.13.55-.19.83-.29,1.34.71,2.38,1.65,2.56,3.27-2.25,1.85-4.97,2.89-7.5,4.25-7.21,3.88-14.51,7.63-21.73,11.48-.55.29-1.63.27-1.36,1.43Z"/>
    <path class="cls-55" d="m145.45,124.48c7.05-2.81,13.73-6.49,20.87-9.11,1.14,3.87,1.11,7.75.04,11.63-.32.35-.64.68-1.08.88-5.35,2.5-10.64,5.14-16.21,7.13-.64.23-1.3.64-2,.14-.76-.85-.67-1.96-.86-2.97-.35-1.89-.66-3.78-.95-5.68-.11-.7-.15-1.39.19-2.04Z"/>
    <path class="cls-46" d="m113.99,166.66c2.45-.35,4.82.37,7.25.47,5.52.23,10.89-.38,16.17-1.93,2.29-.67,4.51-1.56,7.03-2.66-.67,1.68-1.8,2.57-2.49,3.74-.15.67-.39,1.27-1.14,1.47-3.47.96-6.91,2.08-10.55,2.26-1.09-.56-2.15-.91-3.02.37-.18.03-.36.03-.55,0-3.08-.18-6.18.21-9.25-.25-.72-.04-.93-.77-1.45-1.08-.65-.72-1.45-1.31-1.95-2.16-.02-.08-.03-.16-.04-.24Z"/>
    <path class="cls-115" d="m111.87,154.25c3.86-1.51,7.75-2.93,11.11-5.48,2.04-1.56,4.15-3.03,5.97-5.1-.15,5.14-5.63,11.54-12.13,13.43-.57-.11-1.14-.21-1.71-.32-1.4-.43-2.71-.98-3.24-2.53Z"/>
    <path class="cls-46" d="m116,169.55c-5.79-1.2-11.34-2.99-16.21-6.47-.28-.2-.53-.43-.8-.65.42-.83,1.65.12,1.83-.98,3.74,1.67,7.44,3.47,11.46,4.42.66.16,1.11.61,1.72.79h-.01c.6.96,1.58,1.61,2.25,2.52,0,.18-.07.3-.24.37Z"/>
    <path class="cls-119" d="m144.07,165.95c-2.3,3.52-4.6,7.03-6.91,10.55-.06.1-.13.19-.2.29q-2.14,3.23-4.17.17c-.13-.12-.19-.27-.2-.44.16-.83.37-1.64,1.13-2.15,1.38.38,1.75-1.07,2.69-1.49,1.2-.43,1.53-1.73,2.41-2.48.46-.62.95-1.23,1.37-1.88.08-.13.18-.26.28-.38.61-.49,1.18-1.04,1.82-1.5.38-.71,1.12-.8,1.77-1.06.11.08.15.16.12.25-.04.08-.07.13-.11.13Z"/>
    <path class="cls-17" d="m144.07,165.95c0-.12,0-.25,0-.37,1.2-3,3.49-4.81,6.34-6.18,1.88-.91,3.57-2.23,5.34-3.36,1.46.81,1.42,1.32.02,2.42-3.67,2.87-7.48,5.48-11.69,7.49Z"/>
    <path class="cls-49" d="m84.94,157.72c-.23.24-.47.47-.7.71-2.91-1.09-5.56-2.66-8.22-4.22.39-.78.8-1.53,1.52-2.06,2.2,2.2,5.09,3.5,7.4,5.57Z"/>
    <path class="cls-21" d="m145.52,147.89c1.39-.05,1.83,1.38,2.88,1.85-2.35,1.69-4.89,3.04-7.52,4.23.95-1.67,2.45-2.87,3.69-4.29.46-.53,1.03-.98.95-1.79Z"/>
    <path class="cls-39" d="m111.87,154.25c1.08.84,2.16,1.69,3.24,2.53-2.17.09-3.99-1.03-5.94-1.71-.66-.23-1.3-.55-1.95-.83,1.55-.64,3.1-.03,4.64.01Z"/>
    <path class="cls-69" d="m142.29,166.64c-.54.66-.93,1.47-1.82,1.77-.27-.58.08-.83.54-1.04.31-.36.63-.72.94-1.09.12.12.23.23.34.35Z"/>
    <path class="cls-118" d="m27.72,188.02c-2.26-4.76-3.9-9.74-5.26-14.82-.1-.39-.1-.81-.15-1.21-1.14-4.78-.99-9.49.38-14.24,2.63-9.09,8.62-14.29,17.85-15.94,2.63-.47,5.25-.64,7.89-.13.57.11,1.19.1,1.56.67-.72,2.87-1.69,5.68-2.47,8.53-.2.71-.41,1.41-.53,2.14-.7.42-1.49.31-2.24.32-8.02.11-10.29,4.24-11.32,10.51-.63,3.82.18,7.49,1.24,11.12,3.07,11.16,10.56,18.65,20.24,24.29,5.49,3.2,11.38,5.36,17.67,6.38,2.43.39,4.9.53,7.37.68.31.1.56.27.7.58.32,2.95.64,5.91.6,8.88-.02,1.37-.68,2.02-2.07,2-1.28-.02-2.57,0-3.85,0-3.54-.29-7.02-.88-10.42-1.91-4.18-.58-7.89-2.47-11.6-4.3-1.34-.66-2.97-.84-3.89-2.22-.18-.38-.19-.78-.19-1.19.02-2.84-1.87-4.08-4.47-2.93-.27.12-.52.26-.81.32-1.88.03-2.91-1.55-4.05-2.53-4.18-3.6-7.99-7.59-11.07-12.22-.56-.85-.88-1.79-1.09-2.76Z"/>
    <path class="cls-8" d="m49.49,209.08c2.52,1.61,5.31,2.68,8,3.93,2.35,1.09,4.83,1.8,7.3,2.55.2.16.21.35.07.55-.76.24-1.51.49-2.27.73-1.89-.31-3.79-.57-5.66-.94-6.99-1.36-12.9-4.86-18.26-9.38-4.52-3.81-8.31-8.26-11.54-13.2-.15-.23-.42-.4-.63-.59.41-1.57.82-3.15,1.23-4.72,3.1,5.6,7.35,10.25,12.16,14.37,1.22,1.05,2.33,2.38,3.99,2.87.25.08.47.19.53.49-.5,2.55-.25,3.36,1.25,3.9.48.17,1.05.1,1.46.48.06,1.02-.78.38-1.14.61,1.59.33,2.08-1.66,3.51-1.65Z"/>
    <path class="cls-117" d="m45.29,119.3c-.48-.38-.96-.76-1.44-1.13,3.3-2.61,6.85-4.78,10.77-6.33.33.24.66.48.99.72.37.63-.04,1.03-.49,1.29-2.96,1.73-5.77,3.73-8.82,5.32-.32.17-.66.23-1.01.12Z"/>
    <path class="cls-45" d="m145.13,200.64c2.79.59,5.65.83,8.39,1.63.17.05.34.07.52.09,8.06.96,16.17,1.14,24.23.59,3.97-.27,7.98-1.03,11.92-2.06,3.81-.99,7.4-2.53,11.1-3.78.78,1.34,1.31,2.71.47,4.23-7.13,1.89-14.18,4.13-21.55,4.99-.64-1.01.51-1.98.07-2.99-.03-.23-.37.06-.14-.02.1-.04.15-.01.16.07.14,1.07-.28,2.03-.54,3.03-.41.28-.87.37-1.34.37-5.23,0-10.46.15-15.68-.43-6.38-.71-12.71-1.7-19.01-2.9-1.47-.28-2.76-.02-4.06.71-1.41.8-2.62,2.03-4.37,2.15-.92-1.64-1.58-3.32-.98-5.24.46-.54,1.05-.4,1.63-.3.52.09,1.04.2,1.55.34,2.61.72,5.16.79,7.64-.49Z"/>
    <path class="cls-33" d="m179.74,206.37c.16-1.09.31-2.17.5-3.51.67,1.35-.1,2.41-.03,3.48-.03.09-.07.18-.1.27-.09,0-.18.01-.27.03l-.14-.11.04-.17Z"/>
    <path class="cls-70" d="m172.68,160.62c.28-.59.57-1.17.85-1.76,3.23,1.38,6.57,2.47,9.91,3.56-.27.82-.53,1.64-.8,2.46-3.44-.7-6.54-2.33-9.77-3.63-.13-.05-.13-.41-.2-.63Z"/>
    <path class="cls-6" d="m122.03,214.43c-3.32,1.39-6.19,3.56-9.24,5.42-5.71,3.49-11.36,7.08-16.81,10.95-5.02,3.57-9.19,8-12.96,12.84-.82-.42-.16-1.41-.8-1.85,1.68-7.74,6.66-13.2,12.6-17.94,8.63-6.89,18.22-12.23,28.01-17.25.72.8.54,1.77.42,2.69-.21,1.57-.34,3.16-.8,4.69-.09.2-.23.35-.42.46Z"/>
    <path class="cls-16" d="m121.02,197.04c.04-.58-.43-.59-.8-.75-12.76-5.62-24.48-13.03-35.81-21.09-3.35-2.38-6.65-4.83-9.94-7.3-.57-.43-1.42-.68-1.52-1.58.15-.57.6-.7,1.11-.74,4.17,2.06,8.16,4.42,12.16,6.78,7.08,4.17,14.19,8.28,21.32,12.36,5.02,2.88,10.17,5.5,15.44,7.89,1.03.46,2.02.98,1.48,2.42-.37,1.42-1.61,1.45-2.71,1.7-.24.11-.48.22-.73.33Z"/>
    <path class="cls-6" d="m122.17,214.04c0-2.5.84-4.92.66-7.44,3.67-1.98,7.33-3.95,11-5.93.2-.21.43-.23.68-.11.08.1.12.19.09.29-.02.1-.04.15-.07.15-.27,1.81.68,3.46.72,5.23-.02.08-.04.17-.06.25-1.22,1.09-2.66,1.88-4.07,2.68-2.43,1.39-4.75,2.97-7.21,4.32-.53.29-1.03.82-1.76.56Z"/>
    <path class="cls-75" d="m134.47,200.66c-.21,0-.43,0-.64,0-4.18-.86-8.26-2-12.08-3.95.81-.71,2-.83,2.71-1.7,1.31-.81,2.53-.59,3.93,0,3.05,1.3,6.2,2.36,9.31,3.52-.44,1.67-1.96,1.69-3.22,2.11Z"/>
    <path class="cls-41" d="m33.64,225.03c-.08-.88-.21-1.95,1.46-2.07.75-.06,1.11-.84,1.08-1.61-.03-.71-.43-1.24-1.09-1.46-.74-.24-1.5-.06-1.83.65-.44.96-1.25,1.32-1.92.8-.75-.59-.18-1.52.29-2.18.95-1.33,2.38-1.43,3.82-1.17,1.46.26,2.42,1.17,2.68,2.68.26,1.52-.2,2.84-1.5,3.68-.75.49-1.31.9-1.13,1.9.12.69.02,1.25-.96,1.23-1.04-.02-.9-.68-.9-1.32,0-.29,0-.59,0-1.13Z"/>
    <path class="cls-19" d="m34.55,230.09c-.7.1-.92-.22-.92-.9,0-.82.53-.73,1.07-.76.62-.03.79.25.81.83.03.75-.34.91-.96.83Z"/>
    <path class="cls-124" d="m44.96,216.21c1.18.88,1.98,1.94,1.8,3.52-.6-1.17-1.2-2.34-1.8-3.52Z"/>
    <path class="cls-60" d="m42.83,214.09c1.13.29,1.85.99,2.14,2.13-.87-.55-1.56-1.28-2.14-2.13Z"/>
    <path class="cls-110" d="m235.72,206.8c2.54-3.23,3.92-6.95,4.6-10.96.19,4.52-1.64,8.25-4.56,11.55-.16-.18-.17-.38-.04-.58Z"/>
    <path class="cls-50" d="m207.76,208.23c2.73,2.32,5.83,3.94,9.22,5.05.11.08.15.17.11.26-.03.09-.07.13-.11.13-.58-.18-1.16-.36-1.75-.53-2.43-.74-4.66-1.87-6.57-3.58-.39-.35-1.08-.57-.91-1.33Z"/>
    <path class="cls-14" d="m222.19,213.68c3.52-.31,6.65-1.79,9.82-3.18-2.49,2.21-5.45,3.18-8.74,3.29-.38.14-.75.23-1.08-.11Z"/>
    <path class="cls-66" d="m222.19,213.68c.36.04.72.07,1.09.11-2.11.75-4.19.11-6.28-.11,0-.13,0-.26,0-.39,1.73.13,3.47.26,5.2.39Z"/>
    <path class="cls-93" d="m235.72,206.8c.01.19.03.39.04.58-.74.64-1.12,1.75-2.34,1.74.77-.77,1.54-1.55,2.3-2.32Z"/>
    <path class="cls-57" d="m209.66,179.33c.24-1.15,1.4-1.38,2.08-2.09,3.47-1.48,7.02-2.41,10.85-2.09,1.35.11,2.65.34,3.93.75-.13.12-.26.24-.39.36-5.95-1.42-11.41-.25-16.47,3.07Z"/>
    <path class="cls-77" d="m137.28,218.89c8.94-1.86,17.9-1.59,26.87-.2q2.4.37,3.04-2.02c.09-.33.21-.65.41-1.23,3.11,3.53,6.09,6.91,9.08,10.29.44.49.18.68-.29.85-4.17,1.55-8.33,3.11-12.5,4.66-.1-.31-.17-.42-.16-.51.43-2.8.43-2.77-2.34-3.16-6.86-.97-13.72-1.2-20.58.03-.8.14-1.65.16-2.35.67-2.14,1.26-4.65,1.57-6.86,2.67-4.66,2.31-8.69,5.28-11.28,9.97-.75,1.36-.63,3.01-1.68,4.21-2.56.02-5.12-.06-7.67.12-1.56.11-1.04-1.2-1.55-1.79,1.16-5.96,4.03-10.96,8.52-15.03.95-.87,1.92-1.71,2.89-2.57,2.01-2.25,4.78-3.33,7.4-4.58,2.38-1.13,4.94-1.82,7.5-2.45.54-.13,1.04-.11,1.55.07Z"/>
    <path class="cls-97" d="m139.08,232.49c.65,4.24,1.3,8.48,1.95,12.72-7.35.04-14.7.14-22.04-.09.62-2.34,2.38-3.85,4.04-5.41,3.83-3.6,8.47-5.69,13.47-7.09.84-.24,1.71-.45,2.6-.14Z"/>
    <path class="cls-6" d="m139.08,232.49c-3.3.79-6.51,1.76-9.57,3.3-4.37,2.19-7.78,5.36-10.53,9.34,0,0-.17.03-.17.03,0,0-.17-.03-.17-.03.64-4.68,3.31-8.04,6.86-10.94,3.49-2.85,7.57-4.42,11.74-5.83.37-.13.81-.06,1.22-.08.21,1.41.41,2.81.62,4.22Z"/>
    <path class="cls-90" d="m178.42,241.67c.22-10.48-.68-20.98.75-31.43.62.98.34,2.07.25,3.08-.69,7.97-.14,15.95-.32,23.92-.03,1.51-.22,2.99-.68,4.43Z"/>
    <path class="cls-100" d="m45.29,119.3c3.16-1.9,6.32-3.8,9.5-5.69.43-.25.79-.51.82-1.05,4.18,2.77,8.41,5.46,13.05,7.43-1.75,3.52-3.5,7.04-5.25,10.56-6.05-3.07-11.94-6.42-17.34-10.56-.27-.21-.52-.45-.79-.68Z"/>
    <path class="cls-1" d="m89.89,139.76c-3.42-.49-6.64-1.69-9.89-2.77,1.69-3.46,2.94-7.1,4.29-10.7,1.7-.37,3.1.13,4.21,1.46.01.11.02.21.04.32.44.84.64,1.73.69,2.69.14,2.46.3,4.91.84,7.33.12.56.28,1.16-.18,1.67Z"/>
    <path class="cls-26" d="m147.24,135.08c-1.1.43-2.21.8-3.4.86-.52-.1-.77-.36-.84-.93-.34-2.82-1.02-5.59-1.13-8.45-.03-.81.41-.92.78-1.27.93-.27,1.87-.54,2.81-.81.59,3.53,1.19,7.07,1.78,10.6Z"/>
    <path class="cls-37" d="m115.46,97.96c1.42,0,2.83,0,4.25,0,.33,0,.76-.12.93.3.17.42-.2.63-.45.86-2.02,1.83-7.48,1.79-9.48-.07-.24-.22-.65-.41-.45-.84.15-.32.5-.25.78-.25,1.47,0,2.95,0,4.42,0Z"/>
    <path class="cls-30" d="m104.13,107.18c.45,3.42.03,6.81-.23,10.2-.17,2.28-.5,4.56-.76,6.83-.13,1.09.35,1.51,1.42,1.44,1.11-.06,2.19-.51,3.76-.24-1.7.57-3.01,1.01-4.45.97-1.35-.05-1.66-.97-1.57-2.07.25-3.16.49-6.33.83-9.48.27-2.56.66-5.1,1-7.65Z"/>
    <path class="cls-101" d="m89.89,139.76c-1.09-3.82-.93-7.79-1.35-11.68.95.18.87,1.05.99,1.67.59,2.97,1.2,5.93,2.06,8.85.17.57.76,1.58-.68,1.58-.41.05-.71-.21-1.02-.41Z"/>
    <path class="cls-121" d="m95.92,115.24c.89.03,1.68.8,1.64,2.06-.04,1.28-.93,1.96-2.24,1.94-1.35-.02-2.14-.8-2.09-2.07.04-1.27.9-1.97,2.69-1.94Z"/>
    <path class="cls-4" d="m114.56,114.34c-1.23-.28-2.1-.91-1.92-2.3.18-1.33,1.16-1.97,2.39-1.84,1.15.12,1.94.89,1.83,2.19-.12,1.38-1.03,1.89-2.3,1.95Z"/>
    <path class="cls-104" d="m119.97,103.37c-2.94-.31-5.53.49-7.92,2.53.66-3.43,4.9-4.74,7.92-2.53Z"/>
    <path class="cls-102" d="m142.62,110.32c.71-1.53,1.59-1.54,2.58-.97,2.4,1.38,3.16,5.9,1.33,7.96-.6.68-1.3,1.18-2.53.46,1.34-.29,2.31-.69,2.68-1.99.42-1.47.12-2.81-.42-4.11-.75-1.79-1.86-2.24-3.64-1.36Z"/>
    <path class="cls-92" d="m109.75,132.43c2.1-1.06,4.23-2,6.77-1.63-2.2.69-4.39,1.38-6.59,2.07-.06-.15-.12-.3-.18-.44Z"/>
    <path class="cls-52" d="m134.47,200.66c.87-1.02,2.44-.95,3.22-2.11,2.48.7,4.96,1.4,7.44,2.1-2.43,2.47-5.26,1.42-8.03.91-.86-.16-1.71-.37-2.57-.55-.04-.11-.06-.23-.06-.34Z"/>
    <path class="cls-67" d="m126.06,180.8c-.03-.34-.06-.68-.09-1.03.35-2.85,1.88-5.17,3.41-7.49.18-.27.51-.49.9-.27.43.75-.07,1.35-.36,1.96-.69,1.42-1.41,2.82-2.1,4.24-.81,1.67-.79,1.71,1.03,1.79.92.04,1.9-.06,2.57.8-.02.13-.05.25-.07.38-1.76-.2-3.57.39-5.29-.39Z"/>
    <path class="cls-24" d="m205.33,183.67c-1.32,2.72-2.67,5.42-3.04,8.5-.19,1.53-.06,3.05-.15,4.56-.11.12-.23.15-.38.07,0,0-.13-.07-.13-.07-.45-4.5.51-8.66,2.94-12.48.18-.28.31-.65.76-.59Z"/>
    <path class="cls-36" d="m71.01,164.03c-1.22,1.08-1.23,2.65-1.68,4.05-.66,1.91-1.32,3.82-1.98,5.73-.38-.11-.16-.51-.35-.71,1.04-3.17,1.85-6.43,3.44-9.41.19.11.38.23.57.34Z"/>
    <path class="cls-15" d="m207.78,180.62c-.4,1.35-1.5,2.15-2.46,3.05-.2-.71.6-1.02.66-1.62.59-.48,1.05-1.14,1.79-1.43Z"/>
    <path class="cls-28" d="m201.05,140.54c-.15-1.1-.1-2.28,1.84-2.33.65-.01.98-.74,1-1.48.03-.77-.14-1.44-.87-1.78-.62-.28-1.26-.26-1.81.23-.13.12-.28.23-.37.37-.56.92-1.52,1.53-2.3.77-.84-.83-.11-1.88.61-2.61,1.26-1.27,2.91-1.29,4.46-.92,1.54.37,2.47,1.59,2.71,3.16.26,1.68-.51,3.03-1.83,3.95-.76.53-1.47.9-1.31,2.01.11.75.01,1.39-1.06,1.39-1.07,0-1.08-.66-1.06-1.41.01-.35,0-.71,0-1.36Z"/>
    <path class="cls-38" d="m131.42,180.81c-1.25-.36-2.53-.41-3.81-.32-1.17.08-1.28-.34-.8-1.3,1.18-2.39,2.6-4.67,3.46-7.22.08-.05.15-.1.23-.14.47-.08.86.14.99.54.45,1.37,1.32,2.62,1.25,4.15.02.15.03.3.05.45-.46,1.28-.66,2.66-1.37,3.85Z"/>
    <path class="cls-47" d="m203.27,169.89c2.45.1,3.81,1.06,4.15,2.93.3,1.63-.67,3.03-2.84,4.08-1.27,0-2.42-.25-3.4-1.7,1.11.45,1.77,1.12,2.75,1.03,1.01-.1,1.8-.47,2.36-1.29.8-1.19.54-2.88-.56-3.81-1.24-1.05-2.74-.82-4.65.85.24-1.43,1.36-1.61,2.2-2.09Z"/>
    <path class="cls-58" d="m130.27,171.96c-1.8,1.72-2.48,4.08-3.55,6.22-.26.52-.49,1.06-.74,1.6-.75-.65-.89-1.66-1.45-2.42-.09-.15-.12-.3-.11-.48,1.35-2.36,3-4.51,4.6-6.7.21-.18.46-.21.72-.15.17.04.32.12.43.26.33.54.59,1.09.08,1.68h0Z"/>
    <path class="cls-13" d="m116,169.55c.02-.08.05-.16.1-.23-.14-.2-.13-.39.04-.57l1.06,1.08c1.34.68,2.21,1.85,3.1,3,.89,1.15,2.11,1.99,3.02,3.13,0,.95-.47.97-1.07.49-.58-.47-1.11-1.01-1.52-1.65-1.57-1.75-3.14-3.5-4.72-5.24Z"/>
    <path class="cls-34" d="m120.71,174.8c.51.46,1.02.92,1.53,1.38.57.51.92.5.93-.37.05-.07.1-.13.15-.2,1.25-.29,1,.77,1.26,1.38-.02.12-.04.25-.05.38-.69,1.12-1.39,1.18-2.01-.02-.49-.93-1.67-1.36-1.8-2.54Z"/>
    <g>
      <path class="cls-97" d="m206.37,231.73c.04,3.11.7,6.14,1.2,9.2.02.11.09.22.11.33q.72,3.62,4.33,3.62c7.29,0,14.59,0,21.88,0,.88,0,1.74.02,2.91.67h-10.68c-.62-.29-1.28-.15-1.91-.15-13.88,0-27.75,0-41.63-.01-.74,0-1.55.21-2.18-.42-.43-.62-.42-1.34-.43-2.04-.05-3.12-.24-6.25-.25-9.36-.01-7.6-.59-15.19-.42-22.79.03-1.3.09-2.59.41-3.85.04-.21.13-.41.24-.59.37-.44.91-.49,1.43-.58,5.96-1,11.76-2.67,17.6-4.16.94-.24,1.88-.75,2.89-.26,1.14,2.46.88,5.17,1.4,7.75.71,3.51.89,7.11,1.83,10.58-.12,3.2.81,6.28,1.2,9.42.11.87.35,1.73.06,2.61Z"/>
      <path class="cls-97" d="m182.64,164.87c.27.46.75.33,1.15.42-10.24,5.15-20.47,10.3-30.71,15.45-4.46,2.25-8.92,4.5-13.38,6.75-2.55-.23-4.75-1.52-7.08-2.41-.81-.31-.6-1.2-.79-1.84-.2-.67-.33-1.36-.49-2.04-.13-.12-.19-.28-.18-.46.43-1.29.66-2.65,1.46-3.79.63-.27.8.29,1.07.62,1.08,1.34,1.19,1.36,2.23-.06,1.79-2.46,3.33-5.09,5.04-7.6.94-1.39,1.51-3.07,3.02-4.03,2.6-1.88,5.55-3.2,8.1-5.17.97-.75,1.93-1.52,2.95-2.19,1.02-.67,1.3-1.41.71-2.47.35-.24.71-.48,1.06-.72,3.25.57,6.17,2.12,9.28,3.11,2.22.71,4.39,1.6,6.69,2.07,2.49,1.57,5.32,2.35,8.01,3.46.64.27,1.35.39,1.87.91Z"/>
      <path class="cls-97" d="m126.06,180.8c-.12,1.82-1.19.8-1.78.49-4.49-2.31-8.99-4.62-13.41-7.07-6.98-3.87-13.86-7.92-20.62-12.16.29-.51.79-.71,1.32-.77,2.39-.25,4.76-.74,7.18-.63.68.26,1.37.52,2.05.79.55,1.12-.66.66-.88,1.17,4.22,3.06,9.09,4.86,14.23,6.05.63.15,1.27.27,1.86.53,2.02,1.48,3.43,3.5,4.98,5.41.36,1,1.3,1.59,1.84,2.46.56.9,1.23.03,1.83.16.8.69,1.11,1.69,1.58,2.59.09.36.09.7-.2.99Z"/>
      <path class="cls-97" d="m54.13,144.02c1.75-1.65,2.85-3.77,4.16-5.74.75-1.14,1.27-2.48,2.62-3.12,4.21,2.8,8.42,5.61,12.64,8.4.22.15.56.12.84.17,0,.59.5.81.88.98,1.57.71,1.92,1.78,1.14,3.28-.92,1.77-1.34,3.72-2.04,5.57-1.24,1.86-1.58,4.08-2.42,6.1-.55,1.32-1.44,2.53-1.51,4.03.1,1.29-.56,2.37-1.05,3.46-.9,1.97-1.49,4.03-2.14,6.08-1.11,4.75-3,9.28-4.11,14.03-.28,1.21-.85,2.32-1.19,3.5-.83,2.36-1.6,4.73-2.45,7.32,1.77-.38,2.69-1.35,3.45-2.58,1.86-2.99,2.24-6.39,2.76-9.76.57-3.71,1.07-7.43,1.21-11.19.02-.27.06-.54.17-.79.65-1.96,1.16-3.97,2.02-5.87,1.17-.81,2.45-1.37,3.83-1.7,7.11,5.43,14.34,10.7,21.87,15.55,7.87,5.07,15.9,9.89,24.52,13.64,1.59.69,1.58.71,1.72,1.65-9.99,5.31-19.93,10.69-29.11,17.36-3.53,2.57-6.87,5.37-9.84,8.59-.26.28-.43.75-.97.6-.15-1.2.52-2.8-1.5-3.1.89-1.99.68-2.24-1.51-2.4-1.03-.08-2.38.66-3.06-.83,1.46.02,2.92,0,4.38.07.93.04,1.41-.2,1.34-1.26-.2-3.15-.33-6.3-.48-9.45-.93-1.3-.89-2.89-1.23-4.34-1.51-6.37-3.52-12.57-6.03-18.61-.26-.63-.58-1.25-.98-1.81-.18-.17-.25.24-.12.04.05-.08.12-.07.17.04,1.93,3.72,3.24,7.69,4.54,11.65,1.21,3.7,2.12,7.47,2.95,11.26.12.53.5,1.11.03,1.68-4.87.26-9.61-.6-14.2-2.1-9.85-3.23-18.32-8.6-24.93-16.69-3.01-3.69-4.8-8.02-6.24-12.52.68-2.03,1.95-3.74,3.06-5.53,3.47-5.59,6.86-11.22,10.68-16.58,2.18-2.31,3.4-5.27,5.23-7.82.3-.42.43-.96.9-1.26Z"/>
      <path class="cls-97" d="m109.34,245.15c-8.73.03-17.45.06-26.18.09-.49,0-.94-.08-1.33-.38-.04-1.05-.02-2.09.39-3.08.58.13.89,1.31,1.78.07,5.25-7.25,12.49-12.21,19.9-16.94,5.26-3.35,10.53-6.69,15.9-9.87.72-.43,1.56-1.56,2.55-.27-.28,3.58-.53,7.16-1.23,10.69-.23,1.06-1.01,1.69-1.79,2.33-4.45,3.68-7.55,8.23-8.97,13.86-.17.66-.18,1.44-.96,1.79-.03.57-.05,1.13-.08,1.7Z"/>
      <path class="cls-97" d="m179.74,206.37c.03.09.06.18.09.27-.64,1.12-.3,2.43-.66,3.6.33,1.23.08,2.49-.13,3.66-.4,2.17-.25,4.32-.28,6.48-.11,6.75.19,13.5-.19,20.25-.02.35.05.71-.15,1.03-.18,3.56-.18,3.55-3.88,3.55-11.17,0-22.34,0-33.51-.01-.55-.27-.67-.81-.74-1.32-.52-3.76-1.26-7.48-1.67-11.25,0-1.48-.68-2.9-.38-4.41.6-.9,1.58-.96,2.5-1.12,6.26-1.12,12.54-1.04,18.83-.27.7.09,1.4.17,2.11.25,2.78.32,2.99.56,2.81,3.37,3.65-1.29,7.21-2.67,10.77-4.02.53-.2.82-.59.38-1.08-2.53-2.84-4.92-5.81-7.57-8.63-1.64,2.88-1.64,2.85-4.85,2.35-8.02-1.24-16.05-1.5-24.08,0-.63.12-1.27.29-1.91.02-.77-.61-.88-1.51-.99-2.38-.34-2.81-.77-5.6-1.29-8.38-.13-.72-.13-1.4.25-2.05,0,0,.08-.07.08-.07,3.97-3.29,8.25-3.65,13.29-2.52,10.23,2.3,20.69,2.95,31.19,2.66Z"/>
      <path class="cls-97" d="m193.92,175.09c1.57,3.12,3.26,6.18,4.14,9.6.19.76.72,1.19,1.57,1.07-5.3,2.87-10.97,4.6-16.89,5.69-6.4,1.18-12.82,1.21-19.28.95-.38-.12-.75-.25-1.4-.46,10.75-5.69,21.3-11.27,31.85-16.85Z"/>
      <path class="cls-97" d="m141.01,167.37c-.18.35-.36.69-.54,1.04,0,0,.04,0,.04,0-.52.78-1.19,1.43-1.68,2.23-.9.64-1.12,1.93-2.23,2.36-.38.44-.82.84-1.13,1.32-.57.88-1.11.84-1.73.09-1.87-.87-2.62-2.76-3.84-4.22h.03c-.13-.05-.18-.12-.16-.2.02-.09.05-.14.09-.14,3.71-.83,7.43-1.66,11.14-2.48Z"/>
      <path class="cls-97" d="m123.17,175.8c-.55.13-.85-.24-1.17-.59-1.6-1.79-3.21-3.58-4.82-5.38,3,.01,6,.02,9,.04.34,0,.71-.03.91.35-.41,2.12-2.09,3.41-3.33,4.99-.17.22-.41.41-.59.63v-.04Z"/>
    </g>
    <path class="cls-98" d="m123.17,175.84c.94-2.13,2.73-3.67,3.92-5.62.1,0,.2-.02.3-.06.62-.39,1.23-.51,1.82.05-1.27,2.44-2.98,4.59-4.63,6.77-.78,0-.24-1.63-1.41-1.14Z"/>
    <path class="cls-31" d="m129.21,170.21c-.61-.02-1.21-.04-1.82-.05,1.02-2,1.16-2.01,2.47-.3.04.11.06.22.07.34-.24,0-.48,0-.73.01Z"/>
    <path class="cls-7" d="m116.13,168.76c-.01.19-.02.38-.04.57-.78-.83-1.8-1.48-2.12-2.67.93.48,1.44,1.4,2.15,2.11Z"/>
    <path class="cls-67" d="m129.91,170.2c1.47,1.23,2.57,2.81,3.84,4.22-.34.7-.67,1.39-1.01,2.09-.47-1.13-1-2.24-1.38-3.4-.2-.61-.37-1.1-1.1-1.14-.12-.59-.24-1.18-.36-1.78Z"/>
    <path class="cls-32" d="m136.6,173c.69-.83,1.38-1.65,2.07-2.48.16-.14.31-.13.44.03-.6.77-1.18,1.55-1.8,2.3-.16.19-.36.71-.72.15Z"/>
    <path class="cls-105" d="m139.12,170.55c-.15-.01-.3-.02-.44-.03.52-.79.95-1.64,1.83-2.12-.07.97-.93,1.43-1.39,2.15Z"/>
    <path class="cls-108" d="m48.14,153.24c-.36-.15-.73-.3-1.09-.45-.14-.27-.54-.35-.39-.85.9-2.93,1.75-5.88,2.6-8.82.12-.41.43-.51.76-.62,1.48.21,2.77.93,4.11,1.51.05,1.11-.77,1.8-1.28,2.63-1.13,1.85-2.3,3.68-3.45,5.52-.31.49-.52,1.09-1.26,1.07Z"/>
    <path class="cls-114" d="m79.63,206.52c-1.73-8.77-4.24-17.29-7.89-25.46,4.27,8.03,6.65,16.71,8.55,25.55-.22-.03-.44-.06-.66-.09Z"/>
    <path class="cls-89" d="m44.28,205.61c-.14-.11-.27-.23-.41-.34,1.35-1.05,2.8-1.46,4.33-.48,1.62,1.04,1.78,2.58,1.28,4.29-1.03,1.15-2.1,2.21-3.98,1.7.5-.49,1.25-.03,1.63-.53.16-.54.65-.82.97-1.22.61-.75.8-1.55.35-2.44-.48-.94-1.27-1.29-2.31-1.26-.64.02-1.21.48-1.88.28Z"/>
    <path class="cls-53" d="m201.76,196.81c.13-.02.25-.05.38-.07.84,3.09,1.5,6.25,3.56,8.84.65.82,1.28,1.67,1.92,2.5-.7.23-.92-.4-1.22-.75-2.64-3.02-4.26-6.49-4.63-10.52Z"/>
    <path class="cls-36" d="m67.27,174.45c-.14,6.24-.92,12.4-2.57,18.42-.56,2.03-1.55,3.95-3.46,5.15-.49.31-1.03.57-1.58.75-.73.23-1.01-.09-.75-.82.88-2.42,1.76-4.84,2.64-7.27,1.27-1.82,1.61-3.98,2.14-6.05.83-3.24,1.98-6.38,2.92-9.58.09-.29.12-.75.65-.61Z"/>
    <path class="cls-29" d="m67.27,174.45c-1.63,3.59-2.51,7.42-3.53,11.2-.46,1.7-1.05,3.36-1.6,5.03-.15.45-.39.9-.58,0,1.23-4.08,2.44-8.17,3.68-12.25.55-1.79,1.17-3.56,1.75-5.33.12.24.23.47.35.71-.02.21-.05.43-.07.64Z"/>
    <path class="cls-97" d="m137.28,218.89c-5.5,1.24-10.71,3.15-15.36,6.42-.33.23-.73.36-1.09.54.26-2.72.45-5.45.81-8.15.15-1.09-.07-2.22.4-3.27.04-.13.09-.26.14-.39,4.34-2.58,8.67-5.16,13.01-7.74.75,4.19,1.12,8.44,2.1,12.59Z"/>
    <path class="cls-109" d="m219.71,195.88c0-.53.05-1.07,0-1.59-.11-1.04.09-1.53,1.36-1.57,1.34-.04,2.27-.91,2.31-2.41.04-1.23-.54-2.09-1.71-2.35-1.29-.29-2.39.14-2.83,1.48-.5,1.52-1.72.85-2.51.71-.86-.14-.33-1.09-.21-1.64.47-2.11,2.1-3.3,4.56-3.43,2.49-.13,4.65,1.18,5.34,3.23.76,2.24.09,5.02-1.95,6.08-1.61.83-1.87,1.9-1.66,3.37.16,1.12-.43,1.23-1.32,1.19-.8-.03-1.57.09-1.4-1.13.09-.64.02-1.3.02-1.94Z"/>
    <path class="cls-68" d="m221.07,202.81c-1.02.22-1.41-.1-1.41-1.24,0-1.16.45-1.31,1.44-1.3.99,0,1.43.16,1.42,1.32,0,1.18-.46,1.42-1.46,1.22Z"/>
  </g>
</svg>