<?xml version="1.0" encoding="UTF-8"?>
<svg id="Layer_1" data-name="Layer 1" xmlns="http://www.w3.org/2000/svg" xmlns:xlink="http://www.w3.org/1999/xlink" viewBox="0 0 200 200">
  <defs>
    <style>
      .cls-1 {
        fill: url(#linear-gradient);
      }

      .cls-1, .cls-2, .cls-3, .cls-4, .cls-5, .cls-6, .cls-7, .cls-8 {
        stroke-width: 0px;
      }

      .cls-2 {
        fill: url(#linear-gradient-6);
      }

      .cls-4 {
        fill: url(#linear-gradient-5);
      }

      .cls-5 {
        fill: #fff;
      }

      .cls-6 {
        fill: url(#linear-gradient-2);
      }

      .cls-7 {
        fill: url(#linear-gradient-3);
      }

      .cls-8 {
        fill: url(#linear-gradient-4);
      }
    </style>
    <linearGradient id="linear-gradient" x1="147.96" y1="64.17" x2="166.71" y2="64.17" gradientUnits="userSpaceOnUse">
      <stop offset="0" stop-color="#c950d3"/>
      <stop offset="1" stop-color="#ff2bd5"/>
    </linearGradient>
    <linearGradient id="linear-gradient-2" x1="135.17" y1="93.48" x2="179.93" y2="93.48" gradientUnits="userSpaceOnUse">
      <stop offset="0" stop-color="#d0abd3"/>
      <stop offset="1" stop-color="#ff80aa"/>
    </linearGradient>
    <linearGradient id="linear-gradient-3" x1="31.96" y1="64.17" x2="50.71" y2="64.17" gradientUnits="userSpaceOnUse">
      <stop offset="0" stop-color="#9fd348"/>
      <stop offset=".98" stop-color="#ffad1f"/>
    </linearGradient>
    <linearGradient id="linear-gradient-4" x1="19.17" y1="93.48" x2="63.93" y2="93.48" gradientUnits="userSpaceOnUse">
      <stop offset="0" stop-color="#b8d38b"/>
      <stop offset=".99" stop-color="#ffd791"/>
    </linearGradient>
    <linearGradient id="linear-gradient-5" x1="88.53" y1="59.05" x2="109.95" y2="59.05" gradientUnits="userSpaceOnUse">
      <stop offset="0" stop-color="#0dd3c8"/>
      <stop offset=".99" stop-color="#089bff"/>
    </linearGradient>
    <linearGradient id="linear-gradient-6" x1="73.91" y1="92.55" x2="125.07" y2="92.55" gradientUnits="userSpaceOnUse">
      <stop offset="0" stop-color="#58d3cc"/>
      <stop offset="1" stop-color="#abddff"/>
    </linearGradient>
  </defs>
  <g>
    <rect class="cls-5" x="116.5" y="48.88" width="83" height="102.25" rx="15.5" ry="15.5"/>
    <path class="cls-3" d="m184,49.38c8.27,0,15,6.73,15,15v71.25c0,8.27-6.73,15-15,15h-52c-8.27,0-15-6.73-15-15v-71.25c0-8.27,6.73-15,15-15h52m0-1h-52c-8.84,0-16,7.16-16,16v71.25c0,8.84,7.16,16,16,16h52c8.84,0,16-7.16,16-16v-71.25c0-8.84-7.16-16-16-16h0Z"/>
  </g>
  <g>
    <path class="cls-1" d="m158,59.63c-3.53,0-8.97,1.57-9.61,3.33s-.48,4.13,0,5.77c7.74-2.38,13.47-2.88,17.98-.62.56-1.13.56-5.08-1.13-6.21s-5.45-2.26-7.24-2.26Z"/>
    <path class="cls-6" d="m153.94,66.97c-6.34,1.81-17.45,7.11-18.32,23.03s-.26,18.73,0,22.97,12.88,7.75,22.38,7.69,19.96-3.42,20.66-6.82c.7-3.4.43-13.28.85-15.68s.71-9.31,0-12.91-4.66-11.76-8.33-14.17-9.34-6.35-17.23-4.1Z"/>
    <g>
      <path class="cls-3" d="m189.63,115.22c-1.19,2.61-2.23,4.78-3.17,7.01-.53,1.26-1.24,1.25-2.26.67-3.56-2.04-3.93-7.25-.53-9.52,1.26-.85,2.83-1.3,4.31-1.72.84-.24,1.16-.55,1.22-1.38.18-2.91-.89-5.13-3.47-6.56-1.85-1.02-3.83-1.46-6.04-1.5,0,.86,0,1.61,0,2.35,0,2.43-.05,4.86-.01,7.28.03,2.13-1.08,3.5-2.77,4.55-3.65,2.27-7.75,3.14-11.9,3.84-1.59.27-3.18.45-4.84.69-.21,1.36-.45,2.58,1.22,3.29.55.23,1.27,1.14,1.17,1.59-.29,1.38.71,1.97,1.31,2.81,3.11,4.35,1.42,9.61-3.7,11.13-1.77.53-3.66.8-5.51.87-3.64.12-6.72-2.49-7.35-5.98-.66-3.65,1.34-6.92,4.59-8.55,2.4-1.2,3.85-2.49,3.08-4.73-4.49-.97-8.84-1.84-13.14-2.87-1.5-.36-2.92-1.12-4.35-1.76-1.8-.81-2.61-2.24-2.58-4.24.06-3.64.02-7.29.02-10.93,0-.49,0-.99,0-1.49-6.02.58-9.12,4.24-7.85,8.83,1.62.59,3.22.96,4.61,1.72,3.89,2.11,4.05,7.3.39,9.81-1.28.88-1.96.72-2.6-.66-.98-2.14-1.92-4.29-3.03-6.77-.22,2.71-.38,5.05-.61,7.39-.16,1.56-.71,1.8-2.07.97-1.83-1.11-2.86-3.5-2.16-6.01.45-1.6,1.48-3.04,2.21-4.57.24-.49.46-1.04.49-1.58.07-1.56-.06-3.14.06-4.7.34-4.36,3.23-6.52,6.99-7.86,1.04-.37,2.11-.67,3.24-1.03-.27-4.81.67-9.38,2.47-13.78,2.07-5.08,5.09-9.41,9.72-12.52.4-.27.68-.94.73-1.46.11-1.1.07-2.23.02-3.34-.06-1.43.54-2.49,1.77-3.1,5.49-2.74,11-2.62,16.47.06,1.1.54,1.49,1.52,1.31,2.66-.38,2.45.51,3.87,2.73,5.26,5.48,3.45,8.1,9.02,9.67,15.09,1.1,4.29,1.65,8.64.37,13.14.4.13.81.27,1.22.38.83.22,1.68.39,2.49.65,6.45,2.07,8.38,4.79,8.08,11.52-.07,1.47.09,2.63,1.13,3.84,1.54,1.78,2.06,4.04,1.62,6.41-.29,1.59-1.18,2.76-2.64,3.5-.99.51-1.54.26-1.63-.88-.13-1.66-.28-3.33-.4-4.99-.06-.79-.09-1.59-.15-2.82Zm.44-2.44c.15,2,.28,4,.44,6,.12,1.51.29,3.02.45,4.68.47-.22.66-.28.82-.38,1.85-1.2,2.32-2.99,1.98-5.02-.38-2.26-1.3-4.22-3.47-5.33-.06-.03-.18.07-.27.1-.31-.19-.63-.57-.93-.55-2.53.09-4.79.91-6.33,3.01-1.78,2.43-.29,6.37,2.88,7.26,1.17-2.85,2.34-5.74,3.55-8.6.18-.42.57-.76.87-1.15Zm-32.58-10.4c6.22-.18,12.5-1.02,18.54-3.3,2.28-.86,3.33-2.38,3.44-4.79.29-6.45-1.18-12.45-4.49-17.98-6.89-11.51-20.86-11.14-28.32-5.48-7.43,5.63-10.36,13.56-11.01,22.56-.18,2.48.77,4.05,3.09,5.1,5.92,2.68,12.11,3.84,18.75,3.9Zm-1.09,1.07c-7.16-.28-13.93-1.59-20.35-5.17,0,4.69.12,9.09-.05,13.49-.09,2.38.89,3.83,2.98,4.46,3.71,1.13,7.45,2.18,11.23,3.05,1.98.46,4.06.47,6.19.7v-16.53Zm22.19-4.37c-5.75,2.8-11.6,3.58-17.47,4.27v16.31c1.11-.13,2.11-.22,3.09-.37,4.11-.63,8.15-1.52,11.81-3.63,1.69-.97,2.72-2.29,2.63-4.41-.12-2.58-.05-5.16-.06-7.74,0-1.4,0-2.79,0-4.44Zm-26.12,27.75c-3.17,1.04-5.01,4.15-4.48,7.5.49,3.12,3.4,5.59,6.61,5.62,3.37.03,6.18-2.42,6.81-5.75.54-2.89-1.56-6.62-4.08-7.09-.76,1.51-1.8,3.01-1.11,4.86.38,1.01.51,1.99-.36,2.61-.56.4-1.53.55-2.21.38-1.12-.27-1.2-1.31-1.18-2.34.04-1.91.01-3.82.01-5.81Zm13.63-59.63c0-.81,0-1.45,0-2.08-.02-2.43-.19-2.67-2.48-3.5-3.78-1.38-7.6-1.52-11.45-.29-3.62,1.16-4.51,2.99-3.24,6.78,5.51-2.53,11.18-2.74,17.16-.9Zm-35.68,53.04c2.6-.91,4.08-3.65,3.45-6.02-.7-2.62-4.48-4.69-7.69-4.12,1.42,3.4,2.83,6.77,4.24,10.13Zm26.98-.34c1.01-.07,1.84-.12,2.64-.18v-16.4c-.96.06-1.79.12-2.64.17v16.41Zm-1.37,1.09c-.04.43-.1.68-.09.92.06,1.32.13,2.58-1.42,3.27-.44.2-.84.97-.88,1.51-.15,2.26-.18,4.53-.21,6.79,0,.2.25.57.37.57.25-.01.63-.17.72-.36.21-.5.3-1.06.42-1.6.31-1.32.48-2.69.93-3.95.76-2.1,2-2.8,4.22-2.66.47.03.94.11,1.41.17-1.86-1.04-2.72-2.55-2.27-4.66h-3.19Zm-30.85.09c.22-3.7.42-7.16.64-11-2.7,2.1-3.86,4.45-3.62,7.37.13,1.62.94,2.94,2.98,3.63Z"/>
      <path class="cls-3" d="m173.37,91.53c-.02,1.12-.92,2.01-2.03,2.01-1.19,0-2.09-.95-2.03-2.15.05-1.13.99-1.99,2.1-1.95,1.11.04,1.98.97,1.96,2.09Z"/>
      <path class="cls-3" d="m145.8,93.43c-1.1,0-2.01-.91-2.02-2.02,0-1.13.85-2.02,1.97-2.06,1.15-.04,2.14.94,2.11,2.09-.03,1.11-.95,1.99-2.06,1.99Z"/>
      <path class="cls-3" d="m143.22,85.63c-.04-1.68.89-2.45,2.14-2.9,1.29-.46,2.65-.6,3.66.51.36.39.44,1.23.31,1.78-.07.29-.88.55-1.36.57-1.55.07-3.1.03-4.75.03Zm.72-.81h4.75c.09-.11.19-.22.28-.32-.42-.42-.77-1.08-1.26-1.21-1.38-.36-2.63,0-3.76,1.53Z"/>
      <path class="cls-3" d="m155.09,95.6c.3,2.28.68,4.07,3.04,4.25,2.58.21,3.7-1.25,3.93-3.98.82,1.66.39,3.12-.83,4.05-1.42,1.08-4,1.05-5.4-.07-1.19-.95-1.61-2.59-.74-4.25Z"/>
      <path class="cls-3" d="m174.31,85.23c-1.84,0-3.55.05-5.25-.04-.38-.02-1.07-.59-1.04-.81.11-.68.33-1.56.82-1.92,1.91-1.4,5.01.1,5.46,2.77Zm-.73-.83c-1.11-1.41-2.26-1.93-3.63-1.6-.56.13-.99.78-1.48,1.2l.27.4h4.84Z"/>
    </g>
  </g>
  <g>
    <rect class="cls-5" x=".5" y="48.88" width="83" height="102.25" rx="15.5" ry="15.5"/>
    <path class="cls-3" d="m68,49.38c8.27,0,15,6.73,15,15v71.25c0,8.27-6.73,15-15,15H16c-8.27,0-15-6.73-15-15v-71.25c0-8.27,6.73-15,15-15h52m0-1H16c-8.84,0-16,7.16-16,16v71.25c0,8.84,7.16,16,16,16h52c8.84,0,16-7.16,16-16v-71.25c0-8.84-7.16-16-16-16h0Z"/>
  </g>
  <g>
    <path class="cls-7" d="m42,59.63c-3.53,0-8.97,1.57-9.61,3.33s-.48,4.13,0,5.77c7.74-2.38,13.47-2.88,17.98-.62.56-1.13.56-5.08-1.13-6.21s-5.45-2.26-7.24-2.26Z"/>
    <path class="cls-8" d="m37.94,66.97c-6.34,1.81-17.45,7.11-18.32,23.03s-.26,18.73,0,22.97,12.88,7.75,22.38,7.69,19.96-3.42,20.66-6.82c.7-3.4.43-13.28.85-15.68s.71-9.31,0-12.91-4.66-11.76-8.33-14.17-9.34-6.35-17.23-4.1Z"/>
    <g>
      <path class="cls-3" d="m73.63,115.22c-1.19,2.61-2.23,4.78-3.17,7.01-.53,1.26-1.24,1.25-2.26.67-3.56-2.04-3.93-7.25-.53-9.52,1.26-.85,2.83-1.3,4.31-1.72.84-.24,1.16-.55,1.22-1.38.18-2.91-.89-5.13-3.47-6.56-1.85-1.02-3.83-1.46-6.04-1.5,0,.86,0,1.61,0,2.35,0,2.43-.05,4.86-.01,7.28.03,2.13-1.08,3.5-2.77,4.55-3.65,2.27-7.75,3.14-11.9,3.84-1.59.27-3.18.45-4.84.69-.21,1.36-.45,2.58,1.22,3.29.55.23,1.27,1.14,1.17,1.59-.29,1.38.71,1.97,1.31,2.81,3.11,4.35,1.42,9.61-3.7,11.13-1.77.53-3.66.8-5.51.87-3.64.12-6.72-2.49-7.35-5.98-.66-3.65,1.34-6.92,4.59-8.55,2.4-1.2,3.85-2.49,3.08-4.73-4.49-.97-8.84-1.84-13.14-2.87-1.5-.36-2.92-1.12-4.35-1.76-1.8-.81-2.61-2.24-2.58-4.24.06-3.64.02-7.29.02-10.93,0-.49,0-.99,0-1.49-6.02.58-9.12,4.24-7.85,8.83,1.62.59,3.22.96,4.61,1.72,3.89,2.11,4.05,7.3.39,9.81-1.28.88-1.96.72-2.6-.66-.98-2.14-1.92-4.29-3.03-6.77-.22,2.71-.38,5.05-.61,7.39-.16,1.56-.71,1.8-2.07.97-1.83-1.11-2.86-3.5-2.16-6.01.45-1.6,1.48-3.04,2.21-4.57.24-.49.46-1.04.49-1.58.07-1.56-.06-3.14.06-4.7.34-4.36,3.23-6.52,6.99-7.86,1.04-.37,2.11-.67,3.24-1.03-.27-4.81.67-9.38,2.47-13.78,2.07-5.08,5.09-9.41,9.72-12.52.4-.27.68-.94.73-1.46.11-1.1.07-2.23.02-3.34-.06-1.43.54-2.49,1.77-3.1,5.49-2.74,11-2.62,16.47.06,1.1.54,1.49,1.52,1.31,2.66-.38,2.45.51,3.87,2.73,5.26,5.48,3.45,8.1,9.02,9.67,15.09,1.1,4.29,1.65,8.64.37,13.14.4.13.81.27,1.22.38.83.22,1.68.39,2.49.65,6.45,2.07,8.38,4.79,8.08,11.52-.07,1.47.09,2.63,1.13,3.84,1.54,1.78,2.06,4.04,1.62,6.41-.29,1.59-1.18,2.76-2.64,3.5-.99.51-1.54.26-1.63-.88-.13-1.66-.28-3.33-.4-4.99-.06-.79-.09-1.59-.15-2.82Zm.44-2.44c.15,2,.28,4,.44,6,.12,1.51.29,3.02.45,4.68.47-.22.66-.28.82-.38,1.85-1.2,2.32-2.99,1.98-5.02-.38-2.26-1.3-4.22-3.47-5.33-.06-.03-.18.07-.27.1-.31-.19-.63-.57-.93-.55-2.53.09-4.79.91-6.33,3.01-1.78,2.43-.29,6.37,2.88,7.26,1.17-2.85,2.34-5.74,3.55-8.6.18-.42.57-.76.87-1.15Zm-32.58-10.4c6.22-.18,12.5-1.02,18.54-3.3,2.28-.86,3.33-2.38,3.44-4.79.29-6.45-1.18-12.45-4.49-17.98-6.89-11.51-20.86-11.14-28.32-5.48-7.43,5.63-10.36,13.56-11.01,22.56-.18,2.48.77,4.05,3.09,5.1,5.92,2.68,12.11,3.84,18.75,3.9Zm-1.09,1.07c-7.16-.28-13.93-1.59-20.35-5.17,0,4.69.12,9.09-.05,13.49-.09,2.38.89,3.83,2.98,4.46,3.71,1.13,7.45,2.18,11.23,3.05,1.98.46,4.06.47,6.19.7v-16.53Zm22.19-4.37c-5.75,2.8-11.6,3.58-17.47,4.27v16.31c1.11-.13,2.11-.22,3.09-.37,4.11-.63,8.15-1.52,11.81-3.63,1.69-.97,2.72-2.29,2.63-4.41-.12-2.58-.05-5.16-.06-7.74,0-1.4,0-2.79,0-4.44Zm-26.12,27.75c-3.17,1.04-5.01,4.15-4.48,7.5.49,3.12,3.4,5.59,6.61,5.62,3.37.03,6.18-2.42,6.81-5.75.54-2.89-1.56-6.62-4.08-7.09-.76,1.51-1.8,3.01-1.11,4.86.38,1.01.51,1.99-.36,2.61-.56.4-1.53.55-2.21.38-1.12-.27-1.2-1.31-1.18-2.34.04-1.91.01-3.82.01-5.81Zm13.63-59.63c0-.81,0-1.45,0-2.08-.02-2.43-.19-2.67-2.48-3.5-3.78-1.38-7.6-1.52-11.45-.29-3.62,1.16-4.51,2.99-3.24,6.78,5.51-2.53,11.18-2.74,17.16-.9ZM14.42,120.24c2.6-.91,4.08-3.65,3.45-6.02-.7-2.62-4.48-4.69-7.69-4.12,1.42,3.4,2.83,6.77,4.24,10.13Zm26.98-.34c1.01-.07,1.84-.12,2.64-.18v-16.4c-.96.06-1.79.12-2.64.17v16.41Zm-1.37,1.09c-.04.43-.1.68-.09.92.06,1.32.13,2.58-1.42,3.27-.44.2-.84.97-.88,1.51-.15,2.26-.18,4.53-.21,6.79,0,.2.25.57.37.57.25-.01.63-.17.72-.36.21-.5.3-1.06.42-1.6.31-1.32.48-2.69.93-3.95.76-2.1,2-2.8,4.22-2.66.47.03.94.11,1.41.17-1.86-1.04-2.72-2.55-2.27-4.66h-3.19Zm-30.85.09c.22-3.7.42-7.16.64-11-2.7,2.1-3.86,4.45-3.62,7.37.13,1.62.94,2.94,2.98,3.63Z"/>
      <path class="cls-3" d="m57.37,91.53c-.02,1.12-.92,2.01-2.03,2.01-1.19,0-2.09-.95-2.03-2.15.05-1.13.99-1.99,2.1-1.95,1.11.04,1.98.97,1.96,2.09Z"/>
      <path class="cls-3" d="m29.8,93.43c-1.1,0-2.01-.91-2.02-2.02,0-1.13.85-2.02,1.97-2.06,1.15-.04,2.14.94,2.11,2.09-.03,1.11-.95,1.99-2.06,1.99Z"/>
      <path class="cls-3" d="m27.22,85.63c-.04-1.68.89-2.45,2.14-2.9,1.29-.46,2.65-.6,3.66.51.36.39.44,1.23.31,1.78-.07.29-.88.55-1.36.57-1.55.07-3.1.03-4.75.03Zm.72-.81h4.75c.09-.11.19-.22.28-.32-.42-.42-.77-1.08-1.26-1.21-1.38-.36-2.63,0-3.76,1.53Z"/>
      <path class="cls-3" d="m39.09,95.6c.3,2.28.68,4.07,3.04,4.25,2.58.21,3.7-1.25,3.93-3.98.82,1.66.39,3.12-.83,4.05-1.42,1.08-4,1.05-5.4-.07-1.19-.95-1.61-2.59-.74-4.25Z"/>
      <path class="cls-3" d="m58.31,85.23c-1.84,0-3.55.05-5.25-.04-.38-.02-1.07-.59-1.04-.81.11-.68.33-1.56.82-1.92,1.91-1.4,5.01.1,5.46,2.77Zm-.73-.83c-1.11-1.41-2.26-1.93-3.63-1.6-.56.13-.99.78-1.48,1.2l.27.4h4.84Z"/>
    </g>
  </g>
  <g>
    <rect class="cls-5" x="52.5" y="41.5" width="95" height="117" rx="15.5" ry="15.5"/>
    <path class="cls-3" d="m132,42c8.27,0,15,6.73,15,15v86c0,8.27-6.73,15-15,15h-64c-8.27,0-15-6.73-15-15V57c0-8.27,6.73-15,15-15h64m0-1h-64c-8.84,0-16,7.16-16,16v86c0,8.84,7.16,16,16,16h64c8.84,0,16-7.16,16-16V57c0-8.84-7.16-16-16-16h0Z"/>
  </g>
  <g>
    <path class="cls-4" d="m100,53.86c-4.04,0-10.25,1.8-10.99,3.8s-.55,4.72,0,6.59c8.84-2.72,15.39-3.29,20.55-.71.65-1.29.65-5.81-1.29-7.1s-6.22-2.58-8.27-2.58Z"/>
    <path class="cls-2" d="m95.36,62.26c-7.25,2.06-19.94,8.13-20.93,26.32s-.3,21.4,0,26.25,14.72,8.85,25.58,8.79c10.85-.07,22.81-3.91,23.61-7.8.8-3.88.49-15.18.97-17.92s.82-10.64,0-14.75-5.33-13.44-9.52-16.2-10.67-7.25-19.69-4.68Z"/>
    <g>
      <path class="cls-3" d="m136.15,117.39c-1.36,2.98-2.55,5.47-3.62,8.01-.6,1.44-1.42,1.43-2.58.76-4.07-2.33-4.49-8.28-.61-10.88,1.44-.97,3.23-1.49,4.93-1.96.96-.27,1.33-.63,1.39-1.58.21-3.33-1.01-5.86-3.97-7.49-2.11-1.17-4.38-1.67-6.9-1.72,0,.99,0,1.83,0,2.68,0,2.77-.06,5.55-.01,8.32.04,2.43-1.23,4-3.16,5.2-4.17,2.59-8.85,3.58-13.59,4.39-1.81.31-3.64.52-5.53.78-.24,1.56-.52,2.95,1.4,3.76.62.26,1.45,1.31,1.34,1.82-.33,1.58.81,2.25,1.5,3.21,3.56,4.97,1.62,10.98-4.23,12.72-2.02.6-4.19.92-6.3.99-4.16.14-7.68-2.85-8.4-6.83-.76-4.17,1.53-7.91,5.25-9.77,2.74-1.37,4.4-2.85,3.52-5.41-5.13-1.11-10.1-2.1-15.02-3.28-1.72-.42-3.34-1.27-4.97-2.01-2.06-.93-2.98-2.56-2.94-4.84.07-4.16.02-8.33.03-12.5,0-.56,0-1.13,0-1.71-6.88.66-10.43,4.84-8.98,10.09,1.85.67,3.68,1.1,5.27,1.97,4.44,2.41,4.62,8.35.44,11.22-1.46,1-2.24.82-2.97-.76-1.12-2.44-2.2-4.9-3.46-7.74-.25,3.09-.43,5.77-.7,8.45-.18,1.79-.82,2.05-2.37,1.11-2.09-1.26-3.27-4-2.46-6.87.51-1.83,1.69-3.48,2.53-5.22.27-.56.53-1.19.56-1.8.08-1.79-.07-3.59.07-5.37.39-4.98,3.69-7.45,7.99-8.98,1.19-.42,2.41-.77,3.7-1.18-.31-5.5.77-10.72,2.82-15.75,2.36-5.8,5.82-10.75,11.11-14.31.46-.31.78-1.08.84-1.66.13-1.26.08-2.54.02-3.81-.07-1.63.62-2.84,2.03-3.54,6.28-3.13,12.57-3,18.83.07,1.26.62,1.7,1.73,1.5,3.04-.44,2.8.59,4.42,3.12,6.02,6.26,3.94,9.26,10.31,11.05,17.24,1.26,4.9,1.88,9.88.43,15.02.46.14.92.31,1.4.43.95.26,1.92.44,2.85.74,7.37,2.36,9.58,5.47,9.23,13.16-.08,1.67.1,3,1.3,4.38,1.76,2.04,2.35,4.61,1.86,7.33-.33,1.82-1.35,3.15-3.01,4-1.13.58-1.75.29-1.86-1-.15-1.9-.31-3.8-.46-5.71-.07-.91-.1-1.82-.18-3.22Zm.5-2.79c.17,2.29.32,4.58.51,6.86.14,1.73.33,3.45.52,5.34.54-.25.76-.32.94-.44,2.12-1.37,2.65-3.41,2.26-5.74-.43-2.58-1.49-4.82-3.97-6.1-.07-.03-.21.08-.31.12-.35-.22-.72-.65-1.06-.63-2.89.11-5.47,1.04-7.23,3.44-2.04,2.78-.33,7.28,3.3,8.29,1.34-3.26,2.67-6.56,4.06-9.83.21-.49.65-.87.99-1.31Zm-37.23-11.89c7.1-.21,14.28-1.16,21.19-3.77,2.61-.99,3.81-2.72,3.93-5.47.33-7.37-1.35-14.23-5.13-20.55-7.87-13.15-23.83-12.73-32.37-6.27-8.49,6.43-11.84,15.5-12.59,25.79-.21,2.83.88,4.63,3.53,5.83,6.76,3.06,13.84,4.39,21.43,4.46Zm-1.24,1.23c-8.18-.31-15.92-1.82-23.26-5.9,0,5.36.14,10.39-.05,15.41-.1,2.72,1.01,4.37,3.41,5.1,4.24,1.29,8.51,2.49,12.83,3.49,2.26.52,4.65.54,7.08.8v-18.89Zm25.36-4.99c-6.57,3.2-13.25,4.09-19.97,4.88v18.64c1.27-.15,2.41-.25,3.53-.42,4.7-.72,9.32-1.73,13.5-4.15,1.93-1.11,3.11-2.62,3-5.03-.13-2.94-.06-5.9-.07-8.84,0-1.6,0-3.19,0-5.07Zm-29.85,31.72c-3.62,1.19-5.73,4.74-5.12,8.58.57,3.56,3.88,6.39,7.55,6.43,3.85.04,7.06-2.76,7.78-6.57.62-3.3-1.78-7.57-4.66-8.1-.86,1.73-2.06,3.44-1.27,5.56.43,1.16.58,2.27-.41,2.98-.64.46-1.74.63-2.53.44-1.27-.31-1.38-1.5-1.35-2.67.05-2.18.01-4.36.01-6.64Zm15.57-68.15c0-.93,0-1.65,0-2.38-.03-2.77-.22-3.05-2.83-4.01-4.32-1.58-8.69-1.74-13.09-.33-4.14,1.32-5.16,3.42-3.7,7.75,6.3-2.89,12.78-3.14,19.62-1.03Zm-40.78,60.62c2.97-1.04,4.66-4.17,3.94-6.87-.8-2.99-5.12-5.36-8.79-4.7,1.63,3.89,3.24,7.74,4.84,11.58Zm30.84-.39c1.16-.08,2.1-.14,3.02-.2v-18.75c-1.1.07-2.05.13-3.02.19v18.75Zm-1.57,1.25c-.05.49-.11.78-.1,1.06.07,1.51.15,2.95-1.63,3.74-.5.23-.96,1.11-1,1.72-.18,2.58-.2,5.17-.24,7.76,0,.23.29.65.42.65.29-.02.72-.19.82-.42.24-.57.34-1.21.48-1.82.35-1.51.54-3.07,1.07-4.52.87-2.4,2.29-3.2,4.82-3.04.54.04,1.07.13,1.61.2-2.12-1.19-3.11-2.92-2.6-5.33h-3.65Zm-35.26.1c.25-4.23.48-8.18.74-12.57-3.09,2.4-4.42,5.09-4.14,8.42.15,1.85,1.07,3.36,3.4,4.15Z"/>
      <path class="cls-3" d="m117.57,90.32c-.03,1.28-1.05,2.3-2.31,2.3-1.36,0-2.39-1.08-2.32-2.46.06-1.29,1.13-2.28,2.4-2.23,1.27.05,2.27,1.11,2.24,2.39Z"/>
      <path class="cls-3" d="m86.06,92.49c-1.26,0-2.3-1.04-2.31-2.31-.01-1.29.97-2.31,2.25-2.35,1.32-.04,2.44,1.07,2.41,2.39-.03,1.26-1.08,2.28-2.35,2.27Z"/>
      <path class="cls-3" d="m83.1,83.58c-.05-1.92,1.02-2.8,2.45-3.31,1.47-.53,3.03-.68,4.19.59.41.45.51,1.41.35,2.04-.08.34-1,.63-1.55.66-1.77.08-3.55.03-5.43.03Zm.82-.92h5.43c.11-.12.21-.25.32-.37-.48-.48-.88-1.23-1.45-1.38-1.58-.41-3,0-4.3,1.75Z"/>
      <path class="cls-3" d="m96.68,94.97c.34,2.61.78,4.65,3.47,4.86,2.95.23,4.23-1.43,4.49-4.55.94,1.9.45,3.56-.95,4.63-1.62,1.24-4.58,1.2-6.17-.08-1.35-1.09-1.83-2.96-.84-4.86Z"/>
      <path class="cls-3" d="m118.64,83.12c-2.1,0-4.05.06-6-.04-.43-.02-1.23-.67-1.19-.92.13-.78.37-1.78.94-2.19,2.18-1.6,5.72.11,6.24,3.16Zm-.83-.95c-1.27-1.62-2.59-2.2-4.14-1.83-.64.15-1.14.9-1.7,1.37l.31.46h5.53Z"/>
    </g>
  </g>
</svg>