<?xml version="1.0" encoding="UTF-8"?>
<svg id="Layer_1" data-name="Layer 1" xmlns="http://www.w3.org/2000/svg" xmlns:xlink="http://www.w3.org/1999/xlink" viewBox="0 0 750 200">
  <defs>
    <style>
      .cls-1 {
        fill: url(#linear-gradient);
      }

      .cls-1, .cls-2, .cls-3, .cls-4, .cls-5, .cls-6, .cls-7, .cls-8 {
        stroke-width: 0px;
      }

      .cls-2 {
        fill: url(#linear-gradient-6);
      }

      .cls-4 {
        fill: url(#linear-gradient-5);
      }

      .cls-5 {
        fill: #fff;
      }

      .cls-6 {
        fill: url(#linear-gradient-2);
      }

      .cls-7 {
        fill: url(#linear-gradient-3);
      }

      .cls-8 {
        fill: url(#linear-gradient-4);
      }
    </style>
    <linearGradient id="linear-gradient" x1="103.28" y1="19.37" x2="144.17" y2="19.37" gradientUnits="userSpaceOnUse">
      <stop offset="0" stop-color="#9fd348"/>
      <stop offset=".98" stop-color="#ffad1f"/>
    </linearGradient>
    <linearGradient id="linear-gradient-2" x1="75.38" y1="83.3" x2="173.02" y2="83.3" gradientUnits="userSpaceOnUse">
      <stop offset="0" stop-color="#b8d38b"/>
      <stop offset=".99" stop-color="#ffd791"/>
    </linearGradient>
    <linearGradient id="linear-gradient-3" x1="356.28" y1="19.37" x2="397.17" y2="19.37" gradientUnits="userSpaceOnUse">
      <stop offset="0" stop-color="#0dd3c8"/>
      <stop offset=".99" stop-color="#089bff"/>
    </linearGradient>
    <linearGradient id="linear-gradient-4" x1="328.38" y1="83.3" x2="426.02" y2="83.3" gradientUnits="userSpaceOnUse">
      <stop offset="0" stop-color="#58d3cc"/>
      <stop offset="1" stop-color="#abddff"/>
    </linearGradient>
    <linearGradient id="linear-gradient-5" x1="603.28" y1="19.37" x2="644.17" y2="19.37" gradientUnits="userSpaceOnUse">
      <stop offset="0" stop-color="#c950d3"/>
      <stop offset="1" stop-color="#ff2bd5"/>
    </linearGradient>
    <linearGradient id="linear-gradient-6" x1="575.38" y1="83.3" x2="673.02" y2="83.3" gradientUnits="userSpaceOnUse">
      <stop offset="0" stop-color="#d0abd3"/>
      <stop offset="1" stop-color="#ff80aa"/>
    </linearGradient>
  </defs>
  <g>
    <rect class="cls-5" x=".5" y="56.5" width="749" height="143" rx="23.5" ry="23.5"/>
    <path class="cls-3" d="m726,57c12.68,0,23,10.32,23,23v96c0,12.68-10.32,23-23,23H24c-12.68,0-23-10.32-23-23v-96c0-12.68,10.32-23,23-23h702m0-1H24c-13.25,0-24,10.75-24,24v96c0,13.25,10.75,24,24,24h702c13.25,0,24-10.75,24-24v-96c0-13.25-10.75-24-24-24h0Z"/>
  </g>
  <path class="cls-1" d="m125.18,9.45c-7.7,0-19.55,3.43-20.97,7.26s-1.05,9.01,0,12.58c16.88-5.19,29.37-6.29,39.22-1.36,1.23-2.46,1.23-11.08-2.46-13.55s-11.88-4.93-15.79-4.93Z"/>
  <path class="cls-6" d="m116.31,25.48c-13.83,3.94-38.06,15.52-39.95,50.23-1.89,34.71-.57,40.85,0,50.09s28.1,16.9,48.81,16.77c20.72-.13,43.54-7.47,45.06-14.88s.94-28.97,1.85-34.2,1.56-20.3,0-28.16-10.17-25.65-18.18-30.91-20.37-13.84-37.59-8.94Z"/>
  <g>
    <path class="cls-3" d="m194.17,130.72c-2.59,5.69-4.88,10.43-6.91,15.28-1.15,2.74-2.71,2.73-4.92,1.46-7.77-4.46-8.57-15.8-1.17-20.77,2.75-1.84,6.16-2.83,9.41-3.75,1.83-.51,2.54-1.2,2.65-3.02.4-6.35-1.94-11.19-7.58-14.3-4.03-2.23-8.36-3.18-13.18-3.28,0,1.88,0,3.5,0,5.12-.02,5.29-.11,10.59-.03,15.88.07,4.64-2.35,7.64-6.03,9.93-7.95,4.94-16.9,6.84-25.95,8.37-3.46.59-6.95.99-10.55,1.5-.46,2.97-.98,5.63,2.67,7.17,1.19.5,2.76,2.49,2.56,3.47-.63,3.01,1.55,4.29,2.86,6.13,6.79,9.49,3.1,20.95-8.08,24.28-3.86,1.15-7.99,1.76-12.02,1.89-7.93.27-14.66-5.44-16.04-13.04-1.44-7.95,2.91-15.09,10.02-18.65,5.23-2.62,8.4-5.43,6.71-10.32-9.8-2.11-19.27-4-28.66-6.27-3.28-.79-6.38-2.43-9.49-3.84-3.94-1.77-5.69-4.88-5.62-9.25.13-7.95.05-15.9.05-23.85,0-1.08,0-2.15,0-3.26-13.13,1.26-19.9,9.24-17.13,19.25,3.53,1.28,7.02,2.1,10.06,3.75,8.48,4.6,8.83,15.93.85,21.41-2.78,1.91-4.28,1.57-5.66-1.45-2.14-4.66-4.2-9.36-6.61-14.77-.48,5.9-.82,11.02-1.33,16.12-.34,3.41-1.56,3.92-4.52,2.12-4-2.41-6.23-7.64-4.7-13.11.98-3.5,3.23-6.63,4.83-9.97.51-1.08,1.01-2.27,1.07-3.44.15-3.41-.13-6.85.14-10.25.74-9.5,7.05-14.22,15.25-17.15,2.27-.81,4.59-1.47,7.07-2.25-.59-10.49,1.47-20.46,5.38-30.06,4.51-11.07,11.11-20.53,21.2-27.3.87-.59,1.49-2.06,1.6-3.18.24-2.41.16-4.86.05-7.28-.14-3.12,1.19-5.42,3.87-6.76,11.98-5.98,23.98-5.72,35.93.14,2.4,1.18,3.25,3.31,2.86,5.81-.84,5.35,1.12,8.44,5.95,11.48,11.95,7.53,17.68,19.67,21.09,32.91,2.41,9.35,3.59,18.85.82,28.66.87.27,1.76.58,2.66.83,1.81.49,3.66.85,5.44,1.42,14.06,4.51,18.29,10.44,17.62,25.13-.15,3.2.2,5.73,2.47,8.37,3.35,3.89,4.49,8.8,3.54,13.98-.64,3.46-2.58,6.02-5.75,7.64-2.16,1.11-3.35.56-3.55-1.91-.29-3.63-.6-7.26-.87-10.89-.13-1.73-.19-3.47-.34-6.15Zm.95-5.33c.32,4.37.61,8.73.97,13.09.27,3.3.64,6.59.99,10.2,1.03-.47,1.44-.61,1.8-.84,4.04-2.62,5.06-6.52,4.32-10.95-.83-4.92-2.84-9.2-7.57-11.63-.13-.06-.39.14-.59.22-.68-.42-1.37-1.23-2.03-1.21-5.52.2-10.44,1.98-13.8,6.56-3.89,5.3-.63,13.89,6.29,15.83,2.56-6.22,5.11-12.51,7.75-18.77.39-.93,1.23-1.66,1.89-2.5Zm-71.07-22.69c13.56-.39,27.26-2.22,40.44-7.2,4.98-1.88,7.27-5.19,7.5-10.45.62-14.07-2.57-27.16-9.79-39.23-15.02-25.1-45.49-24.3-61.78-11.96-16.21,12.28-22.6,29.58-24.02,49.22-.39,5.41,1.68,8.83,6.74,11.12,12.91,5.84,26.42,8.37,40.9,8.5Zm-2.37,2.34c-15.61-.6-30.39-3.47-44.4-11.27,0,10.23.26,19.83-.1,29.42-.2,5.19,1.94,8.35,6.51,9.73,8.09,2.46,16.25,4.75,24.49,6.66,4.32,1,8.87,1.03,13.5,1.52v-36.06Zm48.4-9.52c-12.54,6.11-25.3,7.81-38.11,9.31v35.57c2.42-.28,4.59-.47,6.75-.8,8.97-1.37,17.78-3.31,25.76-7.91,3.68-2.13,5.94-5,5.73-9.61-.25-5.62-.11-11.25-.13-16.88-.01-3.04,0-6.09,0-9.68Zm-56.97,60.53c-6.91,2.26-10.93,9.05-9.77,16.37,1.08,6.8,7.41,12.2,14.41,12.27,7.34.08,13.47-5.27,14.84-12.54,1.19-6.3-3.39-14.45-8.9-15.46-1.65,3.3-3.93,6.56-2.43,10.61.82,2.21,1.11,4.33-.78,5.69-1.22.87-3.33,1.2-4.82.84-2.43-.58-2.63-2.85-2.58-5.1.09-4.16.03-8.33.03-12.67Zm29.72-130.07c0-1.77.01-3.15,0-4.54-.05-5.29-.41-5.82-5.4-7.64-8.25-3.02-16.58-3.32-24.98-.64-7.9,2.52-9.84,6.52-7.06,14.78,12.02-5.51,24.39-5.98,37.44-1.96Zm-77.82,115.7c5.67-1.98,8.9-7.97,7.52-13.12-1.52-5.71-9.77-10.23-16.77-8.98,3.1,7.42,6.18,14.77,9.25,22.1Zm58.86-.75c2.21-.15,4.01-.27,5.76-.39v-35.78c-2.1.14-3.91.25-5.76.37v35.79Zm-2.99,2.39c-.09.94-.21,1.48-.19,2.02.13,2.88.29,5.62-3.1,7.14-.96.43-1.83,2.12-1.91,3.29-.34,4.93-.38,9.87-.46,14.81,0,.43.55,1.25.8,1.23.55-.03,1.38-.36,1.56-.79.46-1.09.65-2.31.92-3.48.67-2.88,1.04-5.87,2.04-8.62,1.66-4.58,4.36-6.12,9.19-5.8,1.03.07,2.05.25,3.07.38-4.05-2.27-5.93-5.57-4.95-10.17h-6.96Zm-67.3.19c.47-8.07.92-15.61,1.41-23.99-5.89,4.57-8.43,9.71-7.9,16.07.29,3.52,2.04,6.41,6.49,7.92Z"/>
    <path class="cls-3" d="m158.7,79.04c-.05,2.44-2.01,4.39-4.42,4.38-2.6,0-4.55-2.07-4.43-4.69.12-2.46,2.15-4.35,4.57-4.26,2.42.09,4.32,2.13,4.27,4.56Z"/>
    <path class="cls-3" d="m98.56,83.18c-2.41,0-4.38-1.98-4.4-4.4-.02-2.46,1.85-4.41,4.29-4.49,2.52-.08,4.66,2.05,4.59,4.56-.06,2.41-2.06,4.34-4.49,4.33Z"/>
    <path class="cls-3" d="m92.93,66.18c-.1-3.66,1.94-5.34,4.67-6.32,2.81-1.01,5.78-1.3,7.99,1.12.78.85.97,2.69.67,3.89-.16.64-1.91,1.2-2.97,1.25-3.38.16-6.77.06-10.36.06Zm1.57-1.76h10.35c.2-.24.41-.47.61-.71-.91-.91-1.68-2.35-2.76-2.63-3.01-.79-5.73-.02-8.21,3.34Z"/>
    <path class="cls-3" d="m118.83,87.92c.66,4.98,1.48,8.87,6.63,9.28,5.63.45,8.08-2.73,8.57-8.69,1.79,3.62.86,6.8-1.82,8.84-3.09,2.36-8.74,2.29-11.77-.15-2.59-2.08-3.5-5.66-1.61-9.27Z"/>
    <path class="cls-3" d="m160.76,65.3c-4.01,0-7.74.11-11.45-.08-.83-.04-2.34-1.28-2.26-1.76.25-1.48.71-3.4,1.8-4.19,4.16-3.05,10.92.22,11.91,6.03Zm-1.59-1.8c-2.42-3.08-4.94-4.2-7.91-3.49-1.22.29-2.17,1.71-3.24,2.61l.59.87h10.55Z"/>
  </g>
  <path class="cls-7" d="m378.18,9.45c-7.7,0-19.55,3.43-20.97,7.26s-1.05,9.01,0,12.58c16.88-5.19,29.37-6.29,39.22-1.36,1.23-2.46,1.23-11.08-2.46-13.55s-11.88-4.93-15.79-4.93Z"/>
  <path class="cls-8" d="m369.31,25.48c-13.83,3.94-38.06,15.52-39.95,50.23-1.89,34.71-.57,40.85,0,50.09s28.1,16.9,48.81,16.77c20.72-.13,43.54-7.47,45.06-14.88s.94-28.97,1.85-34.2,1.56-20.3,0-28.16-10.17-25.65-18.18-30.91-20.37-13.84-37.59-8.94Z"/>
  <g>
    <path class="cls-3" d="m447.17,130.72c-2.59,5.69-4.88,10.43-6.91,15.28-1.15,2.74-2.71,2.73-4.92,1.46-7.77-4.46-8.57-15.8-1.17-20.77,2.75-1.84,6.16-2.83,9.41-3.75,1.83-.51,2.54-1.2,2.65-3.02.4-6.35-1.94-11.19-7.58-14.3-4.03-2.23-8.36-3.18-13.18-3.28,0,1.88,0,3.5,0,5.12-.02,5.29-.11,10.59-.03,15.88.07,4.64-2.35,7.64-6.03,9.93-7.95,4.94-16.9,6.84-25.95,8.37-3.46.59-6.95.99-10.55,1.5-.46,2.97-.98,5.63,2.67,7.17,1.19.5,2.76,2.49,2.56,3.47-.63,3.01,1.55,4.29,2.86,6.13,6.79,9.49,3.1,20.95-8.08,24.28-3.86,1.15-7.99,1.76-12.02,1.89-7.93.27-14.66-5.44-16.04-13.04-1.44-7.95,2.91-15.09,10.02-18.65,5.23-2.62,8.4-5.43,6.71-10.32-9.8-2.11-19.27-4-28.66-6.27-3.28-.79-6.38-2.43-9.49-3.84-3.94-1.77-5.69-4.88-5.62-9.25.13-7.95.05-15.9.05-23.85,0-1.08,0-2.15,0-3.26-13.13,1.26-19.9,9.24-17.13,19.25,3.53,1.28,7.02,2.1,10.06,3.75,8.48,4.6,8.83,15.93.85,21.41-2.78,1.91-4.28,1.57-5.66-1.45-2.14-4.66-4.2-9.36-6.61-14.77-.48,5.9-.82,11.02-1.33,16.12-.34,3.41-1.56,3.92-4.52,2.12-4-2.41-6.23-7.64-4.7-13.11.98-3.5,3.23-6.63,4.83-9.97.51-1.08,1.01-2.27,1.07-3.44.15-3.41-.13-6.85.14-10.25.74-9.5,7.05-14.22,15.25-17.15,2.27-.81,4.59-1.47,7.07-2.25-.59-10.49,1.47-20.46,5.38-30.06,4.51-11.07,11.11-20.53,21.2-27.3.87-.59,1.49-2.06,1.6-3.18.24-2.41.16-4.86.05-7.28-.14-3.12,1.19-5.42,3.87-6.76,11.98-5.98,23.98-5.72,35.93.14,2.4,1.18,3.25,3.31,2.86,5.81-.84,5.35,1.12,8.44,5.95,11.48,11.95,7.53,17.68,19.67,21.09,32.91,2.41,9.35,3.59,18.85.82,28.66.87.27,1.76.58,2.66.83,1.81.49,3.66.85,5.44,1.42,14.06,4.51,18.29,10.44,17.62,25.13-.15,3.2.2,5.73,2.47,8.37,3.35,3.89,4.49,8.8,3.54,13.98-.64,3.46-2.58,6.02-5.75,7.64-2.16,1.11-3.35.56-3.55-1.91-.29-3.63-.6-7.26-.87-10.89-.13-1.73-.19-3.47-.34-6.15Zm.95-5.33c.32,4.37.61,8.73.97,13.09.27,3.3.64,6.59.99,10.2,1.03-.47,1.44-.61,1.8-.84,4.04-2.62,5.06-6.52,4.32-10.95-.83-4.92-2.84-9.2-7.57-11.63-.13-.06-.39.14-.59.22-.68-.42-1.37-1.23-2.03-1.21-5.52.2-10.44,1.98-13.8,6.56-3.89,5.3-.63,13.89,6.29,15.83,2.56-6.22,5.11-12.51,7.75-18.77.39-.93,1.23-1.66,1.89-2.5Zm-71.07-22.69c13.56-.39,27.26-2.22,40.44-7.2,4.98-1.88,7.27-5.19,7.5-10.45.62-14.07-2.57-27.16-9.79-39.23-15.02-25.1-45.49-24.3-61.78-11.96-16.21,12.28-22.6,29.58-24.02,49.22-.39,5.41,1.68,8.83,6.74,11.12,12.91,5.84,26.42,8.37,40.9,8.5Zm-2.37,2.34c-15.61-.6-30.39-3.47-44.4-11.27,0,10.23.26,19.83-.1,29.42-.2,5.19,1.94,8.35,6.51,9.73,8.09,2.46,16.25,4.75,24.49,6.66,4.32,1,8.87,1.03,13.5,1.52v-36.06Zm48.4-9.52c-12.54,6.11-25.3,7.81-38.11,9.31v35.57c2.42-.28,4.59-.47,6.75-.8,8.97-1.37,17.78-3.31,25.76-7.91,3.68-2.13,5.94-5,5.73-9.61-.25-5.62-.11-11.25-.13-16.88-.01-3.04,0-6.09,0-9.68Zm-56.97,60.53c-6.91,2.26-10.93,9.05-9.77,16.37,1.08,6.8,7.41,12.2,14.41,12.27,7.34.08,13.47-5.27,14.84-12.54,1.19-6.3-3.39-14.45-8.9-15.46-1.65,3.3-3.93,6.56-2.43,10.61.82,2.21,1.11,4.33-.78,5.69-1.22.87-3.33,1.2-4.82.84-2.43-.58-2.63-2.85-2.58-5.1.09-4.16.03-8.33.03-12.67Zm29.72-130.07c0-1.77.01-3.15,0-4.54-.05-5.29-.41-5.82-5.4-7.64-8.25-3.02-16.58-3.32-24.98-.64-7.9,2.52-9.84,6.52-7.06,14.78,12.02-5.51,24.39-5.98,37.44-1.96Zm-77.82,115.7c5.67-1.98,8.9-7.97,7.52-13.12-1.52-5.71-9.77-10.23-16.77-8.98,3.1,7.42,6.18,14.77,9.25,22.1Zm58.86-.75c2.21-.15,4.01-.27,5.76-.39v-35.78c-2.1.14-3.91.25-5.76.37v35.79Zm-2.99,2.39c-.09.94-.21,1.48-.19,2.02.13,2.88.29,5.62-3.1,7.14-.96.43-1.83,2.12-1.91,3.29-.34,4.93-.38,9.87-.46,14.81,0,.43.55,1.25.8,1.23.55-.03,1.38-.36,1.56-.79.46-1.09.65-2.31.92-3.48.67-2.88,1.04-5.87,2.04-8.62,1.66-4.58,4.36-6.12,9.19-5.8,1.03.07,2.05.25,3.07.38-4.05-2.27-5.93-5.57-4.95-10.17h-6.96Zm-67.3.19c.47-8.07.92-15.61,1.41-23.99-5.89,4.57-8.43,9.71-7.9,16.07.29,3.52,2.04,6.41,6.49,7.92Z"/>
    <path class="cls-3" d="m411.7,75.04c-.05,2.44-2.01,4.39-4.42,4.38-2.6,0-4.55-2.07-4.43-4.69.12-2.46,2.15-4.35,4.57-4.26,2.42.09,4.32,2.13,4.27,4.56Z"/>
    <path class="cls-3" d="m351.56,79.18c-2.41,0-4.38-1.98-4.4-4.4-.02-2.46,1.85-4.41,4.29-4.49,2.52-.08,4.66,2.05,4.59,4.56-.06,2.41-2.06,4.34-4.49,4.33Z"/>
    <path class="cls-3" d="m345.93,66.18c-.1-3.66,1.94-5.34,4.67-6.32,2.81-1.01,5.78-1.3,7.99,1.12.78.85.97,2.69.67,3.89-.16.64-1.91,1.2-2.97,1.25-3.38.16-6.77.06-10.36.06Zm1.57-1.76h10.35c.2-.24.41-.47.61-.71-.91-.91-1.68-2.35-2.76-2.63-3.01-.79-5.73-.02-8.21,3.34Z"/>
    <path class="cls-3" d="m366.49,87.92c1.12,2.71,2.53,4.84,11.31,5.06,9.61.24,13.79-1.49,14.62-4.74,3.06,1.97,1.46,3.71-3.1,4.82-5.28,1.29-14.91,1.25-20.08-.08-4.41-1.13-5.98-3.09-2.75-5.06Z"/>
    <path class="cls-3" d="m413.76,65.3c-4.01,0-7.74.11-11.45-.08-.83-.04-2.34-1.28-2.26-1.76.25-1.48.71-3.4,1.8-4.19,4.16-3.05,10.92.22,11.91,6.03Zm-1.59-1.8c-2.42-3.08-4.94-4.2-7.91-3.49-1.22.29-2.17,1.71-3.24,2.61l.59.87h10.55Z"/>
  </g>
  <path class="cls-4" d="m625.18,9.45c-7.7,0-19.55,3.43-20.97,7.26s-1.05,9.01,0,12.58c16.88-5.19,29.37-6.29,39.22-1.36,1.23-2.46,1.23-11.08-2.46-13.55s-11.88-4.93-15.79-4.93Z"/>
  <path class="cls-2" d="m616.31,25.48c-13.83,3.94-38.06,15.52-39.95,50.23-1.89,34.71-.57,40.85,0,50.09s28.1,16.9,48.81,16.77c20.72-.13,43.54-7.47,45.06-14.88s.94-28.97,1.85-34.2,1.56-20.3,0-28.16-10.17-25.65-18.18-30.91-20.37-13.84-37.59-8.94Z"/>
  <g>
    <path class="cls-3" d="m694.17,130.72c-2.59,5.69-4.88,10.43-6.91,15.28-1.15,2.74-2.71,2.73-4.92,1.46-7.77-4.46-8.57-15.8-1.17-20.77,2.75-1.84,6.16-2.83,9.41-3.75,1.83-.51,2.54-1.2,2.65-3.02.4-6.35-1.94-11.19-7.58-14.3-4.03-2.23-8.36-3.18-13.18-3.28,0,1.88,0,3.5,0,5.12-.02,5.29-.11,10.59-.03,15.88.07,4.64-2.35,7.64-6.03,9.93-7.95,4.94-16.9,6.84-25.95,8.37-3.46.59-6.95.99-10.55,1.5-.46,2.97-.98,5.63,2.67,7.17,1.19.5,2.76,2.49,2.56,3.47-.63,3.01,1.55,4.29,2.86,6.13,6.79,9.49,3.1,20.95-8.08,24.28-3.86,1.15-7.99,1.76-12.02,1.89-7.93.27-14.66-5.44-16.04-13.04-1.44-7.95,2.91-15.09,10.02-18.65,5.23-2.62,8.4-5.43,6.71-10.32-9.8-2.11-19.27-4-28.66-6.27-3.28-.79-6.38-2.43-9.49-3.84-3.94-1.77-5.69-4.88-5.62-9.25.13-7.95.05-15.9.05-23.85,0-1.08,0-2.15,0-3.26-13.13,1.26-19.9,9.24-17.13,19.25,3.53,1.28,7.02,2.1,10.06,3.75,8.48,4.6,8.83,15.93.85,21.41-2.78,1.91-4.28,1.57-5.66-1.45-2.14-4.66-4.2-9.36-6.61-14.77-.48,5.9-.82,11.02-1.33,16.12-.34,3.41-1.56,3.92-4.52,2.12-4-2.41-6.23-7.64-4.7-13.11.98-3.5,3.23-6.63,4.83-9.97.51-1.08,1.01-2.27,1.07-3.44.15-3.41-.13-6.85.14-10.25.74-9.5,7.05-14.22,15.25-17.15,2.27-.81,4.59-1.47,7.07-2.25-.59-10.49,1.47-20.46,5.38-30.06,4.51-11.07,11.11-20.53,21.2-27.3.87-.59,1.49-2.06,1.6-3.18.24-2.41.16-4.86.05-7.28-.14-3.12,1.19-5.42,3.87-6.76,11.98-5.98,23.98-5.72,35.93.14,2.4,1.18,3.25,3.31,2.86,5.81-.84,5.35,1.12,8.44,5.95,11.48,11.95,7.53,17.68,19.67,21.09,32.91,2.41,9.35,3.59,18.85.82,28.66.87.27,1.76.58,2.66.83,1.81.49,3.66.85,5.44,1.42,14.06,4.51,18.29,10.44,17.62,25.13-.15,3.2.2,5.73,2.47,8.37,3.35,3.89,4.49,8.8,3.54,13.98-.64,3.46-2.58,6.02-5.75,7.64-2.16,1.11-3.35.56-3.55-1.91-.29-3.63-.6-7.26-.87-10.89-.13-1.73-.19-3.47-.34-6.15Zm.95-5.33c.32,4.37.61,8.73.97,13.09.27,3.3.64,6.59.99,10.2,1.03-.47,1.44-.61,1.8-.84,4.04-2.62,5.06-6.52,4.32-10.95-.83-4.92-2.84-9.2-7.57-11.63-.13-.06-.39.14-.59.22-.68-.42-1.37-1.23-2.03-1.21-5.52.2-10.44,1.98-13.8,6.56-3.89,5.3-.63,13.89,6.29,15.83,2.56-6.22,5.11-12.51,7.75-18.77.39-.93,1.23-1.66,1.89-2.5Zm-71.07-22.69c13.56-.39,27.26-2.22,40.44-7.2,4.98-1.88,7.27-5.19,7.5-10.45.62-14.07-2.57-27.16-9.79-39.23-15.02-25.1-45.49-24.3-61.78-11.96-16.21,12.28-22.6,29.58-24.02,49.22-.39,5.41,1.68,8.83,6.74,11.12,12.91,5.84,26.42,8.37,40.9,8.5Zm-2.37,2.34c-15.61-.6-30.39-3.47-44.4-11.27,0,10.23.26,19.83-.1,29.42-.2,5.19,1.94,8.35,6.51,9.73,8.09,2.46,16.25,4.75,24.49,6.66,4.32,1,8.87,1.03,13.5,1.52v-36.06Zm48.4-9.52c-12.54,6.11-25.3,7.81-38.11,9.31v35.57c2.42-.28,4.59-.47,6.75-.8,8.97-1.37,17.78-3.31,25.76-7.91,3.68-2.13,5.94-5,5.73-9.61-.25-5.62-.11-11.25-.13-16.88-.01-3.04,0-6.09,0-9.68Zm-56.97,60.53c-6.91,2.26-10.93,9.05-9.77,16.37,1.08,6.8,7.41,12.2,14.41,12.27,7.34.08,13.47-5.27,14.84-12.54,1.19-6.3-3.39-14.45-8.9-15.46-1.65,3.3-3.93,6.56-2.43,10.61.82,2.21,1.11,4.33-.78,5.69-1.22.87-3.33,1.2-4.82.84-2.43-.58-2.63-2.85-2.58-5.1.09-4.16.03-8.33.03-12.67Zm29.72-130.07c0-1.77.01-3.15,0-4.54-.05-5.29-.41-5.82-5.4-7.64-8.25-3.02-16.58-3.32-24.98-.64-7.9,2.52-9.84,6.52-7.06,14.78,12.02-5.51,24.39-5.98,37.44-1.96Zm-77.82,115.7c5.67-1.98,8.9-7.97,7.52-13.12-1.52-5.71-9.77-10.23-16.77-8.98,3.1,7.42,6.18,14.77,9.25,22.1Zm58.86-.75c2.21-.15,4.01-.27,5.76-.39v-35.78c-2.1.14-3.91.25-5.76.37v35.79Zm-2.99,2.39c-.09.94-.21,1.48-.19,2.02.13,2.88.29,5.62-3.1,7.14-.96.43-1.83,2.12-1.91,3.29-.34,4.93-.38,9.87-.46,14.81,0,.43.55,1.25.8,1.23.55-.03,1.38-.36,1.56-.79.46-1.09.65-2.31.92-3.48.67-2.88,1.04-5.87,2.04-8.62,1.66-4.58,4.36-6.12,9.19-5.8,1.03.07,2.05.25,3.07.38-4.05-2.27-5.93-5.57-4.95-10.17h-6.96Zm-67.3.19c.47-8.07.92-15.61,1.41-23.99-5.89,4.57-8.43,9.71-7.9,16.07.29,3.52,2.04,6.41,6.49,7.92Z"/>
    <path class="cls-3" d="m658.7,79.04c-.05,2.44-2.01,4.39-4.42,4.38-2.6,0-4.55-2.07-4.43-4.69.12-2.46,2.15-4.35,4.57-4.26,2.42.09,4.32,2.13,4.27,4.56Z"/>
    <path class="cls-3" d="m598.56,83.18c-2.41,0-4.38-1.98-4.4-4.4-.02-2.46,1.85-4.41,4.29-4.49,2.52-.08,4.66,2.05,4.59,4.56-.06,2.41-2.06,4.34-4.49,4.33Z"/>
    <path class="cls-3" d="m592.93,66.18c-.1-3.66,1.94-5.34,4.67-6.32,2.81-1.01,5.78-1.3,7.99,1.12.78.85.97,2.69.67,3.89-.16.64-1.91,1.2-2.97,1.25-3.38.16-6.77.06-10.36.06Zm1.57-1.76h10.35c.2-.24.41-.47.61-.71-.91-.91-1.68-2.35-2.76-2.63-3.01-.79-5.73-.02-8.21,3.34Z"/>
    <path class="cls-3" d="m618.83,87.92c.66,4.98,1.48,8.87,6.63,9.28,5.63.45,8.08-2.73,8.57-8.69,1.79,3.62.86,6.8-1.82,8.84-3.09,2.36-8.74,2.29-11.77-.15-2.59-2.08-3.5-5.66-1.61-9.27Z"/>
    <path class="cls-3" d="m660.76,65.3c-4.01,0-7.74.11-11.45-.08-.83-.04-2.34-1.28-2.26-1.76.25-1.48.71-3.4,1.8-4.19,4.16-3.05,10.92.22,11.91,6.03Zm-1.59-1.8c-2.42-3.08-4.94-4.2-7.91-3.49-1.22.29-2.17,1.71-3.24,2.61l.59.87h10.55Z"/>
  </g>
</svg>